<svg width="682" height="216" viewBox="0 0 682 216" fill="none" xmlns="http://www.w3.org/2000/svg">
<path opacity="0.5" d="M192.516 -42.0835L404.103 169.504L569.807 3.80079" stroke="#FF6FC8" stroke-width="3.18958"/>
<path opacity="0.5" d="M161.566 101.209L353.756 -90.981L415.266 -29.4715" stroke="#FF6FC8" stroke-width="3.18958"/>
<path opacity="0.5" d="M254 192L157 95" stroke="#FF6FC8" stroke-width="3.18958"/>
<path opacity="0.5" d="M140.258 121.046L8.6875 252.616" stroke="#FF6FC8" stroke-width="3.18958"/>
<path d="M534.521 136.805L370.049 301.277" stroke="#9A0060" stroke-width="3.18958" stroke-dasharray="3.19 3.19"/>
<path d="M562.174 44.0337L656.873 138.733" stroke="url(#paint0_linear_2738_12445)" stroke-width="3.18958" stroke-dasharray="3.19 3.19"/>
<path d="M151.345 84.6422L2 -64.7026" stroke="#9A0060" stroke-width="3.18958" stroke-dasharray="3.19 3.19"/>
<path d="M310.594 -11.5684L447.355 125.193" stroke="#9A0060" stroke-width="2.58041" stroke-dasharray="2.58 2.58"/>
<rect opacity="0.15" x="483.758" y="161.722" width="73.0572" height="73.0572" transform="rotate(180 483.758 161.722)" fill="white"/>
<rect x="469.625" y="147.612" width="45.0961" height="45.0961" transform="rotate(180 469.625 147.612)" fill="#FF6FC8"/>
<rect opacity="0.15" x="497.883" y="75.4961" width="122.615" height="122.615" transform="rotate(-90 497.883 75.4961)" fill="white"/>
<rect x="521.564" y="51.7803" width="75.6869" height="75.6869" transform="rotate(-90 521.564 51.7803)" fill="#FF6FC8"/>
<g filter="url(#filter0_d_2738_12445)">
<rect x="264.219" y="175.407" width="26.8134" height="26.8134" transform="rotate(90 264.219 175.407)" fill="#FF6FC8"/>
</g>
<g opacity="0.56" filter="url(#filter1_d_2738_12445)">
<rect x="317.896" y="-3.89209" width="14.597" height="14.597" transform="rotate(180 317.896 -3.89209)" fill="#9A0060"/>
</g>
<rect x="541.096" y="144.749" width="14.597" height="14.597" transform="rotate(180 541.096 144.749)" fill="#E81899"/>
<rect x="666.033" y="149.129" width="18.3249" height="18.3249" transform="rotate(-180 666.033 149.129)" fill="#FF6FC8"/>
<rect opacity="0.15" x="216.527" y="153.957" width="109.923" height="109.923" transform="rotate(180 216.527 153.957)" fill="white"/>
<rect x="195.266" y="132.728" width="67.8525" height="67.8525" transform="rotate(180 195.266 132.728)" fill="#FF6FC8"/>
<path fill-rule="evenodd" clip-rule="evenodd" d="M278.073 107.264L279.215 108.406L281.471 106.151L280.329 105.009L278.073 107.264ZM281.5 110.69L283.784 112.975L286.039 110.719L283.755 108.435L281.5 110.69ZM286.068 115.259L288.352 117.543L290.608 115.288L288.323 113.004L286.068 115.259ZM290.636 119.827L292.921 122.111L295.176 119.856L292.892 117.572L290.636 119.827ZM295.205 124.396L297.489 126.68L299.744 124.425L297.46 122.14L295.205 124.396ZM299.773 128.964L302.057 131.248L304.313 128.993L302.029 126.709L299.773 128.964ZM304.342 133.533L306.626 135.817L308.881 133.561L306.597 131.277L304.342 133.533ZM308.91 138.101L311.194 140.385L313.45 138.13L311.165 135.846L308.91 138.101ZM313.478 142.669L315.763 144.954L318.018 142.698L315.734 140.414L313.478 142.669ZM318.047 147.238L320.331 149.522L322.586 147.267L320.302 144.982L318.047 147.238ZM322.615 151.806L324.899 154.09L327.155 151.835L324.871 149.551L322.615 151.806ZM327.184 156.375L329.468 158.659L331.723 156.403L329.439 154.119L327.184 156.375ZM331.752 160.943L334.036 163.227L336.292 160.972L334.007 158.688L331.752 160.943ZM336.32 165.511L338.605 167.796L340.86 165.54L338.576 163.256L336.32 165.511ZM340.889 170.08L343.173 172.364L345.428 170.109L343.144 167.824L340.889 170.08ZM345.457 174.648L347.741 176.932L349.997 174.677L347.713 172.393L345.457 174.648ZM350.026 179.217L352.31 181.501L354.565 179.245L352.281 176.961L350.026 179.217ZM354.594 183.785L356.878 186.069L359.134 183.814L356.849 181.53L354.594 183.785ZM359.163 188.353L361.447 190.638L363.702 188.382L361.418 186.098L359.163 188.353ZM363.731 192.922L366.015 195.206L368.271 192.951L365.986 190.666L363.731 192.922ZM368.299 197.49L370.584 199.774L372.839 197.519L370.555 195.235L368.299 197.49ZM372.868 202.059L375.152 204.343L377.407 202.088L375.123 199.803L372.868 202.059ZM377.436 206.627L379.72 208.911L381.976 206.656L379.692 204.372L377.436 206.627ZM382.005 211.195L384.289 213.48L386.544 211.224L384.26 208.94L382.005 211.195ZM386.573 215.764L387.715 216.906L387.717 216.904L388.844 218.032L389.97 216.906L391.098 215.778L389.97 214.651L388.828 213.509L386.573 215.764ZM384.337 218.029L382.085 220.281L384.34 222.536L386.592 220.284L384.337 218.029ZM379.832 222.533L377.58 224.785L379.836 227.041L382.088 224.789L379.832 222.533ZM375.328 227.038L373.076 229.29L375.331 231.545L377.583 229.293L375.328 227.038ZM370.824 231.542L368.571 233.794L370.827 236.05L373.079 233.797L370.824 231.542ZM366.319 236.046L364.067 238.299L366.322 240.554L368.575 238.302L366.319 236.046ZM361.815 240.551L359.563 242.803L361.818 245.058L364.07 242.806L361.815 240.551ZM357.31 245.055L355.058 247.307L357.314 249.563L359.566 247.311L357.31 245.055ZM352.806 249.56L350.554 251.812L352.809 254.067L355.061 251.815L352.806 249.56ZM348.302 254.064L346.05 256.316L348.305 258.572L350.557 256.319L348.302 254.064ZM343.797 258.568L341.545 260.821L343.8 263.076L346.053 260.824L343.797 258.568ZM339.293 263.073L337.041 265.325L339.296 267.58L341.548 265.328L339.293 263.073ZM334.789 267.577L332.536 269.829L334.792 272.085L337.044 269.833L334.789 267.577ZM330.284 272.082L328.032 274.334L330.287 276.589L332.54 274.337L330.284 272.082ZM325.78 276.586L323.528 278.838L325.783 281.093L328.035 278.841L325.78 276.586ZM321.275 281.09L319.023 283.342L321.279 285.598L323.531 283.346L321.275 281.09ZM316.771 285.595L314.519 287.847L316.774 290.102L319.026 287.85L316.771 285.595ZM312.267 290.099L311.141 291.225L313.396 293.481L314.522 292.354L312.267 290.099Z" fill="url(#paint1_linear_2738_12445)"/>
<rect x="290.957" y="119.477" width="18.3249" height="18.3249" transform="rotate(180 290.957 119.477)" fill="#E81899"/>
<defs>
<filter id="filter0_d_2738_12445" x="215.275" y="154.473" width="71.0732" height="71.0732" filterUnits="userSpaceOnUse" color-interpolation-filters="sRGB">
<feFlood flood-opacity="0" result="BackgroundImageFix"/>
<feColorMatrix in="SourceAlpha" type="matrix" values="0 0 0 0 0 0 0 0 0 0 0 0 0 0 0 0 0 0 127 0" result="hardAlpha"/>
<feOffset dy="1.19621"/>
<feGaussianBlur stdDeviation="11.0649"/>
<feColorMatrix type="matrix" values="0 0 0 0 0.511458 0 0 0 0 0.757952 0 0 0 0 0.988542 0 0 0 0.25 0"/>
<feBlend mode="normal" in2="BackgroundImageFix" result="effect1_dropShadow_2738_12445"/>
<feBlend mode="normal" in="SourceGraphic" in2="effect1_dropShadow_2738_12445" result="shape"/>
</filter>
<filter id="filter1_d_2738_12445" x="279.431" y="-41.0678" width="62.3347" height="62.3347" filterUnits="userSpaceOnUse" color-interpolation-filters="sRGB">
<feFlood flood-opacity="0" result="BackgroundImageFix"/>
<feColorMatrix in="SourceAlpha" type="matrix" values="0 0 0 0 0 0 0 0 0 0 0 0 0 0 0 0 0 0 127 0" result="hardAlpha"/>
<feOffset dy="1.2902"/>
<feGaussianBlur stdDeviation="11.9344"/>
<feColorMatrix type="matrix" values="0 0 0 0 0.511458 0 0 0 0 0.757952 0 0 0 0 0.988542 0 0 0 0.25 0"/>
<feBlend mode="normal" in2="BackgroundImageFix" result="effect1_dropShadow_2738_12445"/>
<feBlend mode="normal" in="SourceGraphic" in2="effect1_dropShadow_2738_12445" result="shape"/>
</filter>
<linearGradient id="paint0_linear_2738_12445" x1="592.854" y1="16.7933" x2="592.854" y2="86.8316" gradientUnits="userSpaceOnUse">
<stop stop-color="#FFC6E9"/>
<stop offset="1" stop-color="#FF6FC8"/>
</linearGradient>
<linearGradient id="paint1_linear_2738_12445" x1="306.921" y1="-22.9659" x2="306.921" y2="189.95" gradientUnits="userSpaceOnUse">
<stop stop-color="#FFC6E9"/>
<stop offset="1" stop-color="#FF6FC8"/>
</linearGradient>
</defs>
</svg>
