<svg width="222" height="155" viewBox="0 0 222 155" fill="none" xmlns="http://www.w3.org/2000/svg">
<path opacity="0.5" d="M39.3882 -77.3145L191.703 75.0007L310.988 -44.2838" stroke="#FF6FC8" stroke-width="2.29608"/>
<path d="M285.587 51.4614L167.189 169.86" stroke="#9A0060" stroke-width="2.29608" stroke-dasharray="2.3 2.3"/>
<path d="M124.388 -55.3477L222.838 43.1026" stroke="#9A0060" stroke-width="1.85755" stroke-dasharray="1.86 1.86"/>
<rect opacity="0.15" x="249.042" y="69.3979" width="52.5915" height="52.5915" transform="rotate(180 249.042 69.3979)" fill="white"/>
<rect x="238.869" y="59.2412" width="32.4632" height="32.4632" transform="rotate(180 238.869 59.2412)" fill="#FF6FC8"/>
<path fill-rule="evenodd" clip-rule="evenodd" d="M94.9292 24.147L95.7463 24.9641L97.3699 23.3405L96.5528 22.5234L94.9292 24.147ZM97.3805 26.5983L99.0146 28.2324L100.638 26.6089L99.004 24.9747L97.3805 26.5983ZM100.649 29.8666L102.283 31.5008L103.907 29.8772L102.272 28.243L100.649 29.8666ZM103.917 33.1349L105.551 34.7691L107.175 33.1455L105.541 31.5114L103.917 33.1349ZM107.185 36.4033L108.82 38.0375L110.443 36.4139L108.809 34.7797L107.185 36.4033ZM110.454 39.6716L112.088 41.3058L113.712 39.6822L112.077 38.0481L110.454 39.6716ZM113.722 42.94L115.356 44.5741L116.98 42.9506L115.346 41.3164L113.722 42.94ZM116.991 46.2083L118.625 47.8425L120.248 46.2189L118.614 44.5847L116.991 46.2083ZM120.259 49.4767L121.893 51.1108L123.517 49.4873L121.882 47.8531L120.259 49.4767ZM123.527 52.745L125.161 54.3792L126.785 52.7556L125.151 51.1214L123.527 52.745ZM126.796 56.0133L128.43 57.6475L130.053 56.0239L128.419 54.3898L126.796 56.0133ZM130.064 59.2817L131.698 60.9159L133.322 59.2923L131.687 57.6581L130.064 59.2817ZM133.332 62.55L134.966 64.1842L136.59 62.5606L134.956 60.9265L133.332 62.55ZM136.601 65.8184L138.235 67.4525L139.858 65.829L138.224 64.1948L136.601 65.8184ZM139.869 69.0867L141.503 70.7209L143.127 69.0973L141.493 67.4631L139.869 69.0867ZM143.137 72.3551L144.771 73.9892L146.395 72.3657L144.761 70.7315L143.137 72.3551ZM146.406 75.6234L148.04 77.2576L149.663 75.634L148.029 73.9998L146.406 75.6234ZM149.674 78.8917L151.308 80.5259L152.932 78.9023L151.298 77.2682L149.674 78.8917ZM152.942 82.1601L154.577 83.7942L156.2 82.1707L154.566 80.5365L152.942 82.1601ZM156.211 85.4284L157.845 87.0626L159.468 85.439L157.834 83.8048L156.211 85.4284ZM159.479 88.6968L161.113 90.3309L162.737 88.7073L161.103 87.0732L159.479 88.6968ZM162.747 91.9651L164.382 93.5993L166.005 91.9757L164.371 90.3415L162.747 91.9651ZM166.016 95.2334L167.65 96.8676L169.273 95.244L167.639 93.6099L166.016 95.2334ZM169.284 98.5018L170.918 100.136L172.542 98.5124L170.908 96.8782L169.284 98.5018ZM172.552 101.77L174.187 103.404L175.81 101.781L174.176 100.147L172.552 101.77ZM175.821 105.038L177.455 106.673L179.078 105.049L177.444 103.415L175.821 105.038ZM179.089 108.307L179.906 109.124L179.907 109.123L180.719 109.935L181.53 109.124L182.342 108.312L181.53 107.5L180.713 106.683L179.089 108.307ZM177.474 109.932L175.853 111.554L177.477 113.177L179.098 111.556L177.474 109.932ZM174.232 113.175L172.61 114.796L174.234 116.42L175.855 114.798L174.232 113.175ZM170.989 116.417L169.368 118.039L170.991 119.662L172.613 118.041L170.989 116.417ZM167.747 119.66L166.125 121.281L167.749 122.905L169.37 121.283L167.747 119.66ZM164.504 122.902L162.883 124.524L164.506 126.147L166.128 124.526L164.504 122.902ZM161.261 126.145L159.64 127.766L161.264 129.39L162.885 127.769L161.261 126.145ZM158.019 129.388L156.398 131.009L158.021 132.632L159.642 131.011L158.019 129.388ZM154.776 132.63L153.155 134.251L154.779 135.875L156.4 134.254L154.776 132.63ZM151.534 135.873L149.912 137.494L151.536 139.118L153.157 137.496L151.534 135.873ZM148.291 139.115L146.67 140.737L148.294 142.36L149.915 140.739L148.291 139.115ZM145.049 142.358L143.427 143.979L145.051 145.603L146.672 143.981L145.049 142.358ZM141.806 145.6L140.185 147.222L141.808 148.845L143.43 147.224L141.806 145.6ZM138.564 148.843L136.942 150.464L138.566 152.088L140.187 150.467L138.564 148.843ZM135.321 152.086L133.7 153.707L135.323 155.33L136.945 153.709L135.321 152.086ZM132.078 155.328L130.457 156.949L132.081 158.573L133.702 156.952L132.078 155.328ZM128.836 158.571L127.215 160.192L128.838 161.815L130.459 160.194L128.836 158.571ZM125.593 161.813L124.783 162.624L126.406 164.247L127.217 163.437L125.593 161.813Z" fill="url(#paint0_linear_2729_13546)"/>
<rect x="99.4336" y="27.1914" width="13.1915" height="13.1915" transform="rotate(180 99.4336 27.1914)" fill="#E81899"/>
<defs>
<linearGradient id="paint0_linear_2729_13546" x1="117.24" y1="-73.7089" x2="117.24" y2="86.3961" gradientUnits="userSpaceOnUse">
<stop stop-color="#FFC6E9"/>
<stop offset="1" stop-color="#FF6FC8"/>
</linearGradient>
</defs>
</svg>
