<svg width="150" height="150" viewBox="0 0 150 150" fill="none" xmlns="http://www.w3.org/2000/svg">
<path d="M36.6436 53.7742C34.2536 74.8621 34.5933 99.8162 35.062 109.657H60.5433V81.3642V49.908C60.5433 47.7993 59.3834 45.339 51.9323 45.339L45.0788 40.7699C46.8361 37.7825 49.4721 32.6862 46.4846 31.2804C44.0947 30.1557 42.4428 32.4519 41.9156 33.7406C41.9156 33.0377 41.4587 31.4209 39.631 30.5774C37.8034 29.7339 35.6682 31.3975 34.829 32.3348C34.4775 31.9351 34.0332 31.633 33.4804 31.4561C29.0871 30.0502 24.8695 40.9457 26.2753 47.7993C27.4 53.2821 33.6561 54.0671 36.6436 53.7742Z" fill="#D7128D"/>
<path d="M33.9082 46.042C35.1641 43.0592 37.3611 34.7809 34.6621 32.1591" stroke="black" stroke-width="1.0544" stroke-linecap="round"/>
<path d="M40.3342 30.929C40.92 31.339 41.9158 32.8268 41.2128 35.498C40.3342 38.8369 39.4555 38.6612 39.2798 40.77" stroke="black" stroke-width="1.0544" stroke-linecap="round"/>
<path d="M35.4136 53.7742C36.2337 53.8328 38.3307 53.704 40.1584 52.7198" stroke="black" stroke-width="1.0544" stroke-linecap="round"/>
<path d="M113.866 53.6543C116.256 74.7422 115.916 99.6963 115.448 109.537H89.9665V81.2443V49.7882C89.9665 47.6794 91.1263 45.2191 98.5774 45.2191L105.431 40.6501C103.674 37.6626 101.038 32.5664 104.025 31.1605C106.415 30.0358 108.067 32.332 108.594 33.6208C108.594 32.9178 109.051 31.3011 110.879 30.4576C112.706 29.614 114.842 31.2776 115.681 32.2149C116.032 31.8152 116.477 31.5131 117.029 31.3362C121.423 29.9304 125.64 40.8258 124.234 47.6794C123.11 53.1622 116.854 53.9472 113.866 53.6543Z" fill="#D7128D"/>
<path d="M116.854 46.0421C115.598 43.0593 112.636 36.904 115.848 32.0392" stroke="black" stroke-width="1.0544" stroke-linecap="round"/>
<path d="M110.176 30.809C109.59 31.219 108.594 32.7069 109.297 35.378C110.176 38.7169 111.054 38.5412 111.23 40.65" stroke="black" stroke-width="1.0544" stroke-linecap="round"/>
<path d="M115.096 53.6543C114.276 53.7128 112.179 53.584 110.351 52.5999" stroke="black" stroke-width="1.0544" stroke-linecap="round"/>
<path d="M76.053 150C102.726 150 124.349 143.135 124.349 134.666C121.244 113.742 101.849 68.7429 72.4703 71.4658C61.5787 72.1823 50.1138 79.4912 39.6521 99.5547C31.2828 115.605 28.235 129.65 27.7573 134.666C27.7573 143.135 49.38 150 76.053 150Z" fill="#E81899"/>
<path d="M88.2742 129.937C90.4112 129.937 92.1436 126.023 92.1436 121.195C92.1436 116.367 90.4112 112.453 88.2742 112.453C87.1944 112.453 86.218 113.452 85.5161 115.063C85.4105 115.306 85.464 115.586 85.6408 115.783L86.9802 117.272C87.1669 117.48 87.0486 117.812 86.7726 117.855L85.1446 118.107C84.8438 118.154 84.6058 118.388 84.5659 118.69C84.4611 119.484 84.4048 120.324 84.4048 121.195C84.4048 126.023 86.1372 129.937 88.2742 129.937Z" fill="#0B101B"/>
<path d="M66.7732 129.937C68.9102 129.937 70.6426 126.023 70.6426 121.195C70.6426 116.367 68.9102 112.453 66.7732 112.453C65.6935 112.453 64.717 113.452 64.0151 115.063C63.9096 115.306 63.9631 115.586 64.1398 115.783L65.4792 117.272C65.6659 117.48 65.5476 117.812 65.2717 117.855L63.6436 118.107C63.3428 118.154 63.1048 118.388 63.065 118.69C62.9601 119.484 62.9038 120.324 62.9038 121.195C62.9038 126.023 64.6362 129.937 66.7732 129.937Z" fill="#0B101B"/>
<ellipse cx="46.9554" cy="96.6555" rx="2.4198" ry="16.3432" transform="rotate(32.2297 46.9554 96.6555)" fill="#FF31B1"/>
<path d="M33.9082 46.042L116.854 46.042" stroke="black" stroke-width="1.0544" stroke-linecap="round"/>
<path d="M38.4009 45.5148H105.882L118.118 6.38922C119.109 3.22053 116.742 0 113.422 0H82.8817C78.3543 0 74.3322 2.89026 72.8883 7.18127L62.8277 37.0796H44.0243C40.9186 37.0796 38.4009 39.5973 38.4009 42.7031V45.5148Z" fill="#5D08C8"/>
<path d="M63.4312 37.2554L108.067 37.2554" stroke="black" stroke-width="1.0544" stroke-linecap="round"/>
<path d="M75.9963 7.88623L69.4859 27.678C69.1868 28.5873 69.8641 29.5232 70.8213 29.5232H106.334C106.947 29.5232 107.49 29.1255 107.675 28.5406L115.078 5.09828C115.435 3.96565 114.59 2.81177 113.402 2.81177H83.0075C79.8199 2.81177 76.9924 4.8582 75.9963 7.88623Z" fill="#A862FF"/>
<rect x="12" y="33.7557" width="3.89716" height="3.89716" transform="rotate(-45 12 33.7557)" fill="white"/>
<rect x="131" y="23.0017" width="4.24505" height="4.24505" transform="rotate(-45 131 23.0017)" fill="white"/>
<rect x="22" y="19.4561" width="6.30173" height="6.30173" transform="rotate(-45 22 19.4561)" fill="#FF6FC8"/>
</svg>
