<svg width="150" height="150" viewBox="0 0 150 150" fill="none" xmlns="http://www.w3.org/2000/svg">
<path d="M74.8776 138C105.738 138 130.755 130.057 130.755 120.258C127.163 96.0504 104.723 43.9864 70.7323 47.1368C58.1309 47.9659 44.8662 56.4221 32.7621 79.6353C23.0789 98.2059 19.5527 114.455 19 120.258C19 130.057 44.0172 138 74.8776 138Z" fill="#E81899"/>
<path d="M89.0174 114.786C91.4899 114.786 93.4942 110.258 93.4942 104.672C93.4942 103.448 93.398 102.276 93.2218 101.19H85.5048C85.1059 101.19 84.7642 101.479 84.7139 101.875C84.601 102.763 84.5405 103.702 84.5405 104.672C84.5405 110.258 86.5449 114.786 89.0174 114.786Z" fill="#0B101B"/>
<path d="M64.1409 114.786C66.6134 114.786 68.6177 110.258 68.6177 104.672C68.6177 103.448 68.5216 102.276 68.3454 101.19H60.6283C60.2295 101.19 59.8878 101.479 59.8375 101.875C59.7246 102.763 59.6641 103.702 59.6641 104.672C59.6641 110.258 61.6684 114.786 64.1409 114.786Z" fill="#0B101B"/>
<ellipse cx="41.2119" cy="76.2809" rx="2.79967" ry="18.9088" transform="rotate(32.2297 41.2119 76.2809)" fill="#FF31B1"/>
<path d="M109.631 38.5695L103.984 35.6467C106.684 30.43 111.558 18.9058 113.701 14.7647L115.65 11L123.018 14.8135L121.069 18.5781C118.926 22.7192 112.303 33.4065 109.631 38.5695ZM103.991 50.6517L97.4302 47.2558L101.55 39.2963L108.111 42.6922L103.991 50.6517Z" fill="#FFC6E9"/>
<path d="M122.471 49.9893L118.149 45.3255C122.457 41.3328 130.948 32.1427 134.368 28.9732L137.478 26.0918L143.117 32.1769L140.008 35.0583C136.588 38.2278 126.735 46.0377 122.471 49.9893ZM113.069 59.4448L108.048 54.0259L114.621 47.9339L119.643 53.3527L113.069 59.4448Z" fill="#FFC6E9"/>
<rect x="13" y="58.7556" width="3.89716" height="3.89716" transform="rotate(-45 13 58.7556)" fill="white"/>
<rect x="125" y="69.0017" width="4.24505" height="4.24505" transform="rotate(-45 125 69.0017)" fill="white"/>
<rect x="19" y="69.4561" width="6.30173" height="6.30173" transform="rotate(-45 19 69.4561)" fill="#FF6FC8"/>
<path fill-rule="evenodd" clip-rule="evenodd" d="M7.33749 22.6101C7.33749 21.9668 7.85896 21.4454 8.50222 21.4454C16.2948 21.4454 22.4402 23.8481 25.6265 27.2659C26.5042 28.2074 27.1722 29.2455 27.5704 30.3418C30.9581 31.8307 34.0347 34.0194 36.5607 36.4554C39.7634 39.544 42.165 43.1123 43.1708 46.297C43.3645 46.9104 43.0243 47.5647 42.4109 47.7584C41.7975 47.9521 41.1432 47.6119 40.9495 46.9985C40.0937 44.2889 37.9582 41.0393 34.9436 38.1321C32.9257 36.1861 30.5518 34.4304 27.9739 33.1119C27.9726 33.1305 27.9713 33.1492 27.9698 33.1679C27.803 35.3102 26.5767 37.3049 24.4026 38.9551C21.4902 41.1657 18.8686 41.7549 16.8206 40.8801C14.7861 40.0111 13.8219 37.9108 13.7622 35.8852C13.7019 33.8365 14.5386 31.5893 16.4318 30.1487C18.2528 28.7631 20.8646 28.2603 24.1682 29.1288C24.0896 29.0371 24.0077 28.9456 23.9226 28.8543C21.3261 26.0692 15.9059 23.7748 8.50222 23.7748C7.85896 23.7748 7.33749 23.2534 7.33749 22.6101ZM25.614 32.0541C25.1031 31.8572 24.5864 31.6787 24.0651 31.5204C21.0017 30.5902 19.0213 31.1055 17.8423 32.0026C16.6314 32.924 16.0492 34.4072 16.0907 35.8166C16.1329 37.249 16.7912 38.3345 17.7356 38.7379C18.6664 39.1355 20.3799 39.0839 22.9943 37.0996C24.7877 35.7383 25.5452 34.3001 25.6474 32.987C25.6712 32.6813 25.6605 32.3697 25.614 32.0541Z" fill="#FFC6E9"/>
</svg>
