<svg width="150" height="150" viewBox="0 0 150 150" fill="none" xmlns="http://www.w3.org/2000/svg">
<ellipse opacity="0.1" cx="75" cy="75" rx="75" ry="75" transform="matrix(1 -8.74228e-08 -8.74228e-08 -1 0 150)" fill="#F15C5D"/>
<ellipse opacity="0.2" cx="60.9848" cy="60.9188" rx="60.9848" ry="60.9188" transform="matrix(1 -8.74228e-08 -8.74228e-08 -1 14.0146 135.919)" fill="#F15C5D"/>
<path fill-rule="evenodd" clip-rule="evenodd" d="M75 28.2715C49.1926 28.2715 28.2715 49.1926 28.2715 75C28.2715 100.807 49.1926 121.729 75 121.729C100.807 121.729 121.729 100.807 121.729 75C121.729 49.1926 100.807 28.2715 75 28.2715ZM66.7582 61.6748C65.3545 60.2711 63.0785 60.2711 61.6748 61.6748C60.2711 63.0785 60.2711 65.3545 61.6748 66.7582L69.9166 75L61.6748 83.2418C60.2711 84.6456 60.2711 86.9215 61.6748 88.3252C63.0785 89.729 65.3545 89.729 66.7582 88.3252L75 80.0834L83.2418 88.3252C84.6456 89.729 86.9215 89.729 88.3252 88.3252C89.729 86.9215 89.729 84.6456 88.3252 83.2418L80.0834 75L88.3252 66.7582C89.729 65.3545 89.729 63.0785 88.3252 61.6748C86.9215 60.2711 84.6456 60.2711 83.2418 61.6748L75 69.9166L66.7582 61.6748Z" fill="#F15C5D"/>
</svg>
