<svg width="20" height="20" viewBox="0 0 20 20" fill="none" xmlns="http://www.w3.org/2000/svg">
<g clip-path="url(#clip0_852_13211)">
<path fill-rule="evenodd" clip-rule="evenodd" d="M16.14 13.2501C18.43 12.1101 20 9.74008 20 7.00006C20 3.13003 16.87 0 12.9999 0C10.2599 0 7.8899 1.57001 6.74989 3.86003C6.58989 4.17003 6.82989 4.52004 7.17989 4.55004C11.5999 4.89004 15.11 8.37008 15.45 12.8201C15.48 13.1601 15.83 13.4101 16.14 13.2501ZM14.0001 13.0001C14.0001 16.8661 10.8661 20.0001 7.00006 20.0001C3.13403 20.0001 0 16.8661 0 13.0001C0 9.13403 3.13403 6 7.00006 6C10.8661 6 14.0001 9.13403 14.0001 13.0001Z" fill="#E81899"/>
</g>
<defs>
<clipPath id="clip0_852_13211">
<rect width="20" height="20" fill="white"/>
</clipPath>
</defs>
</svg>
