<svg width="21" height="20" viewBox="0 0 21 20" fill="none" xmlns="http://www.w3.org/2000/svg">
<path fill-rule="evenodd" clip-rule="evenodd" d="M14.5849 4.732C18.4561 6.96703 19.7825 11.9171 17.5474 15.7883C15.3124 19.6595 10.3623 20.9859 6.49111 18.7508C2.61992 16.5158 1.29355 11.5657 3.52858 7.69453C3.72329 7.35728 3.93861 7.03935 4.17202 6.7414C4.40514 6.44383 4.85492 6.48882 5.08908 6.78557C5.41021 7.19254 5.77595 7.56268 6.17893 7.88859C6.56355 8.19966 7.08862 7.83285 7.07309 7.33843C7.07078 7.26477 7.06961 7.19082 7.06961 7.11659C7.06961 6.05453 7.30827 5.0482 7.73488 4.14832C8.35134 2.84799 9.36025 1.76992 10.6086 1.06709C10.8942 0.90631 11.2451 1.04884 11.3914 1.34212C12.0758 2.71443 13.1573 3.90779 14.5849 4.732ZM15.1634 12.8979C15.1634 15.4522 13.0927 17.5229 10.5384 17.5229C8.32612 17.5229 6.46729 15.906 6.01758 13.8441C5.9094 13.3481 6.52576 13.1001 6.95853 13.3656C7.5205 13.7102 8.15335 13.9344 8.81018 14.0177C9.1601 14.0621 9.42382 13.7407 9.39922 13.3889C9.38788 13.2267 9.38212 13.063 9.38212 12.8979C9.38212 11.248 9.95804 9.7327 10.9198 8.54194C11.0398 8.39333 11.2309 8.32038 11.4185 8.35652C13.5519 8.76753 15.1634 10.6445 15.1634 12.8979Z" fill="#E81899"/>
</svg>
