<svg width="21" height="20" viewBox="0 0 21 20" fill="none" xmlns="http://www.w3.org/2000/svg">
<path fill-rule="evenodd" clip-rule="evenodd" d="M15.2073 5C15.5996 4.47771 15.832 3.8285 15.832 3.125C15.832 1.39911 14.4329 0 12.707 0C11.6848 0 10.7772 0.490841 10.207 1.2497C9.63689 0.490841 8.72928 0 7.70703 0C5.98114 0 4.58203 1.39911 4.58203 3.125C4.58203 3.8285 4.8145 4.47771 5.2068 5H1.76953C0.906586 5 0.207031 5.69956 0.207031 6.5625V7.1875C0.207031 8.05045 0.906587 8.75 1.76953 8.75H9.26953V5H11.1445V8.75H18.6445C19.5075 8.75 20.207 8.05045 20.207 7.1875V6.5625C20.207 5.69955 19.5075 5 18.6445 5H15.2073ZM13.957 3.125C13.957 3.81536 13.3974 4.375 12.707 4.375H11.457L11.457 3.125C11.457 2.43464 12.0167 1.875 12.707 1.875C13.3974 1.875 13.957 2.43464 13.957 3.125ZM6.45703 3.125C6.45703 3.81536 7.01668 4.375 7.70703 4.375H8.95703V3.125C8.95703 2.43464 8.39739 1.875 7.70703 1.875C7.01668 1.875 6.45703 2.43464 6.45703 3.125Z" fill="#E81899"/>
<path d="M9.26953 10.625H1.45703V16.5625C1.45703 18.461 2.99605 20 4.89453 20H9.26953V10.625Z" fill="#E81899"/>
<path d="M11.1445 20V10.625H18.957V16.5625C18.957 18.461 17.418 20 15.5195 20H11.1445Z" fill="#E81899"/>
</svg>
