<svg width="20" height="20" viewBox="0 0 20 20" fill="none" xmlns="http://www.w3.org/2000/svg">
<g clip-path="url(#clip0_852_13219)">
<path fill-rule="evenodd" clip-rule="evenodd" d="M4.00663 13.299C4.28829 13.663 4.22154 14.1864 3.85755 14.4681C3.19916 14.9775 2.77778 15.7727 2.77778 16.6667C2.77778 16.841 2.79374 17.0112 2.82419 17.1758C2.98885 17.2063 3.15897 17.2222 3.33333 17.2222C4.22731 17.2222 5.02248 16.8008 5.53193 16.1425C5.81358 15.7785 6.33698 15.7117 6.70097 15.9934C7.06496 16.275 7.13171 16.7984 6.85006 17.1624C6.03856 18.2111 4.76489 18.8889 3.33333 18.8889C2.82226 18.8889 2.32964 18.8023 1.87044 18.6423C1.63024 18.5586 1.44142 18.3698 1.35773 18.1296C1.19771 17.6704 1.11111 17.1777 1.11111 16.6667C1.11111 15.2351 1.78886 13.9614 2.83759 13.15C3.20158 12.8683 3.72498 12.935 4.00663 13.299Z" fill="#E81899"/>
<path fill-rule="evenodd" clip-rule="evenodd" d="M5.2804 12.2222C6.00793 13.1529 6.84708 13.9921 7.77778 14.7196V19.1667C7.77778 19.6269 8.15087 20 8.61111 20C11.6794 20 14.1667 17.5127 14.1667 14.4444C14.1667 13.8997 14.088 13.3723 13.9412 12.8735C17.6074 10.2552 20 5.96279 20 1.11111C20 1.01371 19.999 0.916516 19.9971 0.819543C19.9882 0.372241 19.6278 0.0117544 19.1805 0.00288798C19.0835 0.000965926 18.9863 0 18.8889 0C14.0372 0 9.7448 2.39257 7.12652 6.05879C6.62773 5.91198 6.10031 5.83333 5.55556 5.83333C2.48731 5.83333 0 8.32064 0 11.3889C0 11.8491 0.373096 12.2222 0.833333 12.2222H5.2804ZM13.3333 8.88889C14.5606 8.88889 15.5556 7.89397 15.5556 6.66667C15.5556 5.43937 14.5606 4.44444 13.3333 4.44444C12.106 4.44444 11.1111 5.43937 11.1111 6.66667C11.1111 7.89397 12.106 8.88889 13.3333 8.88889Z" fill="#E81899"/>
</g>
<defs>
<clipPath id="clip0_852_13219">
<rect width="20" height="20" fill="white"/>
</clipPath>
</defs>
</svg>
