<svg width="16" height="16" viewBox="0 0 16 16" fill="none" xmlns="http://www.w3.org/2000/svg">
<path d="M4 2C2.89543 2 2 2.89543 2 4V5C2 5.27614 2.22386 5.5 2.5 5.5C2.77614 5.5 3 5.27614 3 5V4C3 3.44772 3.44772 3 4 3H5C5.27614 3 5.5 2.77614 5.5 2.5C5.5 2.22386 5.27614 2 5 2H4Z" fill="#CACBCE"/>
<path d="M11 2C10.7239 2 10.5 2.22386 10.5 2.5C10.5 2.77614 10.7239 3 11 3H12C12.5523 3 13 3.44772 13 4V5C13 5.27614 13.2239 5.5 13.5 5.5C13.7761 5.5 14 5.27614 14 5V4C14 2.89543 13.1046 2 12 2H11Z" fill="#CACBCE"/>
<path d="M8 5.5C6.61929 5.5 5.5 6.61929 5.5 8C5.5 9.38071 6.61929 10.5 8 10.5C9.38071 10.5 10.5 9.38071 10.5 8C10.5 6.61929 9.38071 5.5 8 5.5Z" fill="#CACBCE"/>
<path d="M3 11C3 10.7239 2.77614 10.5 2.5 10.5C2.22386 10.5 2 10.7239 2 11V12C2 13.1046 2.89543 14 4 14H5C5.27614 14 5.5 13.7761 5.5 13.5C5.5 13.2239 5.27614 13 5 13H4C3.44772 13 3 12.5523 3 12V11Z" fill="#CACBCE"/>
<path d="M14 11C14 10.7239 13.7761 10.5 13.5 10.5C13.2239 10.5 13 10.7239 13 11V12C13 12.5523 12.5523 13 12 13H11C10.7239 13 10.5 13.2239 10.5 13.5C10.5 13.7761 10.7239 14 11 14H12C13.1046 14 14 13.1046 14 12V11Z" fill="#CACBCE"/>
</svg>
