<svg width="342" height="732" viewBox="0 0 342 732" fill="none" xmlns="http://www.w3.org/2000/svg">
<g clip-path="url(#clip0_728_21844)">
<rect width="342" height="732" rx="30" fill="#191E28"/>
<path d="M-262.683 378.93V636.144L-85.041 809.509H258.757L442.837 629.86V566.009L184.785 314.152H112.709L-138.795 68.7119L-338 68.7119V127.272L181.169 633.917H-8.24717L-76.7068 567.111V491.398L-192.526 378.379L-262.683 378.93Z" fill="#2B303B" fill-opacity="0.5"/>
<path d="M619.683 181.579V-75.6351L442.041 -249L98.2436 -249L-85.8589 -69.3293V-5.4777L172.215 246.357H244.291L495.795 491.797H695V433.237L175.831 -73.4082H365.247L433.707 -6.60215V69.1113L549.504 182.152L619.683 181.579Z" fill="#2B303B" fill-opacity="0.5"/>
<rect x="424.79" y="304" width="473.04" height="885" transform="rotate(45 424.79 304)" fill="#FFC6E9"/>
<path fill-rule="evenodd" clip-rule="evenodd" d="M97.0996 466.592L51.1655 387.032L40.2851 393.313L40.2504 393.253C22.9198 403.259 19.1533 429.181 31.8376 451.151C44.4765 473.042 68.6796 482.75 85.9979 472.921L86.0329 472.981L97.0996 466.592Z" fill="#E81899"/>
<ellipse cx="74.2336" cy="426.912" rx="45.9341" ry="36.2638" transform="rotate(60 74.2336 426.912)" fill="#FF6FC8"/>
<path fill-rule="evenodd" clip-rule="evenodd" d="M258.616 630.964L338.176 676.899L333.587 684.847L333.646 684.881C323.64 702.212 297.719 705.978 275.749 693.294C253.857 680.654 244.149 656.45 253.98 639.132L253.92 639.098L258.616 630.964Z" fill="#E81899"/>
<path d="M332.403 684.09C317.385 697.883 289.854 695.603 270.982 679.138C252.111 662.673 248.979 638.091 263.971 624.344C278.989 610.551 306.462 612.797 325.392 629.296C344.295 645.842 347.395 670.343 332.403 684.09Z" fill="#FF6FC8"/>
<path fill-rule="evenodd" clip-rule="evenodd" d="M192.557 492.807L216.334 404.069L206.684 401.484L206.684 401.484C199.117 399.456 187.659 417.677 181.093 442.181C174.534 466.659 175.338 488.148 182.883 490.215L182.883 490.215L192.557 492.807Z" fill="url(#paint0_linear_728_21844)"/>
<path fill-rule="evenodd" clip-rule="evenodd" d="M238.019 528.247L326.757 504.47L329.343 514.12L329.343 514.12C331.371 521.687 313.15 533.145 288.646 539.71C264.168 546.269 242.679 545.466 240.612 537.921L240.611 537.921L238.019 528.247Z" fill="url(#paint1_linear_728_21844)"/>
<path fill-rule="evenodd" clip-rule="evenodd" d="M343.221 574.62L251.353 574.62L251.353 587.053L251.354 587.053C251.54 599.658 272.034 609.848 297.287 609.848C322.541 609.848 343.034 599.658 343.22 587.053L343.221 587.053L343.221 586.894C343.221 586.89 343.221 586.885 343.221 586.881L343.221 574.62Z" fill="#E81899"/>
<path d="M341.77 580.149C335.665 592.461 310.702 599.922 286.146 596.87C261.59 593.817 246.599 581.336 252.704 569.059C258.809 556.747 283.704 549.286 308.328 552.338C332.952 555.425 347.875 567.872 341.77 580.149Z" fill="#FF6FC8"/>
<ellipse cx="146.409" cy="428.327" rx="45.8974" ry="22.9487" transform="rotate(90 146.409 428.327)" fill="url(#paint2_linear_728_21844)"/>
<path fill-rule="evenodd" clip-rule="evenodd" d="M152.238 408.794L162.014 428.346L158.116 436.142L148.34 416.59L152.238 408.794ZM140.555 408.808L156.179 440.055L152.281 447.851L136.657 416.604L140.555 408.808ZM150.325 451.741L134.702 420.494L130.804 428.291L146.427 459.537L150.325 451.741ZM146.401 397.117L150.299 404.913L146.401 412.709L142.503 404.913L146.401 397.117Z" fill="white"/>
<path fill-rule="evenodd" clip-rule="evenodd" d="M146.184 474.392L146.184 382.524L133.923 382.524L133.923 382.523C133.887 382.523 133.851 382.524 133.815 382.524L133.751 382.524L133.751 382.525C121.146 382.71 110.956 403.204 110.956 428.458C110.956 453.711 121.146 474.205 133.751 474.39L133.751 474.392L146.184 474.392Z" fill="#E81899"/>
<ellipse cx="146.234" cy="428.327" rx="45.8974" ry="23.1239" transform="rotate(90 146.234 428.327)" fill="#FF6FC8"/>
<path fill-rule="evenodd" clip-rule="evenodd" d="M238.131 528.359L326.869 504.582L329.455 514.232L329.455 514.232C331.483 521.799 313.262 533.257 288.758 539.823C264.28 546.381 242.792 545.578 240.724 538.034L240.723 538.034L238.131 528.359Z" fill="#E81899"/>
<ellipse cx="45.9341" cy="14.1601" rx="45.9341" ry="14.1601" transform="matrix(-0.965926 0.258819 0.258819 0.965926 323.093 490.793)" fill="#FF6FC8"/>
<path fill-rule="evenodd" clip-rule="evenodd" d="M190.939 492.292L214.716 403.554L205.066 400.968L205.066 400.968C197.499 398.94 186.041 417.161 179.475 441.665C172.916 466.144 173.72 487.632 181.265 489.699L181.265 489.699L190.939 492.292Z" fill="#E81899"/>
<ellipse cx="204.29" cy="448.407" rx="46.0155" ry="14.1946" transform="rotate(105 204.29 448.407)" fill="#FF6FC8"/>
<rect x="274.006" y="443.19" width="15.4898" height="91.8682" transform="rotate(45 274.006 443.19)" fill="url(#paint3_linear_728_21844)"/>
<path d="M45.04 106H33.4L47.38 65.8H63.76L77.68 106H65.32L62.86 98.26H47.62L45.04 106ZM51.64 86.08L50.86 88.42H59.68L58.96 86.08L55.78 75.58H54.94L51.64 86.08ZM102.742 106H87.2017L73.4617 65.8H86.1817L94.7017 93.4H95.4817L103.822 65.8H116.542L102.742 106ZM123.992 106H112.352L126.332 65.8H142.712L156.632 106H144.272L141.812 98.26H126.572L123.992 106ZM130.592 86.08L129.812 88.42H138.632L137.912 86.08L134.732 75.58H133.892L130.592 86.08ZM190.42 106H158.98V65.8H170.26V95.86H190.42V106ZM211.858 106.6C199.078 106.6 191.638 98.44 191.638 85.9C191.638 73.36 199.078 65.2 211.858 65.2C224.578 65.2 232.018 73.36 232.018 85.9C232.018 98.44 224.578 106.6 211.858 106.6ZM211.858 95.62C218.038 95.62 219.898 93.64 219.898 85.9C219.898 78.16 218.038 76.18 211.858 76.18C205.618 76.18 203.758 78.16 203.758 85.9C203.758 93.64 205.618 95.62 211.858 95.62ZM247.923 106H236.643V65.8H248.703L259.923 83.86L262.563 88.78H263.343L262.743 83.86V65.8H273.963V106H261.963L251.343 89.26L248.103 83.56H247.323L247.923 89.26V106ZM45.04 160H33.4L47.38 119.8H63.76L77.68 160H65.32L62.86 152.26H47.62L45.04 160ZM51.64 140.08L50.86 142.42H59.68L58.96 140.08L55.78 129.58H54.94L51.64 140.08ZM91.3089 160H80.0289V119.8H91.3089V160ZM108.812 160H97.532V119.8H117.752C127.892 119.8 132.692 124.12 132.692 132.16C132.692 138.52 130.232 142.48 123.452 143.26V143.8C127.532 144.88 129.152 147.46 130.712 150.88L134.912 160H121.772L117.812 151.66C116.132 148.18 115.352 147.16 111.572 147.16H108.812V160ZM108.812 129.94V137.8H117.332C120.512 137.8 121.412 136.9 121.412 133.72C121.412 130.78 120.512 129.94 117.332 129.94H108.812ZM155.344 160H138.004V119.8H155.344C168.544 119.8 175.804 127.18 175.804 139.9C175.804 152.62 168.544 160 155.344 160ZM154.744 129.94H149.284V149.86H154.744C161.824 149.86 163.624 148.36 163.624 139.9C163.624 131.44 161.824 129.94 154.744 129.94ZM191.689 160H180.409V119.8H200.629C210.769 119.8 215.569 124.12 215.569 132.16C215.569 138.52 213.109 142.48 206.329 143.26V143.8C210.409 144.88 212.029 147.46 213.589 150.88L217.789 160H204.649L200.689 151.66C199.009 148.18 198.229 147.16 194.449 147.16H191.689V160ZM191.689 129.94V137.8H200.209C203.389 137.8 204.289 136.9 204.289 133.72C204.289 130.78 203.389 129.94 200.209 129.94H191.689ZM240.201 160.6C227.421 160.6 219.981 152.44 219.981 139.9C219.981 127.36 227.421 119.2 240.201 119.2C252.921 119.2 260.361 127.36 260.361 139.9C260.361 152.44 252.921 160.6 240.201 160.6ZM240.201 149.62C246.381 149.62 248.241 147.64 248.241 139.9C248.241 132.16 246.381 130.18 240.201 130.18C233.961 130.18 232.101 132.16 232.101 139.9C232.101 147.64 233.961 149.62 240.201 149.62ZM276.266 160H264.986V119.8H284.006C293.606 119.8 299.786 125.38 299.786 134.62C299.786 144.16 293.606 149.38 284.006 149.38H276.266V160ZM283.586 129.94H276.266V139.3H283.586C287.426 139.3 288.506 138.58 288.506 134.62C288.506 130.66 287.426 129.94 283.586 129.94Z" fill="#E81899"/>
<path d="M42.935 207H36.355V191.6H31V186.455H32.155C34.36 186.455 35.76 185.65 36.81 183.55H42.935V207ZM58.3829 207.35C51.2079 207.35 47.4979 202.485 47.4979 195.275C47.4979 188.1 51.2079 183.2 58.3829 183.2C65.5229 183.2 69.2679 188.1 69.2679 195.275C69.2679 202.485 65.5229 207.35 58.3829 207.35ZM58.3829 200.945C61.3929 200.945 62.1979 200.14 62.1979 195.275C62.1979 190.41 61.3929 189.605 58.3829 189.605C55.3379 189.605 54.5679 190.41 54.5679 195.275C54.5679 200.14 55.3379 200.945 58.3829 200.945ZM84.0928 207.35C76.9178 207.35 73.2078 202.485 73.2078 195.275C73.2078 188.1 76.9178 183.2 84.0928 183.2C91.2328 183.2 94.9778 188.1 94.9778 195.275C94.9778 202.485 91.2328 207.35 84.0928 207.35ZM84.0928 200.945C87.1028 200.945 87.9078 200.14 87.9078 195.275C87.9078 190.41 87.1028 189.605 84.0928 189.605C81.0478 189.605 80.2778 190.41 80.2778 195.275C80.2778 200.14 81.0478 200.945 84.0928 200.945ZM104.887 207H97.2566L103.872 195.345V195.03L97.2566 183.55H104.992L109.262 191.18H109.577L113.532 183.55H121.162L114.617 194.89V195.205L121.162 207H113.427L109.157 199.44H108.842L104.887 207ZM143.885 207H137.305V189.465H130.095V183.55H151.095V189.465H143.885V207ZM160.723 207H153.093L159.708 195.345V195.03L153.093 183.55H160.828L165.098 191.18H165.413L169.368 183.55H176.998L170.453 194.89V195.205L176.998 207H169.263L164.993 199.44H164.678L160.723 207ZM202.311 207H193.246L185.231 183.55H192.651L197.621 199.65H198.076L202.941 183.55H210.361L202.311 207ZM215.407 207H208.617L216.772 183.55H226.327L234.447 207H227.237L225.802 202.485H216.912L215.407 207ZM219.257 195.38L218.802 196.745H223.947L223.527 195.38L221.672 189.255H221.182L219.257 195.38ZM254.857 207H236.517V183.55H243.097V201.085H254.857V207ZM268.179 207.35C260.934 207.35 257.609 203.64 257.609 197.935V183.55H264.189V197.585C264.189 200.21 264.819 200.945 268.179 200.945C271.539 200.945 272.169 200.21 272.169 197.585V183.55H278.749V197.935C278.749 203.64 275.424 207.35 268.179 207.35ZM301.848 207H282.913V183.55H301.848V189.465H289.493V192.3H301.323V198.18H289.493V201.085H301.848V207ZM41.605 224.045C40.625 224.045 40.065 224.395 40.065 225.76C40.065 226.985 40.625 227.335 41.605 227.335H45.7V225.06H52.175V227.335H55.57V232.725H52.175V234.125C52.175 239.41 49.83 242.35 42.2 242.35C35.655 242.35 32.4 240.39 32.4 235.525C32.4 231.92 34.815 230.17 37.51 229.925V229.75C34.815 229.47 33.485 227.3 33.485 224.535C33.485 219.74 36.95 218.06 41.92 218.06H45.07V224.045H41.605ZM42.55 236.365C45.385 236.365 45.7 236.085 45.7 234.055V232.725H41.22C39.82 232.725 39.085 232.935 39.085 234.65C39.085 236.33 39.82 236.365 42.55 236.365ZM72.4857 242H65.9057V218.55H77.0007C82.6007 218.55 86.2057 221.805 86.2057 227.195C86.2057 232.76 82.6007 235.805 77.0007 235.805H72.4857V242ZM76.7557 224.465H72.4857V229.925H76.7557C78.9957 229.925 79.6257 229.505 79.6257 227.195C79.6257 224.885 78.9957 224.465 76.7557 224.465ZM100.63 242.35C93.1748 242.35 88.8348 237.59 88.8348 230.275C88.8348 222.96 93.1748 218.2 100.63 218.2C108.05 218.2 112.39 222.96 112.39 230.275C112.39 237.59 108.05 242.35 100.63 242.35ZM100.63 235.945C104.235 235.945 105.32 234.79 105.32 230.275C105.32 225.76 104.235 224.605 100.63 224.605C96.9898 224.605 95.9048 225.76 95.9048 230.275C95.9048 234.79 96.9898 235.945 100.63 235.945ZM122.368 242H115.788V218.55H122.368V242ZM133.278 242H126.698V218.55H133.733L140.278 229.085L141.818 231.955H142.273L141.923 229.085V218.55H148.468V242H141.468L135.273 232.235L133.383 228.91H132.928L133.278 232.235V242ZM165.186 242H158.606V224.465H151.396V218.55H172.396V224.465H165.186V242ZM185.53 242.35C178.81 242.35 175.45 239.2 175.45 234.3V233.845H181.925V234.125C181.925 236.05 182.625 236.435 185.775 236.435C188.26 236.435 188.785 236.05 188.785 235.035C188.785 233.95 188.435 233.6 186.825 233.355L181.715 232.55C176.955 231.815 174.995 229.295 174.995 225.655C174.995 221.49 178.18 218.2 185.075 218.2C191.62 218.2 194.735 221.49 194.735 225.865V226.46H188.26V226.04C188.26 224.675 187.595 224.115 184.655 224.115C182.17 224.115 181.54 224.535 181.54 225.41C181.54 226.145 181.995 226.46 183.36 226.705L188.47 227.615C193.44 228.49 195.365 231.08 195.365 234.72C195.365 238.815 192.565 242.35 185.53 242.35Z" fill="#5DDEB5"/>
<rect x="31" y="268" width="170" height="48" rx="24" fill="#C8047D"/>
<path d="M66.2458 298.16C65.1685 298.16 64.2378 297.909 63.4538 297.408C62.6698 296.907 62.0645 296.203 61.6378 295.296C61.2165 294.389 61.0058 293.331 61.0058 292.12C61.0058 290.904 61.2165 289.861 61.6378 288.992C62.0591 288.117 62.6618 287.445 63.4458 286.976C64.2298 286.507 65.1631 286.272 66.2458 286.272C67.1151 286.272 67.8885 286.448 68.5658 286.8C69.2485 287.147 69.7978 287.621 70.2138 288.224C70.6351 288.827 70.8831 289.507 70.9578 290.264H68.5098C68.4351 289.864 68.2991 289.509 68.1018 289.2C67.9045 288.885 67.6458 288.64 67.3258 288.464C67.0058 288.283 66.6218 288.192 66.1738 288.192C65.6351 288.192 65.1711 288.323 64.7818 288.584C64.3925 288.845 64.0938 289.267 63.8858 289.848C63.6778 290.429 63.5738 291.197 63.5738 292.152C63.5738 293.592 63.8031 294.635 64.2618 295.28C64.7258 295.92 65.3631 296.24 66.1738 296.24C66.6218 296.24 67.0058 296.139 67.3258 295.936C67.6458 295.728 67.9045 295.456 68.1018 295.12C68.2991 294.779 68.4351 294.405 68.5098 294H70.9578C70.8885 294.549 70.7551 295.075 70.5578 295.576C70.3605 296.072 70.0805 296.515 69.7178 296.904C69.3551 297.293 68.8885 297.6 68.3178 297.824C67.7471 298.048 67.0565 298.16 66.2458 298.16ZM75.4422 298.144C74.8342 298.144 74.3515 298.072 73.9942 297.928C73.6369 297.784 73.3729 297.595 73.2022 297.36C73.0315 297.12 72.9222 296.856 72.8742 296.568C72.8262 296.275 72.8022 295.979 72.8022 295.68V286.112H75.0902V295.392C75.0902 295.696 75.1542 295.944 75.2822 296.136C75.4155 296.323 75.6635 296.437 76.0262 296.48L76.4182 296.504V297.944C76.2582 297.997 76.0955 298.043 75.9302 298.08C75.7649 298.123 75.6022 298.144 75.4422 298.144ZM80.5257 298.16C80.003 298.16 79.5284 298.061 79.1017 297.864C78.6804 297.667 78.347 297.381 78.1017 297.008C77.8564 296.629 77.7337 296.171 77.7337 295.632C77.7337 294.725 78.0724 294.037 78.7497 293.568C79.427 293.093 80.4964 292.848 81.9577 292.832L82.9977 292.816V292.32C82.9977 291.941 82.8857 291.651 82.6617 291.448C82.443 291.24 82.099 291.139 81.6297 291.144C81.2937 291.149 80.971 291.229 80.6617 291.384C80.3577 291.539 80.147 291.808 80.0297 292.192H78.0857C78.1177 291.595 78.291 291.104 78.6057 290.72C78.9257 290.331 79.355 290.043 79.8937 289.856C80.4324 289.664 81.0484 289.568 81.7417 289.568C82.5844 289.568 83.2617 289.675 83.7737 289.888C84.2857 290.096 84.6564 290.397 84.8857 290.792C85.1204 291.181 85.2377 291.645 85.2377 292.184V298H83.2857L83.0937 296.576C82.811 297.173 82.4564 297.587 82.0297 297.816C81.6084 298.045 81.107 298.16 80.5257 298.16ZM81.3177 296.624C81.5257 296.624 81.7284 296.587 81.9257 296.512C82.1284 296.432 82.3097 296.328 82.4697 296.2C82.6297 296.067 82.755 295.917 82.8457 295.752C82.9417 295.587 82.9924 295.416 82.9977 295.24V294.016L82.1577 294.032C81.7684 294.037 81.4057 294.085 81.0697 294.176C80.7337 294.261 80.4617 294.403 80.2537 294.6C80.051 294.797 79.9497 295.064 79.9497 295.4C79.9497 295.784 80.0804 296.085 80.3417 296.304C80.6084 296.517 80.9337 296.624 81.3177 296.624ZM87.2362 298V289.728H89.4682V298H87.2362ZM87.2122 288.544V286.44H89.4842V288.544H87.2122ZM91.6047 298V289.728H93.8927V290.896C94.1434 290.533 94.4794 290.221 94.9007 289.96C95.3274 289.699 95.8634 289.568 96.5087 289.568C96.7914 289.568 97.0794 289.619 97.3727 289.72C97.666 289.821 97.9407 289.971 98.1967 290.168C98.458 290.36 98.6687 290.603 98.8287 290.896C99.0954 290.517 99.4447 290.203 99.8767 289.952C100.314 289.696 100.799 289.568 101.333 289.568C101.642 289.568 101.954 289.619 102.269 289.72C102.589 289.821 102.882 289.987 103.149 290.216C103.415 290.445 103.629 290.752 103.789 291.136C103.954 291.515 104.037 291.984 104.037 292.544V298H101.701V292.832C101.701 292.501 101.634 292.237 101.501 292.04C101.373 291.837 101.207 291.693 101.005 291.608C100.807 291.517 100.597 291.472 100.373 291.472C100.165 291.472 99.954 291.515 99.7407 291.6C99.5274 291.68 99.346 291.811 99.1967 291.992C99.0474 292.173 98.9727 292.411 98.9727 292.704V298H96.6447V292.624C96.6447 292.373 96.578 292.163 96.4447 291.992C96.3114 291.821 96.1434 291.693 95.9407 291.608C95.7434 291.517 95.5407 291.472 95.3327 291.472C95.1194 291.472 94.906 291.517 94.6927 291.608C94.4794 291.693 94.3007 291.829 94.1567 292.016C94.0127 292.197 93.9407 292.427 93.9407 292.704V298H91.6047ZM113.216 298.16C112.406 298.16 111.699 297.987 111.096 297.64C110.499 297.293 110.035 296.803 109.704 296.168C109.379 295.533 109.216 294.781 109.216 293.912C109.216 293.043 109.379 292.283 109.704 291.632C110.035 290.981 110.499 290.475 111.096 290.112C111.699 289.749 112.408 289.568 113.224 289.568C114.04 289.568 114.747 289.747 115.344 290.104C115.942 290.456 116.403 290.957 116.728 291.608C117.054 292.259 117.216 293.027 117.216 293.912C117.216 294.744 117.056 295.48 116.736 296.12C116.422 296.755 115.966 297.253 115.368 297.616C114.776 297.979 114.059 298.16 113.216 298.16ZM113.224 296.424C113.635 296.424 113.966 296.304 114.216 296.064C114.467 295.824 114.648 295.509 114.76 295.12C114.872 294.725 114.928 294.296 114.928 293.832C114.928 293.395 114.878 292.981 114.776 292.592C114.675 292.203 114.499 291.888 114.248 291.648C113.998 291.408 113.656 291.288 113.224 291.288C112.814 291.288 112.48 291.403 112.224 291.632C111.974 291.856 111.79 292.163 111.672 292.552C111.555 292.936 111.496 293.363 111.496 293.832C111.496 294.264 111.55 294.68 111.656 295.08C111.763 295.475 111.942 295.797 112.192 296.048C112.443 296.299 112.787 296.424 113.224 296.424ZM118.892 298V289.728H121.188V290.896C121.316 290.693 121.481 290.499 121.684 290.312C121.892 290.12 122.153 289.963 122.468 289.84C122.782 289.717 123.156 289.656 123.588 289.656C124.094 289.656 124.566 289.755 125.004 289.952C125.446 290.149 125.804 290.461 126.076 290.888C126.348 291.309 126.484 291.861 126.484 292.544V298H124.148V292.832C124.148 292.384 124.014 292.048 123.748 291.824C123.481 291.6 123.156 291.488 122.772 291.488C122.516 291.488 122.268 291.533 122.028 291.624C121.793 291.715 121.601 291.851 121.452 292.032C121.302 292.213 121.228 292.437 121.228 292.704V298H118.892ZM134.945 298V288.512H131.449V286.432H140.705V288.512H137.289V298H134.945ZM143.572 298.16C143.049 298.16 142.575 298.061 142.148 297.864C141.727 297.667 141.393 297.381 141.148 297.008C140.903 296.629 140.78 296.171 140.78 295.632C140.78 294.725 141.119 294.037 141.796 293.568C142.473 293.093 143.543 292.848 145.004 292.832L146.044 292.816V292.32C146.044 291.941 145.932 291.651 145.708 291.448C145.489 291.24 145.145 291.139 144.676 291.144C144.34 291.149 144.017 291.229 143.708 291.384C143.404 291.539 143.193 291.808 143.076 292.192H141.132C141.164 291.595 141.337 291.104 141.652 290.72C141.972 290.331 142.401 290.043 142.94 289.856C143.479 289.664 144.095 289.568 144.788 289.568C145.631 289.568 146.308 289.675 146.82 289.888C147.332 290.096 147.703 290.397 147.932 290.792C148.167 291.181 148.284 291.645 148.284 292.184V298H146.332L146.14 296.576C145.857 297.173 145.503 297.587 145.076 297.816C144.655 298.045 144.153 298.16 143.572 298.16ZM144.364 296.624C144.572 296.624 144.775 296.587 144.972 296.512C145.175 296.432 145.356 296.328 145.516 296.2C145.676 296.067 145.801 295.917 145.892 295.752C145.988 295.587 146.039 295.416 146.044 295.24V294.016L145.204 294.032C144.815 294.037 144.452 294.085 144.116 294.176C143.78 294.261 143.508 294.403 143.3 294.6C143.097 294.797 142.996 295.064 142.996 295.4C142.996 295.784 143.127 296.085 143.388 296.304C143.655 296.517 143.98 296.624 144.364 296.624ZM150.282 298V289.728H152.514V298H150.282ZM150.258 288.544V286.44H152.53V288.544H150.258ZM154.651 298V286.112H156.987V293.16L160.027 289.728H162.539L159.531 293.024L162.643 298H160.315L158.083 294.432L156.987 295.6V298H154.651ZM167.167 298.16C166.356 298.16 165.65 297.987 165.047 297.64C164.45 297.293 163.986 296.803 163.655 296.168C163.33 295.533 163.167 294.781 163.167 293.912C163.167 293.043 163.33 292.283 163.655 291.632C163.986 290.981 164.45 290.475 165.047 290.112C165.65 289.749 166.359 289.568 167.175 289.568C167.991 289.568 168.698 289.747 169.295 290.104C169.892 290.456 170.354 290.957 170.679 291.608C171.004 292.259 171.167 293.027 171.167 293.912C171.167 294.744 171.007 295.48 170.687 296.12C170.372 296.755 169.916 297.253 169.319 297.616C168.727 297.979 168.01 298.16 167.167 298.16ZM167.175 296.424C167.586 296.424 167.916 296.304 168.167 296.064C168.418 295.824 168.599 295.509 168.711 295.12C168.823 294.725 168.879 294.296 168.879 293.832C168.879 293.395 168.828 292.981 168.727 292.592C168.626 292.203 168.45 291.888 168.199 291.648C167.948 291.408 167.607 291.288 167.175 291.288C166.764 291.288 166.431 291.403 166.175 291.632C165.924 291.856 165.74 292.163 165.623 292.552C165.506 292.936 165.447 293.363 165.447 293.832C165.447 294.264 165.5 294.68 165.607 295.08C165.714 295.475 165.892 295.797 166.143 296.048C166.394 296.299 166.738 296.424 167.175 296.424Z" fill="#F3F3F3"/>
</g>
<defs>
<linearGradient id="paint0_linear_728_21844" x1="204.446" y1="448.438" x2="181.093" y2="442.181" gradientUnits="userSpaceOnUse">
<stop stop-color="#F8D33A"/>
<stop offset="0.965864" stop-color="#FFA142"/>
</linearGradient>
<linearGradient id="paint1_linear_728_21844" x1="282.388" y1="516.358" x2="288.645" y2="539.71" gradientUnits="userSpaceOnUse">
<stop stop-color="#F8D33A"/>
<stop offset="0.965864" stop-color="#FFA142"/>
</linearGradient>
<linearGradient id="paint2_linear_728_21844" x1="146.409" y1="405.378" x2="146.409" y2="451.276" gradientUnits="userSpaceOnUse">
<stop stop-color="#F0B90B"/>
<stop offset="0.403354" stop-color="#F8D33A"/>
</linearGradient>
<linearGradient id="paint3_linear_728_21844" x1="299.274" y1="416.715" x2="253.959" y2="421.101" gradientUnits="userSpaceOnUse">
<stop stop-color="#E81899"/>
<stop offset="0.925484" stop-color="#C8047D"/>
</linearGradient>
<clipPath id="clip0_728_21844">
<rect width="342" height="732" rx="30" fill="white"/>
</clipPath>
</defs>
</svg>
