<svg width="1229" height="265" viewBox="0 0 1229 265" fill="none" xmlns="http://www.w3.org/2000/svg">
<rect x="790.07" width="4.87698" height="4.87698" fill="white" fill-opacity="0.1"/>
<rect x="1122.52" y="23.5723" width="4.87698" height="4.87698" fill="#FFC236"/>
<rect x="1190.8" y="95.1016" width="4.87698" height="4.87698" fill="white" fill-opacity="0.1"/>
<rect x="42.2656" y="5.69141" width="4.87698" height="4.87698" fill="white" fill-opacity="0.1"/>
<rect x="790.07" y="10.5684" width="4.87698" height="4.87698" fill="white" fill-opacity="0.1"/>
<rect opacity="0.4" x="1122.52" y="34.1387" width="4.87698" height="4.87698" fill="#FFC236"/>
<rect x="1190.8" y="105.668" width="4.87698" height="4.87698" fill="white" fill-opacity="0.1"/>
<rect x="42.2656" y="16.2559" width="4.87698" height="4.87698" fill="white"/>
<rect x="790.07" y="21.1328" width="4.87698" height="4.87698" fill="white" fill-opacity="0.1"/>
<rect x="1122.52" y="44.707" width="4.87698" height="4.87698" fill="white" fill-opacity="0.1"/>
<rect x="1190.8" y="116.234" width="4.87698" height="4.87698" fill="white" fill-opacity="0.1"/>
<rect x="356.832" y="152.812" width="4.87698" height="4.87698" fill="white" fill-opacity="0.1"/>
<rect x="468.191" y="143.059" width="4.87698" height="4.87698" fill="white" fill-opacity="0.1"/>
<rect x="121.111" y="245.477" width="4.87698" height="4.87698" fill="white" fill-opacity="0.1"/>
<rect x="149.561" y="140.619" width="4.87698" height="4.87698" fill="white" fill-opacity="0.1"/>
<rect x="243.85" y="99.166" width="4.87698" height="4.87698" fill="white" fill-opacity="0.1"/>
<rect x="149.561" y="205.646" width="4.87698" height="4.87698" fill="white" fill-opacity="0.1"/>
<rect x="354.395" y="83.7207" width="4.87698" height="4.87698" fill="white" fill-opacity="0.1"/>
<rect x="265.795" y="26.0117" width="4.87698" height="4.87698" fill="white" fill-opacity="0.1"/>
<rect x="401.539" y="23.5723" width="4.87698" height="4.87698" fill="white" fill-opacity="0.1"/>
<rect x="65.8398" y="161.754" width="4.87698" height="4.87698" fill="white" fill-opacity="0.1"/>
<rect x="537.281" y="30.8887" width="4.87698" height="4.87698" fill="white" fill-opacity="0.1"/>
<rect x="700.66" y="34.1387" width="4.87698" height="4.87698" fill="white" fill-opacity="0.1"/>
<rect x="756.746" y="120.299" width="4.87698" height="4.87698" fill="white" fill-opacity="0.1"/>
<rect x="897.363" y="118.674" width="4.87698" height="4.87698" fill="white" fill-opacity="0.1"/>
<rect x="1074.56" y="70.7148" width="4.87698" height="4.87698" fill="white" fill-opacity="0.1"/>
<rect x="1098.95" y="155.252" width="4.87698" height="4.87698" fill="white" fill-opacity="0.1"/>
<rect x="732.359" y="78.0332" width="4.87698" height="4.87698" fill="white" fill-opacity="0.1"/>
<rect x="937.195" y="195.078" width="4.87698" height="4.87698" fill="white" fill-opacity="0.1"/>
<rect x="946.947" y="174.758" width="4.87698" height="4.87698" fill="white" fill-opacity="0.1"/>
<rect x="301.561" y="112.984" width="4.87698" height="4.87698" fill="#6438D6"/>
<rect x="1002.22" y="30.8887" width="4.87698" height="4.87698" fill="white" fill-opacity="0.1"/>
<rect x="116.234" y="117.859" width="4.87698" height="4.87698" fill="white" fill-opacity="0.1"/>
<rect x="198.332" y="225.967" width="4.87698" height="4.87698" fill="#FFC236"/>
<rect x="203.207" y="151.188" width="4.87698" height="4.87698" fill="white" fill-opacity="0.1"/>
<rect x="820.146" y="199.957" width="4.87698" height="4.87698" fill="white" fill-opacity="0.1"/>
<rect x="1053.43" y="212.961" width="4.87698" height="4.87698" fill="white" fill-opacity="0.1"/>
<rect x="1134.71" y="105.668" width="4.87698" height="4.87698" fill="white" fill-opacity="0.1"/>
<rect x="458.438" y="75.5918" width="4.87698" height="4.87698" fill="white" fill-opacity="0.1"/>
<rect x="572.234" y="43.8926" width="4.87698" height="4.87698" fill="white"/>
<rect x="768.125" y="184.514" width="4.87698" height="4.87698" fill="white" fill-opacity="0.1"/>
<rect x="946.947" y="67.4648" width="4.87698" height="4.87698" fill="white" fill-opacity="0.1"/>
<rect opacity="0.4" x="301.561" y="123.551" width="4.87698" height="4.87698" fill="#6438D6"/>
<rect x="1002.22" y="41.4531" width="4.87698" height="4.87698" fill="white" fill-opacity="0.1"/>
<rect x="116.234" y="128.428" width="4.87698" height="4.87698" fill="white" fill-opacity="0.1"/>
<rect opacity="0.4" x="198.332" y="236.535" width="4.87698" height="4.87698" fill="#FFC236"/>
<rect x="203.207" y="161.754" width="4.87698" height="4.87698" fill="white" fill-opacity="0.1"/>
<rect x="820.146" y="210.523" width="4.87698" height="4.87698" fill="white" fill-opacity="0.1"/>
<rect x="1053.43" y="223.529" width="4.87698" height="4.87698" fill="white" fill-opacity="0.1"/>
<rect x="1134.71" y="116.234" width="4.87698" height="4.87698" fill="white" fill-opacity="0.1"/>
<rect x="458.438" y="86.1602" width="4.87698" height="4.87698" fill="white" fill-opacity="0.1"/>
<rect x="572.234" y="54.459" width="4.87698" height="4.87698" fill="white" fill-opacity="0.1"/>
<rect x="768.125" y="195.078" width="4.87698" height="4.87698" fill="white" fill-opacity="0.1"/>
<rect x="946.947" y="78.0332" width="4.87698" height="4.87698" fill="white" fill-opacity="0.1"/>
<rect x="270.672" y="152.812" width="4.87698" height="4.87698" fill="white" fill-opacity="0.1"/>
<rect x="173.945" y="47.1445" width="4.87698" height="4.87698" fill="#E81899"/>
<rect x="101.604" y="228.406" width="4.87698" height="4.87698" fill="white" fill-opacity="0.1"/>
<rect x="841.281" y="99.166" width="4.87698" height="4.87698" fill="#6438D6"/>
<rect x="270.672" y="163.379" width="4.87698" height="4.87698" fill="white" fill-opacity="0.1"/>
<rect opacity="0.4" x="173.945" y="57.7129" width="4.87698" height="4.87698" fill="#E81899"/>
<rect x="101.604" y="238.973" width="4.87698" height="4.87698" fill="white" fill-opacity="0.1"/>
<rect opacity="0.4" x="841.281" y="109.732" width="4.87698" height="4.87698" fill="#6438D6"/>
<rect x="270.672" y="173.945" width="4.87698" height="4.87698" fill="white" fill-opacity="0.1"/>
<rect x="173.945" y="68.2773" width="4.87698" height="4.87698" fill="white" fill-opacity="0.1"/>
<rect x="101.604" y="249.539" width="4.87698" height="4.87698" fill="white" fill-opacity="0.1"/>
<rect x="841.281" y="120.299" width="4.87698" height="4.87698" fill="white" fill-opacity="0.1"/>
<rect x="270.672" y="184.514" width="4.87698" height="4.87698" fill="white" fill-opacity="0.1"/>
<rect x="173.945" y="78.8457" width="4.87698" height="4.87698" fill="white" fill-opacity="0.1"/>
<rect x="101.604" y="260.105" width="4.87698" height="4.87698" fill="white" fill-opacity="0.1"/>
<rect x="841.281" y="130.865" width="4.87698" height="4.87698" fill="white" fill-opacity="0.1"/>
<rect x="1007.1" y="109.732" width="4.87698" height="4.87698" fill="white" fill-opacity="0.1"/>
<rect x="1150.16" y="204.834" width="4.87698" height="4.87698" fill="white" fill-opacity="0.1"/>
<rect x="413.73" y="182.074" width="4.87698" height="4.87698" fill="white" fill-opacity="0.1"/>
<rect opacity="0.4" x="1019.29" y="159.316" width="4.87698" height="4.87698" fill="#E81899"/>
<rect x="1007.1" y="120.299" width="4.87698" height="4.87698" fill="white" fill-opacity="0.1"/>
<rect x="1150.16" y="215.4" width="4.87698" height="4.87698" fill="white" fill-opacity="0.1"/>
<rect x="413.73" y="192.641" width="4.87698" height="4.87698" fill="white" fill-opacity="0.1"/>
<rect x="1019.29" y="148.748" width="4.87698" height="4.87698" fill="#E81899"/>
<rect x="1007.1" y="130.865" width="4.87698" height="4.87698" fill="white" fill-opacity="0.1"/>
<rect x="1150.16" y="225.967" width="4.87698" height="4.87698" fill="white" fill-opacity="0.1"/>
<rect x="413.73" y="203.207" width="4.87698" height="4.87698" fill="white" fill-opacity="0.1"/>
<path d="M327.572 70.7168V78.2683" stroke="#C8047D" stroke-width="1.21925" stroke-linecap="round" stroke-linejoin="round"/>
<path d="M331.059 74.4922L323.507 74.4922" stroke="#C8047D" stroke-width="1.21925" stroke-linecap="round" stroke-linejoin="round"/>
<path d="M873.795 170.693V178.245" stroke="#C8047D" stroke-width="1.21925" stroke-linecap="round" stroke-linejoin="round"/>
<path d="M877.281 174.469L869.73 174.469" stroke="#C8047D" stroke-width="1.21925" stroke-linecap="round" stroke-linejoin="round"/>
<path d="M118.676 180.449V188.001" stroke="#C8047D" stroke-width="1.21925" stroke-linecap="round" stroke-linejoin="round"/>
<path d="M122.162 184.225L114.611 184.225" stroke="#C8047D" stroke-width="1.21925" stroke-linecap="round" stroke-linejoin="round"/>
<path d="M1038.8 46.3301V53.8815" stroke="#C8047D" stroke-width="1.21925" stroke-linecap="round" stroke-linejoin="round"/>
<path d="M1042.29 50.1055L1034.73 50.1055" stroke="#C8047D" stroke-width="1.21925" stroke-linecap="round" stroke-linejoin="round"/>
<path d="M1155.85 177.195V184.747" stroke="#C8047D" stroke-width="1.21925" stroke-linecap="round" stroke-linejoin="round"/>
<path d="M1159.33 180.971L1151.78 180.971" stroke="#C8047D" stroke-width="1.21925" stroke-linecap="round" stroke-linejoin="round"/>
<rect y="78.8457" width="4.87698" height="4.87698" fill="white" fill-opacity="0.1"/>
<rect x="1224.12" y="167.443" width="4.87698" height="4.87698" fill="white" fill-opacity="0.1"/>
</svg>
