<svg width="194" height="54" viewBox="0 0 194 54" fill="none" xmlns="http://www.w3.org/2000/svg">
<g clip-path="url(#clip0_1271_18552)">
<mask id="path-1-inside-1_1271_18552" fill="white">
<path d="M0 54L6.43944e-07 -3.8147e-06L194 -1.50127e-06L194 54L0 54Z"/>
</mask>
<line x1="22.5137" y1="84.5538" x2="-23.4554" y2="-14.0272" stroke="#FF6FC8" stroke-width="0.504304"/>
<line x1="139.203" y1="84.5538" x2="93.234" y2="-14.0272" stroke="#FF6FC8" stroke-width="0.504304"/>
<line x1="80.8594" y1="84.5538" x2="34.8903" y2="-14.0272" stroke="#FF6FC8" stroke-width="0.504304"/>
<line x1="197.551" y1="84.5538" x2="151.582" y2="-14.0272" stroke="#FF6FC8" stroke-width="0.504304"/>
<line x1="30.8496" y1="84.5538" x2="-15.1195" y2="-14.0272" stroke="#FF6FC8" stroke-width="0.504304"/>
<line x1="147.539" y1="84.5538" x2="101.57" y2="-14.0272" stroke="#FF6FC8" stroke-width="0.504304"/>
<line x1="89.1933" y1="84.5538" x2="43.2243" y2="-14.0272" stroke="#FF6FC8" stroke-width="0.504304"/>
<line x1="205.885" y1="84.5538" x2="159.916" y2="-14.0272" stroke="#FF6FC8" stroke-width="0.504304"/>
<line x1="39.1836" y1="84.5538" x2="-6.78551" y2="-14.0272" stroke="#FF6FC8" stroke-width="0.504304"/>
<line x1="155.875" y1="84.5538" x2="109.906" y2="-14.0272" stroke="#FF6FC8" stroke-width="0.504304"/>
<line x1="97.5293" y1="84.5538" x2="51.5602" y2="-14.0272" stroke="#FF6FC8" stroke-width="0.504304"/>
<line x1="214.219" y1="84.5538" x2="168.25" y2="-14.0272" stroke="#FF6FC8" stroke-width="0.504304"/>
<line x1="47.5195" y1="84.5538" x2="1.55043" y2="-14.0272" stroke="#FF6FC8" stroke-width="0.504304"/>
<line x1="164.209" y1="84.5538" x2="118.24" y2="-14.0272" stroke="#FF6FC8" stroke-width="0.504304"/>
<line x1="105.865" y1="84.5538" x2="59.8961" y2="-14.0272" stroke="#FF6FC8" stroke-width="0.504304"/>
<line x1="222.555" y1="84.5538" x2="176.586" y2="-14.0272" stroke="#FF6FC8" stroke-width="0.504304"/>
<line x1="55.8555" y1="84.5538" x2="9.88637" y2="-14.0272" stroke="#FF6FC8" stroke-width="0.504304"/>
<line x1="172.545" y1="84.5538" x2="126.576" y2="-14.0272" stroke="#FF6FC8" stroke-width="0.504304"/>
<line x1="114.199" y1="84.5538" x2="68.2301" y2="-14.0272" stroke="#FF6FC8" stroke-width="0.504304"/>
<line x1="230.891" y1="84.5538" x2="184.922" y2="-14.0272" stroke="#FF6FC8" stroke-width="0.504304"/>
<line x1="64.1894" y1="84.5538" x2="18.2204" y2="-14.0272" stroke="#FF6FC8" stroke-width="0.504304"/>
<line x1="180.879" y1="84.5538" x2="134.91" y2="-14.0272" stroke="#FF6FC8" stroke-width="0.504304"/>
<line x1="122.535" y1="84.5538" x2="76.5661" y2="-14.0272" stroke="#FF6FC8" stroke-width="0.504304"/>
<line x1="239.225" y1="84.5538" x2="193.256" y2="-14.0272" stroke="#FF6FC8" stroke-width="0.504304"/>
<line x1="72.5234" y1="84.5538" x2="26.5543" y2="-14.0272" stroke="#FF6FC8" stroke-width="0.504304"/>
<line x1="189.215" y1="84.5538" x2="143.246" y2="-14.0272" stroke="#FF6FC8" stroke-width="0.504304"/>
<line x1="130.869" y1="84.5538" x2="84.9" y2="-14.0272" stroke="#FF6FC8" stroke-width="0.504304"/>
</g>
<path d="M0.504304 54L0.504305 -3.80868e-06L-0.504304 -3.82071e-06L-0.504304 54L0.504304 54ZM193.496 -1.50728e-06L193.496 54L194.504 54L194.504 -1.49526e-06L193.496 -1.50728e-06Z" fill="#444A55" mask="url(#path-1-inside-1_1271_18552)"/>
<defs>
<clipPath id="clip0_1271_18552">
<path d="M0 54L6.43944e-07 -3.8147e-06L194 -1.50127e-06L194 54L0 54Z" fill="white"/>
</clipPath>
</defs>
</svg>
