<svg width="106" height="358" viewBox="0 0 106 358" fill="none" xmlns="http://www.w3.org/2000/svg">
<g clip-path="url(#clip0_879_9356)">
<line x1="-12.35" y1="0.701143" x2="183.129" y2="-90.4523" stroke="#FF6FC8"/>
<line x1="-12.35" y1="232.09" x2="183.129" y2="140.936" stroke="#FF6FC8"/>
<line x1="-12.35" y1="116.396" x2="183.129" y2="25.243" stroke="#FF6FC8"/>
<line x1="-12.35" y1="347.785" x2="183.129" y2="256.632" stroke="#FF6FC8"/>
<line x1="-12.35" y1="17.2304" x2="183.129" y2="-73.923" stroke="#FF6FC8"/>
<line x1="-12.35" y1="248.619" x2="183.129" y2="157.466" stroke="#FF6FC8"/>
<line x1="-12.35" y1="132.924" x2="183.129" y2="41.7703" stroke="#FF6FC8"/>
<line x1="-12.35" y1="364.312" x2="183.129" y2="273.159" stroke="#FF6FC8"/>
<line x1="-12.35" y1="33.7578" x2="183.129" y2="-57.3957" stroke="#FF6FC8"/>
<line x1="-12.35" y1="265.146" x2="183.129" y2="173.993" stroke="#FF6FC8"/>
<line x1="-12.35" y1="149.451" x2="183.129" y2="58.2977" stroke="#FF6FC8"/>
<line x1="-12.35" y1="380.84" x2="183.129" y2="289.686" stroke="#FF6FC8"/>
<line x1="-12.35" y1="50.2851" x2="183.129" y2="-40.8684" stroke="#FF6FC8"/>
<line x1="-12.35" y1="281.674" x2="183.129" y2="190.52" stroke="#FF6FC8"/>
<line x1="-12.35" y1="165.98" x2="183.129" y2="74.827" stroke="#FF6FC8"/>
<line x1="-12.35" y1="397.369" x2="183.129" y2="306.216" stroke="#FF6FC8"/>
<line x1="-12.35" y1="66.8125" x2="183.129" y2="-24.341" stroke="#FF6FC8"/>
<line x1="-12.35" y1="298.201" x2="183.129" y2="207.048" stroke="#FF6FC8"/>
<line x1="-12.35" y1="182.508" x2="183.129" y2="91.3543" stroke="#FF6FC8"/>
<line x1="-12.35" y1="413.896" x2="183.129" y2="322.743" stroke="#FF6FC8"/>
<line x1="-12.35" y1="83.3398" x2="183.129" y2="-7.81366" stroke="#FF6FC8"/>
<line x1="-12.35" y1="314.728" x2="183.129" y2="223.575" stroke="#FF6FC8"/>
<line x1="-12.35" y1="199.035" x2="183.129" y2="107.882" stroke="#FF6FC8"/>
<line x1="-12.35" y1="430.424" x2="183.129" y2="339.27" stroke="#FF6FC8"/>
<line x1="-12.35" y1="99.8691" x2="183.129" y2="8.71563" stroke="#FF6FC8"/>
<line x1="-12.35" y1="331.258" x2="183.129" y2="240.104" stroke="#FF6FC8"/>
<line x1="-12.35" y1="215.562" x2="183.129" y2="124.409" stroke="#FF6FC8"/>
<line x1="-12.35" y1="446.951" x2="183.129" y2="355.798" stroke="#FF6FC8"/>
</g>
<defs>
<clipPath id="clip0_879_9356">
<rect width="106" height="358" fill="white"/>
</clipPath>
</defs>
</svg>
