<svg width="360" height="36" viewBox="0 0 360 36" fill="none" xmlns="http://www.w3.org/2000/svg">
<path d="M8.88188 20.285V26.09C8.88188 26.45 9.01688 26.765 9.24188 26.99L11.3569 29.105V35.045H5.46188L0.871875 30.41V16.55H5.14688L8.88188 20.285ZM16.2169 13.175C16.4869 13.4 16.8019 13.535 17.1619 13.535H25.0819V17.855L21.3919 21.545H14.0119C13.5619 21.545 13.1119 21.365 12.7969 21.05L1.36688 9.62C1.05188 9.305 0.871875 8.855 0.871875 8.405V0.304999H5.14688L8.88188 3.995V5.255C8.88188 5.615 9.01688 5.93 9.24188 6.155L16.2169 13.175ZM47.2669 0.304999H51.5419V8.405C51.5419 8.855 51.4069 9.305 51.0919 9.62L39.6169 21.05C39.3019 21.365 38.8519 21.545 38.4469 21.545H31.0219L27.3319 17.855V13.535H35.2519C35.6119 13.535 35.9269 13.4 36.1969 13.175L43.1719 6.155C43.4419 5.93 43.5319 5.615 43.5319 5.255V3.995L47.2669 0.304999ZM43.5319 26.09V20.285L47.2669 16.55H51.5419V30.41L46.9519 35.045H41.0569V29.105L43.1719 26.99C43.3969 26.765 43.5319 26.45 43.5319 26.09ZM53.7381 0.304999H97.6131V4.58L93.9231 8.315H57.4281L53.7381 4.58V0.304999ZM79.4781 14.885V26.99H93.9231L97.6131 30.725V35H53.7381V30.725L57.4281 26.99H71.4681V17.99C71.4681 17.63 71.3331 17.315 71.1081 17.09L68.9931 14.975V10.25H74.8881L79.4781 14.885ZM130.169 13.535C130.349 13.535 130.529 13.625 130.664 13.76L148.574 31.67L145.244 35.045H140.609L127.154 21.545H118.064C117.884 21.545 117.704 21.5 117.569 21.365L107.759 11.51V31.31L104.024 35.045H99.7488V4.04C99.7488 3.86 99.7938 3.68 99.9288 3.545L103.214 0.304999H107.849L121.079 13.535H130.169ZM144.659 0.304999H148.979V24.65H144.659L140.969 20.915V3.995L144.659 0.304999ZM182.596 13.535C182.776 13.535 182.956 13.625 183.091 13.76L201.001 31.67L197.671 35.045H193.036L179.581 21.545H170.491C170.311 21.545 170.131 21.5 169.996 21.365L160.186 11.51V31.31L156.451 35.045H152.176V4.04C152.176 3.86 152.221 3.68 152.356 3.545L155.641 0.304999H160.276L173.506 13.535H182.596ZM197.086 0.304999H201.406V24.65H197.086L193.396 20.915V3.995L197.086 0.304999ZM215.048 26.99H224.723L228.413 30.725V35H211.583C211.133 35 210.683 34.82 210.323 34.46L204.788 28.07C204.518 27.8 204.383 27.395 204.383 26.99V8.315C204.383 7.91 204.518 7.55 204.788 7.235L210.323 0.844997C210.683 0.484999 211.133 0.304999 211.583 0.304999H228.368V4.58L224.678 8.315H215.048C214.688 8.315 214.328 8.45 214.103 8.72L212.708 10.34C212.483 10.565 212.393 10.88 212.393 11.195V24.11C212.393 24.425 212.483 24.74 212.708 24.965L214.103 26.585C214.328 26.855 214.688 26.99 215.048 26.99ZM254.288 7.235C254.558 7.55 254.693 7.91 254.693 8.315V26.99C254.693 27.395 254.558 27.8 254.288 28.07L248.708 34.46C248.393 34.82 247.943 35 247.448 35H230.528V30.725L234.218 26.99H243.983C244.388 26.99 244.703 26.855 244.973 26.585L246.368 24.965C246.548 24.74 246.683 24.425 246.683 24.11V11.195C246.683 10.88 246.548 10.565 246.368 10.34L244.973 8.72C244.703 8.45 244.388 8.315 243.983 8.315H234.173L230.483 4.58V0.304999H247.448C247.943 0.304999 248.393 0.484999 248.708 0.844997L254.288 7.235ZM265.654 15.065L261.919 18.755H257.644V4.895L262.234 0.304999H268.129V6.245L266.014 8.315C265.789 8.54 265.654 8.9 265.654 9.215V15.065ZM270.784 13.76H278.074L281.764 17.495V21.77H273.934C273.574 21.77 273.259 21.905 272.989 22.175L266.014 29.15C265.789 29.42 265.654 29.735 265.654 30.05V31.31L261.919 35.045H257.644V26.9C257.644 26.45 257.779 26.045 258.139 25.73L269.569 14.255C269.884 13.94 270.334 13.76 270.784 13.76ZM303.544 0.304999L308.134 4.895V18.755H303.814L300.124 15.065V9.215C300.124 8.9 299.989 8.54 299.764 8.315L297.649 6.245V0.304999H303.544ZM296.209 14.255L307.639 25.73C307.954 26.045 308.134 26.45 308.134 26.9V35.045H303.814L300.124 31.31V30.05C300.124 29.735 299.989 29.42 299.764 29.15L292.744 22.175C292.519 21.905 292.204 21.77 291.844 21.77H284.014V17.495L287.704 13.76H294.994C295.444 13.76 295.849 13.94 296.209 14.255ZM320.538 26.585C320.763 26.855 321.123 26.99 321.483 26.99H347.943V31.31L344.253 35H318.063C317.568 35 317.118 34.82 316.758 34.46L311.223 28.07C310.953 27.755 310.818 27.395 310.818 26.99V18.71H315.093L318.828 22.4V24.11C318.828 24.425 318.918 24.74 319.143 24.965L320.538 26.585ZM358.428 23.84C358.743 24.2 358.923 24.605 358.923 25.055V30.86L354.783 35H350.148V26.45L345.513 21.905C345.243 21.68 344.928 21.545 344.613 21.545H322.248C321.798 21.545 321.393 21.365 321.078 21.05L311.448 11.465C311.133 11.15 310.953 10.7 310.953 10.25V4.445L315.093 0.304999H319.728V8.855L324.183 13.175C324.408 13.4 324.723 13.535 325.083 13.535H347.403C347.853 13.535 348.303 13.715 348.618 14.03L358.428 23.84ZM358.653 7.235C358.923 7.55 359.058 7.91 359.058 8.315V16.595H354.783L351.048 12.905V11.195C351.048 10.88 350.958 10.565 350.733 10.34L349.338 8.72C349.113 8.45 348.753 8.315 348.393 8.315H321.933V3.995L325.623 0.304999L351.903 0.349998C352.353 0.349998 352.848 0.574998 353.163 0.934999L358.653 7.235Z" fill="#F3F3F3"/>
</svg>
