<svg width="258" height="218" viewBox="0 0 258 218" fill="none" xmlns="http://www.w3.org/2000/svg">
<path d="M20.1065 98.9062C20.3016 82.2531 33.96 68.9113 50.613 69.1065C67.2661 69.3016 80.6074 82.9598 80.4123 99.6129C80.2171 116.266 66.5594 129.608 49.9063 129.413C33.2532 129.217 19.9113 115.559 20.1065 98.9062Z" fill="#E91898" fill-opacity="0.4" stroke="#E91898" stroke-width="1.48886"/>
<path d="M61.9538 225.716C59.8979 225.712 58.2251 224.123 58.0815 222.125L58.0853 221.8L58.6708 171.838C58.6959 169.698 60.4451 167.989 62.5855 168.014L85.6826 168.284C87.109 168.301 88.4821 167.75 89.4931 166.762L199.711 59.0981C200.451 58.3751 201.429 57.9875 202.463 57.9996L253.377 58.5963C255.518 58.6214 257.227 60.3709 257.201 62.5114L256.944 84.5243C256.931 85.5569 256.509 86.5393 255.781 87.2503L115.2 224.575C114.484 225.274 113.501 225.674 112.492 225.674L112.491 225.674L61.9547 225.716C61.9544 225.716 61.9541 225.716 61.9538 225.716Z" fill="#E91898" fill-opacity="0.4" stroke="#E91898" stroke-width="1.48886"/>
<path d="M116.001 328.483L115.987 328.497L115.987 277.332C115.987 276.299 116.399 275.311 117.118 274.592L182.17 209.541C182.901 208.809 183.875 208.41 184.909 208.41L195.183 208.41C197.323 208.41 199.053 210.139 199.053 212.28L199.053 276.75C199.053 277.783 198.641 278.769 197.922 279.489L172.179 305.232C171.165 306.246 170.612 307.599 170.612 309.024L170.612 329.413C170.612 331.521 168.926 333.249 166.81 333.283L166.807 333.283L119.949 334.182L119.948 334.182C117.776 334.226 116.001 332.475 116.001 330.312L116.001 328.483Z" fill="#E91898" fill-opacity="0.4" stroke="#E91898" stroke-width="1.48886"/>
<path d="M58.1604 28.9199L51.3067 19.607C50.5621 18.5943 49.4596 17.9886 48.286 17.8561C48.0194 17.8245 47.7796 17.6699 47.6471 17.4365C47.5115 17.203 47.4973 16.9191 47.6045 16.6699C48.0746 15.5862 48.103 14.329 47.5982 13.1791L42.9607 2.58692C42.273 1.01426 40.7192 0 39.003 0C37.2868 0 35.7331 1.01742 35.0469 2.58692L30.4094 13.1791C29.9062 14.329 29.9314 15.5878 30.4015 16.6699C30.5088 16.9175 30.4914 17.2015 30.3589 17.4365C30.2233 17.6699 29.9867 17.8261 29.7201 17.8561C28.5465 17.9901 27.4439 18.5959 26.6994 19.607L19.8409 28.9199C18.8235 30.3017 18.7209 32.1535 19.579 33.641C20.4387 35.1253 22.095 35.9629 23.7985 35.7752L35.2898 34.496C36.5376 34.3572 37.6149 33.7057 38.3153 32.7561C38.4746 32.5384 38.7301 32.4107 38.9999 32.4107C39.2696 32.4107 39.522 32.54 39.6845 32.7561C40.3864 33.7057 41.4622 34.3572 42.7115 34.496L54.2028 35.7752C55.9063 35.9661 57.5626 35.1285 58.4223 33.641C59.2788 32.1535 59.1763 30.3017 58.1589 28.9199H58.1604ZM33.4033 14.5073L38.0471 3.90404C38.2143 3.52389 38.5897 3.2794 39.0014 3.2794C39.4131 3.2794 39.7886 3.52547 39.9558 3.90404L44.5996 14.5073C44.7447 14.8417 44.7148 15.2281 44.5144 15.5341C44.3141 15.8402 43.975 16.0231 43.6074 16.0231H34.3923C34.0279 16.0231 33.6856 15.8386 33.4853 15.5341C33.285 15.2281 33.2534 14.8417 33.4001 14.5073H33.4033ZM35.7883 30.6503C35.6243 30.9768 35.304 31.1961 34.9412 31.2371L23.4373 32.5163C23.0272 32.5621 22.6265 32.3618 22.4183 32.0037C22.2101 31.6456 22.2369 31.1992 22.483 30.8648L29.3447 21.5424C29.5623 21.249 29.9109 21.0818 30.2753 21.1039C30.6397 21.1228 30.9694 21.3263 31.1539 21.6434L31.1618 21.656L35.7568 29.6124L35.7631 29.625C35.9476 29.942 35.9555 30.3285 35.7915 30.6534H35.7899L35.7883 30.6503ZM39.9447 27.0507C39.7491 27.3867 39.3911 27.5965 38.9999 27.5965C38.6087 27.5965 38.2506 27.3882 38.055 27.0523L34.5248 20.9399C34.3292 20.6039 34.3292 20.1859 34.5248 19.8499C34.7204 19.5139 35.0785 19.3041 35.4697 19.3041H42.5269C42.9165 19.3041 43.2762 19.5092 43.4718 19.8483C43.6674 20.1875 43.6674 20.6023 43.4718 20.9383L39.9447 27.0507ZM55.5846 32.0021C55.3763 32.3602 54.9788 32.5637 54.5656 32.5179L43.0617 31.2387C42.6989 31.1976 42.3786 30.9784 42.2146 30.6519C42.0505 30.3253 42.06 29.9389 42.243 29.6234L42.2509 29.6108L46.8442 21.6544L46.8521 21.6418C47.0351 21.3248 47.3648 21.1213 47.7307 21.1023C48.0967 21.0834 48.4437 21.2475 48.6614 21.5409L55.523 30.8632C55.7691 31.1976 55.7928 31.644 55.5877 32.0021H55.5861H55.5846Z" fill="#E91898"/>
</svg>
