<svg width="241" height="250" viewBox="0 0 241 250" fill="none" xmlns="http://www.w3.org/2000/svg">
<path d="M196.347 30.0412L196.34 30.0344L88.4927 -80.3705C87.4909 -81.396 86.1441 -81.9648 84.7192 -81.9815L62.5343 -82.2415C60.3938 -82.2666 58.6849 -84.0161 58.7099 -86.1566L59.2516 -132.377C59.2767 -134.518 61.0261 -136.227 63.1667 -136.202L116.249 -135.579C117.282 -135.567 118.264 -135.145 118.975 -134.417L254.496 4.3182C255.219 5.05827 255.607 6.03645 255.595 7.07067L255.349 27.9995C255.324 30.1399 253.575 31.8489 251.434 31.8238L199.079 31.2103C198.048 31.1982 197.067 30.7768 196.356 30.0508C196.355 30.0498 196.354 30.0488 196.353 30.0477L196.347 30.0412Z" fill="#E91898" fill-opacity="0.6" stroke="#E91898" stroke-width="1.48886"/>
<path d="M188.136 73.9592C188.181 71.9515 189.758 70.3288 191.729 70.1893L192.038 70.1929L212.491 70.4326C214.631 70.4577 216.34 72.2071 216.315 74.3477L215.763 121.467C215.738 123.608 213.988 125.317 211.848 125.292L190.8 125.045C188.636 125.02 186.917 123.236 186.976 121.075L186.976 121.073L188.136 73.961L188.136 73.9592Z" fill="#E91898" fill-opacity="0.6" stroke="#E91898" stroke-width="1.48886"/>
<path d="M196.046 178.586C198.102 178.589 199.775 180.178 199.919 182.176L199.915 182.501L199.329 232.463C199.304 234.604 197.555 236.313 195.414 236.288L172.317 236.017C170.891 236 169.518 236.552 168.507 237.539L58.2894 345.203C57.5493 345.926 56.5711 346.314 55.5369 346.302L4.62288 345.705C2.48235 345.68 0.77341 343.931 0.798495 341.79L1.05646 319.777C1.06856 318.745 1.49124 317.762 2.2191 317.051L142.8 179.727C143.516 179.027 144.499 178.627 145.508 178.628L145.509 178.628L196.045 178.586C196.046 178.586 196.046 178.586 196.046 178.586Z" fill="#E91898" fill-opacity="0.6" stroke="#E91898" stroke-width="1.48886"/>
<path d="M141.999 75.8183L142.013 75.8047V126.97C142.013 128.003 141.601 128.99 140.882 129.71L75.8303 194.761C75.0987 195.493 74.1252 195.892 73.0909 195.892H62.8175C60.6767 195.892 58.9475 194.163 58.9475 192.022V127.552C58.9475 126.519 59.3586 125.532 60.0781 124.813L85.8211 99.0692C86.8348 98.0555 87.3878 96.7024 87.3878 95.2774V74.8887C87.3878 72.7802 89.0742 71.0521 91.1901 71.0189L91.1927 71.0189L138.051 70.1195L138.052 70.1195C140.224 70.0752 141.999 71.8268 141.999 73.99V75.8183Z" fill="#E91898" fill-opacity="0.6" stroke="#E91898" stroke-width="1.48886"/>
</svg>
