<svg width="101" height="13" viewBox="0 0 101 13" fill="none" xmlns="http://www.w3.org/2000/svg">
<circle cx="2.1158" cy="2.1158" r="2.1158" fill="#FF10CF"/>
<circle cx="10.8023" cy="2.1158" r="2.1158" fill="#FF10CF"/>
<circle cx="6.34725" cy="6.34737" r="2.1158" fill="#FF10CF"/>
<circle cx="2.1158" cy="10.5791" r="2.1158" fill="#FF10CF"/>
<circle cx="10.8023" cy="10.5791" r="2.1158" fill="#FF10CF"/>
<circle cx="89.8653" cy="10.5791" r="2.1158" fill="#FF10CF"/>
<circle cx="89.8653" cy="6.34737" r="2.1158" fill="#FF10CF"/>
<circle cx="94.0968" cy="6.34737" r="2.1158" fill="#FF10CF"/>
<circle cx="94.0968" cy="2.1158" r="2.1158" fill="#FF10CF"/>
<circle cx="98.3287" cy="6.34737" r="2.1158" fill="#FF10CF"/>
<circle cx="98.3287" cy="10.5791" r="2.1158" fill="#FF10CF"/>
<circle cx="31.5137" cy="6.34737" r="2.1158" fill="#FF10CF"/>
<circle cx="31.5137" cy="2.1158" r="2.1158" fill="#FF10CF"/>
<circle cx="35.7452" cy="2.1158" r="2.1158" fill="#FF10CF"/>
<circle cx="39.9771" cy="6.34737" r="2.1158" fill="#FF10CF"/>
<circle cx="39.9771" cy="10.5791" r="2.1158" fill="#FF10CF"/>
<circle cx="35.7452" cy="10.5791" r="2.1158" fill="#FF10CF"/>
<circle cx="2.1158" cy="2.1158" r="2.1158" transform="matrix(-1 0 0 1 71.2686 4.23157)" fill="#FF10CF"/>
<circle cx="2.1158" cy="2.1158" r="2.1158" transform="matrix(-1 0 0 1 71.2686 0)" fill="#FF10CF"/>
<circle cx="2.1158" cy="2.1158" r="2.1158" transform="matrix(-1 0 0 1 67.0371 0)" fill="#FF10CF"/>
<circle cx="2.1158" cy="2.1158" r="2.1158" transform="matrix(-1 0 0 1 62.8052 4.23157)" fill="#FF10CF"/>
<circle cx="2.1158" cy="2.1158" r="2.1158" transform="matrix(-1 0 0 1 62.8052 8.46326)" fill="#FF10CF"/>
<circle cx="2.1158" cy="2.1158" r="2.1158" transform="matrix(-1 0 0 1 67.0371 8.46326)" fill="#FF10CF"/>
</svg>
