<svg width="101" height="222" viewBox="0 0 101 222" fill="none" xmlns="http://www.w3.org/2000/svg">
<path d="M-95.0462 112.139C-97.1021 112.135 -98.7748 110.546 -98.9185 108.548L-98.9147 108.223L-98.3292 58.2611C-98.3041 56.1204 -96.5549 54.4115 -94.4144 54.4366L-71.3174 54.7073C-69.891 54.724 -68.5179 54.1728 -67.5068 53.1852L42.7107 -54.4791C43.4508 -55.202 44.4289 -55.5896 45.4631 -55.5775L96.3771 -54.9809C98.5177 -54.9558 100.227 -53.2063 100.202 -51.0657L99.9436 -29.0528C99.9315 -28.0202 99.5088 -27.0378 98.7809 -26.3268L-41.7999 110.997C-42.5162 111.697 -43.4985 112.097 -44.5079 112.096L-44.509 112.096L-95.0453 112.139C-95.0456 112.139 -95.0459 112.139 -95.0462 112.139Z" fill="#E91898" fill-opacity="0.4" stroke="#E91898" stroke-width="1.48886"/>
<path d="M-40.9992 214.906L-41.0124 214.92L-41.0124 163.754C-41.0124 162.722 -40.6012 161.734 -39.8818 161.015L25.17 95.9634C25.9015 95.2318 26.8751 94.8328 27.9093 94.8328L38.1828 94.8328C40.3235 94.8328 42.0528 96.5619 42.0528 98.7025L42.0528 163.173C42.0528 164.205 41.6417 165.192 40.9222 165.912L15.1792 191.655C14.1655 192.669 13.6125 194.022 13.6125 195.447L13.6125 215.836C13.6125 217.944 11.926 219.672 9.8101 219.705L9.8075 219.706L-37.0509 220.605L-37.0518 220.605C-39.2242 220.649 -40.9992 218.898 -40.9992 216.734L-40.9992 214.906Z" fill="#E91898" fill-opacity="0.4" stroke="#E91898" stroke-width="1.48886"/>
</svg>
