<svg width="110" height="230" viewBox="0 0 110 230" fill="none" xmlns="http://www.w3.org/2000/svg">
<path d="M196.046 109.211C198.102 109.215 199.775 110.804 199.919 112.802L199.915 113.127L199.329 163.089C199.304 165.23 197.555 166.939 195.414 166.914L172.317 166.643C170.891 166.626 169.518 167.177 168.507 168.165L58.2894 275.829C57.5493 276.552 56.5711 276.94 55.5369 276.928L4.62288 276.331C2.48235 276.306 0.77341 274.557 0.798495 272.416L1.05646 250.403C1.06856 249.37 1.49124 248.388 2.2191 247.677L142.8 110.353C143.516 109.653 144.499 109.253 145.508 109.254L145.509 109.254L196.045 109.211C196.046 109.211 196.046 109.211 196.046 109.211Z" fill="#E91898" fill-opacity="0.6" stroke="#E91898" stroke-width="1.48886"/>
<path d="M141.999 6.44413L142.012 6.43057V57.5958C142.012 58.6285 141.601 59.616 140.882 60.3355L75.83 125.387C75.0985 126.118 74.1249 126.517 73.0907 126.517H62.8172C60.6765 126.517 58.9472 124.788 58.9472 122.648V58.1775C58.9472 57.1448 59.3583 56.1579 60.0779 55.4384L85.8208 29.6951C86.8345 28.6814 87.3875 27.3283 87.3875 25.9032V5.51453C87.3875 3.40603 89.074 1.678 91.1899 1.64477L91.1925 1.64472L138.051 0.745398L138.052 0.745379C140.224 0.701044 141.999 2.45261 141.999 4.61586V6.44413Z" fill="#E91898" fill-opacity="0.6" stroke="#E91898" stroke-width="1.48886"/>
</svg>
