<svg width="672" height="427" viewBox="0 0 672 427" fill="none" xmlns="http://www.w3.org/2000/svg">
<g clip-path="url(#clip0_728_21367)">
<rect width="672" height="427" rx="30" fill="#191E28"/>
<path d="M-404.263 209.125V484.852L-213.835 670.694H154.707L352.037 478.116V409.668L75.4116 139.685L-1.85151 139.685L-271.457 -123.421L-485 -123.421V-60.6461L71.5355 482.465H-131.514L-204.901 410.85L-204.901 329.687L-329.056 208.534L-404.263 209.125Z" fill="#2B303B" fill-opacity="0.5"/>
<path d="M541.612 -2.4304V-278.157L351.184 -464L-17.3582 -464L-214.711 -271.398L-214.711 -202.95L61.9375 67.0095H139.201L408.806 330.115H622.349V267.34L65.8137 -275.77H268.863L342.25 -204.156V-122.993L466.381 -1.81587L541.612 -2.4304Z" fill="#2B303B" fill-opacity="0.5"/>
<path d="M622.348 669.969V500.458L527.5 407.903H427.264V580.629L518.873 670.04L622.348 669.969Z" fill="#2B303B" fill-opacity="0.5"/>
<rect x="728.79" y="-53" width="473.04" height="885" transform="rotate(45 728.79 -53)" fill="#FFC6E9"/>
<path fill-rule="evenodd" clip-rule="evenodd" d="M401.1 109.592L355.166 30.0317L344.285 36.3135L344.251 36.2535C326.92 46.2593 323.154 72.1808 335.838 94.1507C348.477 116.042 372.68 125.75 389.998 115.921L390.033 115.981L401.1 109.592Z" fill="#E81899"/>
<ellipse cx="378.234" cy="69.912" rx="45.9341" ry="36.2638" transform="rotate(60 378.234 69.912)" fill="#FF6FC8"/>
<path fill-rule="evenodd" clip-rule="evenodd" d="M562.616 273.964L642.177 319.899L637.588 327.847L637.646 327.881C627.64 345.212 601.719 348.978 579.749 336.294C557.857 323.654 548.149 299.45 557.98 282.132L557.921 282.098L562.616 273.964Z" fill="#E81899"/>
<path d="M636.404 327.09C621.385 340.883 593.854 338.603 574.982 322.138C556.111 305.673 552.979 281.091 567.971 267.344C582.99 253.551 610.462 255.797 629.392 272.296C648.296 288.842 651.396 313.343 636.404 327.09Z" fill="#FF6FC8"/>
<path fill-rule="evenodd" clip-rule="evenodd" d="M496.557 135.807L520.334 47.0695L510.684 44.4837L510.684 44.4835C503.117 42.4558 491.659 60.6767 485.093 85.181C478.534 109.659 479.338 131.148 486.883 133.215L486.883 133.215L496.557 135.807Z" fill="url(#paint0_linear_728_21367)"/>
<path fill-rule="evenodd" clip-rule="evenodd" d="M542.019 171.247L630.757 147.47L633.343 157.12L633.343 157.12C635.371 164.687 617.15 176.145 592.646 182.71C568.168 189.269 546.68 188.466 544.612 180.921L544.612 180.921L542.019 171.247Z" fill="url(#paint1_linear_728_21367)"/>
<path fill-rule="evenodd" clip-rule="evenodd" d="M647.221 217.62L555.353 217.62L555.353 230.053L555.354 230.053C555.54 242.658 576.034 252.848 601.287 252.848C626.541 252.848 647.034 242.658 647.22 230.053L647.221 230.053L647.221 229.894C647.221 229.89 647.221 229.885 647.221 229.881L647.221 217.62Z" fill="#E81899"/>
<path d="M645.771 223.149C639.666 235.461 614.703 242.922 590.147 239.87C565.591 236.817 550.599 224.336 556.704 212.059C562.809 199.747 587.705 192.286 612.328 195.338C636.952 198.425 651.876 210.872 645.771 223.149Z" fill="#FF6FC8"/>
<ellipse cx="450.409" cy="71.3271" rx="45.8974" ry="22.9487" transform="rotate(90 450.409 71.3271)" fill="url(#paint2_linear_728_21367)"/>
<path fill-rule="evenodd" clip-rule="evenodd" d="M456.237 51.7936L466.014 71.346L462.116 79.142L452.339 59.5896L456.237 51.7936ZM444.555 51.808L460.179 83.0545L456.28 90.8506L440.657 59.6041L444.555 51.808ZM454.324 94.7409L438.701 63.4944L434.803 71.2905L450.426 102.537L454.324 94.7409ZM450.4 40.1172L454.298 47.9133L450.4 55.7093L446.502 47.9133L450.4 40.1172Z" fill="white"/>
<path fill-rule="evenodd" clip-rule="evenodd" d="M450.184 117.392L450.184 25.5239L437.923 25.5239L437.923 25.5234C437.887 25.5234 437.851 25.5236 437.815 25.5239L437.751 25.5239L437.751 25.5247C425.146 25.7102 414.956 46.204 414.956 71.4575C414.956 96.7111 425.146 117.205 437.751 117.39L437.751 117.392L450.184 117.392Z" fill="#E81899"/>
<ellipse cx="450.234" cy="71.3271" rx="45.8974" ry="23.1239" transform="rotate(90 450.234 71.3271)" fill="#FF6FC8"/>
<path fill-rule="evenodd" clip-rule="evenodd" d="M542.131 171.359L630.869 147.582L633.455 157.232L633.455 157.232C635.483 164.799 617.262 176.257 592.758 182.823C568.28 189.381 546.792 188.578 544.724 181.034L544.723 181.034L542.131 171.359Z" fill="#E81899"/>
<ellipse cx="45.9341" cy="14.1601" rx="45.9341" ry="14.1601" transform="matrix(-0.965926 0.258819 0.258819 0.965926 627.094 133.793)" fill="#FF6FC8"/>
<path fill-rule="evenodd" clip-rule="evenodd" d="M494.939 135.292L518.716 46.5538L509.066 43.968L509.066 43.9679C501.498 41.9402 490.041 60.1611 483.475 84.6654C476.916 109.144 477.719 130.632 485.264 132.699L485.264 132.699L494.939 135.292Z" fill="#E81899"/>
<ellipse cx="508.29" cy="91.4065" rx="46.0155" ry="14.1946" transform="rotate(105 508.29 91.4065)" fill="#FF6FC8"/>
<rect x="578.006" y="86.1904" width="15.4898" height="91.8682" transform="rotate(45 578.006 86.1904)" fill="url(#paint3_linear_728_21367)"/>
<path d="M52.88 158H39.3L55.61 111.1H74.72L90.96 158H76.54L73.67 148.97H55.89L52.88 158ZM60.58 134.76L59.67 137.49H69.96L69.12 134.76L65.41 122.51H64.43L60.58 134.76ZM120.199 158H102.069L86.0387 111.1H100.879L110.819 143.3H111.729L121.459 111.1H136.299L120.199 158ZM144.99 158H131.41L147.72 111.1H166.83L183.07 158H168.65L165.78 148.97H148L144.99 158ZM152.69 134.76L151.78 137.49H162.07L161.23 134.76L157.52 122.51H156.54L152.69 134.76ZM222.491 158H185.811V111.1H198.971V146.17H222.491V158ZM247.501 158.7C232.591 158.7 223.911 149.18 223.911 134.55C223.911 119.92 232.591 110.4 247.501 110.4C262.341 110.4 271.021 119.92 271.021 134.55C271.021 149.18 262.341 158.7 247.501 158.7ZM247.501 145.89C254.711 145.89 256.881 143.58 256.881 134.55C256.881 125.52 254.711 123.21 247.501 123.21C240.221 123.21 238.051 125.52 238.051 134.55C238.051 143.58 240.221 145.89 247.501 145.89ZM289.577 158H276.417V111.1H290.487L303.577 132.17L306.657 137.91H307.567L306.867 132.17V111.1H319.957V158H305.957L293.567 138.47L289.787 131.82H288.877L289.577 138.47V158ZM52.88 221H39.3L55.61 174.1H74.72L90.96 221H76.54L73.67 211.97H55.89L52.88 221ZM60.58 197.76L59.67 200.49H69.96L69.12 197.76L65.41 185.51H64.43L60.58 197.76ZM106.86 221H93.7004V174.1H106.86V221ZM127.281 221H114.121V174.1H137.711C149.541 174.1 155.141 179.14 155.141 188.52C155.141 195.94 152.271 200.56 144.361 201.47V202.1C149.121 203.36 151.011 206.37 152.831 210.36L157.731 221H142.401L137.781 211.27C135.821 207.21 134.911 206.02 130.501 206.02H127.281V221ZM127.281 185.93V195.1H137.221C140.931 195.1 141.981 194.05 141.981 190.34C141.981 186.91 140.931 185.93 137.221 185.93H127.281ZM181.568 221H161.338V174.1H181.568C196.968 174.1 205.438 182.71 205.438 197.55C205.438 212.39 196.968 221 181.568 221ZM180.868 185.93H174.498V209.17H180.868C189.128 209.17 191.228 207.42 191.228 197.55C191.228 187.68 189.128 185.93 180.868 185.93ZM223.971 221H210.811V174.1H234.401C246.231 174.1 251.831 179.14 251.831 188.52C251.831 195.94 248.961 200.56 241.051 201.47V202.1C245.811 203.36 247.701 206.37 249.521 210.36L254.421 221H239.091L234.471 211.27C232.511 207.21 231.601 206.02 227.191 206.02H223.971V221ZM223.971 185.93V195.1H233.911C237.621 195.1 238.671 194.05 238.671 190.34C238.671 186.91 237.621 185.93 233.911 185.93H223.971ZM280.568 221.7C265.658 221.7 256.978 212.18 256.978 197.55C256.978 182.92 265.658 173.4 280.568 173.4C295.408 173.4 304.088 182.92 304.088 197.55C304.088 212.18 295.408 221.7 280.568 221.7ZM280.568 208.89C287.778 208.89 289.948 206.58 289.948 197.55C289.948 188.52 287.778 186.21 280.568 186.21C273.288 186.21 271.118 188.52 271.118 197.55C271.118 206.58 273.288 208.89 280.568 208.89ZM322.644 221H309.484V174.1H331.674C342.874 174.1 350.084 180.61 350.084 191.39C350.084 202.52 342.874 208.61 331.674 208.61H322.644V221ZM331.184 185.93H322.644V196.85H331.184C335.664 196.85 336.924 196.01 336.924 191.39C336.924 186.77 335.664 185.93 331.184 185.93Z" fill="#E81899"/>
<path d="M51.935 264H45.355V248.6H40V243.455H41.155C43.36 243.455 44.76 242.65 45.81 240.55H51.935V264ZM67.3829 264.35C60.2079 264.35 56.4979 259.485 56.4979 252.275C56.4979 245.1 60.2079 240.2 67.3829 240.2C74.5229 240.2 78.2679 245.1 78.2679 252.275C78.2679 259.485 74.5229 264.35 67.3829 264.35ZM67.3829 257.945C70.3929 257.945 71.1979 257.14 71.1979 252.275C71.1979 247.41 70.3929 246.605 67.3829 246.605C64.3379 246.605 63.5679 247.41 63.5679 252.275C63.5679 257.14 64.3379 257.945 67.3829 257.945ZM93.0928 264.35C85.9178 264.35 82.2078 259.485 82.2078 252.275C82.2078 245.1 85.9178 240.2 93.0928 240.2C100.233 240.2 103.978 245.1 103.978 252.275C103.978 259.485 100.233 264.35 93.0928 264.35ZM93.0928 257.945C96.1028 257.945 96.9078 257.14 96.9078 252.275C96.9078 247.41 96.1028 246.605 93.0928 246.605C90.0478 246.605 89.2778 247.41 89.2778 252.275C89.2778 257.14 90.0478 257.945 93.0928 257.945ZM113.887 264H106.257L112.872 252.345V252.03L106.257 240.55H113.992L118.262 248.18H118.577L122.532 240.55H130.162L123.617 251.89V252.205L130.162 264H122.427L118.157 256.44H117.842L113.887 264ZM152.885 264H146.305V246.465H139.095V240.55H160.095V246.465H152.885V264ZM169.723 264H162.093L168.708 252.345V252.03L162.093 240.55H169.828L174.098 248.18H174.413L178.368 240.55H185.998L179.453 251.89V252.205L185.998 264H178.263L173.993 256.44H173.678L169.723 264ZM211.311 264H202.246L194.231 240.55H201.651L206.621 256.65H207.076L211.941 240.55H219.361L211.311 264ZM224.407 264H217.617L225.772 240.55H235.327L243.447 264H236.237L234.802 259.485H225.912L224.407 264ZM228.257 252.38L227.802 253.745H232.947L232.527 252.38L230.672 246.255H230.182L228.257 252.38ZM263.857 264H245.517V240.55H252.097V258.085H263.857V264ZM277.179 264.35C269.934 264.35 266.609 260.64 266.609 254.935V240.55H273.189V254.585C273.189 257.21 273.819 257.945 277.179 257.945C280.539 257.945 281.169 257.21 281.169 254.585V240.55H287.749V254.935C287.749 260.64 284.424 264.35 277.179 264.35ZM310.848 264H291.913V240.55H310.848V246.465H298.493V249.3H310.323V255.18H298.493V258.085H310.848V264ZM50.605 281.045C49.625 281.045 49.065 281.395 49.065 282.76C49.065 283.985 49.625 284.335 50.605 284.335H54.7V282.06H61.175V284.335H64.57V289.725H61.175V291.125C61.175 296.41 58.83 299.35 51.2 299.35C44.655 299.35 41.4 297.39 41.4 292.525C41.4 288.92 43.815 287.17 46.51 286.925V286.75C43.815 286.47 42.485 284.3 42.485 281.535C42.485 276.74 45.95 275.06 50.92 275.06H54.07V281.045H50.605ZM51.55 293.365C54.385 293.365 54.7 293.085 54.7 291.055V289.725H50.22C48.82 289.725 48.085 289.935 48.085 291.65C48.085 293.33 48.82 293.365 51.55 293.365ZM81.4857 299H74.9057V275.55H86.0007C91.6007 275.55 95.2057 278.805 95.2057 284.195C95.2057 289.76 91.6007 292.805 86.0007 292.805H81.4857V299ZM85.7557 281.465H81.4857V286.925H85.7557C87.9957 286.925 88.6257 286.505 88.6257 284.195C88.6257 281.885 87.9957 281.465 85.7557 281.465ZM109.63 299.35C102.175 299.35 97.8348 294.59 97.8348 287.275C97.8348 279.96 102.175 275.2 109.63 275.2C117.05 275.2 121.39 279.96 121.39 287.275C121.39 294.59 117.05 299.35 109.63 299.35ZM109.63 292.945C113.235 292.945 114.32 291.79 114.32 287.275C114.32 282.76 113.235 281.605 109.63 281.605C105.99 281.605 104.905 282.76 104.905 287.275C104.905 291.79 105.99 292.945 109.63 292.945ZM131.368 299H124.788V275.55H131.368V299ZM142.278 299H135.698V275.55H142.733L149.278 286.085L150.818 288.955H151.273L150.923 286.085V275.55H157.468V299H150.468L144.273 289.235L142.383 285.91H141.928L142.278 289.235V299ZM174.186 299H167.606V281.465H160.396V275.55H181.396V281.465H174.186V299ZM194.53 299.35C187.81 299.35 184.45 296.2 184.45 291.3V290.845H190.925V291.125C190.925 293.05 191.625 293.435 194.775 293.435C197.26 293.435 197.785 293.05 197.785 292.035C197.785 290.95 197.435 290.6 195.825 290.355L190.715 289.55C185.955 288.815 183.995 286.295 183.995 282.655C183.995 278.49 187.18 275.2 194.075 275.2C200.62 275.2 203.735 278.49 203.735 282.865V283.46H197.26V283.04C197.26 281.675 196.595 281.115 193.655 281.115C191.17 281.115 190.54 281.535 190.54 282.41C190.54 283.145 190.995 283.46 192.36 283.705L197.47 284.615C202.44 285.49 204.365 288.08 204.365 291.72C204.365 295.815 201.565 299.35 194.53 299.35Z" fill="#5DDEB5"/>
<rect x="40" y="335" width="170" height="48" rx="24" fill="#C8047D"/>
<path d="M75.2458 365.16C74.1685 365.16 73.2378 364.909 72.4538 364.408C71.6698 363.907 71.0645 363.203 70.6378 362.296C70.2165 361.389 70.0058 360.331 70.0058 359.12C70.0058 357.904 70.2165 356.861 70.6378 355.992C71.0591 355.117 71.6618 354.445 72.4458 353.976C73.2298 353.507 74.1631 353.272 75.2458 353.272C76.1151 353.272 76.8885 353.448 77.5658 353.8C78.2485 354.147 78.7978 354.621 79.2138 355.224C79.6351 355.827 79.8831 356.507 79.9578 357.264H77.5098C77.4351 356.864 77.2991 356.509 77.1018 356.2C76.9045 355.885 76.6458 355.64 76.3258 355.464C76.0058 355.283 75.6218 355.192 75.1738 355.192C74.6351 355.192 74.1711 355.323 73.7818 355.584C73.3925 355.845 73.0938 356.267 72.8858 356.848C72.6778 357.429 72.5738 358.197 72.5738 359.152C72.5738 360.592 72.8031 361.635 73.2618 362.28C73.7258 362.92 74.3631 363.24 75.1738 363.24C75.6218 363.24 76.0058 363.139 76.3258 362.936C76.6458 362.728 76.9045 362.456 77.1018 362.12C77.2991 361.779 77.4351 361.405 77.5098 361H79.9578C79.8885 361.549 79.7551 362.075 79.5578 362.576C79.3605 363.072 79.0805 363.515 78.7178 363.904C78.3551 364.293 77.8885 364.6 77.3178 364.824C76.7471 365.048 76.0565 365.16 75.2458 365.16ZM84.4422 365.144C83.8342 365.144 83.3515 365.072 82.9942 364.928C82.6369 364.784 82.3729 364.595 82.2022 364.36C82.0315 364.12 81.9222 363.856 81.8742 363.568C81.8262 363.275 81.8022 362.979 81.8022 362.68V353.112H84.0902V362.392C84.0902 362.696 84.1542 362.944 84.2822 363.136C84.4155 363.323 84.6635 363.437 85.0262 363.48L85.4182 363.504V364.944C85.2582 364.997 85.0955 365.043 84.9302 365.08C84.7649 365.123 84.6022 365.144 84.4422 365.144ZM89.5257 365.16C89.003 365.16 88.5284 365.061 88.1017 364.864C87.6804 364.667 87.347 364.381 87.1017 364.008C86.8564 363.629 86.7337 363.171 86.7337 362.632C86.7337 361.725 87.0724 361.037 87.7497 360.568C88.427 360.093 89.4964 359.848 90.9577 359.832L91.9977 359.816V359.32C91.9977 358.941 91.8857 358.651 91.6617 358.448C91.443 358.24 91.099 358.139 90.6297 358.144C90.2937 358.149 89.971 358.229 89.6617 358.384C89.3577 358.539 89.147 358.808 89.0297 359.192H87.0857C87.1177 358.595 87.291 358.104 87.6057 357.72C87.9257 357.331 88.355 357.043 88.8937 356.856C89.4324 356.664 90.0484 356.568 90.7417 356.568C91.5844 356.568 92.2617 356.675 92.7737 356.888C93.2857 357.096 93.6564 357.397 93.8857 357.792C94.1204 358.181 94.2377 358.645 94.2377 359.184V365H92.2857L92.0937 363.576C91.811 364.173 91.4564 364.587 91.0297 364.816C90.6084 365.045 90.107 365.16 89.5257 365.16ZM90.3177 363.624C90.5257 363.624 90.7284 363.587 90.9257 363.512C91.1284 363.432 91.3097 363.328 91.4697 363.2C91.6297 363.067 91.755 362.917 91.8457 362.752C91.9417 362.587 91.9924 362.416 91.9977 362.24V361.016L91.1577 361.032C90.7684 361.037 90.4057 361.085 90.0697 361.176C89.7337 361.261 89.4617 361.403 89.2537 361.6C89.051 361.797 88.9497 362.064 88.9497 362.4C88.9497 362.784 89.0804 363.085 89.3417 363.304C89.6084 363.517 89.9337 363.624 90.3177 363.624ZM96.2362 365V356.728H98.4682V365H96.2362ZM96.2122 355.544V353.44H98.4842V355.544H96.2122ZM100.605 365V356.728H102.893V357.896C103.143 357.533 103.479 357.221 103.901 356.96C104.327 356.699 104.863 356.568 105.509 356.568C105.791 356.568 106.079 356.619 106.373 356.72C106.666 356.821 106.941 356.971 107.197 357.168C107.458 357.36 107.669 357.603 107.829 357.896C108.095 357.517 108.445 357.203 108.877 356.952C109.314 356.696 109.799 356.568 110.333 356.568C110.642 356.568 110.954 356.619 111.269 356.72C111.589 356.821 111.882 356.987 112.149 357.216C112.415 357.445 112.629 357.752 112.789 358.136C112.954 358.515 113.037 358.984 113.037 359.544V365H110.701V359.832C110.701 359.501 110.634 359.237 110.501 359.04C110.373 358.837 110.207 358.693 110.005 358.608C109.807 358.517 109.597 358.472 109.373 358.472C109.165 358.472 108.954 358.515 108.741 358.6C108.527 358.68 108.346 358.811 108.197 358.992C108.047 359.173 107.973 359.411 107.973 359.704V365H105.645V359.624C105.645 359.373 105.578 359.163 105.445 358.992C105.311 358.821 105.143 358.693 104.941 358.608C104.743 358.517 104.541 358.472 104.333 358.472C104.119 358.472 103.906 358.517 103.693 358.608C103.479 358.693 103.301 358.829 103.157 359.016C103.013 359.197 102.941 359.427 102.941 359.704V365H100.605ZM122.216 365.16C121.406 365.16 120.699 364.987 120.096 364.64C119.499 364.293 119.035 363.803 118.704 363.168C118.379 362.533 118.216 361.781 118.216 360.912C118.216 360.043 118.379 359.283 118.704 358.632C119.035 357.981 119.499 357.475 120.096 357.112C120.699 356.749 121.408 356.568 122.224 356.568C123.04 356.568 123.747 356.747 124.344 357.104C124.942 357.456 125.403 357.957 125.728 358.608C126.054 359.259 126.216 360.027 126.216 360.912C126.216 361.744 126.056 362.48 125.736 363.12C125.422 363.755 124.966 364.253 124.368 364.616C123.776 364.979 123.059 365.16 122.216 365.16ZM122.224 363.424C122.635 363.424 122.966 363.304 123.216 363.064C123.467 362.824 123.648 362.509 123.76 362.12C123.872 361.725 123.928 361.296 123.928 360.832C123.928 360.395 123.878 359.981 123.776 359.592C123.675 359.203 123.499 358.888 123.248 358.648C122.998 358.408 122.656 358.288 122.224 358.288C121.814 358.288 121.48 358.403 121.224 358.632C120.974 358.856 120.79 359.163 120.672 359.552C120.555 359.936 120.496 360.363 120.496 360.832C120.496 361.264 120.55 361.68 120.656 362.08C120.763 362.475 120.942 362.797 121.192 363.048C121.443 363.299 121.787 363.424 122.224 363.424ZM127.892 365V356.728H130.188V357.896C130.316 357.693 130.481 357.499 130.684 357.312C130.892 357.12 131.153 356.963 131.468 356.84C131.782 356.717 132.156 356.656 132.588 356.656C133.094 356.656 133.566 356.755 134.004 356.952C134.446 357.149 134.804 357.461 135.076 357.888C135.348 358.309 135.484 358.861 135.484 359.544V365H133.148V359.832C133.148 359.384 133.014 359.048 132.748 358.824C132.481 358.6 132.156 358.488 131.772 358.488C131.516 358.488 131.268 358.533 131.028 358.624C130.793 358.715 130.601 358.851 130.452 359.032C130.302 359.213 130.228 359.437 130.228 359.704V365H127.892ZM143.945 365V355.512H140.449V353.432H149.705V355.512H146.289V365H143.945ZM152.572 365.16C152.049 365.16 151.575 365.061 151.148 364.864C150.727 364.667 150.393 364.381 150.148 364.008C149.903 363.629 149.78 363.171 149.78 362.632C149.78 361.725 150.119 361.037 150.796 360.568C151.473 360.093 152.543 359.848 154.004 359.832L155.044 359.816V359.32C155.044 358.941 154.932 358.651 154.708 358.448C154.489 358.24 154.145 358.139 153.676 358.144C153.34 358.149 153.017 358.229 152.708 358.384C152.404 358.539 152.193 358.808 152.076 359.192H150.132C150.164 358.595 150.337 358.104 150.652 357.72C150.972 357.331 151.401 357.043 151.94 356.856C152.479 356.664 153.095 356.568 153.788 356.568C154.631 356.568 155.308 356.675 155.82 356.888C156.332 357.096 156.703 357.397 156.932 357.792C157.167 358.181 157.284 358.645 157.284 359.184V365H155.332L155.14 363.576C154.857 364.173 154.503 364.587 154.076 364.816C153.655 365.045 153.153 365.16 152.572 365.16ZM153.364 363.624C153.572 363.624 153.775 363.587 153.972 363.512C154.175 363.432 154.356 363.328 154.516 363.2C154.676 363.067 154.801 362.917 154.892 362.752C154.988 362.587 155.039 362.416 155.044 362.24V361.016L154.204 361.032C153.815 361.037 153.452 361.085 153.116 361.176C152.78 361.261 152.508 361.403 152.3 361.6C152.097 361.797 151.996 362.064 151.996 362.4C151.996 362.784 152.127 363.085 152.388 363.304C152.655 363.517 152.98 363.624 153.364 363.624ZM159.282 365V356.728H161.514V365H159.282ZM159.258 355.544V353.44H161.53V355.544H159.258ZM163.651 365V353.112H165.987V360.16L169.027 356.728H171.539L168.531 360.024L171.643 365H169.315L167.083 361.432L165.987 362.6V365H163.651ZM176.167 365.16C175.356 365.16 174.65 364.987 174.047 364.64C173.45 364.293 172.986 363.803 172.655 363.168C172.33 362.533 172.167 361.781 172.167 360.912C172.167 360.043 172.33 359.283 172.655 358.632C172.986 357.981 173.45 357.475 174.047 357.112C174.65 356.749 175.359 356.568 176.175 356.568C176.991 356.568 177.698 356.747 178.295 357.104C178.892 357.456 179.354 357.957 179.679 358.608C180.004 359.259 180.167 360.027 180.167 360.912C180.167 361.744 180.007 362.48 179.687 363.12C179.372 363.755 178.916 364.253 178.319 364.616C177.727 364.979 177.01 365.16 176.167 365.16ZM176.175 363.424C176.586 363.424 176.916 363.304 177.167 363.064C177.418 362.824 177.599 362.509 177.711 362.12C177.823 361.725 177.879 361.296 177.879 360.832C177.879 360.395 177.828 359.981 177.727 359.592C177.626 359.203 177.45 358.888 177.199 358.648C176.948 358.408 176.607 358.288 176.175 358.288C175.764 358.288 175.431 358.403 175.175 358.632C174.924 358.856 174.74 359.163 174.623 359.552C174.506 359.936 174.447 360.363 174.447 360.832C174.447 361.264 174.5 361.68 174.607 362.08C174.714 362.475 174.892 362.797 175.143 363.048C175.394 363.299 175.738 363.424 176.175 363.424Z" fill="#F3F3F3"/>
</g>
<defs>
<linearGradient id="paint0_linear_728_21367" x1="508.446" y1="91.4383" x2="485.093" y2="85.181" gradientUnits="userSpaceOnUse">
<stop stop-color="#F8D33A"/>
<stop offset="0.965864" stop-color="#FFA142"/>
</linearGradient>
<linearGradient id="paint1_linear_728_21367" x1="586.389" y1="159.358" x2="592.646" y2="182.71" gradientUnits="userSpaceOnUse">
<stop stop-color="#F8D33A"/>
<stop offset="0.965864" stop-color="#FFA142"/>
</linearGradient>
<linearGradient id="paint2_linear_728_21367" x1="450.409" y1="48.3784" x2="450.409" y2="94.2758" gradientUnits="userSpaceOnUse">
<stop stop-color="#F0B90B"/>
<stop offset="0.403354" stop-color="#F8D33A"/>
</linearGradient>
<linearGradient id="paint3_linear_728_21367" x1="603.274" y1="59.7145" x2="557.959" y2="64.1006" gradientUnits="userSpaceOnUse">
<stop stop-color="#E81899"/>
<stop offset="0.925484" stop-color="#C8047D"/>
</linearGradient>
<clipPath id="clip0_728_21367">
<rect width="672" height="427" rx="30" fill="white"/>
</clipPath>
</defs>
</svg>
