<svg width="67" height="182" viewBox="0 0 67 182" fill="none" xmlns="http://www.w3.org/2000/svg">
<path d="M78.926 40.1865L78.3707 53.1777L78.3703 53.1777C78.309 54.6417 77.0744 55.7858 75.6084 55.7397L75.608 55.7397L43.4349 54.7565C43.4347 54.7565 43.4345 54.7565 43.4344 54.7565C42.7493 54.7332 42.1057 54.4566 41.6231 53.974L24.7894 37.1403C24.1036 36.4545 23.1661 36.0652 22.1871 36.0652H3.17737C1.69639 36.0652 0.5 34.8688 0.5 33.3879V1.3136C0.5 -0.167375 1.69639 -1.36377 3.17737 -1.36377H37.4912C38.2067 -1.36377 38.8805 -1.08767 39.3866 -0.581566L78.1434 38.1752C78.6721 38.7039 78.9565 39.4325 78.926 40.1856C78.926 40.1859 78.926 40.1862 78.926 40.1865Z" fill="#77C2AA" fill-opacity="0.46" stroke="#77C2AA"/>
<path d="M1.0815 47.3528C1.14516 46.9828 1.21045 46.7243 1.27118 46.5662H18.7941C20.2751 46.5662 21.4717 47.7627 21.4717 49.2436V83.1842C21.4717 84.6652 20.2751 85.8616 18.7941 85.8616H3.43558C1.97635 85.8616 0.788534 84.7029 0.757874 83.2465L0.75785 83.2455C0.648623 78.5214 0.466655 69.2271 0.505291 61.1156C0.524617 57.0584 0.599121 53.3057 0.764677 50.5709C0.84763 49.2006 0.952566 48.102 1.0815 47.3528Z" fill="#77C2AA" fill-opacity="0.46" stroke="#77C2AA"/>
<path d="M22.3694 125.246C22.3837 123.879 23.4153 122.763 24.7338 122.609H25.0468H60.1439C60.8582 122.609 61.541 122.894 62.0388 123.391L80.5113 141.864C81.207 142.559 82.136 142.939 83.1138 142.939H97.8353C99.3162 142.939 100.512 144.135 100.512 145.616V177.882C100.512 179.363 99.3162 180.559 97.8353 180.559H63.1481C62.4336 180.559 61.7504 180.275 61.2527 179.777L23.006 141.53L22.6525 141.884L23.006 141.53C22.5009 141.025 22.2161 140.326 22.2238 139.604L22.2238 139.603L22.3694 125.246C22.3694 125.246 22.3694 125.246 22.3694 125.246Z" fill="#77C2AA" fill-opacity="0.46" stroke="#77C2AA"/>
</svg>
