<svg width="185" height="291" viewBox="0 0 185 291" fill="none" xmlns="http://www.w3.org/2000/svg">
<path d="M178.761 16.4552C178.662 24.8975 171.738 31.6612 163.296 31.5623C154.853 31.4633 148.09 24.5393 148.189 16.0969C148.288 7.65451 155.212 0.890834 163.654 0.989768C172.096 1.0887 178.86 8.01279 178.761 16.4552Z" fill="#77C2AA" fill-opacity="0.46" stroke="#77C2AA"/>
<path d="M146.53 86.5834L146.526 86.5791L91.424 30.1707C90.8898 29.6238 90.1712 29.3205 89.4118 29.3116L78.0771 29.1788C77.0495 29.1667 76.2293 28.3271 76.2414 27.2995L76.5181 3.68436C76.5302 2.65679 77.3698 1.8366 78.3974 1.84864L105.518 2.16646C106.014 2.17228 106.486 2.37528 106.827 2.72443L176.068 73.6074C176.415 73.9626 176.601 74.4317 176.595 74.9287L176.47 85.6217C176.458 86.6492 175.618 87.4694 174.59 87.4574L147.841 87.1439C147.346 87.1381 146.875 86.9358 146.534 86.5879C146.534 86.5872 146.533 86.5866 146.532 86.586L146.53 86.5834Z" fill="#77C2AA" fill-opacity="0.46" stroke="#77C2AA"/>
<path d="M102.934 247.607C102.955 246.645 103.709 245.867 104.653 245.798L104.806 245.799L115.256 245.922C116.283 245.934 117.103 246.773 117.091 247.801L116.809 271.876C116.797 272.903 115.958 273.723 114.93 273.711L104.176 273.585C103.137 273.573 102.313 272.717 102.341 271.68L102.341 271.679L102.934 247.608L102.934 247.607Z" fill="#77C2AA" fill-opacity="0.46" stroke="#77C2AA"/>
<path d="M147.155 104.775L147.157 104.619C147.249 103.667 148.064 102.923 149.045 102.94C149.045 102.94 149.045 102.94 149.046 102.94L174.138 103.389L174.138 103.389C175.159 103.406 175.975 104.246 175.963 105.268L175.661 131.018C175.655 131.515 175.458 131.98 175.103 132.327L118.326 187.789C117.976 188.13 117.5 188.322 117.004 188.316L48.1651 187.509C47.1375 187.497 46.3173 186.657 46.3293 185.63L46.6137 161.366C46.6257 160.339 47.4654 159.518 48.4929 159.531L102.384 160.162C103.143 160.171 103.868 159.885 104.415 159.35L146.158 118.575C146.697 118.048 147.008 117.323 147.017 116.563L147.155 104.775Z" fill="#77C2AA" fill-opacity="0.46" stroke="#77C2AA"/>
<path d="M100.293 202.456C101.279 202.458 102.08 203.218 102.152 204.175L102.15 204.335L101.851 229.862C101.839 230.89 100.999 231.71 99.9715 231.698L88.1707 231.56C87.4103 231.551 86.6781 231.845 86.1388 232.371L29.8262 287.38C29.471 287.727 29.0019 287.913 28.5049 287.907L2.49174 287.602C1.46417 287.59 0.643974 286.75 0.656016 285.723L0.787816 274.476C0.793628 273.98 0.996678 273.508 1.3458 273.167L73.1717 203.005C73.5153 202.669 73.9871 202.477 74.4716 202.478L74.4724 202.478L100.292 202.456C100.292 202.456 100.293 202.456 100.293 202.456Z" fill="#77C2AA" fill-opacity="0.46" stroke="#77C2AA"/>
<path d="M120.799 203.406L120.792 203.399L146.638 203.702C147.134 203.708 147.606 203.911 147.947 204.26L180.791 237.884C181.138 238.239 181.324 238.708 181.318 239.205L181.257 244.453C181.245 245.481 180.405 246.301 179.378 246.289L146.441 245.903C145.945 245.897 145.473 245.694 145.132 245.345L132.135 232.039C131.6 231.492 130.882 231.189 130.122 231.18L119.706 231.058C118.694 231.046 117.874 230.227 117.87 229.211L117.87 229.21L117.691 205.265L117.691 205.264C117.682 204.222 118.533 203.379 119.571 203.392L120.799 203.406Z" fill="#77C2AA" fill-opacity="0.46" stroke="#77C2AA"/>
</svg>
