<svg width="159" height="19" viewBox="0 0 159 19" fill="none" xmlns="http://www.w3.org/2000/svg">
<circle cx="35.139" cy="3.89379" r="2.64684" fill="white"/>
<circle cx="46.0052" cy="3.89382" r="2.64684" fill="white"/>
<circle cx="40.4325" cy="9.18749" r="2.64684" fill="white"/>
<circle cx="35.139" cy="14.4812" r="2.64684" fill="white"/>
<circle cx="46.0052" cy="14.4813" r="2.64684" fill="white"/>
<circle cx="144.913" cy="14.4813" r="2.64684" fill="white"/>
<circle cx="144.913" cy="9.18743" r="2.64684" fill="white"/>
<circle cx="150.207" cy="9.18743" r="2.64684" fill="white"/>
<circle cx="150.207" cy="3.89382" r="2.64684" fill="white"/>
<circle cx="155.5" cy="9.18749" r="2.64684" fill="white"/>
<circle cx="155.5" cy="14.4812" r="2.64684" fill="white"/>
<circle cx="71.9154" cy="9.18749" r="2.64684" fill="white"/>
<circle cx="71.9154" cy="3.89379" r="2.64684" fill="white"/>
<circle cx="77.2093" cy="3.89382" r="2.64684" fill="white"/>
<circle cx="82.5028" cy="9.18743" r="2.64684" fill="white"/>
<circle cx="82.5028" cy="14.4813" r="2.64684" fill="white"/>
<circle cx="77.2093" cy="14.4813" r="2.64684" fill="white"/>
<circle cx="2.64684" cy="2.64684" r="2.64684" transform="matrix(-1 0 0 1 121.649 6.54065)" fill="white"/>
<circle cx="2.64684" cy="2.64684" r="2.64684" transform="matrix(-1 0 0 1 121.649 1.24695)" fill="white"/>
<circle cx="2.64684" cy="2.64684" r="2.64684" transform="matrix(-1 0 0 1 116.355 1.24698)" fill="white"/>
<circle cx="2.64684" cy="2.64684" r="2.64684" transform="matrix(-1 0 0 1 111.062 6.54059)" fill="white"/>
<circle cx="2.64684" cy="2.64684" r="2.64684" transform="matrix(-1 0 0 1 111.062 11.8344)" fill="white"/>
<circle cx="2.64684" cy="2.64684" r="2.64684" transform="matrix(-1 0 0 1 116.355 11.8344)" fill="white"/>
<circle cx="9.43658" cy="9.18746" r="3.61578" fill="white"/>
<circle cx="14.9808" cy="9.42847" r="0.964208" fill="white"/>
<circle cx="3.89243" cy="9.42847" r="0.964208" fill="white"/>
<circle cx="9.19565" cy="3.64325" r="0.964208" fill="white"/>
<circle cx="9.19565" cy="14.7316" r="0.964208" fill="white"/>
<circle cx="9.43682" cy="9.18743" r="8.43682" stroke="white" stroke-width="0.992567"/>
</svg>
