<svg width="342" height="337" viewBox="0 0 342 337" fill="none" xmlns="http://www.w3.org/2000/svg">
<path d="M348.933 19.849C348.818 29.6688 340.764 37.536 330.944 37.4209C321.124 37.3058 313.258 29.2521 313.373 19.4323C313.488 9.61253 321.541 1.74535 331.361 1.86042C341.181 1.9755 349.048 10.0293 348.933 19.849Z" fill="#77C2AA" fill-opacity="0.46" stroke="#77C2AA"/>
<path d="M311.474 101.111L311.469 101.106L247.662 35.7858C247.059 35.1677 246.247 34.8248 245.388 34.8148L232.262 34.661C231.029 34.6465 230.044 33.6384 230.059 32.4049L230.379 5.05888C230.394 3.82534 231.402 2.84062 232.635 2.85508L264.041 3.22312C264.636 3.23009 265.202 3.47369 265.612 3.89302L345.792 85.9744C346.208 86.4009 346.432 86.9643 346.425 87.5606L346.279 99.9429C346.265 101.176 345.257 102.161 344.023 102.147L313.048 101.784C312.454 101.777 311.888 101.534 311.479 101.116C311.478 101.115 311.478 101.115 311.477 101.114L311.474 101.111Z" fill="#77C2AA" fill-opacity="0.46" stroke="#77C2AA"/>
<path d="M260.968 287.517C260.993 286.361 261.901 285.426 263.035 285.344L263.215 285.347L275.316 285.488C276.55 285.503 277.534 286.511 277.52 287.744L277.193 315.622C277.179 316.856 276.171 317.841 274.937 317.826L262.484 317.68C261.237 317.666 260.247 316.638 260.281 315.393L260.281 315.392L260.968 287.518L260.968 287.517Z" fill="#77C2AA" fill-opacity="0.46" stroke="#77C2AA"/>
<path d="M312.176 122.121L312.178 121.936C312.286 120.792 313.266 119.897 314.445 119.917C314.445 119.917 314.445 119.917 314.445 119.917L343.501 120.438L343.502 120.438C344.728 120.458 345.707 121.466 345.692 122.694L345.343 152.511C345.336 153.108 345.099 153.666 344.673 154.082L278.926 218.307C278.506 218.716 277.935 218.946 277.34 218.94L197.625 218.005C196.391 217.991 195.406 216.983 195.421 215.749L195.75 187.652C195.765 186.419 196.773 185.434 198.006 185.449L260.411 186.18C261.27 186.19 262.089 185.866 262.707 185.262L311.045 138.045C311.654 137.45 312.006 136.63 312.016 135.77L312.176 122.121Z" fill="#77C2AA" fill-opacity="0.46" stroke="#77C2AA"/>
<path d="M257.989 235.155C259.173 235.157 260.136 236.072 260.22 237.222L260.218 237.412L259.871 266.971C259.857 268.205 258.849 269.19 257.616 269.175L243.95 269.015C243.091 269.005 242.263 269.337 241.654 269.933L176.444 333.631C176.018 334.048 175.455 334.271 174.858 334.264L144.735 333.911C143.502 333.897 142.517 332.889 142.532 331.655L142.684 318.631C142.691 318.036 142.935 317.47 143.354 317.06L226.528 235.814C226.94 235.411 227.506 235.18 228.088 235.181L228.089 235.181L257.988 235.155C257.988 235.155 257.988 235.155 257.989 235.155Z" fill="#77C2AA" fill-opacity="0.46" stroke="#77C2AA"/>
<path d="M281.542 236.253L281.534 236.245L311.657 236.598C312.252 236.605 312.819 236.849 313.228 237.268L351.262 276.204C351.678 276.63 351.902 277.194 351.895 277.79L351.823 283.868C351.809 285.101 350.801 286.086 349.567 286.072L311.427 285.625C310.832 285.618 310.266 285.374 309.856 284.955L294.805 269.547C294.201 268.929 293.389 268.586 292.53 268.576L280.469 268.434C279.253 268.42 278.269 267.436 278.264 266.217L278.264 266.215L278.057 238.488L278.057 238.487C278.046 237.235 279.068 236.224 280.314 236.239L281.542 236.253Z" fill="#77C2AA" fill-opacity="0.46" stroke="#77C2AA"/>
<path d="M-18.7708 95.2771L-18.2376 82.802L-18.2372 82.802C-18.1788 81.4071 -17.0024 80.3169 -15.6055 80.3608L-15.6051 80.3608L15.2899 81.305C15.2901 81.305 15.2902 81.305 15.2904 81.305C15.9433 81.3271 16.5565 81.5907 17.0163 82.0505L33.1813 98.2156C33.8436 98.8779 34.7489 99.2537 35.6943 99.2537L53.9489 99.2537C55.36 99.2537 56.5 100.394 56.5 101.805L56.5 132.605C56.5 134.016 55.36 135.156 53.9489 135.156L20.9982 135.156C20.3163 135.156 19.6744 134.893 19.1921 134.411L-18.0251 97.1937C-18.5288 96.69 -18.7998 95.9956 -18.7708 95.2781C-18.7708 95.2777 -18.7708 95.2774 -18.7708 95.2771Z" fill="#77C2AA" fill-opacity="0.46" stroke="#77C2AA"/>
<path d="M55.9419 88.3915C55.8825 88.7365 55.8219 88.9793 55.7656 89.1303L38.9525 89.1303C37.5413 89.1303 36.4012 87.9903 36.4012 86.5791L36.4012 53.9868C36.4012 52.5757 37.5413 51.4357 38.9525 51.4357L53.7009 51.4357C55.0914 51.4357 56.2232 52.5398 56.2524 53.9274L56.2524 53.9285C56.3573 58.4648 56.532 67.3897 56.4949 75.1786C56.4764 79.0747 56.4048 82.6778 56.2459 85.3034C56.1662 86.6191 56.0655 87.6731 55.9419 88.3915Z" fill="#77C2AA" fill-opacity="0.46" stroke="#77C2AA"/>
<path d="M35.4992 13.5956C35.4856 14.8984 34.5031 15.9608 33.2474 16.1082L32.948 16.1082L-0.754814 16.1082C-1.43554 16.1082 -2.08613 15.8372 -2.56043 15.3628L-20.2991 -2.3758C-20.9709 -3.04759 -21.8681 -3.41401 -22.8123 -3.41401L-36.9489 -3.41401C-38.3601 -3.41401 -39.4999 -4.55394 -39.4999 -5.96516L-39.4999 -36.9488C-39.4999 -38.36 -38.3601 -39.5 -36.9489 -39.5L-3.63969 -39.5C-2.95887 -39.5 -2.30788 -39.2289 -1.83364 -38.7547L34.8937 -2.02717L35.2472 -2.38072L34.8937 -2.02717C35.3749 -1.54591 35.6463 -0.879969 35.639 -0.191649L35.639 -0.191399L35.4992 13.5955C35.4992 13.5956 35.4992 13.5956 35.4992 13.5956Z" fill="#77C2AA" fill-opacity="0.46" stroke="#77C2AA"/>
</svg>
