<svg width="96" height="155" viewBox="0 0 96 155" fill="none" xmlns="http://www.w3.org/2000/svg">
<path opacity="0.05" fill-rule="evenodd" clip-rule="evenodd" d="M149.169 33.3953C145.69 33.3953 142.869 30.5743 142.869 27.0945V6.30274C142.869 2.82292 140.048 0.00195658 136.568 0.00195643L60.9603 0.00195313C57.4805 0.00195297 54.6595 2.82291 54.6595 6.30274V27.0945C54.6595 30.5743 51.8386 33.3953 48.3588 33.3953H27.5649C24.0851 33.3953 21.2642 36.2162 21.2642 39.696V115.304C21.2642 118.783 24.0851 121.604 27.5649 121.604H48.3587C51.8386 121.604 54.6595 124.425 54.6595 127.905V148.697C54.6595 152.177 57.4805 154.998 60.9603 154.998H136.568C140.048 154.998 142.869 152.177 142.869 148.697V127.905C142.869 124.425 145.69 121.604 149.169 121.604H169.959C173.439 121.604 176.26 118.783 176.26 115.304V39.696C176.26 36.2162 173.439 33.3953 169.959 33.3953H149.169Z" fill="#E81899"/>
<path opacity="0.1" fill-rule="evenodd" clip-rule="evenodd" d="M135.935 11.3432C135.935 8.90729 133.961 6.93262 131.525 6.93262H65.9982C63.5623 6.93262 61.5876 8.90729 61.5876 11.3432V35.9187C61.5876 38.3546 59.613 40.3292 57.1771 40.3292H32.6049C30.169 40.3292 28.1943 42.3039 28.1943 44.7398L28.1943 110.266C28.1943 112.702 30.169 114.677 32.6049 114.677H57.1771C59.613 114.677 61.5876 116.652 61.5876 119.087V143.657C61.5876 146.093 63.5623 148.067 65.9982 148.067H131.525C133.961 148.067 135.935 146.093 135.935 143.657V119.087C135.935 116.652 137.91 114.677 140.346 114.677H164.918C167.354 114.677 169.329 112.702 169.329 110.266V44.7398C169.329 42.3039 167.354 40.3292 164.918 40.3292H140.346C137.91 40.3292 135.935 38.3545 135.935 35.9187V11.3432Z" fill="#E81899"/>
<path opacity="0.2" fill-rule="evenodd" clip-rule="evenodd" d="M129.006 18.2738C129.006 15.838 127.031 13.8633 124.595 13.8633H72.9298C70.4939 13.8633 68.5193 15.838 68.5193 18.2738V42.8486C68.5193 45.2845 66.5446 47.2592 64.1087 47.2592H39.536C37.1002 47.2592 35.1255 49.2339 35.1255 51.6697L35.1255 103.335C35.1255 105.771 37.1002 107.745 39.536 107.745H64.1087C66.5446 107.745 68.5193 109.72 68.5193 112.156V136.726C68.5193 139.162 70.4939 141.136 72.9298 141.136H124.595C127.031 141.136 129.006 139.162 129.006 136.726V112.156C129.006 109.72 130.98 107.745 133.416 107.745H157.988C160.424 107.745 162.399 105.771 162.399 103.335V51.6697C162.399 49.2339 160.424 47.2592 157.988 47.2592H133.416C130.98 47.2592 129.006 45.2845 129.006 42.8486V18.2738Z" fill="#E81899"/>
<path opacity="0.3" fill-rule="evenodd" clip-rule="evenodd" d="M122.074 24.5754C122.074 22.4875 120.381 20.7949 118.293 20.7949H79.2294C77.1415 20.7949 75.449 22.4875 75.449 24.5754V50.4095C75.449 52.4974 73.7564 54.19 71.6685 54.19H45.8361C43.7482 54.19 42.0557 55.8825 42.0557 57.9704V97.0343C42.0557 99.1222 43.7482 100.815 45.8361 100.815H71.6685C73.7564 100.815 75.449 102.507 75.449 104.595V130.426C75.449 132.514 77.1415 134.207 79.2294 134.207H118.293C120.381 134.207 122.074 132.514 122.074 130.426V104.595C122.074 102.507 123.766 100.815 125.854 100.815H151.687C153.775 100.815 155.467 99.1222 155.467 97.0343V57.9705C155.467 55.8826 153.775 54.19 151.687 54.19H125.854C123.766 54.19 122.074 52.4974 122.074 50.4095V24.5754Z" fill="#E81899"/>
<path d="M85.8973 127.277C83.8713 127.277 82.229 125.635 82.229 123.609L82.229 100.339C82.229 99.3831 82.6018 98.4653 83.2681 97.7805L96.107 84.5851C97.5472 83.1048 99.925 83.1048 101.365 84.5851L114.204 97.7805C114.87 98.4653 115.243 99.3831 115.243 100.339L115.243 123.609C115.243 125.635 113.601 127.277 111.575 127.277L85.8973 127.277Z" fill="#E81899"/>
<path d="M148.538 90.3655C148.538 92.3914 146.895 94.0337 144.869 94.0337L121.599 94.0337C120.643 94.0337 119.726 93.6609 119.041 92.9946L105.845 80.1558C104.365 78.7156 104.365 76.3378 105.845 74.8975L119.041 62.0587C119.726 61.3924 120.643 61.0196 121.599 61.0196L144.869 61.0196C146.895 61.0196 148.538 62.6619 148.538 64.6878L148.538 90.3655Z" fill="#E81899"/>
<path d="M85.8973 27.7274C83.8713 27.7274 82.229 29.3697 82.229 31.3956L82.229 54.6661C82.229 55.6216 82.6018 56.5394 83.2681 57.2242L96.107 70.4197C97.5472 71.8999 99.925 71.8999 101.365 70.4197L114.204 57.2242C114.87 56.5394 115.243 55.6216 115.243 54.6661L115.243 31.3956C115.243 29.3697 113.601 27.7274 111.575 27.7274L85.8973 27.7274Z" fill="#E81899"/>
<path d="M48.9873 90.3655C48.9873 92.3914 50.6296 94.0337 52.6555 94.0337L75.9261 94.0337C76.8815 94.0337 77.7993 93.6609 78.4841 92.9946L91.6796 80.1558C93.1598 78.7156 93.1598 76.3378 91.6796 74.8975L78.4841 62.0587C77.7993 61.3924 76.8815 61.0196 75.9261 61.0196L52.6555 61.0196C50.6296 61.0196 48.9873 62.6619 48.9873 64.6878L48.9873 90.3655Z" fill="#E81899"/>
<g filter="url(#filter0_d_2732_16743)">
<path d="M59.3506 77.0676L69.8962 66.522L69.8962 87.6133L59.3506 77.0676Z" fill="white"/>
</g>
<g filter="url(#filter1_d_2732_16743)">
<path d="M98.7869 116.504L88.2412 105.958L109.333 105.958L98.7869 116.504Z" fill="white"/>
</g>
<g filter="url(#filter2_d_2732_16743)">
<path d="M98.7869 37.6309L88.2412 48.1765L109.333 48.1765L98.7869 37.6309Z" fill="white"/>
</g>
<rect x="15.668" y="34.667" width="3.91667" height="3.91667" transform="rotate(-45 15.668 34.667)" fill="#FF6FC8"/>
<rect x="41.9668" y="119.356" width="4.19212" height="4.19212" transform="rotate(-45 41.9668 119.356)" fill="white"/>
<rect y="48.208" width="5.65686" height="5.65686" transform="rotate(-45 0 48.208)" fill="white"/>
<defs>
<filter id="filter0_d_2732_16743" x="53.8641" y="61.8188" width="21.5189" height="32.0648" filterUnits="userSpaceOnUse" color-interpolation-filters="sRGB">
<feFlood flood-opacity="0" result="BackgroundImageFix"/>
<feColorMatrix in="SourceAlpha" type="matrix" values="0 0 0 0 0 0 0 0 0 0 0 0 0 0 0 0 0 0 127 0" result="hardAlpha"/>
<feOffset dy="0.783782"/>
<feGaussianBlur stdDeviation="2.74324"/>
<feColorMatrix type="matrix" values="0 0 0 0 0.629167 0 0 0 0 0.452388 0 0 0 0 0.00524306 0 0 0 0.3 0"/>
<feBlend mode="normal" in2="BackgroundImageFix" result="effect1_dropShadow_2732_16743"/>
<feBlend mode="normal" in="SourceGraphic" in2="effect1_dropShadow_2732_16743" result="shape"/>
</filter>
<filter id="filter1_d_2732_16743" x="82.7547" y="101.255" width="32.0643" height="21.5189" filterUnits="userSpaceOnUse" color-interpolation-filters="sRGB">
<feFlood flood-opacity="0" result="BackgroundImageFix"/>
<feColorMatrix in="SourceAlpha" type="matrix" values="0 0 0 0 0 0 0 0 0 0 0 0 0 0 0 0 0 0 127 0" result="hardAlpha"/>
<feOffset dy="0.783782"/>
<feGaussianBlur stdDeviation="2.74324"/>
<feColorMatrix type="matrix" values="0 0 0 0 0.629167 0 0 0 0 0.452388 0 0 0 0 0.00524306 0 0 0 0.3 0"/>
<feBlend mode="normal" in2="BackgroundImageFix" result="effect1_dropShadow_2732_16743"/>
<feBlend mode="normal" in="SourceGraphic" in2="effect1_dropShadow_2732_16743" result="shape"/>
</filter>
<filter id="filter2_d_2732_16743" x="82.7547" y="32.9282" width="32.0643" height="21.5189" filterUnits="userSpaceOnUse" color-interpolation-filters="sRGB">
<feFlood flood-opacity="0" result="BackgroundImageFix"/>
<feColorMatrix in="SourceAlpha" type="matrix" values="0 0 0 0 0 0 0 0 0 0 0 0 0 0 0 0 0 0 127 0" result="hardAlpha"/>
<feOffset dy="0.783782"/>
<feGaussianBlur stdDeviation="2.74324"/>
<feColorMatrix type="matrix" values="0 0 0 0 0.629167 0 0 0 0 0.452388 0 0 0 0 0.00524306 0 0 0 0.3 0"/>
<feBlend mode="normal" in2="BackgroundImageFix" result="effect1_dropShadow_2732_16743"/>
<feBlend mode="normal" in="SourceGraphic" in2="effect1_dropShadow_2732_16743" result="shape"/>
</filter>
</defs>
</svg>
