<svg width="255" height="155" viewBox="0 0 255 155" fill="none" xmlns="http://www.w3.org/2000/svg">
<path opacity="0.05" fill-rule="evenodd" clip-rule="evenodd" d="M182.865 23.9368C178.599 23.9368 175.141 20.4786 175.141 16.2127V-9.27594C175.141 -13.5418 171.683 -17 167.417 -17L74.7306 -17C70.4648 -17 67.0066 -13.5418 67.0066 -9.27594V16.2128C67.0066 20.4786 63.5484 23.9368 59.2825 23.9368H33.7914C29.5256 23.9368 26.0674 27.395 26.0674 31.6609V124.347C26.0674 128.613 29.5256 132.071 33.7914 132.071H59.2825C63.5484 132.071 67.0066 135.53 67.0066 139.795V165.284C67.0066 169.55 70.4648 173.008 74.7306 173.008H167.417C171.683 173.008 175.141 169.55 175.141 165.284V139.795C175.141 135.53 178.599 132.071 182.865 132.071H208.351C212.617 132.071 216.075 128.613 216.075 124.347V31.6609C216.075 27.395 212.617 23.9368 208.351 23.9368H182.865Z" fill="#E81899"/>
<path opacity="0.1" fill-rule="evenodd" clip-rule="evenodd" d="M166.641 -3.09706C166.641 -6.08318 164.22 -8.50391 161.234 -8.50391H80.9059C77.9198 -8.50391 75.499 -6.08317 75.499 -3.09706V27.0289C75.499 30.015 73.0783 32.4357 70.0922 32.4357H39.9693C36.9832 32.4357 34.5625 34.8564 34.5625 37.8426L34.5625 118.171C34.5625 121.157 36.9832 123.578 39.9693 123.578H70.0922C73.0783 123.578 75.499 125.998 75.499 128.985V159.105C75.499 162.091 77.9197 164.511 80.9059 164.511H161.234C164.22 164.511 166.641 162.091 166.641 159.105V128.985C166.641 125.998 169.062 123.578 172.048 123.578H202.171C205.157 123.578 207.578 121.157 207.578 118.171V37.8426C207.578 34.8564 205.157 32.4357 202.171 32.4357H172.048C169.062 32.4357 166.641 30.015 166.641 27.0289V-3.09706Z" fill="#E81899"/>
<path opacity="0.2" fill-rule="evenodd" clip-rule="evenodd" d="M158.146 5.39903C158.146 2.41291 155.726 -0.0078125 152.74 -0.0078125H89.4039C86.4178 -0.0078125 83.9971 2.41292 83.9971 5.39904V35.5244C83.9971 38.5105 81.5764 40.9312 78.5902 40.9312L48.4669 40.9312C45.4808 40.9312 43.0601 43.3519 43.0601 46.338L43.0601 109.674C43.0601 112.66 45.4808 115.081 48.4669 115.081H78.5902C81.5764 115.081 83.9971 117.501 83.9971 120.487V150.608C83.9971 153.594 86.4178 156.015 89.4039 156.015H152.74C155.726 156.015 158.146 153.594 158.146 150.608V120.487C158.146 117.501 160.567 115.081 163.553 115.081H193.676C196.662 115.081 199.083 112.66 199.083 109.674V46.338C199.083 43.3519 196.662 40.9312 193.676 40.9312L163.553 40.9312C160.567 40.9312 158.146 38.5105 158.146 35.5244V5.39903Z" fill="#E81899"/>
<path opacity="0.3" fill-rule="evenodd" clip-rule="evenodd" d="M149.649 13.1247C149.649 10.5651 147.574 8.49023 145.015 8.49023H97.1266C94.5671 8.49023 92.4922 10.5651 92.4922 13.1247V44.7938C92.4922 47.3533 90.4173 49.4282 87.8577 49.4282H56.1901C53.6306 49.4282 51.5557 51.5031 51.5557 54.0627V101.951C51.5557 104.51 53.6306 106.585 56.1901 106.585H87.8577C90.4173 106.585 92.4922 108.66 92.4922 111.219V142.886C92.4922 145.445 94.5671 147.52 97.1266 147.52H145.015C147.574 147.52 149.649 145.445 149.649 142.886V111.219C149.649 108.66 151.724 106.585 154.283 106.585H185.951C188.511 106.585 190.586 104.51 190.586 101.951V54.0627C190.586 51.5031 188.511 49.4282 185.951 49.4282H154.283C151.724 49.4282 149.649 47.3533 149.649 44.7938V13.1247Z" fill="#E81899"/>
<path d="M105.3 139.025C102.817 139.025 100.803 137.012 100.803 134.529L100.803 106.002C100.803 104.83 101.26 103.705 102.077 102.866L117.816 86.6894C119.582 84.8749 122.497 84.8749 124.262 86.6894L140.001 102.866C140.818 103.705 141.275 104.83 141.275 106.002L141.275 134.529C141.275 137.012 139.262 139.025 136.778 139.025L105.3 139.025Z" fill="#E81899"/>
<path d="M182.09 93.7756C182.09 96.2591 180.077 98.2724 177.593 98.2724L149.066 98.2724C147.895 98.2724 146.77 97.8154 145.93 96.9986L129.754 81.2596C127.94 79.4941 127.94 76.5792 129.754 74.8136L145.93 59.0747C146.77 58.2578 147.895 57.8008 149.066 57.8008L177.593 57.8008C180.077 57.8008 182.09 59.8141 182.09 62.2977L182.09 93.7756Z" fill="#E81899"/>
<path d="M105.3 16.9883C102.817 16.9883 100.803 19.0016 100.803 21.4852L100.803 50.0122C100.803 51.1835 101.26 52.3086 102.077 53.1481L117.816 69.3243C119.582 71.1389 122.497 71.1389 124.262 69.3243L140.001 53.1481C140.818 52.3086 141.275 51.1835 141.275 50.0122L141.275 21.4852C141.275 19.0016 139.262 16.9883 136.778 16.9883L105.3 16.9883Z" fill="#E81899"/>
<path d="M60.0527 93.7756C60.0527 96.2591 62.066 98.2724 64.5496 98.2724L93.0766 98.2724C94.2479 98.2724 95.373 97.8154 96.2125 96.9986L112.389 81.2596C114.203 79.4941 114.203 76.5792 112.389 74.8136L96.2125 59.0747C95.373 58.2578 94.2479 57.8008 93.0766 57.8008L64.5496 57.8008C62.066 57.8008 60.0527 59.8141 60.0527 62.2977L60.0527 93.7756Z" fill="#E81899"/>
<g filter="url(#filter0_d_2732_16717)">
<path d="M72.7563 77.4739L85.6838 64.5464L85.6838 90.4014L72.7563 77.4739Z" fill="white"/>
</g>
<g filter="url(#filter1_d_2732_16717)">
<path d="M121.101 125.818L108.173 112.891L134.028 112.891L121.101 125.818Z" fill="white"/>
</g>
<g filter="url(#filter2_d_2732_16717)">
<path d="M169.444 77.4739L156.516 64.5464L156.516 90.4014L169.444 77.4739Z" fill="white"/>
</g>
<g filter="url(#filter3_d_2732_16717)">
<path d="M121.101 29.1289L108.173 42.0564L134.028 42.0564L121.101 29.1289Z" fill="white"/>
</g>
<rect x="19.207" y="25.4961" width="4.80129" height="4.80129" transform="rotate(-45 19.207 25.4961)" fill="#FF6FC8"/>
<rect x="250.377" y="80.4248" width="2.93418" height="2.93418" transform="rotate(-45 250.377 80.4248)" fill="#FF6FC8"/>
<rect x="229.112" y="61.0947" width="4.70155" height="4.70155" transform="rotate(-45 229.112 61.0947)" fill="#FF6FC8"/>
<rect x="232.542" y="96.5439" width="8.26921" height="8.26921" transform="rotate(-45 232.542 96.5439)" fill="white"/>
<rect x="51.4468" y="129.315" width="5.13895" height="5.13895" transform="rotate(-45 51.4468 129.315)" fill="white"/>
<rect y="42.0947" width="6.93451" height="6.93451" transform="rotate(-45 0 42.0947)" fill="white"/>
<defs>
<filter id="filter0_d_2732_16717" x="66.0305" y="58.7819" width="26.3789" height="39.3061" filterUnits="userSpaceOnUse" color-interpolation-filters="sRGB">
<feFlood flood-opacity="0" result="BackgroundImageFix"/>
<feColorMatrix in="SourceAlpha" type="matrix" values="0 0 0 0 0 0 0 0 0 0 0 0 0 0 0 0 0 0 127 0" result="hardAlpha"/>
<feOffset dy="0.960829"/>
<feGaussianBlur stdDeviation="3.3629"/>
<feColorMatrix type="matrix" values="0 0 0 0 0.629167 0 0 0 0 0.452388 0 0 0 0 0.00524306 0 0 0 0.3 0"/>
<feBlend mode="normal" in2="BackgroundImageFix" result="effect1_dropShadow_2732_16717"/>
<feBlend mode="normal" in="SourceGraphic" in2="effect1_dropShadow_2732_16717" result="shape"/>
</filter>
<filter id="filter1_d_2732_16717" x="101.448" y="107.126" width="39.3066" height="26.3793" filterUnits="userSpaceOnUse" color-interpolation-filters="sRGB">
<feFlood flood-opacity="0" result="BackgroundImageFix"/>
<feColorMatrix in="SourceAlpha" type="matrix" values="0 0 0 0 0 0 0 0 0 0 0 0 0 0 0 0 0 0 127 0" result="hardAlpha"/>
<feOffset dy="0.960829"/>
<feGaussianBlur stdDeviation="3.3629"/>
<feColorMatrix type="matrix" values="0 0 0 0 0.629167 0 0 0 0 0.452388 0 0 0 0 0.00524306 0 0 0 0.3 0"/>
<feBlend mode="normal" in2="BackgroundImageFix" result="effect1_dropShadow_2732_16717"/>
<feBlend mode="normal" in="SourceGraphic" in2="effect1_dropShadow_2732_16717" result="shape"/>
</filter>
<filter id="filter2_d_2732_16717" x="149.791" y="58.7819" width="26.3789" height="39.3061" filterUnits="userSpaceOnUse" color-interpolation-filters="sRGB">
<feFlood flood-opacity="0" result="BackgroundImageFix"/>
<feColorMatrix in="SourceAlpha" type="matrix" values="0 0 0 0 0 0 0 0 0 0 0 0 0 0 0 0 0 0 127 0" result="hardAlpha"/>
<feOffset dy="0.960829"/>
<feGaussianBlur stdDeviation="3.3629"/>
<feColorMatrix type="matrix" values="0 0 0 0 0.629167 0 0 0 0 0.452388 0 0 0 0 0.00524306 0 0 0 0.3 0"/>
<feBlend mode="normal" in2="BackgroundImageFix" result="effect1_dropShadow_2732_16717"/>
<feBlend mode="normal" in="SourceGraphic" in2="effect1_dropShadow_2732_16717" result="shape"/>
</filter>
<filter id="filter3_d_2732_16717" x="101.448" y="23.3639" width="39.3066" height="26.3793" filterUnits="userSpaceOnUse" color-interpolation-filters="sRGB">
<feFlood flood-opacity="0" result="BackgroundImageFix"/>
<feColorMatrix in="SourceAlpha" type="matrix" values="0 0 0 0 0 0 0 0 0 0 0 0 0 0 0 0 0 0 127 0" result="hardAlpha"/>
<feOffset dy="0.960829"/>
<feGaussianBlur stdDeviation="3.3629"/>
<feColorMatrix type="matrix" values="0 0 0 0 0.629167 0 0 0 0 0.452388 0 0 0 0 0.00524306 0 0 0 0.3 0"/>
<feBlend mode="normal" in2="BackgroundImageFix" result="effect1_dropShadow_2732_16717"/>
<feBlend mode="normal" in="SourceGraphic" in2="effect1_dropShadow_2732_16717" result="shape"/>
</filter>
</defs>
</svg>
