<svg width="874" height="300" viewBox="0 0 874 300" fill="none" xmlns="http://www.w3.org/2000/svg">
<g clip-path="url(#clip0_728_20890)">
<rect width="874" height="300" rx="30" fill="#191E28"/>
<path d="M-322.263 197.125V472.852L-131.835 658.694H236.707L434.037 466.116V397.668L157.412 127.685L80.1485 127.685L-189.457 -135.421H-403V-72.6461L153.535 470.465H-49.5136L-122.901 398.85L-122.901 317.687L-247.056 196.534L-322.263 197.125Z" fill="#2B303B" fill-opacity="0.5"/>
<path d="M623.612 -14.4304V-290.157L433.184 -476L64.6418 -476L-132.711 -283.398L-132.711 -214.95L143.937 55.0095H221.201L490.806 318.115H704.349V255.34L147.814 -287.77H350.863L424.25 -216.156V-134.993L548.381 -13.8159L623.612 -14.4304Z" fill="#2B303B" fill-opacity="0.5"/>
<rect x="1031.04" y="-185.618" width="473.04" height="741.11" transform="rotate(45 1031.04 -185.618)" fill="#FFC6E9"/>
<path fill-rule="evenodd" clip-rule="evenodd" d="M639.1 41.5919L593.166 -37.9683L582.285 -31.6865L582.251 -31.7465C564.92 -21.7407 561.154 4.1808 573.838 26.1507C586.477 48.0419 610.68 57.7498 627.998 47.9205L628.033 47.9812L639.1 41.5919Z" fill="#E81899"/>
<ellipse cx="616.233" cy="1.91197" rx="45.9341" ry="36.2638" transform="rotate(60 616.233 1.91197)" fill="#FF6FC8"/>
<path fill-rule="evenodd" clip-rule="evenodd" d="M800.616 205.964L880.177 251.899L875.588 259.847L875.646 259.881C865.64 277.212 839.719 280.978 817.749 268.294C795.857 255.654 786.149 231.45 795.98 214.132L795.921 214.098L800.616 205.964Z" fill="#E81899"/>
<path d="M874.404 259.09C859.385 272.883 831.854 270.603 812.982 254.138C794.111 237.673 790.979 213.091 805.971 199.344C820.99 185.551 848.462 187.797 867.392 204.296C886.296 220.842 889.396 245.343 874.404 259.09Z" fill="#FF6FC8"/>
<path fill-rule="evenodd" clip-rule="evenodd" d="M734.557 67.8074L758.335 -20.9305L748.684 -23.5163L748.684 -23.5165C741.117 -25.5442 729.659 -7.32331 723.093 17.181C716.534 41.6593 717.338 63.1481 724.883 65.2149L724.883 65.2151L734.557 67.8074Z" fill="url(#paint0_linear_728_20890)"/>
<path fill-rule="evenodd" clip-rule="evenodd" d="M780.019 103.247L868.757 79.4698L871.343 89.1197L871.343 89.1196C873.371 96.6871 855.15 108.145 830.646 114.71C806.168 121.269 784.68 120.466 782.612 112.921L782.612 112.921L780.019 103.247Z" fill="url(#paint1_linear_728_20890)"/>
<path fill-rule="evenodd" clip-rule="evenodd" d="M885.221 149.62L793.353 149.62L793.353 162.053L793.354 162.053C793.54 174.658 814.034 184.848 839.287 184.848C864.541 184.848 885.034 174.658 885.22 162.053L885.221 162.053L885.221 161.894C885.221 161.89 885.221 161.885 885.221 161.881L885.221 149.62Z" fill="#E81899"/>
<path d="M883.771 155.149C877.666 167.461 852.703 174.922 828.147 171.87C803.591 168.817 788.599 156.336 794.704 144.059C800.809 131.747 825.705 124.286 850.328 127.338C874.952 130.425 889.876 142.872 883.771 155.149Z" fill="#FF6FC8"/>
<ellipse cx="688.409" cy="3.32706" rx="45.8974" ry="22.9487" transform="rotate(90 688.409 3.32706)" fill="url(#paint2_linear_728_20890)"/>
<path fill-rule="evenodd" clip-rule="evenodd" d="M694.238 -16.2064L704.014 3.34595L700.116 11.142L690.34 -8.41037L694.238 -16.2064ZM682.556 -16.192L698.179 15.0545L694.281 22.8506L678.658 -8.39589L682.556 -16.192ZM692.325 26.7409L676.701 -4.50557L672.803 3.29051L688.427 34.537L692.325 26.7409ZM688.401 -27.8828L692.299 -20.0867L688.401 -12.2907L684.503 -20.0867L688.401 -27.8828Z" fill="white"/>
<path fill-rule="evenodd" clip-rule="evenodd" d="M688.184 49.3921L688.184 -42.4761L675.924 -42.4761L675.924 -42.4766C675.887 -42.4766 675.851 -42.4764 675.815 -42.4761L675.751 -42.4761L675.751 -42.4753C663.146 -42.2898 652.956 -21.796 652.956 3.45754C652.956 28.7111 663.146 49.2048 675.751 49.3904L675.751 49.3921L688.184 49.3921Z" fill="#E81899"/>
<ellipse cx="688.234" cy="3.32706" rx="45.8974" ry="23.1239" transform="rotate(90 688.234 3.32706)" fill="#FF6FC8"/>
<path fill-rule="evenodd" clip-rule="evenodd" d="M780.131 103.359L868.869 79.5822L871.455 89.232L871.455 89.2318C873.483 96.7993 855.262 108.257 830.758 114.823C806.28 121.381 784.792 120.578 782.724 113.034L782.723 113.034L780.131 103.359Z" fill="#E81899"/>
<ellipse cx="45.9341" cy="14.1601" rx="45.9341" ry="14.1601" transform="matrix(-0.965926 0.258819 0.258819 0.965926 865.094 65.793)" fill="#FF6FC8"/>
<path fill-rule="evenodd" clip-rule="evenodd" d="M732.939 67.2917L756.716 -21.4462L747.066 -24.032L747.066 -24.0321C739.498 -26.0598 728.041 -7.83891 721.475 16.6654C714.916 41.1436 715.719 62.6323 723.265 64.6993L723.264 64.6994L732.939 67.2917Z" fill="#E81899"/>
<ellipse cx="746.291" cy="23.4065" rx="46.0155" ry="14.1946" transform="rotate(105 746.291 23.4065)" fill="#FF6FC8"/>
<rect x="816.006" y="18.1904" width="15.4898" height="91.8682" transform="rotate(45 816.006 18.1904)" fill="url(#paint3_linear_728_20890)"/>
<path d="M61.88 121H48.3L64.61 74.1H83.72L99.96 121H85.54L82.67 111.97H64.89L61.88 121ZM69.58 97.76L68.67 100.49H78.96L78.12 97.76L74.41 85.51H73.43L69.58 97.76ZM129.199 121H111.069L95.0387 74.1H109.879L119.819 106.3H120.729L130.459 74.1H145.299L129.199 121ZM153.99 121H140.41L156.72 74.1H175.83L192.07 121H177.65L174.78 111.97H157L153.99 121ZM161.69 97.76L160.78 100.49H171.07L170.23 97.76L166.52 85.51H165.54L161.69 97.76ZM231.491 121H194.811V74.1H207.971V109.17H231.491V121ZM256.501 121.7C241.591 121.7 232.911 112.18 232.911 97.55C232.911 82.92 241.591 73.4 256.501 73.4C271.341 73.4 280.021 82.92 280.021 97.55C280.021 112.18 271.341 121.7 256.501 121.7ZM256.501 108.89C263.711 108.89 265.881 106.58 265.881 97.55C265.881 88.52 263.711 86.21 256.501 86.21C249.221 86.21 247.051 88.52 247.051 97.55C247.051 106.58 249.221 108.89 256.501 108.89ZM298.577 121H285.417V74.1H299.487L312.577 95.17L315.657 100.91H316.567L315.867 95.17V74.1H328.957V121H314.957L302.567 101.47L298.787 94.82H297.877L298.577 101.47V121ZM359.041 121H345.461L361.771 74.1H380.881L397.121 121H382.701L379.831 111.97H362.051L359.041 121ZM366.741 97.76L365.831 100.49H376.121L375.281 97.76L371.571 85.51H370.591L366.741 97.76ZM413.021 121H399.861V74.1H413.021V121ZM433.442 121H420.282V74.1H443.872C455.702 74.1 461.302 79.14 461.302 88.52C461.302 95.94 458.432 100.56 450.522 101.47V102.1C455.282 103.36 457.172 106.37 458.992 110.36L463.892 121H448.562L443.942 111.27C441.982 107.21 441.072 106.02 436.662 106.02H433.442V121ZM433.442 85.93V95.1H443.382C447.092 95.1 448.142 94.05 448.142 90.34C448.142 86.91 447.092 85.93 443.382 85.93H433.442ZM487.729 121H467.499V74.1H487.729C503.129 74.1 511.599 82.71 511.599 97.55C511.599 112.39 503.129 121 487.729 121ZM487.029 85.93H480.659V109.17H487.029C495.289 109.17 497.389 107.42 497.389 97.55C497.389 87.68 495.289 85.93 487.029 85.93ZM530.132 121H516.972V74.1H540.562C552.392 74.1 557.992 79.14 557.992 88.52C557.992 95.94 555.122 100.56 547.212 101.47V102.1C551.972 103.36 553.862 106.37 555.682 110.36L560.582 121H545.252L540.632 111.27C538.672 107.21 537.762 106.02 533.352 106.02H530.132V121ZM530.132 85.93V95.1H540.072C543.782 95.1 544.832 94.05 544.832 90.34C544.832 86.91 543.782 85.93 540.072 85.93H530.132ZM586.729 121.7C571.819 121.7 563.139 112.18 563.139 97.55C563.139 82.92 571.819 73.4 586.729 73.4C601.569 73.4 610.249 82.92 610.249 97.55C610.249 112.18 601.569 121.7 586.729 121.7ZM586.729 108.89C593.939 108.89 596.109 106.58 596.109 97.55C596.109 88.52 593.939 86.21 586.729 86.21C579.449 86.21 577.279 88.52 577.279 97.55C577.279 106.58 579.449 108.89 586.729 108.89ZM628.805 121H615.645V74.1H637.835C649.035 74.1 656.245 80.61 656.245 91.39C656.245 102.52 649.035 108.61 637.835 108.61H628.805V121ZM637.345 85.93H628.805V96.85H637.345C641.825 96.85 643.085 96.01 643.085 91.39C643.085 86.77 641.825 85.93 637.345 85.93Z" fill="#E81899"/>
<path d="M60.935 160H54.355V144.6H49V139.455H50.155C52.36 139.455 53.76 138.65 54.81 136.55H60.935V160ZM76.3829 160.35C69.2079 160.35 65.4979 155.485 65.4979 148.275C65.4979 141.1 69.2079 136.2 76.3829 136.2C83.5229 136.2 87.2679 141.1 87.2679 148.275C87.2679 155.485 83.5229 160.35 76.3829 160.35ZM76.3829 153.945C79.3929 153.945 80.1979 153.14 80.1979 148.275C80.1979 143.41 79.3929 142.605 76.3829 142.605C73.3379 142.605 72.5679 143.41 72.5679 148.275C72.5679 153.14 73.3379 153.945 76.3829 153.945ZM102.093 160.35C94.9178 160.35 91.2078 155.485 91.2078 148.275C91.2078 141.1 94.9178 136.2 102.093 136.2C109.233 136.2 112.978 141.1 112.978 148.275C112.978 155.485 109.233 160.35 102.093 160.35ZM102.093 153.945C105.103 153.945 105.908 153.14 105.908 148.275C105.908 143.41 105.103 142.605 102.093 142.605C99.0478 142.605 98.2778 143.41 98.2778 148.275C98.2778 153.14 99.0478 153.945 102.093 153.945ZM122.887 160H115.257L121.872 148.345V148.03L115.257 136.55H122.992L127.262 144.18H127.577L131.532 136.55H139.162L132.617 147.89V148.205L139.162 160H131.427L127.157 152.44H126.842L122.887 160ZM161.885 160H155.305V142.465H148.095V136.55H169.095V142.465H161.885V160ZM178.723 160H171.093L177.708 148.345V148.03L171.093 136.55H178.828L183.098 144.18H183.413L187.368 136.55H194.998L188.453 147.89V148.205L194.998 160H187.263L182.993 152.44H182.678L178.723 160ZM220.311 160H211.246L203.231 136.55H210.651L215.621 152.65H216.076L220.941 136.55H228.361L220.311 160ZM233.407 160H226.617L234.772 136.55H244.327L252.447 160H245.237L243.802 155.485H234.912L233.407 160ZM237.257 148.38L236.802 149.745H241.947L241.527 148.38L239.672 142.255H239.182L237.257 148.38ZM272.857 160H254.517V136.55H261.097V154.085H272.857V160ZM286.179 160.35C278.934 160.35 275.609 156.64 275.609 150.935V136.55H282.189V150.585C282.189 153.21 282.819 153.945 286.179 153.945C289.539 153.945 290.169 153.21 290.169 150.585V136.55H296.749V150.935C296.749 156.64 293.424 160.35 286.179 160.35ZM319.848 160H300.913V136.55H319.848V142.465H307.493V145.3H319.323V151.18H307.493V154.085H319.848V160ZM340.145 142.045C339.165 142.045 338.605 142.395 338.605 143.76C338.605 144.985 339.165 145.335 340.145 145.335H344.24V143.06H350.715V145.335H354.11V150.725H350.715V152.125C350.715 157.41 348.37 160.35 340.74 160.35C334.195 160.35 330.94 158.39 330.94 153.525C330.94 149.92 333.355 148.17 336.05 147.925V147.75C333.355 147.47 332.025 145.3 332.025 142.535C332.025 137.74 335.49 136.06 340.46 136.06H343.61V142.045H340.145ZM341.09 154.365C343.925 154.365 344.24 154.085 344.24 152.055V150.725H339.76C338.36 150.725 337.625 150.935 337.625 152.65C337.625 154.33 338.36 154.365 341.09 154.365ZM371.026 160H364.446V136.55H375.541C381.141 136.55 384.746 139.805 384.746 145.195C384.746 150.76 381.141 153.805 375.541 153.805H371.026V160ZM375.296 142.465H371.026V147.925H375.296C377.536 147.925 378.166 147.505 378.166 145.195C378.166 142.885 377.536 142.465 375.296 142.465ZM399.17 160.35C391.715 160.35 387.375 155.59 387.375 148.275C387.375 140.96 391.715 136.2 399.17 136.2C406.59 136.2 410.93 140.96 410.93 148.275C410.93 155.59 406.59 160.35 399.17 160.35ZM399.17 153.945C402.775 153.945 403.86 152.79 403.86 148.275C403.86 143.76 402.775 142.605 399.17 142.605C395.53 142.605 394.445 143.76 394.445 148.275C394.445 152.79 395.53 153.945 399.17 153.945ZM420.908 160H414.328V136.55H420.908V160ZM431.818 160H425.238V136.55H432.273L438.818 147.085L440.358 149.955H440.813L440.463 147.085V136.55H447.008V160H440.008L433.813 150.235L431.923 146.91H431.468L431.818 150.235V160ZM463.726 160H457.146V142.465H449.936V136.55H470.936V142.465H463.726V160ZM484.07 160.35C477.35 160.35 473.99 157.2 473.99 152.3V151.845H480.465V152.125C480.465 154.05 481.165 154.435 484.315 154.435C486.8 154.435 487.325 154.05 487.325 153.035C487.325 151.95 486.975 151.6 485.365 151.355L480.255 150.55C475.495 149.815 473.535 147.295 473.535 143.655C473.535 139.49 476.72 136.2 483.615 136.2C490.16 136.2 493.275 139.49 493.275 143.865V144.46H486.8V144.04C486.8 142.675 486.135 142.115 483.195 142.115C480.71 142.115 480.08 142.535 480.08 143.41C480.08 144.145 480.535 144.46 481.9 144.705L487.01 145.615C491.98 146.49 493.905 149.08 493.905 152.72C493.905 156.815 491.105 160.35 484.07 160.35Z" fill="#5DDEB5"/>
<rect x="49" y="186" width="170" height="48" rx="24" fill="#C8047D"/>
<path d="M84.2458 216.16C83.1685 216.16 82.2378 215.909 81.4538 215.408C80.6698 214.907 80.0645 214.203 79.6378 213.296C79.2165 212.389 79.0058 211.331 79.0058 210.12C79.0058 208.904 79.2165 207.861 79.6378 206.992C80.0591 206.117 80.6618 205.445 81.4458 204.976C82.2298 204.507 83.1631 204.272 84.2458 204.272C85.1151 204.272 85.8885 204.448 86.5658 204.8C87.2485 205.147 87.7978 205.621 88.2138 206.224C88.6351 206.827 88.8831 207.507 88.9578 208.264H86.5098C86.4351 207.864 86.2991 207.509 86.1018 207.2C85.9045 206.885 85.6458 206.64 85.3258 206.464C85.0058 206.283 84.6218 206.192 84.1738 206.192C83.6351 206.192 83.1711 206.323 82.7818 206.584C82.3925 206.845 82.0938 207.267 81.8858 207.848C81.6778 208.429 81.5738 209.197 81.5738 210.152C81.5738 211.592 81.8031 212.635 82.2618 213.28C82.7258 213.92 83.3631 214.24 84.1738 214.24C84.6218 214.24 85.0058 214.139 85.3258 213.936C85.6458 213.728 85.9045 213.456 86.1018 213.12C86.2991 212.779 86.4351 212.405 86.5098 212H88.9578C88.8885 212.549 88.7551 213.075 88.5578 213.576C88.3605 214.072 88.0805 214.515 87.7178 214.904C87.3551 215.293 86.8885 215.6 86.3178 215.824C85.7471 216.048 85.0565 216.16 84.2458 216.16ZM93.4422 216.144C92.8342 216.144 92.3515 216.072 91.9942 215.928C91.6369 215.784 91.3729 215.595 91.2022 215.36C91.0315 215.12 90.9222 214.856 90.8742 214.568C90.8262 214.275 90.8022 213.979 90.8022 213.68V204.112H93.0902V213.392C93.0902 213.696 93.1542 213.944 93.2822 214.136C93.4155 214.323 93.6635 214.437 94.0262 214.48L94.4182 214.504V215.944C94.2582 215.997 94.0955 216.043 93.9302 216.08C93.7649 216.123 93.6022 216.144 93.4422 216.144ZM98.5257 216.16C98.003 216.16 97.5284 216.061 97.1017 215.864C96.6804 215.667 96.347 215.381 96.1017 215.008C95.8564 214.629 95.7337 214.171 95.7337 213.632C95.7337 212.725 96.0724 212.037 96.7497 211.568C97.427 211.093 98.4964 210.848 99.9577 210.832L100.998 210.816V210.32C100.998 209.941 100.886 209.651 100.662 209.448C100.443 209.24 100.099 209.139 99.6297 209.144C99.2937 209.149 98.971 209.229 98.6617 209.384C98.3577 209.539 98.147 209.808 98.0297 210.192H96.0857C96.1177 209.595 96.291 209.104 96.6057 208.72C96.9257 208.331 97.355 208.043 97.8937 207.856C98.4324 207.664 99.0484 207.568 99.7417 207.568C100.584 207.568 101.262 207.675 101.774 207.888C102.286 208.096 102.656 208.397 102.886 208.792C103.12 209.181 103.238 209.645 103.238 210.184V216H101.286L101.094 214.576C100.811 215.173 100.456 215.587 100.03 215.816C99.6084 216.045 99.107 216.16 98.5257 216.16ZM99.3177 214.624C99.5257 214.624 99.7284 214.587 99.9257 214.512C100.128 214.432 100.31 214.328 100.47 214.2C100.63 214.067 100.755 213.917 100.846 213.752C100.942 213.587 100.992 213.416 100.998 213.24V212.016L100.158 212.032C99.7684 212.037 99.4057 212.085 99.0697 212.176C98.7337 212.261 98.4617 212.403 98.2537 212.6C98.051 212.797 97.9497 213.064 97.9497 213.4C97.9497 213.784 98.0804 214.085 98.3417 214.304C98.6084 214.517 98.9337 214.624 99.3177 214.624ZM105.236 216V207.728H107.468V216H105.236ZM105.212 206.544V204.44H107.484V206.544H105.212ZM109.605 216V207.728H111.893V208.896C112.143 208.533 112.479 208.221 112.901 207.96C113.327 207.699 113.863 207.568 114.509 207.568C114.791 207.568 115.079 207.619 115.373 207.72C115.666 207.821 115.941 207.971 116.197 208.168C116.458 208.36 116.669 208.603 116.829 208.896C117.095 208.517 117.445 208.203 117.877 207.952C118.314 207.696 118.799 207.568 119.333 207.568C119.642 207.568 119.954 207.619 120.269 207.72C120.589 207.821 120.882 207.987 121.149 208.216C121.415 208.445 121.629 208.752 121.789 209.136C121.954 209.515 122.037 209.984 122.037 210.544V216H119.701V210.832C119.701 210.501 119.634 210.237 119.501 210.04C119.373 209.837 119.207 209.693 119.005 209.608C118.807 209.517 118.597 209.472 118.373 209.472C118.165 209.472 117.954 209.515 117.741 209.6C117.527 209.68 117.346 209.811 117.197 209.992C117.047 210.173 116.973 210.411 116.973 210.704V216H114.645V210.624C114.645 210.373 114.578 210.163 114.445 209.992C114.311 209.821 114.143 209.693 113.941 209.608C113.743 209.517 113.541 209.472 113.333 209.472C113.119 209.472 112.906 209.517 112.693 209.608C112.479 209.693 112.301 209.829 112.157 210.016C112.013 210.197 111.941 210.427 111.941 210.704V216H109.605ZM131.216 216.16C130.406 216.16 129.699 215.987 129.096 215.64C128.499 215.293 128.035 214.803 127.704 214.168C127.379 213.533 127.216 212.781 127.216 211.912C127.216 211.043 127.379 210.283 127.704 209.632C128.035 208.981 128.499 208.475 129.096 208.112C129.699 207.749 130.408 207.568 131.224 207.568C132.04 207.568 132.747 207.747 133.344 208.104C133.942 208.456 134.403 208.957 134.728 209.608C135.054 210.259 135.216 211.027 135.216 211.912C135.216 212.744 135.056 213.48 134.736 214.12C134.422 214.755 133.966 215.253 133.368 215.616C132.776 215.979 132.059 216.16 131.216 216.16ZM131.224 214.424C131.635 214.424 131.966 214.304 132.216 214.064C132.467 213.824 132.648 213.509 132.76 213.12C132.872 212.725 132.928 212.296 132.928 211.832C132.928 211.395 132.878 210.981 132.776 210.592C132.675 210.203 132.499 209.888 132.248 209.648C131.998 209.408 131.656 209.288 131.224 209.288C130.814 209.288 130.48 209.403 130.224 209.632C129.974 209.856 129.79 210.163 129.672 210.552C129.555 210.936 129.496 211.363 129.496 211.832C129.496 212.264 129.55 212.68 129.656 213.08C129.763 213.475 129.942 213.797 130.192 214.048C130.443 214.299 130.787 214.424 131.224 214.424ZM136.892 216V207.728H139.188V208.896C139.316 208.693 139.481 208.499 139.684 208.312C139.892 208.12 140.153 207.963 140.468 207.84C140.782 207.717 141.156 207.656 141.588 207.656C142.094 207.656 142.566 207.755 143.004 207.952C143.446 208.149 143.804 208.461 144.076 208.888C144.348 209.309 144.484 209.861 144.484 210.544V216H142.148V210.832C142.148 210.384 142.014 210.048 141.748 209.824C141.481 209.6 141.156 209.488 140.772 209.488C140.516 209.488 140.268 209.533 140.028 209.624C139.793 209.715 139.601 209.851 139.452 210.032C139.302 210.213 139.228 210.437 139.228 210.704V216H136.892ZM152.945 216V206.512H149.449V204.432H158.705V206.512H155.289V216H152.945ZM161.572 216.16C161.049 216.16 160.575 216.061 160.148 215.864C159.727 215.667 159.393 215.381 159.148 215.008C158.903 214.629 158.78 214.171 158.78 213.632C158.78 212.725 159.119 212.037 159.796 211.568C160.473 211.093 161.543 210.848 163.004 210.832L164.044 210.816V210.32C164.044 209.941 163.932 209.651 163.708 209.448C163.489 209.24 163.145 209.139 162.676 209.144C162.34 209.149 162.017 209.229 161.708 209.384C161.404 209.539 161.193 209.808 161.076 210.192H159.132C159.164 209.595 159.337 209.104 159.652 208.72C159.972 208.331 160.401 208.043 160.94 207.856C161.479 207.664 162.095 207.568 162.788 207.568C163.631 207.568 164.308 207.675 164.82 207.888C165.332 208.096 165.703 208.397 165.932 208.792C166.167 209.181 166.284 209.645 166.284 210.184V216H164.332L164.14 214.576C163.857 215.173 163.503 215.587 163.076 215.816C162.655 216.045 162.153 216.16 161.572 216.16ZM162.364 214.624C162.572 214.624 162.775 214.587 162.972 214.512C163.175 214.432 163.356 214.328 163.516 214.2C163.676 214.067 163.801 213.917 163.892 213.752C163.988 213.587 164.039 213.416 164.044 213.24V212.016L163.204 212.032C162.815 212.037 162.452 212.085 162.116 212.176C161.78 212.261 161.508 212.403 161.3 212.6C161.097 212.797 160.996 213.064 160.996 213.4C160.996 213.784 161.127 214.085 161.388 214.304C161.655 214.517 161.98 214.624 162.364 214.624ZM168.282 216V207.728H170.514V216H168.282ZM168.258 206.544V204.44H170.53V206.544H168.258ZM172.651 216V204.112H174.987V211.16L178.027 207.728H180.539L177.531 211.024L180.643 216H178.315L176.083 212.432L174.987 213.6V216H172.651ZM185.167 216.16C184.356 216.16 183.65 215.987 183.047 215.64C182.45 215.293 181.986 214.803 181.655 214.168C181.33 213.533 181.167 212.781 181.167 211.912C181.167 211.043 181.33 210.283 181.655 209.632C181.986 208.981 182.45 208.475 183.047 208.112C183.65 207.749 184.359 207.568 185.175 207.568C185.991 207.568 186.698 207.747 187.295 208.104C187.892 208.456 188.354 208.957 188.679 209.608C189.004 210.259 189.167 211.027 189.167 211.912C189.167 212.744 189.007 213.48 188.687 214.12C188.372 214.755 187.916 215.253 187.319 215.616C186.727 215.979 186.01 216.16 185.167 216.16ZM185.175 214.424C185.586 214.424 185.916 214.304 186.167 214.064C186.418 213.824 186.599 213.509 186.711 213.12C186.823 212.725 186.879 212.296 186.879 211.832C186.879 211.395 186.828 210.981 186.727 210.592C186.626 210.203 186.45 209.888 186.199 209.648C185.948 209.408 185.607 209.288 185.175 209.288C184.764 209.288 184.431 209.403 184.175 209.632C183.924 209.856 183.74 210.163 183.623 210.552C183.506 210.936 183.447 211.363 183.447 211.832C183.447 212.264 183.5 212.68 183.607 213.08C183.714 213.475 183.892 213.797 184.143 214.048C184.394 214.299 184.738 214.424 185.175 214.424Z" fill="#F3F3F3"/>
</g>
<defs>
<linearGradient id="paint0_linear_728_20890" x1="746.446" y1="23.4383" x2="723.093" y2="17.181" gradientUnits="userSpaceOnUse">
<stop stop-color="#F8D33A"/>
<stop offset="0.965864" stop-color="#FFA142"/>
</linearGradient>
<linearGradient id="paint1_linear_728_20890" x1="824.389" y1="91.3584" x2="830.646" y2="114.71" gradientUnits="userSpaceOnUse">
<stop stop-color="#F8D33A"/>
<stop offset="0.965864" stop-color="#FFA142"/>
</linearGradient>
<linearGradient id="paint2_linear_728_20890" x1="688.409" y1="-19.6216" x2="688.409" y2="26.2758" gradientUnits="userSpaceOnUse">
<stop stop-color="#F0B90B"/>
<stop offset="0.403354" stop-color="#F8D33A"/>
</linearGradient>
<linearGradient id="paint3_linear_728_20890" x1="841.274" y1="-8.28549" x2="795.959" y2="-3.89943" gradientUnits="userSpaceOnUse">
<stop stop-color="#E81899"/>
<stop offset="0.925484" stop-color="#C8047D"/>
</linearGradient>
<clipPath id="clip0_728_20890">
<rect width="874" height="300" rx="30" fill="white"/>
</clipPath>
</defs>
</svg>
