<svg width="178" height="250" viewBox="0 0 178 250" fill="none" xmlns="http://www.w3.org/2000/svg">
<path d="M171.515 15.1329C171.42 23.2285 164.78 29.7144 156.685 29.6195C148.589 29.5247 142.104 22.885 142.198 14.7894C142.293 6.69374 148.933 0.207868 157.028 0.302739C165.124 0.39761 171.61 7.03731 171.515 15.1329Z" fill="#77C2AA" fill-opacity="0.46" stroke="#77C2AA" stroke-width="1.00148"/>
<path d="M140.602 82.4614L140.597 82.4569L87.6845 28.2893C87.1676 27.7602 86.4724 27.4667 85.7377 27.4581L74.8532 27.3306C73.8779 27.3192 73.0994 26.5222 73.1108 25.5468L73.3766 2.86977C73.388 1.8944 74.1849 1.1159 75.1603 1.12733L101.204 1.43253C101.675 1.43805 102.122 1.63076 102.446 1.96213L168.936 70.0292C169.266 70.3664 169.442 70.8115 169.437 71.2834L169.316 81.5516C169.305 82.5269 168.508 83.3055 167.532 83.294L141.846 82.993C141.376 82.9875 140.929 82.7955 140.605 82.4653C140.605 82.4647 140.604 82.4641 140.604 82.4635L140.602 82.4614Z" fill="#77C2AA" fill-opacity="0.46" stroke="#77C2AA" stroke-width="1.00148"/>
<path d="M98.7416 237.102C98.7618 236.19 99.4774 235.452 100.373 235.385L100.519 235.387L110.553 235.505C111.529 235.516 112.307 236.313 112.296 237.288L112.025 260.407C112.013 261.382 111.216 262.16 110.241 262.149L99.9143 262.028C98.9282 262.016 98.1455 261.204 98.1722 260.22L98.1723 260.218L98.7415 237.104L98.7416 237.102Z" fill="#77C2AA" fill-opacity="0.46" stroke="#77C2AA" stroke-width="1.00148"/>
<path d="M141.207 99.9449L141.209 99.7953C141.296 98.8926 142.07 98.187 143.001 98.2026C143.001 98.2026 143.001 98.2026 143.002 98.2026L167.097 98.6342L167.097 98.6342C168.067 98.6506 168.841 99.4475 168.829 100.418L168.539 125.145C168.534 125.616 168.347 126.057 168.01 126.387L113.488 179.646C113.156 179.969 112.705 180.151 112.234 180.146L46.1292 179.371C45.1538 179.36 44.3753 178.563 44.3867 177.587L44.6598 154.288C44.6712 153.312 45.4682 152.534 46.4435 152.545L98.1935 153.152C98.9282 153.16 99.63 152.883 100.159 152.366L140.243 113.211L139.893 112.853L140.243 113.211C140.765 112.701 141.066 112 141.075 111.264L141.207 99.9449Z" fill="#77C2AA" fill-opacity="0.46" stroke="#77C2AA" stroke-width="1.00148"/>
<path d="M96.1852 193.766C97.1208 193.767 97.8814 194.489 97.9496 195.396L97.9478 195.55L97.6605 220.062C97.6491 221.038 96.8522 221.816 95.8769 221.805L84.5449 221.672C83.8092 221.663 83.1009 221.948 82.5791 222.457L28.5035 275.28C28.1663 275.61 27.7212 275.786 27.2493 275.781L2.26954 275.488C1.29417 275.476 0.515671 274.68 0.527101 273.704L0.653665 262.904C0.659182 262.433 0.851944 261.986 1.18328 261.662L70.1559 194.287C70.4819 193.969 70.9298 193.786 71.3897 193.786L71.3905 193.786L96.1847 193.766C96.1848 193.766 96.185 193.766 96.1852 193.766Z" fill="#77C2AA" fill-opacity="0.46" stroke="#77C2AA" stroke-width="1.00148"/>
<path d="M115.927 194.678L115.921 194.672L140.689 194.962C141.16 194.967 141.608 195.16 141.932 195.491L173.471 227.779C173.801 228.117 173.977 228.562 173.972 229.034L173.913 234.074C173.901 235.049 173.104 235.827 172.129 235.816L140.5 235.445C140.03 235.44 139.582 235.247 139.258 234.916L126.777 222.138C126.26 221.609 125.565 221.316 124.83 221.307L114.828 221.19C113.867 221.179 113.089 220.401 113.085 219.437L113.085 219.436L112.913 196.442L112.913 196.441C112.905 195.452 113.712 194.652 114.698 194.664L115.927 194.678Z" fill="#77C2AA" fill-opacity="0.46" stroke="#77C2AA" stroke-width="1.00148"/>
</svg>
