<svg width="1344" height="145" viewBox="0 0 1344 145" fill="none" xmlns="http://www.w3.org/2000/svg">
<path d="M452.789 100.226H477.597V110.857H441V59.651H452.789V100.226Z" fill="url(#paint0_linear_607_11366)"/>
<path d="M541.994 70.2536H505.197C496.787 70.2536 489.97 77.0707 489.97 85.48C489.97 93.8893 496.787 100.706 505.197 100.706H533.112C536.284 108.32 543.897 110.857 543.897 110.857H505.197C491.181 110.857 479.819 99.4955 479.819 85.48C479.819 71.4645 491.181 60.1027 505.197 60.1027H541.994C556.009 60.1027 567.371 71.4645 567.371 85.48C567.371 89.5876 566.395 93.4673 564.663 96.8998H552.065C555.226 94.1098 557.22 90.0277 557.22 85.48C557.22 77.0707 550.403 70.2536 541.994 70.2536Z" fill="url(#paint1_linear_607_11366)"/>
<path d="M869.284 59.651L892.211 91.3295V59.651H904V110.857H892.934L869.79 79.3958V110.857H858.001V59.651H869.284Z" fill="url(#paint2_linear_607_11366)"/>
<path d="M808.812 110.857H793.406L780.677 59.651H793.985L801.217 95.9583L809.246 59.651H824.289L832.173 95.9583L839.405 59.651H852.641L839.911 110.857H824.362L816.623 75.2733L808.812 110.857Z" fill="url(#paint3_linear_607_11366)"/>
<path d="M752.808 59C756.714 59 760.234 59.6268 763.368 60.8805C766.55 62.0859 769.25 63.8458 771.468 66.1602C773.734 68.4264 775.47 71.1507 776.676 74.333C777.881 77.5153 778.484 81.0592 778.484 84.9648C778.484 88.8222 777.881 92.3661 776.676 95.5966C775.47 98.8272 773.734 101.624 771.468 103.986C769.25 106.349 766.55 108.181 763.368 109.483C760.185 110.785 756.617 111.412 752.664 111.364C748.662 111.364 745.069 110.737 741.887 109.483C738.753 108.181 736.077 106.373 733.859 104.059C731.641 101.744 729.929 98.9959 728.724 95.8136C727.567 92.5831 726.988 89.0391 726.988 85.1818C726.988 81.2762 727.591 77.7323 728.796 74.55C730.05 71.3194 731.786 68.547 734.004 66.2325C736.27 63.9181 738.994 62.1341 742.176 60.8805C745.359 59.6268 748.903 59 752.808 59ZM739.066 85.1095C739.066 87.0864 739.332 88.9909 739.862 90.8232C740.441 92.6554 741.284 94.2948 742.393 95.7413C743.551 97.1396 744.997 98.2727 746.733 99.1406C748.469 100.008 750.542 100.467 752.953 100.515C755.267 100.515 757.268 100.081 758.956 99.2129C760.643 98.345 762.042 97.1878 763.151 95.7413C764.26 94.2948 765.079 92.6554 765.61 90.8232C766.14 88.9909 766.405 87.1346 766.405 85.2541C766.405 83.3737 766.14 81.5173 765.61 79.6851C765.128 77.8528 764.332 76.2134 763.223 74.7669C762.114 73.3204 760.692 72.1391 758.956 71.223C757.268 70.3069 755.219 69.8488 752.808 69.8488C750.446 69.8488 748.396 70.2828 746.661 71.1507C744.925 72.0186 743.502 73.1758 742.393 74.6223C741.284 76.0206 740.441 77.6358 739.862 79.4681C739.332 81.3003 739.066 83.1808 739.066 85.1095Z" fill="url(#paint4_linear_607_11366)"/>
<path d="M675.351 110.857V59.651H694.807C698.809 59.651 702.401 60.2055 705.583 61.3145C708.814 62.3753 711.538 63.9905 713.756 66.1603C716.022 68.3301 717.758 71.0061 718.963 74.1884C720.169 77.3707 720.772 81.0593 720.772 85.2542C720.772 93.6922 718.554 100.081 714.118 104.42C709.73 108.712 703.389 110.857 695.096 110.857H675.351ZM695.241 100.226C697.7 100.226 699.773 99.888 701.461 99.213C703.196 98.4897 704.595 97.4772 705.655 96.1753C706.764 94.8735 707.56 93.3064 708.042 91.4742C708.524 89.6419 708.766 87.5927 708.766 85.3265C708.766 80.4084 707.608 76.6957 705.294 74.1884C703.028 71.6811 699.484 70.4275 694.662 70.4275H687.14V100.226H695.241Z" fill="url(#paint5_linear_607_11366)"/>
<path d="M637.134 90.7509V110.857H625.345V59.651H637.134V80.0468H643.354L656.3 59.651H669.825L653.19 84.097L669.897 110.857H656.156L644.005 90.7509H637.134Z" fill="url(#paint6_linear_607_11366)"/>
<path d="M541.995 85.3773C541.995 93.7866 548.812 100.604 557.221 100.604H594.018C600.513 100.604 606.059 96.5368 608.247 90.8106H618.813C616.325 102.215 606.169 110.755 594.018 110.755H557.221C543.206 110.755 531.844 99.3928 531.844 85.3773C531.844 81.2697 532.82 77.3901 534.552 73.9575H547.149C543.988 76.7476 541.995 80.8296 541.995 85.3773Z" fill="url(#paint7_linear_607_11366)"/>
<path d="M594.018 60H557.221C564.834 62.5377 567.372 70.1509 567.372 70.1509H594.018C600.513 70.1509 606.059 74.2178 608.247 79.9441H618.813C616.325 68.5394 606.169 60 594.018 60Z" fill="url(#paint8_linear_607_11366)"/>
<path d="M551.675 42.1075C550.823 41.5297 550.063 41.0127 549.302 40.4652C548.086 39.5833 547.569 38.5493 548.329 36.9983C549.667 34.2916 550.732 31.4633 552.07 28.7871C553.834 25.2897 555.75 21.8531 557.575 18.3862C557.787 17.9908 557.848 17.5651 558.031 16.9264C552.04 16.2878 546.748 19.0552 541.182 19.8764C541.122 19.6939 541.061 19.5114 541 19.3289C543.676 18.2949 546.352 17.2305 549.12 16.1661C548.552 15.639 546.434 15.8214 542.764 16.7135C542.703 16.5919 542.673 16.4702 542.612 16.379C543.92 15.7708 545.227 15.1625 546.535 14.5847C547.326 14.2197 547.326 14.2502 547.478 13.2161C547.478 13.0641 547.843 12.912 548.086 12.8512C552.374 11.726 556.632 10.5399 560.95 9.53631C564.782 8.65436 568.614 7.77242 572.476 7.25541C575.153 6.89047 577.92 7.01212 580.627 7.19459C582.451 7.31624 583.303 8.80642 583.09 10.7528C582.999 11.5435 583.242 12.6383 582.816 13.0337C582.299 13.5203 581.205 13.4594 580.383 13.5203C577.038 13.8244 573.662 14.1285 570.287 14.3718C569.07 14.463 568.28 14.9192 567.641 16.014C564.539 21.5186 561.406 27.0232 558.152 32.4669C556.54 35.1127 554.625 37.5761 552.861 40.1307C552.435 40.7389 552.1 41.408 551.644 42.1683L551.675 42.1075Z" fill="url(#paint9_linear_607_11366)"/>
<path d="M720.217 30.2468C721.404 30.1252 722.559 30.0339 723.745 29.9123C728.094 29.4561 732.443 29.3649 736.731 30.2772C738.039 30.5509 738.617 30.1252 739.225 29.152C743.026 23.1304 748.318 18.8423 754.978 16.2573C757.198 15.4058 757.746 15.5579 759.023 17.2305C760.392 19.0248 761.152 21.032 759.844 22.7047C758.141 24.9247 755.86 26.2629 753.488 27.4793C751.025 28.7262 748.531 29.9427 745.581 29.5473C744.76 29.4257 743.331 31.5241 742.996 33.4097C745.247 32.6798 747.345 32.0715 749.383 31.3416C753.123 30.0035 756.833 28.6046 760.574 27.2056C761.03 27.0232 761.547 26.8711 762.034 26.8103C762.338 26.7799 762.825 26.8711 762.946 27.0536C763.129 27.3577 763.22 27.9051 763.037 28.1484C762.612 28.7566 762.125 29.3649 761.517 29.7602C757.746 32.1932 753.975 34.6565 750.052 36.907C748.44 37.8498 746.554 38.458 744.73 38.823C742.631 39.2487 741.019 38.0627 740.016 36.2684C739.407 35.1431 738.738 34.5653 737.339 34.6261C733.72 34.7478 730.041 34.2916 726.452 34.7478C720.978 35.4473 715.504 36.4813 710.425 38.8534C709.087 39.4616 707.718 39.9786 706.41 40.6173C704.92 41.3168 704.099 41.1647 703.278 39.9482C702.335 38.5493 702.426 36.9374 703.643 36.0251C707.536 33.0751 711.459 30.1252 715.382 27.1752C716.659 26.202 717.876 25.168 719.123 24.1644C719.062 24.0428 719.031 23.8907 718.971 23.7691C717.937 23.982 716.903 24.134 715.869 24.3773C714.013 24.8031 712.158 25.3505 710.273 25.7154C709.634 25.8371 708.843 25.7154 708.205 25.4721C707.718 25.2593 707.049 24.499 707.14 24.2557C707.444 23.4954 706.958 22.4005 708.387 22.0356C714.926 20.4238 721.464 18.7207 727.973 16.896C729.402 16.5006 730.679 15.6187 731.987 14.8888C733.203 14.1893 734.268 14.0677 735.515 14.8888C736.518 15.5274 736.822 16.4094 736.488 17.3217C736.184 18.082 735.515 18.9336 734.785 19.2073C731.318 20.4238 728.824 22.8567 726.178 25.2288C724.749 26.5061 723.167 27.5706 721.647 28.7262C721.099 29.152 720.582 29.5473 720.065 29.9731C720.126 30.0948 720.157 30.2164 720.217 30.3381V30.2468ZM754.674 21.2145C752.91 22.3701 751.116 23.4954 749.352 24.651C751.42 25.1376 754.309 23.2825 754.674 21.2145Z" fill="url(#paint10_linear_607_11366)"/>
<path d="M791.625 30.5813C789.891 29.8819 788.279 29.3649 786.789 28.5742C783.413 26.8103 783.839 22.583 786.059 20.6062C788.766 18.2341 791.381 15.6187 795.122 14.7671C795.426 14.7063 795.639 14.2501 795.882 13.9764C796.46 13.2161 797.038 12.6383 798.163 12.6687C800.779 12.7904 801.478 13.9156 801.326 16.531C801.174 18.8119 800.9 21.0016 799.988 23.0696C799.623 23.8907 798.802 25.1072 798.163 25.1072C797.22 25.1072 796.095 24.3773 795.396 23.6474C794.727 22.948 794.483 21.8227 794.027 20.7583C791.655 21.4578 789.952 23.1913 788.097 25.5026C789.344 25.8067 790.347 26.1412 791.381 26.2629C794.423 26.6278 797.494 26.8711 800.566 27.236C801.296 27.3273 802.026 27.6314 802.634 28.0267C804.215 29.0607 804.215 31.4025 802.512 32.1932C799.714 33.4705 796.825 34.5045 793.936 35.5385C790.956 36.6029 787.914 37.5457 784.873 38.458C783.718 38.823 782.532 39.0054 781.498 39.2183C781.224 38.8534 781.072 38.5493 780.828 38.3668C780.433 38.0019 779.582 37.5761 779.642 37.3936C779.825 36.7854 780.19 36.0251 780.737 35.7514C782.957 34.6565 785.269 33.7746 787.489 32.7406C788.918 32.0715 790.287 31.2808 791.594 30.5813H791.625Z" fill="url(#paint11_linear_607_11366)"/>
<path d="M666.054 40.8606C666.236 39.0967 666.236 37.3024 666.601 35.5689C667.392 32.0412 668.183 28.5134 669.338 25.1072C670.616 21.2753 672.288 17.5347 673.809 13.7636C674.934 10.9961 675.999 8.19821 677.245 5.46114C677.793 4.24466 678.644 3.14983 679.465 2.08541C679.709 1.75088 680.347 1.56841 680.804 1.56841C681.807 1.56841 682.811 1.59882 683.814 1.78129C685.913 2.11583 686.247 2.8153 685.274 4.76166C683.358 8.62398 681.26 12.3951 679.465 16.2878C677.489 20.5455 675.755 24.9248 673.9 29.2737C672.897 31.6154 672.045 34.0483 670.798 36.2988C670.129 37.4849 668.791 38.3364 667.787 39.34C667.301 39.8266 666.875 40.4044 666.419 40.9214C666.267 40.9214 666.145 40.8606 665.993 40.8302L666.054 40.8606Z" fill="url(#paint12_linear_607_11366)"/>
<path d="M625.667 40.7692C625.849 38.9749 625.88 37.1806 626.275 35.4167C627.066 31.9497 627.856 28.4523 628.982 25.107C630.198 21.3968 631.78 17.8082 633.239 14.1891C634.425 11.2392 635.612 8.25882 636.919 5.33928C637.406 4.24445 638.105 3.24085 638.896 2.32849C639.261 1.90273 639.991 1.62902 640.599 1.5682C641.603 1.50737 642.606 1.62902 643.61 1.81149C645.435 2.11561 645.86 2.90632 645.07 4.51815C643.093 8.44129 640.934 12.3036 639.078 16.318C637.102 20.5756 635.399 24.9854 633.513 29.2735C632.783 30.9765 631.688 32.5579 631.08 34.3218C630.32 36.4811 629.225 38.2146 627.248 39.431C626.762 39.7352 626.488 40.4042 626.123 40.8908C625.971 40.8604 625.819 40.7996 625.667 40.7692Z" fill="url(#paint13_linear_607_11366)"/>
<path d="M773.499 21.4882C774.655 20.3325 775.567 19.4506 776.449 18.5382C776.905 18.0516 777.209 17.4738 777.635 16.9872C778.517 15.9532 779.277 14.8279 780.95 16.014C782.744 17.2913 783.444 18.5078 782.744 20.2717C781.832 22.6134 780.828 24.8943 779.886 27.2056C779.551 28.0571 779.034 28.1484 778.365 27.6314C777.605 27.0535 776.905 26.4453 776.054 25.7762C771.553 29.4865 769.546 35.0823 765.775 39.5528C763.463 39.7049 761.699 37.1503 762.642 34.8086C764.953 28.9695 767.234 23.1304 769.515 17.2913C769.789 16.5918 770.032 16.2573 770.914 16.5614C773.317 17.3521 773.712 17.9604 773.469 21.4578L773.499 21.4882Z" fill="url(#paint14_linear_607_11366)"/>
<path d="M572.355 16.5309C575.487 17.3824 575.548 17.4737 575.7 21.6401C576.856 20.4845 577.798 19.5721 578.711 18.6293C579.137 18.2036 579.38 17.6257 579.806 17.2C580.596 16.4093 581.053 15.0103 582.695 15.9227C584.489 16.9263 585.432 18.386 584.854 20.0587C584.002 22.5221 582.938 24.8942 581.874 27.2967C581.782 27.54 580.961 27.7225 580.718 27.5704C579.897 27.0838 579.197 26.4452 578.133 25.5937C576.734 27.2359 575.183 28.8782 573.906 30.6725C572.051 33.2879 570.317 35.9945 568.644 38.7316C568.067 39.6744 567.489 39.644 566.668 39.1878C564.691 38.0626 564.235 36.8461 565.086 34.626C567.337 28.7869 569.648 22.9478 571.959 17.1087C572.051 16.8959 572.233 16.7134 572.385 16.5309H572.355Z" fill="url(#paint15_linear_607_11366)"/>
<path d="M615.083 37.4848C613.32 38.2451 612.012 38.8229 610.43 39.492C610.735 38.2147 610.917 37.059 611.252 35.9338C612.59 31.6153 613.928 27.3272 615.327 23.0087C615.905 21.184 617.03 19.9675 619.098 19.8459C620.101 19.7851 621.105 19.5114 622.078 19.4809C623.538 19.4201 623.994 19.9675 623.386 21.2752C621.379 25.6546 619.372 30.0339 617.243 34.3524C616.604 35.6601 615.6 36.7549 615.053 37.5152L615.083 37.4848Z" fill="url(#paint16_linear_607_11366)"/>
<path d="M620.406 17.6866C619.584 17.4129 618.185 17.3825 617.76 16.7134C617.06 15.6186 617.973 14.4326 618.794 13.4898C620.771 11.1785 624.359 11.2089 626.032 13.4898C626.792 14.4934 626.549 15.0712 625.454 15.5578C624.663 15.9227 624.025 16.5614 623.234 16.8959C622.443 17.2305 621.531 17.3825 620.406 17.6562V17.6866Z" fill="url(#paint17_linear_607_11366)"/>
<path d="M648.445 22.4917C651.03 22.1876 653.372 21.853 655.714 21.6401C661.279 21.1535 665.567 25.5025 663.895 30.6725C663.408 32.2235 662.374 33.9874 661.036 34.8085C657.873 36.8157 654.497 38.4883 651.061 39.9481C647.594 41.4383 644.796 38.8837 643.914 35.5384C643.853 35.2647 643.762 35.0214 643.61 34.474C642.819 35.8425 642.12 36.9373 641.511 38.093C640.721 39.5832 640.477 39.4311 639.291 38.3363C637.558 36.7549 638.075 34.9302 638.379 33.2271C639.352 27.9354 640.842 22.735 643.245 17.9299C645.739 12.9119 648.567 8.04601 651.243 3.08887C651.487 2.6631 651.821 2.20692 651.821 1.75074C651.912 0.169322 653.402 0.199733 654.224 0.0172616C654.862 -0.134798 656.17 0.747148 656.535 1.50745C657.812 3.97081 657.417 6.37335 655.987 8.7759C653.615 12.7903 651.426 16.9263 649.145 21.0015C648.902 21.4273 648.719 21.8834 648.415 22.4917H648.445ZM654.406 27.4488C653.646 27.4184 653.25 27.2968 652.946 27.388C650.483 28.2699 648.02 29.1519 645.647 30.2163C645.009 30.49 644.583 31.372 644.218 32.0714C643.975 32.4972 643.823 33.44 644.005 33.5616C644.522 33.8657 645.222 33.8961 645.83 33.9874C645.982 33.9874 646.195 33.8353 646.377 33.7441C648.749 32.2539 651.152 30.7941 653.494 29.2127C653.919 28.939 654.041 28.2395 654.436 27.4488H654.406Z" fill="url(#paint18_linear_607_11366)"/>
<path d="M698.138 40.6476C697.348 40.1002 696.892 39.7049 696.344 39.4311C694.732 38.61 694.641 37.0894 694.489 35.5993C694.398 34.6565 694.367 33.7137 694.276 32.4364C692.512 33.7745 691.083 34.991 689.532 36.0554C687.768 37.2415 685.882 38.3059 684.058 39.4007C683.875 39.492 683.541 39.492 683.358 39.4007C678.796 36.9678 677.519 30.6117 680.378 27.6921C682.142 25.8674 683.693 23.7994 685.517 22.0355C688.102 19.5113 691.265 18.6294 694.854 19.4809C695.432 19.6026 695.949 19.9067 696.618 20.1804C696.922 19.4809 697.196 18.8727 697.5 18.234C698.078 16.9263 698.747 15.497 700.389 15.6186C702.579 15.8011 704.251 17.565 704.373 19.4809C704.434 20.2716 704.373 21.0928 704.13 21.8531C702.639 27.2664 701.119 32.6797 699.537 38.0626C699.264 39.0054 698.625 39.8569 698.199 40.678L698.138 40.6476ZM684.696 32.6797C684.97 32.5885 685.274 32.5276 685.487 32.3756C688.163 30.7638 690.809 29.1215 693.516 27.5401C695.006 26.6581 695.067 25.2592 695.036 23.5561C690.84 25.9283 687.433 28.8782 684.696 32.6797Z" fill="url(#paint19_linear_607_11366)"/>
<path d="M605.595 40.3738C601.581 39.0357 601.824 35.7512 601.733 32.558C598.083 35.0214 594.647 37.3327 591.362 39.5527C587.5 37.5455 586.01 34.626 586.344 30.7333C586.405 30.1859 586.466 29.5776 586.77 29.1518C589.233 25.6241 591.666 22.005 595.741 20.0283C598.022 18.9334 600.486 18.6597 602.888 19.7546C603.801 20.1803 604.166 19.9979 604.47 19.1463C604.713 18.4773 604.956 17.8082 605.321 17.2304C606.538 15.1624 609.457 15.1624 610.765 17.2304C611.647 18.5989 611.951 20.0587 611.464 21.6705C610.187 25.989 608.91 30.3379 607.663 34.6564C607.328 35.7512 607.207 36.9373 606.811 38.0017C606.507 38.9141 605.96 39.7352 605.625 40.3738H605.595ZM602.432 23.6777C599.877 24.438 592.609 30.4291 591.97 32.71C592.244 32.6188 592.487 32.5884 592.7 32.4667C595.498 30.7637 598.296 29.0606 601.064 27.388C602.523 26.506 602.341 25.1071 602.432 23.6777Z" fill="url(#paint20_linear_607_11366)"/>
<path d="M0 56.5H168L197.5 27H508" stroke="#767C89" stroke-width="2"/>
<path d="M1344 56.5H1176L1146.5 27H836" stroke="#767C89" stroke-width="2"/>
<path d="M0 114H168L197.5 143.5H1146.5L1176 114H1344" stroke="#767C89" stroke-width="2"/>
<circle cx="244.106" cy="78.6" r="2.7475" fill="#E81899" stroke="#E81899" stroke-width="0.568447"/>
<circle cx="256.553" cy="78.6" r="2.7475" fill="#E81899" stroke="#E81899" stroke-width="0.568447"/>
<circle cx="250.17" cy="84.6634" r="2.7475" fill="#E81899" stroke="#E81899" stroke-width="0.568447"/>
<circle cx="244.106" cy="90.7268" r="2.7475" fill="#E81899" stroke="#E81899" stroke-width="0.568447"/>
<circle cx="256.553" cy="90.7269" r="2.7475" fill="#E81899" stroke="#E81899" stroke-width="0.568447"/>
<circle cx="369.842" cy="90.7269" r="2.7475" fill="#E81899" stroke="#E81899" stroke-width="0.568447"/>
<circle cx="369.842" cy="84.6633" r="2.7475" fill="#E81899" stroke="#E81899" stroke-width="0.568447"/>
<circle cx="375.907" cy="84.6633" r="2.7475" fill="#E81899" stroke="#E81899" stroke-width="0.568447"/>
<circle cx="375.907" cy="78.6" r="2.7475" fill="#E81899" stroke="#E81899" stroke-width="0.568447"/>
<circle cx="381.967" cy="84.6634" r="2.7475" fill="#E81899" stroke="#E81899" stroke-width="0.568447"/>
<circle cx="381.967" cy="90.7268" r="2.7475" fill="#E81899" stroke="#E81899" stroke-width="0.568447"/>
<circle cx="286.227" cy="84.6636" r="2.7475" fill="#E81899" stroke="#E81899" stroke-width="0.568447"/>
<circle cx="286.227" cy="78.6001" r="2.7475" fill="#E81899" stroke="#E81899" stroke-width="0.568447"/>
<circle cx="292.291" cy="78.6001" r="2.7475" fill="#E81899" stroke="#E81899" stroke-width="0.568447"/>
<circle cx="298.352" cy="84.6634" r="2.7475" fill="#E81899" stroke="#E81899" stroke-width="0.568447"/>
<circle cx="298.352" cy="90.727" r="2.7475" fill="#E81899" stroke="#E81899" stroke-width="0.568447"/>
<circle cx="292.291" cy="90.727" r="2.7475" fill="#E81899" stroke="#E81899" stroke-width="0.568447"/>
<circle cx="3.03172" cy="3.03172" r="2.7475" transform="matrix(-1 0 0 1 343.193 81.6318)" fill="#E81899" stroke="#E81899" stroke-width="0.568447"/>
<circle cx="3.03172" cy="3.03172" r="2.7475" transform="matrix(-1 0 0 1 343.193 75.5684)" fill="#E81899" stroke="#E81899" stroke-width="0.568447"/>
<circle cx="3.03172" cy="3.03172" r="2.7475" transform="matrix(-1 0 0 1 337.129 75.5684)" fill="#E81899" stroke="#E81899" stroke-width="0.568447"/>
<circle cx="3.03172" cy="3.03172" r="2.7475" transform="matrix(-1 0 0 1 331.068 81.6317)" fill="#E81899" stroke="#E81899" stroke-width="0.568447"/>
<circle cx="3.03172" cy="3.03172" r="2.7475" transform="matrix(-1 0 0 1 331.068 87.6953)" fill="#E81899" stroke="#E81899" stroke-width="0.568447"/>
<circle cx="3.03172" cy="3.03172" r="2.7475" transform="matrix(-1 0 0 1 337.129 87.6953)" fill="#E81899" stroke="#E81899" stroke-width="0.568447"/>
<circle cx="214.665" cy="84.6636" r="3.85732" fill="#E81899" stroke="#E81899" stroke-width="0.568447"/>
<circle cx="221.015" cy="84.9396" r="0.820188" fill="#E81899" stroke="#E81899" stroke-width="0.568447"/>
<circle cx="208.313" cy="84.9396" r="0.820188" fill="#E81899" stroke="#E81899" stroke-width="0.568447"/>
<circle cx="214.388" cy="78.3133" r="0.820188" fill="#E81899" stroke="#E81899" stroke-width="0.568447"/>
<circle cx="214.388" cy="91.0138" r="0.820188" fill="#E81899" stroke="#E81899" stroke-width="0.568447"/>
<circle cx="214.664" cy="84.6636" r="9.6636" stroke="#E81899" stroke-width="1.13689"/>
<circle cx="998.106" cy="78.6" r="2.7475" fill="#E81899" stroke="#E81899" stroke-width="0.568447"/>
<circle cx="1010.55" cy="78.6" r="2.7475" fill="#E81899" stroke="#E81899" stroke-width="0.568447"/>
<circle cx="1004.17" cy="84.6634" r="2.7475" fill="#E81899" stroke="#E81899" stroke-width="0.568447"/>
<circle cx="998.106" cy="90.7268" r="2.7475" fill="#E81899" stroke="#E81899" stroke-width="0.568447"/>
<circle cx="1010.55" cy="90.7269" r="2.7475" fill="#E81899" stroke="#E81899" stroke-width="0.568447"/>
<circle cx="1123.84" cy="90.7269" r="2.7475" fill="#E81899" stroke="#E81899" stroke-width="0.568447"/>
<circle cx="1123.84" cy="84.6633" r="2.7475" fill="#E81899" stroke="#E81899" stroke-width="0.568447"/>
<circle cx="1129.91" cy="84.6633" r="2.7475" fill="#E81899" stroke="#E81899" stroke-width="0.568447"/>
<circle cx="1129.91" cy="78.6" r="2.7475" fill="#E81899" stroke="#E81899" stroke-width="0.568447"/>
<circle cx="1135.97" cy="84.6634" r="2.7475" fill="#E81899" stroke="#E81899" stroke-width="0.568447"/>
<circle cx="1135.97" cy="90.7268" r="2.7475" fill="#E81899" stroke="#E81899" stroke-width="0.568447"/>
<circle cx="1040.23" cy="84.6636" r="2.7475" fill="#E81899" stroke="#E81899" stroke-width="0.568447"/>
<circle cx="1040.23" cy="78.6001" r="2.7475" fill="#E81899" stroke="#E81899" stroke-width="0.568447"/>
<circle cx="1046.29" cy="78.6001" r="2.7475" fill="#E81899" stroke="#E81899" stroke-width="0.568447"/>
<circle cx="1052.35" cy="84.6634" r="2.7475" fill="#E81899" stroke="#E81899" stroke-width="0.568447"/>
<circle cx="1052.35" cy="90.727" r="2.7475" fill="#E81899" stroke="#E81899" stroke-width="0.568447"/>
<circle cx="1046.29" cy="90.727" r="2.7475" fill="#E81899" stroke="#E81899" stroke-width="0.568447"/>
<circle cx="3.03172" cy="3.03172" r="2.7475" transform="matrix(-1 0 0 1 1097.19 81.6318)" fill="#E81899" stroke="#E81899" stroke-width="0.568447"/>
<circle cx="3.03172" cy="3.03172" r="2.7475" transform="matrix(-1 0 0 1 1097.19 75.5684)" fill="#E81899" stroke="#E81899" stroke-width="0.568447"/>
<circle cx="3.03172" cy="3.03172" r="2.7475" transform="matrix(-1 0 0 1 1091.13 75.5684)" fill="#E81899" stroke="#E81899" stroke-width="0.568447"/>
<circle cx="3.03172" cy="3.03172" r="2.7475" transform="matrix(-1 0 0 1 1085.07 81.6317)" fill="#E81899" stroke="#E81899" stroke-width="0.568447"/>
<circle cx="3.03172" cy="3.03172" r="2.7475" transform="matrix(-1 0 0 1 1085.07 87.6953)" fill="#E81899" stroke="#E81899" stroke-width="0.568447"/>
<circle cx="3.03172" cy="3.03172" r="2.7475" transform="matrix(-1 0 0 1 1091.13 87.6953)" fill="#E81899" stroke="#E81899" stroke-width="0.568447"/>
<circle cx="968.665" cy="84.6636" r="3.85732" fill="#E81899" stroke="#E81899" stroke-width="0.568447"/>
<circle cx="975.015" cy="84.9396" r="0.820188" fill="#E81899" stroke="#E81899" stroke-width="0.568447"/>
<circle cx="962.313" cy="84.9396" r="0.820188" fill="#E81899" stroke="#E81899" stroke-width="0.568447"/>
<circle cx="968.388" cy="78.3133" r="0.820188" fill="#E81899" stroke="#E81899" stroke-width="0.568447"/>
<circle cx="968.388" cy="91.0138" r="0.820188" fill="#E81899" stroke="#E81899" stroke-width="0.568447"/>
<circle cx="968.664" cy="84.6636" r="9.6636" stroke="#E81899" stroke-width="1.13689"/>
<defs>
<linearGradient id="paint0_linear_607_11366" x1="692" y1="105" x2="692" y2="56.5" gradientUnits="userSpaceOnUse">
<stop stop-color="#E81899"/>
<stop offset="1" stop-color="#FFC6E9"/>
</linearGradient>
<linearGradient id="paint1_linear_607_11366" x1="692" y1="105" x2="692" y2="56.5" gradientUnits="userSpaceOnUse">
<stop stop-color="#E81899"/>
<stop offset="1" stop-color="#FFC6E9"/>
</linearGradient>
<linearGradient id="paint2_linear_607_11366" x1="692" y1="105" x2="692" y2="56.5" gradientUnits="userSpaceOnUse">
<stop stop-color="#E81899"/>
<stop offset="1" stop-color="#FFC6E9"/>
</linearGradient>
<linearGradient id="paint3_linear_607_11366" x1="692" y1="105" x2="692" y2="56.5" gradientUnits="userSpaceOnUse">
<stop stop-color="#E81899"/>
<stop offset="1" stop-color="#FFC6E9"/>
</linearGradient>
<linearGradient id="paint4_linear_607_11366" x1="692" y1="105" x2="692" y2="56.5" gradientUnits="userSpaceOnUse">
<stop stop-color="#E81899"/>
<stop offset="1" stop-color="#FFC6E9"/>
</linearGradient>
<linearGradient id="paint5_linear_607_11366" x1="692" y1="105" x2="692" y2="56.5" gradientUnits="userSpaceOnUse">
<stop stop-color="#E81899"/>
<stop offset="1" stop-color="#FFC6E9"/>
</linearGradient>
<linearGradient id="paint6_linear_607_11366" x1="692" y1="105" x2="692" y2="56.5" gradientUnits="userSpaceOnUse">
<stop stop-color="#E81899"/>
<stop offset="1" stop-color="#FFC6E9"/>
</linearGradient>
<linearGradient id="paint7_linear_607_11366" x1="692" y1="105" x2="692" y2="56.5" gradientUnits="userSpaceOnUse">
<stop stop-color="#E81899"/>
<stop offset="1" stop-color="#FFC6E9"/>
</linearGradient>
<linearGradient id="paint8_linear_607_11366" x1="692" y1="105" x2="692" y2="56.5" gradientUnits="userSpaceOnUse">
<stop stop-color="#E81899"/>
<stop offset="1" stop-color="#FFC6E9"/>
</linearGradient>
<linearGradient id="paint9_linear_607_11366" x1="548.521" y1="21.0842" x2="803.889" y2="21.0842" gradientUnits="userSpaceOnUse">
<stop stop-color="#E81899"/>
<stop offset="1" stop-color="#FFE2A0"/>
</linearGradient>
<linearGradient id="paint10_linear_607_11366" x1="548.521" y1="21.0842" x2="803.889" y2="21.0842" gradientUnits="userSpaceOnUse">
<stop stop-color="#E81899"/>
<stop offset="1" stop-color="#FFE2A0"/>
</linearGradient>
<linearGradient id="paint11_linear_607_11366" x1="548.521" y1="21.0842" x2="803.889" y2="21.0842" gradientUnits="userSpaceOnUse">
<stop stop-color="#E81899"/>
<stop offset="1" stop-color="#FFE2A0"/>
</linearGradient>
<linearGradient id="paint12_linear_607_11366" x1="548.521" y1="21.0842" x2="803.889" y2="21.0842" gradientUnits="userSpaceOnUse">
<stop stop-color="#E81899"/>
<stop offset="1" stop-color="#FFE2A0"/>
</linearGradient>
<linearGradient id="paint13_linear_607_11366" x1="548.521" y1="21.0842" x2="803.889" y2="21.0842" gradientUnits="userSpaceOnUse">
<stop stop-color="#E81899"/>
<stop offset="1" stop-color="#FFE2A0"/>
</linearGradient>
<linearGradient id="paint14_linear_607_11366" x1="548.521" y1="21.0842" x2="803.889" y2="21.0842" gradientUnits="userSpaceOnUse">
<stop stop-color="#E81899"/>
<stop offset="1" stop-color="#FFE2A0"/>
</linearGradient>
<linearGradient id="paint15_linear_607_11366" x1="548.521" y1="21.0842" x2="803.889" y2="21.0842" gradientUnits="userSpaceOnUse">
<stop stop-color="#E81899"/>
<stop offset="1" stop-color="#FFE2A0"/>
</linearGradient>
<linearGradient id="paint16_linear_607_11366" x1="548.521" y1="21.0842" x2="803.889" y2="21.0842" gradientUnits="userSpaceOnUse">
<stop stop-color="#E81899"/>
<stop offset="1" stop-color="#FFE2A0"/>
</linearGradient>
<linearGradient id="paint17_linear_607_11366" x1="548.521" y1="21.0842" x2="803.889" y2="21.0842" gradientUnits="userSpaceOnUse">
<stop stop-color="#E81899"/>
<stop offset="1" stop-color="#FFE2A0"/>
</linearGradient>
<linearGradient id="paint18_linear_607_11366" x1="548.521" y1="21.0842" x2="803.889" y2="21.0842" gradientUnits="userSpaceOnUse">
<stop stop-color="#E81899"/>
<stop offset="1" stop-color="#FFE2A0"/>
</linearGradient>
<linearGradient id="paint19_linear_607_11366" x1="548.521" y1="21.0842" x2="803.889" y2="21.0842" gradientUnits="userSpaceOnUse">
<stop stop-color="#E81899"/>
<stop offset="1" stop-color="#FFE2A0"/>
</linearGradient>
<linearGradient id="paint20_linear_607_11366" x1="548.521" y1="21.0842" x2="803.889" y2="21.0842" gradientUnits="userSpaceOnUse">
<stop stop-color="#E81899"/>
<stop offset="1" stop-color="#FFE2A0"/>
</linearGradient>
</defs>
</svg>
