<svg width="342" height="76" viewBox="0 0 342 76" fill="none" xmlns="http://www.w3.org/2000/svg">
<path d="M56.3198 52.4327H69.2978V57.9947H50.1523V31.2062H56.3198V52.4327Z" fill="url(#paint0_linear_646_4048)"/>
<path d="M102.987 36.7529H83.7367C79.3374 36.7529 75.7711 40.3192 75.7711 44.7186C75.7711 49.1179 79.3374 52.6842 83.7367 52.6842H98.3404C100 56.6671 103.983 57.9947 103.983 57.9947H83.7367C76.4045 57.9947 70.4606 52.0507 70.4606 44.7186C70.4606 37.3864 76.4045 31.4425 83.7367 31.4425H102.987C110.319 31.4425 116.263 37.3864 116.263 44.7186C116.263 46.8674 115.753 48.8971 114.846 50.6928H108.256C109.91 49.2332 110.953 47.0977 110.953 44.7186C110.953 40.3192 107.386 36.7529 102.987 36.7529Z" fill="url(#paint1_linear_646_4048)"/>
<path d="M274.208 31.2062L286.203 47.7787V31.2062H292.37V57.9947H286.581L274.473 41.5356V57.9947H268.306V31.2062H274.208Z" fill="url(#paint2_linear_646_4048)"/>
<path d="M242.572 57.9947H234.513L227.854 31.2062H234.816L238.599 50.2003L242.799 31.2062H250.669L254.794 50.2003L258.577 31.2062H265.501L258.842 57.9947H250.707L246.659 39.3789L242.572 57.9947Z" fill="url(#paint3_linear_646_4048)"/>
<path d="M213.274 30.8656C215.317 30.8656 217.159 31.1935 218.798 31.8494C220.463 32.48 221.876 33.4007 223.036 34.6115C224.222 35.797 225.13 37.2222 225.76 38.887C226.391 40.5518 226.706 42.4059 226.706 44.449C226.706 46.467 226.391 48.321 225.76 50.0111C225.13 51.7011 224.222 53.1641 223.036 54.4001C221.876 55.6362 220.463 56.5947 218.798 57.2757C217.134 57.9568 215.267 58.2847 213.199 58.2595C211.105 58.2595 209.226 57.9316 207.561 57.2757C205.921 56.5947 204.521 55.6488 203.361 54.438C202.201 53.2272 201.305 51.7894 200.675 50.1246C200.069 48.4345 199.766 46.5805 199.766 44.5626C199.766 42.5194 200.082 40.6654 200.712 39.0005C201.368 37.3105 202.276 35.8601 203.437 34.6493C204.622 33.4385 206.047 32.5052 207.712 31.8494C209.377 31.1935 211.231 30.8656 213.274 30.8656ZM206.085 44.5247C206.085 45.5589 206.224 46.5553 206.501 47.5138C206.804 48.4724 207.246 49.33 207.826 50.0867C208.431 50.8183 209.188 51.411 210.096 51.8651C211.004 52.3191 212.089 52.5588 213.35 52.584C214.561 52.584 215.608 52.357 216.49 51.9029C217.373 51.4489 218.105 50.8435 218.685 50.0867C219.265 49.33 219.694 48.4724 219.971 47.5138C220.249 46.5553 220.388 45.5841 220.388 44.6004C220.388 43.6166 220.249 42.6455 219.971 41.687C219.719 40.7284 219.303 39.8708 218.723 39.114C218.143 38.3573 217.398 37.7393 216.49 37.26C215.608 36.7808 214.535 36.5411 213.274 36.5411C212.038 36.5411 210.966 36.7682 210.058 37.2222C209.15 37.6762 208.406 38.2816 207.826 39.0384C207.246 39.7699 206.804 40.6149 206.501 41.5734C206.224 42.532 206.085 43.5157 206.085 44.5247Z" fill="url(#paint4_linear_646_4048)"/>
<path d="M172.753 57.9947V31.2062H182.931C185.025 31.2062 186.904 31.4963 188.569 32.0764C190.259 32.6314 191.684 33.4764 192.844 34.6115C194.03 35.7466 194.938 37.1466 195.568 38.8114C196.199 40.4762 196.514 42.4059 196.514 44.6004C196.514 49.0147 195.354 52.357 193.033 54.6272C190.738 56.8722 187.421 57.9947 183.082 57.9947H172.753ZM183.158 52.4327C184.444 52.4327 185.529 52.2561 186.412 51.903C187.32 51.5246 188.051 50.9949 188.606 50.3138C189.187 49.6327 189.603 48.8129 189.855 47.8544C190.107 46.8959 190.233 45.8238 190.233 44.6383C190.233 42.0654 189.628 40.1231 188.417 38.8114C187.232 37.4997 185.378 36.8439 182.855 36.8439H178.92V52.4327H183.158Z" fill="url(#paint5_linear_646_4048)"/>
<path d="M152.759 47.476V57.9947H146.592V31.2062H152.759V41.8762H156.013L162.786 31.2062H169.862L161.159 43.995L169.9 57.9947H162.711L156.354 47.476H152.759Z" fill="url(#paint6_linear_646_4048)"/>
<path d="M102.988 44.6649C102.988 49.0642 106.554 52.6305 110.953 52.6305H130.204C133.601 52.6305 136.503 50.5029 137.647 47.5072H143.175C141.873 53.4736 136.56 57.941 130.204 57.941H110.953C103.621 57.941 97.6771 51.997 97.6771 44.6649C97.6771 42.516 98.1876 40.4863 99.094 38.6906H105.684C104.031 40.1502 102.988 42.2857 102.988 44.6649Z" fill="url(#paint7_linear_646_4048)"/>
<path d="M130.204 31.3887H110.953C114.936 32.7164 116.264 36.6992 116.264 36.6992H130.204C133.601 36.6992 136.503 38.8268 137.647 41.8225H143.175C141.873 35.8561 136.56 31.3887 130.204 31.3887Z" fill="url(#paint8_linear_646_4048)"/>
<path d="M108.053 22.0285C107.608 21.7262 107.21 21.4557 106.812 21.1693C106.176 20.7079 105.905 20.167 106.303 19.3556C107.003 17.9396 107.56 16.46 108.26 15.0599C109.183 13.2303 110.185 11.4324 111.14 9.6187C111.251 9.41187 111.283 9.18913 111.378 8.85502C108.244 8.52091 105.476 9.96871 102.564 10.3983C102.532 10.3028 102.501 10.2074 102.469 10.1119C103.869 9.57096 105.269 9.01412 106.717 8.45727C106.42 8.1815 105.311 8.27696 103.392 8.74365C103.36 8.68001 103.344 8.61637 103.312 8.56864C103.996 8.25044 104.68 7.93224 105.364 7.62995C105.778 7.43903 105.778 7.45494 105.858 6.914C105.858 6.83445 106.048 6.7549 106.176 6.72308C108.419 6.13442 110.646 5.51393 112.906 4.9889C114.91 4.52751 116.915 4.06612 118.936 3.79566C120.336 3.60474 121.783 3.66838 123.199 3.76384C124.154 3.82748 124.599 4.60706 124.488 5.6253C124.44 6.03896 124.568 6.61172 124.345 6.81854C124.074 7.0731 123.502 7.04128 123.072 7.0731C121.322 7.2322 119.556 7.3913 117.79 7.51858C117.154 7.56631 116.74 7.80496 116.406 8.37772C114.783 11.2574 113.144 14.1371 111.442 16.985C110.599 18.3692 109.596 19.6579 108.674 20.9943C108.451 21.3125 108.276 21.6625 108.037 22.0603L108.053 22.0285Z" fill="url(#paint9_linear_646_4048)"/>
<path d="M196.226 15.8236C196.847 15.7599 197.451 15.7122 198.072 15.6486C200.347 15.4099 202.622 15.3622 204.865 15.8395C205.549 15.9827 205.852 15.7599 206.17 15.2508C208.159 12.1006 210.927 9.85734 214.411 8.50499C215.573 8.05951 215.859 8.13906 216.527 9.01411C217.243 9.9528 217.641 11.0029 216.957 11.8779C216.066 13.0393 214.873 13.7394 213.632 14.3758C212.343 15.0281 211.038 15.6645 209.495 15.4576C209.065 15.394 208.318 16.4918 208.143 17.4782C209.32 17.0964 210.418 16.7782 211.484 16.3963C213.441 15.6963 215.382 14.9644 217.339 14.2326C217.577 14.1371 217.848 14.0576 218.102 14.0257C218.261 14.0098 218.516 14.0576 218.58 14.153C218.675 14.3121 218.723 14.5985 218.627 14.7258C218.405 15.044 218.15 15.3622 217.832 15.569C215.859 16.8418 213.886 18.1305 211.834 19.3078C210.99 19.8011 210.004 20.1192 209.049 20.3102C207.952 20.5329 207.108 19.9124 206.583 18.9737C206.265 18.3851 205.915 18.0828 205.183 18.1146C203.29 18.1782 201.365 17.9396 199.488 18.1782C196.624 18.5442 193.76 19.0851 191.103 20.3261C190.403 20.6443 189.687 20.9147 189.003 21.2489C188.223 21.6148 187.794 21.5352 187.364 20.8988C186.871 20.167 186.919 19.3238 187.555 18.8465C189.592 17.3032 191.644 15.7599 193.696 14.2167C194.365 13.7075 195.001 13.1666 195.653 12.6416C195.621 12.5779 195.606 12.4984 195.574 12.4347C195.033 12.5461 194.492 12.6257 193.951 12.7529C192.98 12.9757 192.01 13.2621 191.023 13.453C190.689 13.5166 190.276 13.453 189.942 13.3257C189.687 13.2143 189.337 12.8166 189.385 12.6893C189.544 12.2916 189.289 11.7188 190.037 11.5279C193.458 10.6847 196.878 9.7937 200.283 8.8391C201.031 8.63227 201.699 8.17088 202.383 7.78904C203.02 7.42312 203.576 7.35948 204.229 7.78904C204.754 8.12315 204.913 8.58454 204.738 9.06184C204.579 9.45959 204.229 9.90507 203.847 10.0483C202.033 10.6847 200.729 11.9575 199.344 13.1984C198.597 13.8666 197.769 14.4235 196.974 15.0281C196.687 15.2508 196.417 15.4576 196.146 15.6804C196.178 15.744 196.194 15.8077 196.226 15.8713V15.8236ZM214.252 11.0983C213.329 11.7029 212.391 12.2916 211.468 12.8961C212.55 13.1507 214.061 12.1802 214.252 11.0983Z" fill="url(#paint10_linear_646_4048)"/>
<path d="M233.583 15.9986C232.676 15.6326 231.833 15.3622 231.053 14.9485C229.287 14.0257 229.51 11.8143 230.671 10.7801C232.087 9.53914 233.455 8.17088 235.412 7.72541C235.571 7.69359 235.683 7.45494 235.81 7.31175C236.112 6.914 236.415 6.61171 237.003 6.62762C238.371 6.69126 238.737 7.27993 238.658 8.64818C238.578 9.84143 238.435 10.9869 237.958 12.0688C237.767 12.4984 237.337 13.1348 237.003 13.1348C236.51 13.1348 235.921 12.7529 235.555 12.3711C235.205 12.0052 235.078 11.4165 234.839 10.8597C233.599 11.2256 232.708 12.1325 231.737 13.3416C232.389 13.5007 232.914 13.6757 233.455 13.7394C235.046 13.9303 236.653 14.0576 238.26 14.2485C238.642 14.2962 239.024 14.4553 239.342 14.6621C240.169 15.2031 240.169 16.4281 239.278 16.8418C237.815 17.51 236.303 18.051 234.792 18.5919C233.233 19.1487 231.642 19.6419 230.051 20.1192C229.446 20.3102 228.826 20.4056 228.285 20.517C228.141 20.3261 228.062 20.167 227.935 20.0715C227.728 19.8806 227.282 19.6579 227.314 19.5624C227.41 19.2442 227.6 18.8465 227.887 18.7033C229.048 18.1305 230.257 17.6691 231.419 17.1282C232.167 16.7782 232.883 16.3645 233.567 15.9986H233.583Z" fill="url(#paint11_linear_646_4048)"/>
<path d="M167.89 21.3762C167.986 20.4534 167.986 19.5147 168.177 18.6078C168.59 16.7623 169.004 14.9167 169.609 13.1348C170.277 11.1302 171.152 9.17323 171.947 7.2004C172.536 5.75259 173.093 4.28888 173.745 2.85698C174.032 2.22059 174.477 1.64783 174.907 1.09098C175.034 0.915971 175.368 0.820512 175.607 0.820512C176.132 0.820512 176.657 0.836421 177.182 0.931881C178.28 1.10689 178.455 1.47282 177.946 2.49106C176.943 4.51162 175.845 6.48445 174.907 8.52092C173.873 10.7483 172.966 13.0393 171.995 15.3145C171.47 16.5395 171.025 17.8123 170.372 18.9897C170.022 19.6102 169.322 20.0556 168.797 20.5807C168.543 20.8352 168.32 21.1375 168.081 21.408C168.002 21.408 167.938 21.3762 167.859 21.3602L167.89 21.3762Z" fill="url(#paint12_linear_646_4048)"/>
<path d="M146.762 21.3283C146.857 20.3896 146.873 19.4509 147.08 18.5282C147.494 16.7144 147.908 14.8848 148.496 13.1347C149.133 11.1937 149.96 9.31631 150.724 7.42302C151.344 5.87976 151.965 4.32059 152.649 2.79323C152.903 2.22047 153.269 1.69545 153.683 1.21815C153.874 0.995408 154.256 0.852219 154.574 0.820399C155.099 0.788579 155.624 0.852219 156.149 0.947679C157.104 1.10678 157.326 1.52044 156.913 2.36366C155.878 4.41605 154.749 6.43661 153.778 8.53672C152.744 10.7641 151.853 13.0711 150.867 15.3144C150.485 16.2053 149.912 17.0326 149.594 17.9554C149.196 19.085 148.624 19.9919 147.589 20.6283C147.335 20.7874 147.192 21.1374 147.001 21.392C146.921 21.376 146.842 21.3442 146.762 21.3283Z" fill="url(#paint13_linear_646_4048)"/>
<path d="M224.1 11.2415C224.705 10.6369 225.182 10.1755 225.644 9.69823C225.882 9.44367 226.041 9.14138 226.264 8.88682C226.725 8.34588 227.123 7.75721 227.998 8.3777C228.937 9.04592 229.303 9.68232 228.937 10.6051C228.46 11.8302 227.935 13.0234 227.441 14.2326C227.266 14.678 226.996 14.7258 226.646 14.4553C226.248 14.153 225.882 13.8348 225.437 13.4848C223.082 15.4258 222.032 18.3532 220.059 20.692C218.85 20.7715 217.927 19.4351 218.42 18.21C219.63 15.1553 220.823 12.1006 222.016 9.04592C222.159 8.67999 222.287 8.50498 222.748 8.66408C224.005 9.07774 224.212 9.39594 224.084 11.2256L224.1 11.2415Z" fill="url(#paint14_linear_646_4048)"/>
<path d="M118.872 8.64812C120.511 9.09359 120.542 9.14132 120.622 11.321C121.227 10.7164 121.72 10.2391 122.197 9.7459C122.42 9.52316 122.547 9.22087 122.77 8.99814C123.184 8.58448 123.422 7.85262 124.281 8.32992C125.22 8.85495 125.713 9.61862 125.411 10.4937C124.965 11.7824 124.409 13.0234 123.852 14.2802C123.804 14.4075 123.374 14.503 123.247 14.4234C122.818 14.1689 122.452 13.8348 121.895 13.3893C121.163 14.2484 120.352 15.1076 119.683 16.0462C118.713 17.4145 117.806 18.8305 116.931 20.2624C116.629 20.7556 116.326 20.7397 115.897 20.501C114.863 19.9124 114.624 19.276 115.069 18.1145C116.247 15.0598 117.456 12.0051 118.665 8.95041C118.713 8.83904 118.808 8.74358 118.888 8.64812H118.872Z" fill="url(#paint15_linear_646_4048)"/>
<path d="M141.225 19.6101C140.303 20.0079 139.618 20.3101 138.791 20.6602C138.95 19.9919 139.046 19.3874 139.221 18.7987C139.921 16.5395 140.621 14.2962 141.353 12.037C141.655 11.0824 142.244 10.446 143.325 10.3823C143.851 10.3505 144.376 10.2073 144.885 10.1914C145.648 10.1596 145.887 10.446 145.569 11.1301C144.519 13.4211 143.469 15.7122 142.355 17.9714C142.021 18.6555 141.496 19.2283 141.209 19.626L141.225 19.6101Z" fill="url(#paint16_linear_646_4048)"/>
<path d="M144.01 9.25273C143.58 9.10954 142.848 9.09363 142.625 8.74361C142.26 8.17085 142.737 7.55036 143.166 7.05716C144.201 5.848 146.078 5.86391 146.953 7.05716C147.351 7.58218 147.223 7.88447 146.651 8.13903C146.237 8.32995 145.903 8.66406 145.489 8.83907C145.076 9.01408 144.598 9.09363 144.01 9.23682V9.25273Z" fill="url(#paint17_linear_646_4048)"/>
<path d="M158.679 11.7665C160.031 11.6074 161.256 11.4324 162.481 11.321C165.393 11.0664 167.636 13.3416 166.761 16.0463C166.506 16.8577 165.965 17.7804 165.265 18.21C163.611 19.2601 161.845 20.1351 160.047 20.8988C158.233 21.6784 156.769 20.3419 156.308 18.5918C156.276 18.4487 156.228 18.3214 156.149 18.035C155.735 18.7509 155.369 19.3237 155.051 19.9283C154.637 20.7079 154.51 20.6283 153.89 20.0556C152.983 19.2282 153.253 18.2736 153.412 17.3827C153.922 14.6144 154.701 11.8938 155.958 9.37999C157.263 6.75485 158.742 4.20926 160.142 1.61593C160.27 1.3932 160.445 1.15455 160.445 0.915897C160.492 0.0885803 161.272 0.10449 161.701 0.00903037C162.036 -0.0705193 162.72 0.390869 162.911 0.788618C163.579 2.07732 163.372 3.33421 162.624 4.59109C161.383 6.69121 160.238 8.85496 159.045 10.9869C158.917 11.2096 158.822 11.4483 158.663 11.7665H158.679ZM161.797 14.3598C161.399 14.3439 161.192 14.2802 161.033 14.328C159.745 14.7894 158.456 15.2508 157.215 15.8076C156.881 15.9508 156.658 16.4122 156.467 16.7781C156.34 17.0008 156.26 17.4941 156.356 17.5577C156.626 17.7168 156.992 17.7327 157.31 17.7804C157.39 17.7804 157.501 17.7009 157.597 17.6532C158.838 16.8736 160.095 16.1099 161.32 15.2826C161.542 15.1394 161.606 14.7735 161.813 14.3598H161.797Z" fill="url(#paint18_linear_646_4048)"/>
<path d="M184.675 21.2647C184.262 20.9784 184.023 20.7715 183.737 20.6283C182.894 20.1988 182.846 19.4033 182.766 18.6237C182.718 18.1305 182.703 17.6373 182.655 16.969C181.732 17.6691 180.984 18.3055 180.173 18.8623C179.25 19.4828 178.264 20.0397 177.309 20.6124C177.214 20.6602 177.039 20.6602 176.943 20.6124C174.557 19.3396 173.888 16.0145 175.384 14.4871C176.307 13.5325 177.118 12.4506 178.073 11.5278C179.425 10.2073 181.08 9.74594 182.957 10.1914C183.259 10.2551 183.53 10.4142 183.88 10.5573C184.039 10.1914 184.182 9.87321 184.341 9.5391C184.644 8.85498 184.994 8.10721 185.853 8.17085C186.998 8.26631 187.873 9.18909 187.937 10.1914C187.969 10.6051 187.937 11.0346 187.81 11.4324C187.03 14.2644 186.235 17.0963 185.407 19.9124C185.264 20.4056 184.93 20.8511 184.707 21.2806L184.675 21.2647ZM177.643 17.0963C177.786 17.0486 177.946 17.0168 178.057 16.9372C179.457 16.094 180.841 15.2349 182.257 14.4075C183.037 13.9462 183.069 13.2143 183.053 12.3233C180.857 13.5643 179.075 15.1076 177.643 17.0963Z" fill="url(#paint19_linear_646_4048)"/>
<path d="M136.261 21.1215C134.161 20.4215 134.289 18.7032 134.241 17.0326C132.332 18.3214 130.534 19.5305 128.816 20.6919C126.795 19.6419 126.015 18.1145 126.19 16.0781C126.222 15.7917 126.254 15.4735 126.413 15.2507C127.702 13.4052 128.975 11.5119 131.107 10.4778C132.3 9.90499 133.589 9.76181 134.845 10.3346C135.323 10.5573 135.514 10.4618 135.673 10.0164C135.8 9.66635 135.927 9.31633 136.118 9.01404C136.755 7.93216 138.282 7.93216 138.966 9.01404C139.428 9.72999 139.587 10.4937 139.332 11.3369C138.664 13.5961 137.996 15.8712 137.343 18.1304C137.168 18.7032 137.105 19.3237 136.898 19.8805C136.739 20.3578 136.452 20.7874 136.277 21.1215H136.261ZM134.607 12.3869C133.27 12.7847 129.468 15.919 129.134 17.1122C129.277 17.0645 129.404 17.0486 129.516 16.9849C130.979 16.094 132.443 15.203 133.891 14.328C134.655 13.8666 134.559 13.1347 134.607 12.3869Z" fill="url(#paint20_linear_646_4048)"/>
<path d="M-70.332 29.5579H5.0013L20.4342 14.125L85.2047 14.125" stroke="#767C89" stroke-width="1.0463"/>
<path d="M412.537 29.5579H337.204L321.771 14.125L257 14.125" stroke="#767C89" stroke-width="1.0463"/>
<path d="M412.537 60H337.204L321.771 75.4329H20.7662L5.33334 60H-70" stroke="#767C89" stroke-width="1.0463"/>
<circle cx="28.1212" cy="47.202" r="1.31878" fill="#E81899" stroke="#E81899" stroke-width="0.27285"/>
<circle cx="28.1212" cy="44.2914" r="1.31878" fill="#E81899" stroke="#E81899" stroke-width="0.27285"/>
<circle cx="31.0314" cy="44.2914" r="1.31878" fill="#E81899" stroke="#E81899" stroke-width="0.27285"/>
<circle cx="31.0314" cy="41.3811" r="1.31878" fill="#E81899" stroke="#E81899" stroke-width="0.27285"/>
<circle cx="33.9396" cy="44.2915" r="1.31878" fill="#E81899" stroke="#E81899" stroke-width="0.27285"/>
<circle cx="33.9396" cy="47.2019" r="1.31878" fill="#E81899" stroke="#E81899" stroke-width="0.27285"/>
<circle cx="1.4552" cy="1.4552" r="1.31878" transform="matrix(-1 0 0 1 15.3301 42.8363)" fill="#E81899" stroke="#E81899" stroke-width="0.27285"/>
<circle cx="1.4552" cy="1.4552" r="1.31878" transform="matrix(-1 0 0 1 15.3301 39.9259)" fill="#E81899" stroke="#E81899" stroke-width="0.27285"/>
<circle cx="1.4552" cy="1.4552" r="1.31878" transform="matrix(-1 0 0 1 12.418 39.9259)" fill="#E81899" stroke="#E81899" stroke-width="0.27285"/>
<circle cx="1.4552" cy="1.4552" r="1.31878" transform="matrix(-1 0 0 1 9.51172 42.8362)" fill="#E81899" stroke="#E81899" stroke-width="0.27285"/>
<circle cx="1.4552" cy="1.4552" r="1.31878" transform="matrix(-1 0 0 1 9.51172 45.7468)" fill="#E81899" stroke="#E81899" stroke-width="0.27285"/>
<circle cx="1.4552" cy="1.4552" r="1.31878" transform="matrix(-1 0 0 1 12.418 45.7468)" fill="#E81899" stroke="#E81899" stroke-width="0.27285"/>
<circle cx="326.772" cy="41.3811" r="1.31878" fill="#E81899" stroke="#E81899" stroke-width="0.27285"/>
<circle cx="332.746" cy="41.3811" r="1.31878" fill="#E81899" stroke="#E81899" stroke-width="0.27285"/>
<circle cx="329.682" cy="44.2915" r="1.31878" fill="#E81899" stroke="#E81899" stroke-width="0.27285"/>
<circle cx="326.772" cy="47.2019" r="1.31878" fill="#E81899" stroke="#E81899" stroke-width="0.27285"/>
<circle cx="332.746" cy="47.202" r="1.31878" fill="#E81899" stroke="#E81899" stroke-width="0.27285"/>
<circle cx="312.64" cy="44.2916" r="1.85148" fill="#E81899" stroke="#E81899" stroke-width="0.27285"/>
<circle cx="315.688" cy="44.424" r="0.393684" fill="#E81899" stroke="#E81899" stroke-width="0.27285"/>
<circle cx="309.591" cy="44.424" r="0.393684" fill="#E81899" stroke="#E81899" stroke-width="0.27285"/>
<circle cx="312.507" cy="41.2434" r="0.393684" fill="#E81899" stroke="#E81899" stroke-width="0.27285"/>
<circle cx="312.507" cy="47.3396" r="0.393684" fill="#E81899" stroke="#E81899" stroke-width="0.27285"/>
<circle cx="312.64" cy="44.2915" r="4.63845" stroke="#E81899" stroke-width="0.5457"/>
<defs>
<linearGradient id="paint0_linear_646_4048" x1="181.463" y1="54.9304" x2="181.463" y2="29.5577" gradientUnits="userSpaceOnUse">
<stop stop-color="#E81899"/>
<stop offset="1" stop-color="#FFC6E9"/>
</linearGradient>
<linearGradient id="paint1_linear_646_4048" x1="181.463" y1="54.9304" x2="181.463" y2="29.5577" gradientUnits="userSpaceOnUse">
<stop stop-color="#E81899"/>
<stop offset="1" stop-color="#FFC6E9"/>
</linearGradient>
<linearGradient id="paint2_linear_646_4048" x1="181.463" y1="54.9304" x2="181.463" y2="29.5577" gradientUnits="userSpaceOnUse">
<stop stop-color="#E81899"/>
<stop offset="1" stop-color="#FFC6E9"/>
</linearGradient>
<linearGradient id="paint3_linear_646_4048" x1="181.463" y1="54.9304" x2="181.463" y2="29.5577" gradientUnits="userSpaceOnUse">
<stop stop-color="#E81899"/>
<stop offset="1" stop-color="#FFC6E9"/>
</linearGradient>
<linearGradient id="paint4_linear_646_4048" x1="181.463" y1="54.9304" x2="181.463" y2="29.5577" gradientUnits="userSpaceOnUse">
<stop stop-color="#E81899"/>
<stop offset="1" stop-color="#FFC6E9"/>
</linearGradient>
<linearGradient id="paint5_linear_646_4048" x1="181.463" y1="54.9304" x2="181.463" y2="29.5577" gradientUnits="userSpaceOnUse">
<stop stop-color="#E81899"/>
<stop offset="1" stop-color="#FFC6E9"/>
</linearGradient>
<linearGradient id="paint6_linear_646_4048" x1="181.463" y1="54.9304" x2="181.463" y2="29.5577" gradientUnits="userSpaceOnUse">
<stop stop-color="#E81899"/>
<stop offset="1" stop-color="#FFC6E9"/>
</linearGradient>
<linearGradient id="paint7_linear_646_4048" x1="181.463" y1="54.9304" x2="181.463" y2="29.5577" gradientUnits="userSpaceOnUse">
<stop stop-color="#E81899"/>
<stop offset="1" stop-color="#FFC6E9"/>
</linearGradient>
<linearGradient id="paint8_linear_646_4048" x1="181.463" y1="54.9304" x2="181.463" y2="29.5577" gradientUnits="userSpaceOnUse">
<stop stop-color="#E81899"/>
<stop offset="1" stop-color="#FFC6E9"/>
</linearGradient>
<linearGradient id="paint9_linear_646_4048" x1="106.404" y1="11.0301" x2="239.999" y2="11.0301" gradientUnits="userSpaceOnUse">
<stop stop-color="#E81899"/>
<stop offset="1" stop-color="#FFE2A0"/>
</linearGradient>
<linearGradient id="paint10_linear_646_4048" x1="106.404" y1="11.0301" x2="239.999" y2="11.0301" gradientUnits="userSpaceOnUse">
<stop stop-color="#E81899"/>
<stop offset="1" stop-color="#FFE2A0"/>
</linearGradient>
<linearGradient id="paint11_linear_646_4048" x1="106.404" y1="11.0301" x2="239.999" y2="11.0301" gradientUnits="userSpaceOnUse">
<stop stop-color="#E81899"/>
<stop offset="1" stop-color="#FFE2A0"/>
</linearGradient>
<linearGradient id="paint12_linear_646_4048" x1="106.404" y1="11.0301" x2="239.999" y2="11.0301" gradientUnits="userSpaceOnUse">
<stop stop-color="#E81899"/>
<stop offset="1" stop-color="#FFE2A0"/>
</linearGradient>
<linearGradient id="paint13_linear_646_4048" x1="106.404" y1="11.0301" x2="239.999" y2="11.0301" gradientUnits="userSpaceOnUse">
<stop stop-color="#E81899"/>
<stop offset="1" stop-color="#FFE2A0"/>
</linearGradient>
<linearGradient id="paint14_linear_646_4048" x1="106.404" y1="11.0301" x2="239.999" y2="11.0301" gradientUnits="userSpaceOnUse">
<stop stop-color="#E81899"/>
<stop offset="1" stop-color="#FFE2A0"/>
</linearGradient>
<linearGradient id="paint15_linear_646_4048" x1="106.404" y1="11.0301" x2="239.999" y2="11.0301" gradientUnits="userSpaceOnUse">
<stop stop-color="#E81899"/>
<stop offset="1" stop-color="#FFE2A0"/>
</linearGradient>
<linearGradient id="paint16_linear_646_4048" x1="106.404" y1="11.0301" x2="239.999" y2="11.0301" gradientUnits="userSpaceOnUse">
<stop stop-color="#E81899"/>
<stop offset="1" stop-color="#FFE2A0"/>
</linearGradient>
<linearGradient id="paint17_linear_646_4048" x1="106.404" y1="11.0301" x2="239.999" y2="11.0301" gradientUnits="userSpaceOnUse">
<stop stop-color="#E81899"/>
<stop offset="1" stop-color="#FFE2A0"/>
</linearGradient>
<linearGradient id="paint18_linear_646_4048" x1="106.404" y1="11.0301" x2="239.999" y2="11.0301" gradientUnits="userSpaceOnUse">
<stop stop-color="#E81899"/>
<stop offset="1" stop-color="#FFE2A0"/>
</linearGradient>
<linearGradient id="paint19_linear_646_4048" x1="106.404" y1="11.0301" x2="239.999" y2="11.0301" gradientUnits="userSpaceOnUse">
<stop stop-color="#E81899"/>
<stop offset="1" stop-color="#FFE2A0"/>
</linearGradient>
<linearGradient id="paint20_linear_646_4048" x1="106.404" y1="11.0301" x2="239.999" y2="11.0301" gradientUnits="userSpaceOnUse">
<stop stop-color="#E81899"/>
<stop offset="1" stop-color="#FFE2A0"/>
</linearGradient>
</defs>
</svg>
