<svg width="928" height="121" viewBox="0 0 928 121" fill="none" xmlns="http://www.w3.org/2000/svg">
<path d="M279.969 84.1401H300.795V93.0656H270.072V50.0775H279.969V84.1401Z" fill="url(#paint0_linear_647_3090)"/>
<path d="M354.857 58.9785H323.966C316.906 58.9785 311.183 64.7015 311.183 71.7611C311.183 78.8208 316.906 84.5438 323.966 84.5438H347.401C350.064 90.9351 356.455 93.0656 356.455 93.0656H323.966C312.2 93.0656 302.661 83.5272 302.661 71.7611C302.661 59.995 312.2 50.4567 323.966 50.4567H354.857C366.623 50.4567 376.162 59.995 376.162 71.7611C376.162 75.2095 375.342 78.4665 373.888 81.3481H363.312C365.966 79.0059 367.64 75.579 367.64 71.7611C367.64 64.7015 361.917 58.9785 354.857 58.9785Z" fill="url(#paint1_linear_647_3090)"/>
<path d="M629.619 50.0775L648.867 76.6718V50.0775H658.764V93.0656H649.474L630.044 66.6534V93.0656H620.147V50.0775H629.619Z" fill="url(#paint2_linear_647_3090)"/>
<path d="M578.852 93.0656H565.919L555.233 50.0775H566.405L572.477 80.5578L579.217 50.0775H591.846L598.464 80.5578L604.536 50.0775H615.647L604.961 93.0656H591.907L585.41 63.1925L578.852 93.0656Z" fill="url(#paint3_linear_647_3090)"/>
<path d="M531.837 49.531C535.116 49.531 538.071 50.0572 540.702 51.1097C543.374 52.1216 545.64 53.5991 547.502 55.542C549.405 57.4445 550.862 59.7316 551.874 62.4031C552.886 65.0747 553.392 68.0499 553.392 71.3286C553.392 74.5669 552.886 77.5421 551.874 80.2541C550.862 82.9662 549.405 85.3139 547.502 87.2974C545.64 89.2808 543.374 90.819 540.702 91.9119C538.03 93.0048 535.035 93.531 531.716 93.4906C528.356 93.4906 525.34 92.9643 522.669 91.9119C520.038 90.819 517.791 89.301 515.929 87.3581C514.067 85.4151 512.63 83.1078 511.618 80.4363C510.647 77.7242 510.161 74.7491 510.161 71.5108C510.161 68.232 510.667 65.2569 511.679 62.5853C512.731 59.8732 514.189 57.5457 516.051 55.6028C517.953 53.6598 520.24 52.1621 522.912 51.1097C525.583 50.0572 528.559 49.531 531.837 49.531ZM520.301 71.4501C520.301 73.1097 520.524 74.7086 520.969 76.2468C521.455 77.7849 522.163 79.1612 523.094 80.3755C524.065 81.5494 525.28 82.5007 526.737 83.2293C528.194 83.9579 529.935 84.3424 531.959 84.3829C533.902 84.3829 535.581 84.0186 536.998 83.29C538.415 82.5614 539.589 81.5899 540.52 80.3755C541.451 79.1612 542.139 77.7849 542.584 76.2468C543.03 74.7086 543.252 73.1502 543.252 71.5715C543.252 69.9928 543.03 68.4344 542.584 66.8962C542.179 65.3581 541.512 63.9818 540.581 62.7674C539.65 61.5531 538.455 60.5614 536.998 59.7923C535.581 59.0232 533.861 58.6386 531.837 58.6386C529.854 58.6386 528.133 59.003 526.676 59.7316C525.219 60.4602 524.025 61.4317 523.094 62.646C522.163 63.8199 521.455 65.1759 520.969 66.7141C520.524 68.2523 520.301 69.8309 520.301 71.4501Z" fill="url(#paint4_linear_647_3090)"/>
<path d="M466.812 93.0656V50.0775H483.145C486.504 50.0775 489.52 50.543 492.192 51.474C494.904 52.3646 497.191 53.7206 499.053 55.5421C500.955 57.3636 502.412 59.6102 503.424 62.2818C504.436 64.9533 504.942 68.0499 504.942 71.5716C504.942 78.6553 503.08 84.0187 499.356 87.6617C495.673 91.2643 490.35 93.0656 483.387 93.0656H466.812ZM483.509 84.1401C485.573 84.1401 487.314 83.8568 488.731 83.2901C490.188 82.6829 491.362 81.8328 492.252 80.7399C493.183 79.647 493.851 78.3315 494.256 76.7933C494.661 75.2551 494.863 73.5348 494.863 71.6323C494.863 67.5035 493.892 64.3866 491.949 62.2818C490.046 60.1769 487.071 59.1245 483.023 59.1245H476.709V84.1401H483.509Z" fill="url(#paint5_linear_647_3090)"/>
<path d="M434.728 76.1861V93.0656H424.831V50.0775H434.728V67.1999H439.95L450.818 50.0775H462.172L448.207 70.6001L462.233 93.0656H450.697L440.496 76.1861H434.728Z" fill="url(#paint6_linear_647_3090)"/>
<path d="M354.858 71.6749C354.858 78.7346 360.581 84.4576 367.641 84.4576H398.532C403.985 84.4576 408.64 81.0434 410.477 76.2362H419.347C417.259 85.8105 408.733 92.9794 398.532 92.9794H367.641C355.874 92.9794 346.336 83.441 346.336 71.6749C346.336 68.2266 347.155 64.9696 348.61 62.0879H359.185C356.532 64.4302 354.858 67.8571 354.858 71.6749Z" fill="url(#paint7_linear_647_3090)"/>
<path d="M398.532 50.3705H367.641C374.032 52.501 376.162 58.8923 376.162 58.8923H398.532C403.985 58.8923 408.64 62.3065 410.477 67.1137H419.347C417.259 57.5394 408.733 50.3705 398.532 50.3705Z" fill="url(#paint8_linear_647_3090)"/>
<path d="M362.987 35.3495C362.272 34.8644 361.634 34.4304 360.995 33.9708C359.974 33.2304 359.54 32.3624 360.178 31.0603C361.302 28.788 362.195 26.4136 363.319 24.1669C364.799 21.2308 366.408 18.3458 367.94 15.4353C368.119 15.1034 368.17 14.746 368.323 14.2098C363.293 13.6737 358.851 15.997 354.179 16.6863C354.128 16.5331 354.076 16.38 354.025 16.2268C356.272 15.3587 358.519 14.4651 360.842 13.5715C360.366 13.129 358.587 13.2822 355.506 14.0311C355.455 13.929 355.43 13.8269 355.379 13.7503C356.476 13.2396 357.574 12.729 358.672 12.2439C359.336 11.9376 359.336 11.9631 359.463 11.095C359.463 10.9674 359.77 10.8397 359.974 10.7887C363.574 9.84402 367.148 8.84831 370.774 8.00579C373.991 7.26539 377.208 6.52499 380.45 6.09096C382.697 5.78459 385.02 5.88672 387.292 6.0399C388.824 6.14203 389.539 7.39304 389.36 9.02703C389.284 9.69083 389.488 10.61 389.131 10.9419C388.696 11.3503 387.777 11.2993 387.088 11.3503C384.28 11.6057 381.446 11.861 378.612 12.0652C377.591 12.1418 376.927 12.5248 376.391 13.4439C373.786 18.065 371.157 22.6861 368.425 27.2562C367.072 29.4774 365.463 31.5454 363.982 33.69C363.625 34.2006 363.344 34.7623 362.961 35.4006L362.987 35.3495Z" fill="url(#paint9_linear_647_3090)"/>
<path d="M504.48 25.3924C505.475 25.2903 506.445 25.2137 507.441 25.1115C511.092 24.7286 514.743 24.652 518.343 25.4179C519.441 25.6477 519.926 25.2903 520.436 24.4733C523.628 19.4181 528.07 15.8183 533.662 13.6481C535.525 12.9333 535.985 13.0609 537.057 14.4651C538.206 15.9714 538.844 17.6565 537.746 19.0607C536.317 20.9245 534.402 22.0478 532.411 23.0691C530.343 24.1158 528.249 25.1371 525.772 24.8052C525.083 24.7031 523.883 26.4647 523.602 28.0476C525.492 27.4349 527.253 26.9242 528.964 26.3115C532.104 25.1881 535.219 24.0137 538.359 22.8393C538.742 22.6861 539.176 22.5584 539.585 22.5074C539.84 22.4819 540.249 22.5584 540.351 22.7116C540.504 22.9669 540.58 23.4265 540.427 23.6307C540.07 24.1414 539.661 24.652 539.151 24.9839C535.985 27.0264 532.819 29.0944 529.525 30.9837C528.172 31.7751 526.589 32.2858 525.058 32.5921C523.296 32.9496 521.943 31.9539 521.1 30.4475C520.59 29.5029 520.028 29.0178 518.854 29.0689C515.815 29.171 512.726 28.788 509.713 29.171C505.118 29.7582 500.522 30.6262 496.259 32.6177C495.135 33.1283 493.986 33.5623 492.889 34.0985C491.637 34.6857 490.948 34.558 490.259 33.5368C489.467 32.3624 489.544 31.0092 490.565 30.2433C493.833 27.7668 497.127 25.2903 500.42 22.8138C501.492 21.9968 502.514 21.1287 503.56 20.2862C503.509 20.1841 503.484 20.0564 503.433 19.9543C502.565 20.133 501.697 20.2607 500.829 20.4649C499.271 20.8223 497.714 21.2819 496.131 21.5883C495.595 21.6904 494.931 21.5883 494.395 21.384C493.986 21.2053 493.425 20.567 493.501 20.3628C493.757 19.7245 493.348 18.8054 494.548 18.499C500.037 17.1459 505.526 15.7161 510.99 14.1843C512.19 13.8524 513.262 13.112 514.36 12.4992C515.381 11.912 516.275 11.8099 517.322 12.4992C518.164 13.0354 518.42 13.7758 518.139 14.5417C517.883 15.18 517.322 15.8949 516.709 16.1246C513.798 17.1459 511.705 19.1884 509.484 21.1798C508.284 22.2521 506.956 23.1457 505.68 24.1158C505.22 24.4733 504.786 24.8052 504.352 25.1626C504.403 25.2647 504.429 25.3669 504.48 25.469V25.3924ZM533.406 17.8097C531.925 18.7799 530.419 19.7245 528.938 20.6947C530.674 21.1032 533.1 19.5458 533.406 17.8097Z" fill="url(#paint10_linear_647_3090)"/>
<path d="M564.426 25.6732C562.971 25.086 561.618 24.652 560.367 23.9882C557.533 22.5074 557.89 18.9586 559.754 17.2991C562.026 15.3076 564.222 13.112 567.362 12.3971C567.618 12.346 567.796 11.9631 568.001 11.7333C568.486 11.095 568.971 10.6099 569.916 10.6355C572.111 10.7376 572.698 11.6822 572.571 13.8779C572.443 15.7927 572.213 17.631 571.447 19.3671C571.141 20.0564 570.452 21.0777 569.916 21.0777C569.124 21.0777 568.179 20.4649 567.592 19.8522C567.031 19.2649 566.826 18.3203 566.443 17.4267C564.452 18.0139 563.022 19.4692 561.465 21.4096C562.512 21.6649 563.354 21.9457 564.222 22.0478C566.775 22.3542 569.354 22.5584 571.932 22.8648C572.545 22.9414 573.158 23.1967 573.669 23.5286C574.996 24.3967 574.996 26.3626 573.566 27.0264C571.218 28.0987 568.792 28.9667 566.367 29.8348C563.865 30.7284 561.312 31.5198 558.758 32.2858C557.788 32.5921 556.793 32.7453 555.925 32.924C555.695 32.6177 555.567 32.3623 555.363 32.2092C555.031 31.9028 554.316 31.5454 554.367 31.3922C554.52 30.8815 554.827 30.2433 555.286 30.0135C557.15 29.0944 559.09 28.354 560.954 27.4859C562.154 26.9242 563.303 26.2604 564.401 25.6732H564.426Z" fill="url(#paint11_linear_647_3090)"/>
<path d="M459.009 34.3027C459.162 32.8219 459.162 31.3156 459.468 29.8603C460.132 26.8987 460.796 23.9372 461.766 21.0777C462.839 17.8608 464.243 14.7205 465.519 11.5546C466.464 9.2313 467.358 6.88245 468.404 4.58466C468.864 3.56342 469.579 2.6443 470.268 1.75072C470.472 1.46988 471.008 1.31669 471.391 1.31669C472.234 1.31669 473.076 1.34222 473.919 1.49541C475.681 1.77625 475.961 2.36346 475.144 3.99745C473.536 7.23988 471.774 10.4057 470.268 13.6737C468.609 17.248 467.153 20.9245 465.596 24.5754C464.753 26.5413 464.038 28.5838 462.992 30.4731C462.43 31.4688 461.307 32.1837 460.464 33.0262C460.056 33.4347 459.698 33.9198 459.315 34.3538C459.188 34.3538 459.085 34.3027 458.958 34.2772L459.009 34.3027Z" fill="url(#paint12_linear_647_3090)"/>
<path d="M425.104 34.226C425.257 32.7196 425.282 31.2133 425.614 29.7325C426.278 26.822 426.942 23.8859 427.887 21.0775C428.908 17.9627 430.235 14.9501 431.461 11.9119C432.457 9.43537 433.452 6.93333 434.55 4.48235C434.959 3.56324 435.546 2.72072 436.21 1.95479C436.516 1.59735 437.129 1.36757 437.639 1.31651C438.482 1.26545 439.324 1.36757 440.167 1.52076C441.699 1.77607 442.056 2.43987 441.392 3.79302C439.733 7.08651 437.92 10.329 436.363 13.699C434.703 17.2734 433.274 20.9754 431.691 24.5752C431.078 26.005 430.159 27.3326 429.648 28.8134C429.01 30.6261 428.091 32.0814 426.431 33.1026C426.023 33.3579 425.793 33.9196 425.487 34.3281C425.359 34.3026 425.231 34.2515 425.104 34.226Z" fill="url(#paint13_linear_647_3090)"/>
<path d="M549.21 18.0394C550.18 17.0693 550.946 16.3289 551.686 15.5629C552.069 15.1544 552.325 14.6694 552.682 14.2609C553.423 13.3928 554.061 12.4482 555.465 13.4439C556.971 14.5162 557.559 15.5374 556.971 17.0182C556.205 18.9841 555.363 20.8989 554.571 22.8393C554.291 23.5541 553.857 23.6307 553.295 23.1967C552.657 22.7116 552.069 22.201 551.355 21.6393C547.576 24.7541 545.891 29.4518 542.725 33.2049C540.785 33.3325 539.304 31.1879 540.095 29.222C542.036 24.3201 543.951 19.4181 545.865 14.5162C546.095 13.929 546.299 13.6481 547.04 13.9034C549.057 14.5672 549.389 15.0778 549.184 18.0139L549.21 18.0394Z" fill="url(#paint14_linear_647_3090)"/>
<path d="M380.348 13.8778C382.978 14.5927 383.029 14.6693 383.156 18.167C384.126 17.1968 384.918 16.4309 385.684 15.6394C386.041 15.282 386.246 14.7969 386.603 14.4395C387.267 13.7757 387.65 12.6013 389.028 13.3672C390.535 14.2097 391.326 15.4352 390.841 16.8394C390.126 18.9074 389.233 20.8988 388.339 22.9158C388.262 23.12 387.573 23.2732 387.369 23.1456C386.68 22.7371 386.092 22.2009 385.199 21.486C384.024 22.8647 382.722 24.2434 381.65 25.7497C380.093 27.9454 378.637 30.2176 377.233 32.5154C376.748 33.3069 376.263 33.2814 375.574 32.8984C373.914 31.9538 373.531 30.9325 374.246 29.0688C376.135 24.1668 378.076 19.2648 380.016 14.3629C380.093 14.1842 380.246 14.031 380.373 13.8778H380.348Z" fill="url(#paint15_linear_647_3090)"/>
<path d="M416.219 31.4687C414.738 32.107 413.64 32.5921 412.313 33.1538C412.568 32.0815 412.721 31.1113 413.002 30.1666C414.125 26.5412 415.249 22.9414 416.423 19.316C416.908 17.7841 417.853 16.7629 419.589 16.6607C420.432 16.6097 421.274 16.3799 422.091 16.3544C423.317 16.3033 423.7 16.7629 423.189 17.8607C421.504 21.5372 419.819 25.2136 418.032 28.839C417.495 29.9369 416.653 30.856 416.193 31.4943L416.219 31.4687Z" fill="url(#paint16_linear_647_3090)"/>
<path d="M420.687 14.848C419.998 14.6183 418.823 14.5927 418.466 14.031C417.878 13.1119 418.644 12.1162 419.334 11.3248C420.993 9.3844 424.006 9.40993 425.41 11.3248C426.048 12.1673 425.844 12.6524 424.925 13.0609C424.261 13.3672 423.725 13.9034 423.061 14.1842C422.397 14.4651 421.632 14.5927 420.687 14.8225V14.848Z" fill="url(#paint17_linear_647_3090)"/>
<path d="M444.226 18.8819C446.397 18.6266 448.362 18.3457 450.328 18.167C455.001 17.7585 458.6 21.4095 457.196 25.7497C456.788 27.0518 455.92 28.5326 454.796 29.222C452.141 30.907 449.307 32.3112 446.422 33.5367C443.512 34.7877 441.163 32.6431 440.422 29.8347C440.371 29.6049 440.295 29.4007 440.167 28.9411C439.503 30.09 438.916 31.0091 438.405 31.9793C437.742 33.2303 437.537 33.1027 436.542 32.1835C435.086 30.8559 435.52 29.3241 435.776 27.8943C436.593 23.4519 437.844 19.0861 439.861 15.0522C441.954 10.8396 444.329 6.75467 446.575 2.59312C446.78 2.23569 447.06 1.85272 447.06 1.46976C447.137 0.142146 448.388 0.167677 449.077 0.0144912C449.613 -0.113164 450.711 0.627236 451.018 1.26551C452.09 3.33352 451.758 5.35047 450.558 7.36742C448.567 10.7375 446.728 14.2097 444.814 17.6309C444.609 17.9883 444.456 18.3713 444.201 18.8819H444.226ZM449.23 23.0434C448.592 23.0179 448.26 22.9158 448.005 22.9924C445.937 23.7328 443.869 24.4732 441.878 25.3668C441.341 25.5965 440.984 26.3369 440.678 26.9242C440.473 27.2816 440.346 28.0731 440.499 28.1752C440.933 28.4305 441.52 28.456 442.031 28.5326C442.158 28.5326 442.337 28.405 442.49 28.3284C444.482 27.0773 446.499 25.8519 448.465 24.5242C448.822 24.2945 448.924 23.7073 449.256 23.0434H449.23Z" fill="url(#paint18_linear_647_3090)"/>
<path d="M485.944 34.1239C485.28 33.6644 484.897 33.3325 484.438 33.1027C483.085 32.4134 483.008 31.1368 482.88 29.8858C482.804 29.0943 482.778 28.3029 482.702 27.2306C481.221 28.3539 480.021 29.3752 478.719 30.2688C477.238 31.2645 475.655 32.1581 474.123 33.0772C473.97 33.1538 473.689 33.1538 473.536 33.0772C469.706 31.0347 468.634 25.6987 471.034 23.2477C472.515 21.7159 473.817 19.9798 475.349 18.499C477.519 16.3799 480.174 15.6395 483.187 16.3544C483.672 16.4565 484.106 16.7118 484.668 16.9416C484.923 16.3544 485.153 15.8437 485.408 15.3076C485.893 14.2098 486.455 13.0098 487.833 13.1119C489.672 13.2651 491.076 14.7459 491.178 16.3544C491.229 17.0182 491.178 17.7075 490.974 18.3458C489.723 22.8903 488.446 27.4348 487.118 31.9538C486.889 32.7453 486.353 33.4601 485.995 34.1495L485.944 34.1239ZM474.659 27.4348C474.889 27.3582 475.144 27.3072 475.323 27.1795C477.57 25.8264 479.791 24.4477 482.063 23.1201C483.314 22.3797 483.365 21.2052 483.34 19.7755C479.817 21.7669 476.957 24.2434 474.659 27.4348Z" fill="url(#paint19_linear_647_3090)"/>
<path d="M408.253 33.8941C404.883 32.7707 405.087 30.0134 405.011 27.3326C401.947 29.4006 399.062 31.341 396.305 33.2048C393.062 31.5197 391.811 29.0687 392.092 25.8008C392.143 25.3412 392.194 24.8306 392.45 24.4732C394.518 21.5116 396.56 18.4734 399.981 16.8139C401.896 15.8947 403.964 15.665 405.981 16.5841C406.747 16.9415 407.053 16.7883 407.309 16.0735C407.513 15.5118 407.717 14.9501 408.023 14.465C409.045 12.7289 411.496 12.7289 412.594 14.465C413.334 15.6139 413.589 16.8394 413.181 18.1925C412.108 21.8179 411.036 25.4689 409.989 29.0943C409.709 30.0134 409.606 31.0091 409.274 31.9027C409.019 32.6686 408.56 33.3579 408.279 33.8941H408.253ZM405.598 19.8776C403.453 20.5159 397.351 25.5455 396.815 27.4603C397.045 27.3837 397.249 27.3582 397.428 27.256C399.777 25.8263 402.126 24.3966 404.449 22.9924C405.675 22.252 405.521 21.0775 405.598 19.8776Z" fill="url(#paint20_linear_647_3090)"/>
<path d="M-80 47.4321H40.8889L65.6543 22.6666H326.321" stroke="#767C89"/>
<path d="M1008 47.4321H887.111L862.346 22.6666H601.679" stroke="#767C89"/>
<path d="M-80 95.7038H40.8889L65.6543 120.469H862.346L887.111 95.7038H1008" stroke="#767C89"/>
<circle cx="104.78" cy="65.9853" r="2.30654" fill="#E81899" stroke="#E81899" stroke-width="0.477215"/>
<circle cx="115.229" cy="65.9853" r="2.30654" fill="#E81899" stroke="#E81899" stroke-width="0.477215"/>
<circle cx="109.871" cy="71.0757" r="2.30654" fill="#E81899" stroke="#E81899" stroke-width="0.477215"/>
<circle cx="104.78" cy="76.1659" r="2.30654" fill="#E81899" stroke="#E81899" stroke-width="0.477215"/>
<circle cx="115.229" cy="76.166" r="2.30654" fill="#E81899" stroke="#E81899" stroke-width="0.477215"/>
<circle cx="210.336" cy="76.166" r="2.30654" fill="#E81899" stroke="#E81899" stroke-width="0.477215"/>
<circle cx="210.336" cy="71.0755" r="2.30654" fill="#E81899" stroke="#E81899" stroke-width="0.477215"/>
<circle cx="215.428" cy="71.0755" r="2.30654" fill="#E81899" stroke="#E81899" stroke-width="0.477215"/>
<circle cx="215.428" cy="65.9853" r="2.30654" fill="#E81899" stroke="#E81899" stroke-width="0.477215"/>
<circle cx="220.516" cy="71.0757" r="2.30654" fill="#E81899" stroke="#E81899" stroke-width="0.477215"/>
<circle cx="220.516" cy="76.1659" r="2.30654" fill="#E81899" stroke="#E81899" stroke-width="0.477215"/>
<circle cx="140.143" cy="71.0758" r="2.30654" fill="#E81899" stroke="#E81899" stroke-width="0.477215"/>
<circle cx="140.143" cy="65.9855" r="2.30654" fill="#E81899" stroke="#E81899" stroke-width="0.477215"/>
<circle cx="145.235" cy="65.9855" r="2.30654" fill="#E81899" stroke="#E81899" stroke-width="0.477215"/>
<circle cx="150.322" cy="71.0757" r="2.30654" fill="#E81899" stroke="#E81899" stroke-width="0.477215"/>
<circle cx="150.322" cy="76.1661" r="2.30654" fill="#E81899" stroke="#E81899" stroke-width="0.477215"/>
<circle cx="145.235" cy="76.1661" r="2.30654" fill="#E81899" stroke="#E81899" stroke-width="0.477215"/>
<circle cx="2.54515" cy="2.54515" r="2.30654" transform="matrix(-1 0 0 1 187.965 68.5306)" fill="#E81899" stroke="#E81899" stroke-width="0.477215"/>
<circle cx="2.54515" cy="2.54515" r="2.30654" transform="matrix(-1 0 0 1 187.965 63.4403)" fill="#E81899" stroke="#E81899" stroke-width="0.477215"/>
<circle cx="2.54515" cy="2.54515" r="2.30654" transform="matrix(-1 0 0 1 182.873 63.4403)" fill="#E81899" stroke="#E81899" stroke-width="0.477215"/>
<circle cx="2.54515" cy="2.54515" r="2.30654" transform="matrix(-1 0 0 1 177.785 68.5305)" fill="#E81899" stroke="#E81899" stroke-width="0.477215"/>
<circle cx="2.54515" cy="2.54515" r="2.30654" transform="matrix(-1 0 0 1 177.785 73.621)" fill="#E81899" stroke="#E81899" stroke-width="0.477215"/>
<circle cx="2.54515" cy="2.54515" r="2.30654" transform="matrix(-1 0 0 1 182.873 73.621)" fill="#E81899" stroke="#E81899" stroke-width="0.477215"/>
<circle cx="80.0647" cy="71.0757" r="3.23825" fill="#E81899" stroke="#E81899" stroke-width="0.477215"/>
<circle cx="85.3959" cy="71.3075" r="0.688553" fill="#E81899" stroke="#E81899" stroke-width="0.477215"/>
<circle cx="74.7318" cy="71.3075" r="0.688553" fill="#E81899" stroke="#E81899" stroke-width="0.477215"/>
<circle cx="79.8315" cy="65.7447" r="0.688553" fill="#E81899" stroke="#E81899" stroke-width="0.477215"/>
<circle cx="79.8315" cy="76.4068" r="0.688553" fill="#E81899" stroke="#E81899" stroke-width="0.477215"/>
<circle cx="80.0638" cy="71.0758" r="8.11266" stroke="#E81899" stroke-width="0.95443"/>
<circle cx="737.766" cy="65.9853" r="2.30654" fill="#E81899" stroke="#E81899" stroke-width="0.477215"/>
<circle cx="748.215" cy="65.9853" r="2.30654" fill="#E81899" stroke="#E81899" stroke-width="0.477215"/>
<circle cx="742.858" cy="71.0757" r="2.30654" fill="#E81899" stroke="#E81899" stroke-width="0.477215"/>
<circle cx="737.766" cy="76.1659" r="2.30654" fill="#E81899" stroke="#E81899" stroke-width="0.477215"/>
<circle cx="748.215" cy="76.166" r="2.30654" fill="#E81899" stroke="#E81899" stroke-width="0.477215"/>
<circle cx="843.324" cy="76.166" r="2.30654" fill="#E81899" stroke="#E81899" stroke-width="0.477215"/>
<circle cx="843.324" cy="71.0755" r="2.30654" fill="#E81899" stroke="#E81899" stroke-width="0.477215"/>
<circle cx="848.416" cy="71.0755" r="2.30654" fill="#E81899" stroke="#E81899" stroke-width="0.477215"/>
<circle cx="848.416" cy="65.9853" r="2.30654" fill="#E81899" stroke="#E81899" stroke-width="0.477215"/>
<circle cx="853.504" cy="71.0757" r="2.30654" fill="#E81899" stroke="#E81899" stroke-width="0.477215"/>
<circle cx="853.504" cy="76.1659" r="2.30654" fill="#E81899" stroke="#E81899" stroke-width="0.477215"/>
<circle cx="773.129" cy="71.0758" r="2.30654" fill="#E81899" stroke="#E81899" stroke-width="0.477215"/>
<circle cx="773.129" cy="65.9855" r="2.30654" fill="#E81899" stroke="#E81899" stroke-width="0.477215"/>
<circle cx="778.221" cy="65.9855" r="2.30654" fill="#E81899" stroke="#E81899" stroke-width="0.477215"/>
<circle cx="783.309" cy="71.0757" r="2.30654" fill="#E81899" stroke="#E81899" stroke-width="0.477215"/>
<circle cx="783.309" cy="76.1661" r="2.30654" fill="#E81899" stroke="#E81899" stroke-width="0.477215"/>
<circle cx="778.221" cy="76.1661" r="2.30654" fill="#E81899" stroke="#E81899" stroke-width="0.477215"/>
<circle cx="2.54515" cy="2.54515" r="2.30654" transform="matrix(-1 0 0 1 820.949 68.5306)" fill="#E81899" stroke="#E81899" stroke-width="0.477215"/>
<circle cx="2.54515" cy="2.54515" r="2.30654" transform="matrix(-1 0 0 1 820.949 63.4403)" fill="#E81899" stroke="#E81899" stroke-width="0.477215"/>
<circle cx="2.54515" cy="2.54515" r="2.30654" transform="matrix(-1 0 0 1 815.857 63.4403)" fill="#E81899" stroke="#E81899" stroke-width="0.477215"/>
<circle cx="2.54515" cy="2.54515" r="2.30654" transform="matrix(-1 0 0 1 810.77 68.5305)" fill="#E81899" stroke="#E81899" stroke-width="0.477215"/>
<circle cx="2.54515" cy="2.54515" r="2.30654" transform="matrix(-1 0 0 1 810.77 73.621)" fill="#E81899" stroke="#E81899" stroke-width="0.477215"/>
<circle cx="2.54515" cy="2.54515" r="2.30654" transform="matrix(-1 0 0 1 815.857 73.621)" fill="#E81899" stroke="#E81899" stroke-width="0.477215"/>
<circle cx="713.049" cy="71.0757" r="3.23825" fill="#E81899" stroke="#E81899" stroke-width="0.477215"/>
<circle cx="718.38" cy="71.3075" r="0.688553" fill="#E81899" stroke="#E81899" stroke-width="0.477215"/>
<circle cx="707.716" cy="71.3075" r="0.688553" fill="#E81899" stroke="#E81899" stroke-width="0.477215"/>
<circle cx="712.816" cy="65.7447" r="0.688553" fill="#E81899" stroke="#E81899" stroke-width="0.477215"/>
<circle cx="712.816" cy="76.4068" r="0.688553" fill="#E81899" stroke="#E81899" stroke-width="0.477215"/>
<circle cx="713.048" cy="71.0758" r="8.11266" stroke="#E81899" stroke-width="0.95443"/>
<defs>
<linearGradient id="paint0_linear_647_3090" x1="480.788" y1="88.1483" x2="480.788" y2="47.4322" gradientUnits="userSpaceOnUse">
<stop stop-color="#E81899"/>
<stop offset="1" stop-color="#FFC6E9"/>
</linearGradient>
<linearGradient id="paint1_linear_647_3090" x1="480.788" y1="88.1483" x2="480.788" y2="47.4322" gradientUnits="userSpaceOnUse">
<stop stop-color="#E81899"/>
<stop offset="1" stop-color="#FFC6E9"/>
</linearGradient>
<linearGradient id="paint2_linear_647_3090" x1="480.788" y1="88.1483" x2="480.788" y2="47.4322" gradientUnits="userSpaceOnUse">
<stop stop-color="#E81899"/>
<stop offset="1" stop-color="#FFC6E9"/>
</linearGradient>
<linearGradient id="paint3_linear_647_3090" x1="480.788" y1="88.1483" x2="480.788" y2="47.4322" gradientUnits="userSpaceOnUse">
<stop stop-color="#E81899"/>
<stop offset="1" stop-color="#FFC6E9"/>
</linearGradient>
<linearGradient id="paint4_linear_647_3090" x1="480.788" y1="88.1483" x2="480.788" y2="47.4322" gradientUnits="userSpaceOnUse">
<stop stop-color="#E81899"/>
<stop offset="1" stop-color="#FFC6E9"/>
</linearGradient>
<linearGradient id="paint5_linear_647_3090" x1="480.788" y1="88.1483" x2="480.788" y2="47.4322" gradientUnits="userSpaceOnUse">
<stop stop-color="#E81899"/>
<stop offset="1" stop-color="#FFC6E9"/>
</linearGradient>
<linearGradient id="paint6_linear_647_3090" x1="480.788" y1="88.1483" x2="480.788" y2="47.4322" gradientUnits="userSpaceOnUse">
<stop stop-color="#E81899"/>
<stop offset="1" stop-color="#FFC6E9"/>
</linearGradient>
<linearGradient id="paint7_linear_647_3090" x1="480.788" y1="88.1483" x2="480.788" y2="47.4322" gradientUnits="userSpaceOnUse">
<stop stop-color="#E81899"/>
<stop offset="1" stop-color="#FFC6E9"/>
</linearGradient>
<linearGradient id="paint8_linear_647_3090" x1="480.788" y1="88.1483" x2="480.788" y2="47.4322" gradientUnits="userSpaceOnUse">
<stop stop-color="#E81899"/>
<stop offset="1" stop-color="#FFC6E9"/>
</linearGradient>
<linearGradient id="paint9_linear_647_3090" x1="360.34" y1="17.7003" x2="574.722" y2="17.7003" gradientUnits="userSpaceOnUse">
<stop stop-color="#E81899"/>
<stop offset="1" stop-color="#FFE2A0"/>
</linearGradient>
<linearGradient id="paint10_linear_647_3090" x1="360.34" y1="17.7003" x2="574.722" y2="17.7003" gradientUnits="userSpaceOnUse">
<stop stop-color="#E81899"/>
<stop offset="1" stop-color="#FFE2A0"/>
</linearGradient>
<linearGradient id="paint11_linear_647_3090" x1="360.34" y1="17.7003" x2="574.722" y2="17.7003" gradientUnits="userSpaceOnUse">
<stop stop-color="#E81899"/>
<stop offset="1" stop-color="#FFE2A0"/>
</linearGradient>
<linearGradient id="paint12_linear_647_3090" x1="360.34" y1="17.7003" x2="574.722" y2="17.7003" gradientUnits="userSpaceOnUse">
<stop stop-color="#E81899"/>
<stop offset="1" stop-color="#FFE2A0"/>
</linearGradient>
<linearGradient id="paint13_linear_647_3090" x1="360.34" y1="17.7003" x2="574.722" y2="17.7003" gradientUnits="userSpaceOnUse">
<stop stop-color="#E81899"/>
<stop offset="1" stop-color="#FFE2A0"/>
</linearGradient>
<linearGradient id="paint14_linear_647_3090" x1="360.34" y1="17.7003" x2="574.722" y2="17.7003" gradientUnits="userSpaceOnUse">
<stop stop-color="#E81899"/>
<stop offset="1" stop-color="#FFE2A0"/>
</linearGradient>
<linearGradient id="paint15_linear_647_3090" x1="360.34" y1="17.7003" x2="574.722" y2="17.7003" gradientUnits="userSpaceOnUse">
<stop stop-color="#E81899"/>
<stop offset="1" stop-color="#FFE2A0"/>
</linearGradient>
<linearGradient id="paint16_linear_647_3090" x1="360.34" y1="17.7003" x2="574.722" y2="17.7003" gradientUnits="userSpaceOnUse">
<stop stop-color="#E81899"/>
<stop offset="1" stop-color="#FFE2A0"/>
</linearGradient>
<linearGradient id="paint17_linear_647_3090" x1="360.34" y1="17.7003" x2="574.722" y2="17.7003" gradientUnits="userSpaceOnUse">
<stop stop-color="#E81899"/>
<stop offset="1" stop-color="#FFE2A0"/>
</linearGradient>
<linearGradient id="paint18_linear_647_3090" x1="360.34" y1="17.7003" x2="574.722" y2="17.7003" gradientUnits="userSpaceOnUse">
<stop stop-color="#E81899"/>
<stop offset="1" stop-color="#FFE2A0"/>
</linearGradient>
<linearGradient id="paint19_linear_647_3090" x1="360.34" y1="17.7003" x2="574.722" y2="17.7003" gradientUnits="userSpaceOnUse">
<stop stop-color="#E81899"/>
<stop offset="1" stop-color="#FFE2A0"/>
</linearGradient>
<linearGradient id="paint20_linear_647_3090" x1="360.34" y1="17.7003" x2="574.722" y2="17.7003" gradientUnits="userSpaceOnUse">
<stop stop-color="#E81899"/>
<stop offset="1" stop-color="#FFE2A0"/>
</linearGradient>
</defs>
</svg>
