<svg width="27" height="26" viewBox="0 0 27 26" fill="none" xmlns="http://www.w3.org/2000/svg">
<g clip-path="url(#clip0_879_21698)">
<path d="M0.650391 6.57297V0H6.87742M0.650391 19.373V25.6H6.87742M21.4071 0H26.2504V6.57297M26.2504 19.373V25.6H21.4071" stroke="#5D636F" stroke-width="2" stroke-linecap="round" stroke-linejoin="round"/>
<path fill-rule="evenodd" clip-rule="evenodd" d="M13.452 7.80078C12.3955 7.80078 11.3588 7.88674 10.3486 8.05214C10.1391 8.08644 9.98529 8.26748 9.98529 8.47978V8.70311C9.50769 8.79372 9.03657 8.9027 8.5727 9.0293C8.38959 9.07927 8.26031 9.2426 8.25372 9.4323C8.25254 9.46611 8.25195 9.50006 8.25195 9.53411C8.25195 11.0334 9.3939 12.2658 10.8556 12.4091C11.3001 12.9111 11.8887 13.2838 12.5573 13.4619C12.5017 13.9162 12.3651 14.3451 12.1623 14.7341H12.0075C11.5289 14.7341 11.1408 15.1221 11.1408 15.6008V17.0452H10.7075C10.3086 17.0452 9.98529 17.3686 9.98529 17.7674C9.98529 18.0068 10.1793 18.2008 10.4186 18.2008H16.4853C16.7246 18.2008 16.9186 18.0068 16.9186 17.7674C16.9186 17.3686 16.5953 17.0452 16.1964 17.0452H15.7631V15.6008C15.7631 15.1221 15.375 14.7341 14.8964 14.7341H14.7416C14.5388 14.3451 14.4022 13.9162 14.3466 13.4619C15.0152 13.2838 15.6038 12.9111 16.0483 12.4091C17.51 12.2658 18.652 11.0334 18.652 9.53411C18.652 9.50005 18.6514 9.4661 18.6502 9.4323C18.6436 9.2426 18.5143 9.07927 18.3312 9.0293C17.8673 8.9027 17.3962 8.79372 16.9186 8.70311V8.47978C16.9186 8.26748 16.7648 8.08644 16.5553 8.05214C15.5451 7.88674 14.5084 7.80078 13.452 7.80078ZM9.1332 9.77819C9.41459 9.70731 9.69868 9.64319 9.98529 9.58602V10.1119C9.98529 10.5392 10.0627 10.9487 10.2043 11.3269C9.62745 11.0249 9.21434 10.4526 9.1332 9.77819ZM17.7707 9.77819C17.6896 10.4526 17.2765 11.0249 16.6996 11.3269C16.8412 10.9487 16.9186 10.5392 16.9186 10.1119V9.58602C17.2052 9.64319 17.4893 9.70731 17.7707 9.77819Z" fill="#E81899"/>
</g>
<defs>
<clipPath id="clip0_879_21698">
<rect width="25.6" height="25.6" fill="white" transform="translate(0.650391)"/>
</clipPath>
</defs>
</svg>
