<svg width="27" height="26" viewBox="0 0 27 26" fill="none" xmlns="http://www.w3.org/2000/svg">
<g clip-path="url(#clip0_879_21683)">
<path d="M0.796875 6.57297V0H7.0239M0.796875 19.373V25.6H7.0239M21.5536 0H26.3969V6.57297M26.3969 19.373V25.6H21.5536" stroke="#5D636F" stroke-width="2" stroke-linecap="round" stroke-linejoin="round"/>
<path fill-rule="evenodd" clip-rule="evenodd" d="M13.5984 7.80078C12.542 7.80078 11.5053 7.88674 10.4951 8.05214C10.2856 8.08644 10.1318 8.26748 10.1318 8.47978V8.70311C9.65417 8.79372 9.18306 8.9027 8.71919 9.0293C8.53607 9.07927 8.40679 9.2426 8.4002 9.4323C8.39903 9.46611 8.39844 9.50006 8.39844 9.53411C8.39844 11.0334 9.54039 12.2658 11.0021 12.4091C11.4466 12.9111 12.0352 13.2838 12.7038 13.4619C12.6482 13.9162 12.5116 14.3451 12.3088 14.7341H12.154C11.6753 14.7341 11.2873 15.1221 11.2873 15.6008V17.0452H10.854C10.4551 17.0452 10.1318 17.3686 10.1318 17.7674C10.1318 18.0068 10.3258 18.2008 10.5651 18.2008H16.6318C16.8711 18.2008 17.0651 18.0068 17.0651 17.7674C17.0651 17.3686 16.7418 17.0452 16.3429 17.0452H15.9095V15.6008C15.9095 15.1221 15.5215 14.7341 15.0429 14.7341H14.8881C14.6853 14.3451 14.5487 13.9162 14.4931 13.4619C15.1617 13.2838 15.7502 12.9111 16.1948 12.4091C17.6565 12.2658 18.7984 11.0334 18.7984 9.53411C18.7984 9.50005 18.7978 9.4661 18.7967 9.4323C18.7901 9.2426 18.6608 9.07927 18.4777 9.0293C18.0138 8.9027 17.5427 8.79372 17.0651 8.70311V8.47978C17.0651 8.26748 16.9113 8.08644 16.7018 8.05214C15.6916 7.88674 14.6549 7.80078 13.5984 7.80078ZM9.27969 9.77819C9.56108 9.70731 9.84517 9.64319 10.1318 9.58602V10.1119C10.1318 10.5392 10.2092 10.9487 10.3508 11.3269C9.77394 11.0249 9.36083 10.4526 9.27969 9.77819ZM17.9172 9.77819C17.836 10.4526 17.4229 11.0249 16.8461 11.3269C16.9877 10.9487 17.0651 10.5392 17.0651 10.1119V9.58602C17.3517 9.64319 17.6358 9.70731 17.9172 9.77819Z" fill="#EBB222"/>
</g>
<defs>
<clipPath id="clip0_879_21683">
<rect width="25.6" height="25.6" fill="white" transform="translate(0.796875)"/>
</clipPath>
</defs>
</svg>
