<svg width="27" height="26" viewBox="0 0 27 26" fill="none" xmlns="http://www.w3.org/2000/svg">
<g clip-path="url(#clip0_879_21688)">
<path d="M0.748047 6.57297V0H6.97507M0.748047 19.373V25.6H6.97507M21.5048 0H26.348V6.57297M26.348 19.373V25.6H21.5048" stroke="#5D636F" stroke-width="2" stroke-linecap="round" stroke-linejoin="round"/>
<path fill-rule="evenodd" clip-rule="evenodd" d="M13.5496 7.80078C12.4932 7.80078 11.4565 7.88674 10.4463 8.05214C10.2368 8.08644 10.0829 8.26748 10.0829 8.47978V8.70311C9.60534 8.79372 9.13423 8.9027 8.67036 9.0293C8.48724 9.07927 8.35796 9.2426 8.35137 9.4323C8.3502 9.46611 8.34961 9.50006 8.34961 9.53411C8.34961 11.0334 9.49156 12.2658 10.9533 12.4091C11.3978 12.9111 11.9864 13.2838 12.655 13.4619C12.5994 13.9162 12.4628 14.3451 12.26 14.7341H12.1052C11.6265 14.7341 11.2385 15.1221 11.2385 15.6008V17.0452H10.8052C10.4063 17.0452 10.0829 17.3686 10.0829 17.7674C10.0829 18.0068 10.277 18.2008 10.5163 18.2008H16.5829C16.8223 18.2008 17.0163 18.0068 17.0163 17.7674C17.0163 17.3686 16.6929 17.0452 16.2941 17.0452H15.8607V15.6008C15.8607 15.1221 15.4727 14.7341 14.9941 14.7341H14.8392C14.6365 14.3451 14.4998 13.9162 14.4443 13.4619C15.1129 13.2838 15.7014 12.9111 16.1459 12.4091C17.6077 12.2658 18.7496 11.0334 18.7496 9.53411C18.7496 9.50005 18.749 9.4661 18.7478 9.4323C18.7413 9.2426 18.612 9.07927 18.4289 9.0293C17.965 8.9027 17.4939 8.79372 17.0163 8.70311V8.47978C17.0163 8.26748 16.8625 8.08644 16.653 8.05214C15.6427 7.88674 14.606 7.80078 13.5496 7.80078ZM9.23086 9.77819C9.51225 9.70731 9.79634 9.64319 10.0829 9.58602V10.1119C10.0829 10.5392 10.1604 10.9487 10.302 11.3269C9.72511 11.0249 9.312 10.4526 9.23086 9.77819ZM17.8684 9.77819C17.7872 10.4526 17.3741 11.0249 16.7973 11.3269C16.9388 10.9487 17.0163 10.5392 17.0163 10.1119V9.58602C17.3029 9.64319 17.587 9.70731 17.8684 9.77819Z" fill="#91969F"/>
</g>
<defs>
<clipPath id="clip0_879_21688">
<rect width="25.6" height="25.6" fill="white" transform="translate(0.748047)"/>
</clipPath>
</defs>
</svg>
