<svg width="26" height="26" viewBox="0 0 26 26" fill="none" xmlns="http://www.w3.org/2000/svg">
<g clip-path="url(#clip0_879_21693)">
<path d="M0.199219 6.57297V0H6.42625M0.199219 19.373V25.6H6.42625M20.956 0H25.7992V6.57297M25.7992 19.373V25.6H20.956" stroke="#5D636F" stroke-width="2" stroke-linecap="round" stroke-linejoin="round"/>
<path fill-rule="evenodd" clip-rule="evenodd" d="M13.0008 7.80078C11.9443 7.80078 10.9077 7.88674 9.89743 8.05214C9.68792 8.08644 9.53411 8.26748 9.53411 8.47978V8.70311C9.05652 8.79372 8.5854 8.9027 8.12153 9.0293C7.93841 9.07927 7.80913 9.2426 7.80255 9.4323C7.80137 9.46611 7.80078 9.50006 7.80078 9.53411C7.80078 11.0334 8.94273 12.2658 10.4045 12.4091C10.849 12.9111 11.4375 13.2838 12.1061 13.4619C12.0506 13.9162 11.9139 14.3451 11.7112 14.7341H11.5563C11.0777 14.7341 10.6897 15.1221 10.6897 15.6008V17.0452H10.2563C9.85746 17.0452 9.53411 17.3686 9.53411 17.7674C9.53411 18.0068 9.72812 18.2008 9.96745 18.2008H16.0341C16.2734 18.2008 16.4674 18.0068 16.4674 17.7674C16.4674 17.3686 16.1441 17.0452 15.7452 17.0452H15.3119V15.6008C15.3119 15.1221 14.9239 14.7341 14.4452 14.7341H14.2904C14.0876 14.3451 13.951 13.9162 13.8954 13.4619C14.564 13.2838 15.1526 12.9111 15.5971 12.4091C17.0588 12.2658 18.2008 11.0334 18.2008 9.53411C18.2008 9.50005 18.2002 9.4661 18.199 9.4323C18.1924 9.2426 18.0631 9.07927 17.88 9.0293C17.4162 8.9027 16.945 8.79372 16.4674 8.70311V8.47978C16.4674 8.26748 16.3136 8.08644 16.1041 8.05214C15.0939 7.88674 14.0572 7.80078 13.0008 7.80078ZM8.68203 9.77819C8.96342 9.70731 9.24751 9.64319 9.53411 9.58602V10.1119C9.53411 10.5392 9.61156 10.9487 9.75313 11.3269C9.17628 11.0249 8.76317 10.4526 8.68203 9.77819ZM17.3195 9.77819C17.2384 10.4526 16.8253 11.0249 16.2484 11.3269C16.39 10.9487 16.4674 10.5392 16.4674 10.1119V9.58602C16.7541 9.64319 17.0381 9.70731 17.3195 9.77819Z" fill="#9B7411"/>
</g>
<defs>
<clipPath id="clip0_879_21693">
<rect width="25.6" height="25.6" fill="white" transform="translate(0.199219)"/>
</clipPath>
</defs>
</svg>
