<svg width="203" height="35" viewBox="0 0 203 35" fill="none" xmlns="http://www.w3.org/2000/svg">
<path d="M11.3212 10.25V16.055L9.20623 18.17C8.98123 18.395 8.84623 18.71 8.84623 19.07V31.31L5.11123 35H0.83623V14.885L5.42623 10.25H11.3212ZM51.5962 10.7C51.9112 11.06 52.0912 11.465 52.0912 11.915V23.03C52.0912 23.48 51.9112 23.885 51.5962 24.2L41.2912 34.505C40.9762 34.865 40.5262 35 40.0762 35H14.6962L10.9612 31.31V26.99H36.9262C37.2862 26.99 37.6012 26.9 37.8262 26.63L43.7212 20.78C43.9462 20.51 44.0812 20.195 44.0812 19.88V15.065C44.0812 14.705 43.9462 14.39 43.7212 14.165L38.2312 8.675C38.0062 8.45 37.6912 8.315 37.3312 8.315H4.52623L0.83623 4.58V0.304999H40.4812C40.9312 0.304999 41.3362 0.484999 41.6512 0.799998L51.5962 10.7ZM65.2024 26.99H98.7274L102.417 30.725V35H61.7824C61.2874 35 60.8374 34.82 60.4774 34.46L54.9424 28.07C54.6724 27.8 54.5374 27.395 54.5374 26.99V18.125H58.8124L62.5474 21.815V24.11C62.5474 24.425 62.6374 24.74 62.8624 24.965L64.2574 26.585C64.4824 26.855 64.8424 26.99 65.2024 26.99ZM55.0324 11.51C54.7174 11.195 54.5374 10.79 54.5374 10.34V8.585V0.304999H59.8924L63.6274 3.995V8.27C63.6274 8.585 63.7624 8.945 63.9874 9.17L68.0824 13.13C68.3074 13.4 68.6224 13.535 68.9824 13.535H98.4574V17.81L94.7674 21.5H65.6974C65.2474 21.5 64.8424 21.365 64.5274 21.05L55.0324 11.51ZM69.3424 0.304999H102.417V4.58L98.7274 8.315H65.6524V3.995L69.3424 0.304999ZM112.873 19.61L120.253 26.99H126.733V31.31L122.998 35H116.923L104.998 23.075C104.638 22.76 104.503 22.31 104.503 21.86V0.304999H108.778L112.513 3.995V18.71C112.513 19.07 112.648 19.385 112.873 19.61ZM146.848 0.304999H151.168V21.86C151.168 22.31 150.988 22.76 150.673 23.075L138.748 35H132.628L128.938 31.31V26.99H135.418L142.798 19.61C143.023 19.385 143.158 19.07 143.158 18.71V3.995L146.848 0.304999ZM163.574 26.585C163.799 26.855 164.159 26.99 164.519 26.99H190.979V31.31L187.289 35H161.099C160.604 35 160.154 34.82 159.794 34.46L154.259 28.07C153.989 27.755 153.854 27.395 153.854 26.99V18.71H158.129L161.864 22.4V24.11C161.864 24.425 161.954 24.74 162.179 24.965L163.574 26.585ZM201.464 23.84C201.779 24.2 201.959 24.605 201.959 25.055V30.86L197.819 35H193.184V26.45L188.549 21.905C188.279 21.68 187.964 21.545 187.649 21.545H165.284C164.834 21.545 164.429 21.365 164.114 21.05L154.484 11.465C154.169 11.15 153.989 10.7 153.989 10.25V4.445L158.129 0.304999H162.764V8.855L167.219 13.175C167.444 13.4 167.759 13.535 168.119 13.535H190.439C190.889 13.535 191.339 13.715 191.654 14.03L201.464 23.84ZM201.689 7.235C201.959 7.55 202.094 7.91 202.094 8.315V16.595H197.819L194.084 12.905V11.195C194.084 10.88 193.994 10.565 193.769 10.34L192.374 8.72C192.149 8.45 191.789 8.315 191.429 8.315H164.969V3.995L168.659 0.304999L194.939 0.349998C195.389 0.349998 195.884 0.574998 196.199 0.934999L201.689 7.235Z" fill="#F3F3F3"/>
</svg>
