<svg width="304" height="36" viewBox="0 0 304 36" fill="none" xmlns="http://www.w3.org/2000/svg">
<path d="M8.95756 15.065L5.22256 18.755H0.947559V4.895L5.53756 0.304999H11.4326V6.245L9.31756 8.315C9.09256 8.54 8.95756 8.9 8.95756 9.215V15.065ZM14.0876 13.76H21.3776L25.0676 17.495V21.77H17.2376C16.8776 21.77 16.5626 21.905 16.2926 22.175L9.31756 29.15C9.09256 29.42 8.95756 29.735 8.95756 30.05V31.31L5.22256 35.045H0.947559V26.9C0.947559 26.45 1.08256 26.045 1.44256 25.73L12.8726 14.255C13.1876 13.94 13.6376 13.76 14.0876 13.76ZM46.8476 0.304999L51.4376 4.895V18.755H47.1176L43.4276 15.065V9.215C43.4276 8.9 43.2926 8.54 43.0676 8.315L40.9526 6.245V0.304999H46.8476ZM39.5126 14.255L50.9426 25.73C51.2576 26.045 51.4376 26.45 51.4376 26.9V35.045H47.1176L43.4276 31.31V30.05C43.4276 29.735 43.2926 29.42 43.0676 29.15L36.0476 22.175C35.8226 21.905 35.5076 21.77 35.1476 21.77H27.3176V17.495L31.0076 13.76H38.2976C38.7476 13.76 39.1526 13.94 39.5126 14.255ZM94.7437 9.08C94.7437 8.765 94.6087 8.45 94.3837 8.18L92.2687 6.065V0.304999H98.1637L102.754 4.895V18.44H98.4337L94.7437 14.75V9.08ZM62.6587 14.75L58.9237 18.44H54.6487V4.895L59.2387 0.304999H65.1337V6.065L63.0187 8.18C62.7937 8.45 62.6587 8.765 62.6587 9.08V14.75ZM102.259 25.505C102.574 25.82 102.754 26.225 102.754 26.675V35H98.4337L94.7437 31.31V29.825C94.7437 29.465 94.6087 29.15 94.3837 28.925L87.3637 21.905C87.1387 21.68 86.8237 21.545 86.4637 21.545H70.9387C70.5787 21.545 70.2637 21.68 69.9937 21.905L63.0187 28.925C62.7937 29.15 62.6587 29.465 62.6587 29.825V31.31L58.9237 35H54.6487V26.675C54.6487 26.225 54.8287 25.82 55.1437 25.505L66.5737 14.03C66.8887 13.715 67.3387 13.535 67.7887 13.535H89.6137C90.0637 13.535 90.5137 13.715 90.8287 14.03L102.259 25.505ZM142.293 14.03L153.768 25.505C154.083 25.82 154.263 26.225 154.263 26.675V35H149.943L146.253 31.31V29.825C146.253 29.465 146.118 29.15 145.848 28.925L138.873 21.905C138.603 21.68 138.288 21.545 137.973 21.545H122.223C121.863 21.545 121.548 21.68 121.278 21.905L114.303 28.925C114.078 29.15 113.943 29.465 113.943 29.825V31.31L110.208 35H105.933V26.675C105.933 26.225 106.113 25.82 106.428 25.505L117.858 14.03C118.173 13.715 118.623 13.535 119.073 13.535H141.123C141.573 13.535 141.978 13.715 142.293 14.03ZM153.813 7.235C154.083 7.55 154.263 7.91 154.263 8.315V18.44H149.943L146.253 14.705V11.195C146.253 10.88 146.118 10.565 145.893 10.34L144.498 8.72C144.273 8.45 143.913 8.315 143.553 8.315H116.598C116.238 8.315 115.878 8.45 115.653 8.72L114.258 10.34C114.033 10.565 113.943 10.88 113.943 11.195V14.705L110.208 18.44H105.933V8.315C105.933 7.91 106.068 7.55 106.338 7.235L111.873 0.844997C112.233 0.484999 112.683 0.304999 113.178 0.304999H147.018C147.468 0.304999 147.963 0.484999 148.278 0.844997L153.813 7.235ZM167.838 25.235H160.908L157.173 21.5V20.645V5.03L161.898 0.304999H168.063V6.515L165.903 8.675C165.678 8.855 165.543 9.125 165.543 9.44V16.91C165.543 17.27 165.678 17.585 165.948 17.855C166.443 18.35 167.523 19.475 167.838 19.79V25.235ZM199.338 17.045H203.658V27.125C203.658 27.53 203.523 27.935 203.253 28.205L197.673 34.595C197.358 34.955 196.908 35.135 196.413 35.135H157.263V30.86L160.953 27.125H192.948C193.353 27.125 193.713 26.99 193.938 26.72L195.333 25.1C195.558 24.875 195.648 24.56 195.648 24.245V20.735L199.338 17.045ZM216.617 26.99H250.142L253.832 30.725V35H213.197C212.702 35 212.252 34.82 211.892 34.46L206.357 28.07C206.087 27.8 205.952 27.395 205.952 26.99V18.125H210.227L213.962 21.815V24.11C213.962 24.425 214.052 24.74 214.277 24.965L215.672 26.585C215.897 26.855 216.257 26.99 216.617 26.99ZM206.447 11.51C206.132 11.195 205.952 10.79 205.952 10.34V8.585V0.304999H211.307L215.042 3.995V8.27C215.042 8.585 215.177 8.945 215.402 9.17L219.497 13.13C219.722 13.4 220.037 13.535 220.397 13.535H249.872V17.81L246.182 21.5H217.112C216.662 21.5 216.257 21.365 215.942 21.05L206.447 11.51ZM220.757 0.304999H253.832V4.58L250.142 8.315H217.067V3.995L220.757 0.304999ZM265.462 26.585C265.687 26.855 266.047 26.99 266.407 26.99H292.867V31.31L289.177 35H262.987C262.492 35 262.042 34.82 261.682 34.46L256.147 28.07C255.877 27.755 255.742 27.395 255.742 26.99V18.71H260.017L263.752 22.4V24.11C263.752 24.425 263.842 24.74 264.067 24.965L265.462 26.585ZM303.352 23.84C303.667 24.2 303.847 24.605 303.847 25.055V30.86L299.707 35H295.072V26.45L290.437 21.905C290.167 21.68 289.852 21.545 289.537 21.545H267.172C266.722 21.545 266.317 21.365 266.002 21.05L256.372 11.465C256.057 11.15 255.877 10.7 255.877 10.25V4.445L260.017 0.304999H264.652V8.855L269.107 13.175C269.332 13.4 269.647 13.535 270.007 13.535H292.327C292.777 13.535 293.227 13.715 293.542 14.03L303.352 23.84ZM303.577 7.235C303.847 7.55 303.982 7.91 303.982 8.315V16.595H299.707L295.972 12.905V11.195C295.972 10.88 295.882 10.565 295.657 10.34L294.262 8.72C294.037 8.45 293.677 8.315 293.317 8.315H266.857V3.995L270.547 0.304999L296.827 0.349998C297.277 0.349998 297.772 0.574998 298.087 0.934999L303.577 7.235Z" fill="#F3F3F3"/>
</svg>
