<svg width="106" height="49" viewBox="0 0 106 49" fill="none" xmlns="http://www.w3.org/2000/svg">
<path d="M53.1026 16.0684H46.3077H43.8718V11.6524V8.09117V3.90313V0H39V20H53.1026V16.0684Z" fill="black"/>
<path d="M65.297 11.4672C64.5933 10.5641 63.6646 9.99145 62.505 9.74359C63.5307 9.43875 64.3512 8.89744 64.9694 8.11966C65.5876 7.34188 65.8953 6.36182 65.8953 5.18519C65.8953 3.58974 65.3198 2.32764 64.1717 1.39601C63.0235 0.464388 61.4309 0 59.3996 0H47.769V3.90313H58.4594C59.2571 3.90313 59.8697 4.08262 60.297 4.44445C60.7244 4.80627 60.9381 5.32764 60.9381 6.0114C60.9381 6.69516 60.7244 7.21368 60.297 7.5641C59.8697 7.91453 59.2571 8.09117 58.4594 8.09117H47.769V11.6524H58.8013C59.619 11.6524 60.26 11.8519 60.7244 12.2507C61.1888 12.6496 61.4224 13.1994 61.4224 13.9031C61.4224 14.6068 61.2002 15.1425 60.7529 15.5128C60.3056 15.8832 59.676 16.0684 58.8583 16.0684H56.9998V20H59.713C61.8013 20 63.4309 19.51 64.599 18.5328C65.7671 17.5556 66.3512 16.2308 66.3512 14.5584C66.3512 13.3989 66.0007 12.3704 65.297 11.4672Z" fill="black"/>
<path d="M2.8 40.78H9.4V43H0V29.04H2.8V40.78Z" fill="black"/>
<path d="M10.2597 37.42C10.2597 36.3 10.4797 35.3067 10.9197 34.44C11.373 33.5733 11.9797 32.9067 12.7397 32.44C13.513 31.9733 14.373 31.74 15.3197 31.74C16.1464 31.74 16.8664 31.9067 17.4797 32.24C18.1064 32.5733 18.6064 32.9933 18.9797 33.5V31.92H21.7997V43H18.9797V41.38C18.6197 41.9 18.1197 42.3333 17.4797 42.68C16.853 43.0133 16.1264 43.18 15.2997 43.18C14.3664 43.18 13.513 42.94 12.7397 42.46C11.9797 41.98 11.373 41.3067 10.9197 40.44C10.4797 39.56 10.2597 38.5533 10.2597 37.42ZM18.9797 37.46C18.9797 36.78 18.8464 36.2 18.5797 35.72C18.313 35.2267 17.953 34.8533 17.4997 34.6C17.0464 34.3333 16.5597 34.2 16.0397 34.2C15.5197 34.2 15.0397 34.3267 14.5997 34.58C14.1597 34.8333 13.7997 35.2067 13.5197 35.7C13.253 36.18 13.1197 36.7533 13.1197 37.42C13.1197 38.0867 13.253 38.6733 13.5197 39.18C13.7997 39.6733 14.1597 40.0533 14.5997 40.32C15.053 40.5867 15.533 40.72 16.0397 40.72C16.5597 40.72 17.0464 40.5933 17.4997 40.34C17.953 40.0733 18.313 39.7 18.5797 39.22C18.8464 38.7267 18.9797 38.14 18.9797 37.46Z" fill="black"/>
<path d="M34.9344 31.92L28.0744 48.24H25.0944L27.4944 42.72L23.0544 31.92H26.1944L29.0544 39.66L31.9544 31.92H34.9344Z" fill="black"/>
<path d="M46.1437 37.22C46.1437 37.62 46.1171 37.98 46.0638 38.3H37.9637C38.0304 39.1 38.3104 39.7267 38.8037 40.18C39.2971 40.6333 39.9037 40.86 40.6237 40.86C41.6637 40.86 42.4038 40.4133 42.8438 39.52H45.8638C45.5438 40.5867 44.9304 41.4667 44.0238 42.16C43.1171 42.84 42.0037 43.18 40.6838 43.18C39.6171 43.18 38.6571 42.9467 37.8037 42.48C36.9637 42 36.3037 41.3267 35.8237 40.46C35.3571 39.5933 35.1237 38.5933 35.1237 37.46C35.1237 36.3133 35.3571 35.3067 35.8237 34.44C36.2904 33.5733 36.9437 32.9067 37.7837 32.44C38.6237 31.9733 39.5904 31.74 40.6838 31.74C41.7371 31.74 42.6771 31.9667 43.5037 32.42C44.3438 32.8733 44.9904 33.52 45.4437 34.36C45.9104 35.1867 46.1437 36.14 46.1437 37.22ZM43.2437 36.42C43.2304 35.7 42.9704 35.1267 42.4637 34.7C41.9571 34.26 41.3371 34.04 40.6037 34.04C39.9104 34.04 39.3237 34.2533 38.8438 34.68C38.3771 35.0933 38.0904 35.6733 37.9837 36.42H43.2437Z" fill="black"/>
<path d="M50.9875 33.64C51.3475 33.0533 51.8142 32.5933 52.3875 32.26C52.9742 31.9267 53.6408 31.76 54.3875 31.76V34.7H53.6475C52.7675 34.7 52.1008 34.9067 51.6475 35.32C51.2075 35.7333 50.9875 36.4533 50.9875 37.48V43H48.1875V31.92H50.9875V33.64Z" fill="black"/>
<path d="M64.1934 35.84C64.9801 35.9867 65.6268 36.38 66.1334 37.02C66.6401 37.66 66.8934 38.3933 66.8934 39.22C66.8934 39.9667 66.7068 40.6267 66.3334 41.2C65.9734 41.76 65.4468 42.2 64.7534 42.52C64.0601 42.84 63.2401 43 62.2934 43H56.2734V29.04H62.0334C62.9801 29.04 63.7934 29.1933 64.4734 29.5C65.1668 29.8067 65.6868 30.2333 66.0334 30.78C66.3934 31.3267 66.5734 31.9467 66.5734 32.64C66.5734 33.4533 66.3534 34.1333 65.9134 34.68C65.4868 35.2267 64.9134 35.6133 64.1934 35.84ZM59.0734 34.8H61.6334C62.3001 34.8 62.8134 34.6533 63.1734 34.36C63.5334 34.0533 63.7134 33.62 63.7134 33.06C63.7134 32.5 63.5334 32.0667 63.1734 31.76C62.8134 31.4533 62.3001 31.3 61.6334 31.3H59.0734V34.8ZM61.8934 40.72C62.5734 40.72 63.1001 40.56 63.4734 40.24C63.8601 39.92 64.0534 39.4667 64.0534 38.88C64.0534 38.28 63.8534 37.8133 63.4534 37.48C63.0534 37.1333 62.5134 36.96 61.8334 36.96H59.0734V40.72H61.8934Z" fill="black"/>
<path d="M68.205 37.42C68.205 36.3 68.425 35.3067 68.865 34.44C69.3183 33.5733 69.925 32.9067 70.685 32.44C71.4583 31.9733 72.3183 31.74 73.265 31.74C74.0917 31.74 74.8117 31.9067 75.425 32.24C76.0517 32.5733 76.5517 32.9933 76.925 33.5V31.92H79.745V43H76.925V41.38C76.565 41.9 76.065 42.3333 75.425 42.68C74.7983 43.0133 74.0717 43.18 73.245 43.18C72.3117 43.18 71.4583 42.94 70.685 42.46C69.925 41.98 69.3183 41.3067 68.865 40.44C68.425 39.56 68.205 38.5533 68.205 37.42ZM76.925 37.46C76.925 36.78 76.7917 36.2 76.525 35.72C76.2583 35.2267 75.8983 34.8533 75.445 34.6C74.9917 34.3333 74.505 34.2 73.985 34.2C73.465 34.2 72.985 34.3267 72.545 34.58C72.105 34.8333 71.745 35.2067 71.465 35.7C71.1983 36.18 71.065 36.7533 71.065 37.42C71.065 38.0867 71.1983 38.6733 71.465 39.18C71.745 39.6733 72.105 40.0533 72.545 40.32C72.9983 40.5867 73.4783 40.72 73.985 40.72C74.505 40.72 74.9917 40.5933 75.445 40.34C75.8983 40.0733 76.2583 39.7 76.525 39.22C76.7917 38.7267 76.925 38.14 76.925 37.46Z" fill="black"/>
<path d="M88.4197 31.76C89.7397 31.76 90.8064 32.18 91.6197 33.02C92.433 33.8467 92.8397 35.0067 92.8397 36.5V43H90.0397V36.88C90.0397 36 89.8197 35.3267 89.3797 34.86C88.9397 34.38 88.3397 34.14 87.5797 34.14C86.8064 34.14 86.193 34.38 85.7397 34.86C85.2997 35.3267 85.0797 36 85.0797 36.88V43H82.2797V31.92H85.0797V33.3C85.453 32.82 85.9263 32.4467 86.4997 32.18C87.0863 31.9 87.7263 31.76 88.4197 31.76Z" fill="black"/>
<path d="M101.862 43L98.1023 38.28V43H95.3023V28.2H98.1023V36.62L101.822 31.92H105.462L100.582 37.48L105.502 43H101.862Z" fill="black"/>
</svg>
