<?xml version="1.0" encoding="UTF-8"?><svg id="a" xmlns="http://www.w3.org/2000/svg" width="291.2" height="292.6" viewBox="0 0 291.2 292.6"><path d="m232.541-36.8H58.659C5.919-36.8-36.8,5.919-36.8,58.659v173.881c0,52.741,42.719,95.459,95.459,95.459h173.881c52.741,0,95.459-42.719,95.459-95.459V58.659c0-52.741-42.719-95.459-95.459-95.459Z" style="fill:#ed5ad5; stroke-width:0px;"/><path d="m48.7,109.3h-.2v48.4c0,54.8,45.2,99.3,101.4,100.3,17.4.3,33.9-3.7,48.4-11,1.2-.6,2.4-1.2,3.5-1.8,39.3-21.8,55.8-71.4,39.2-124.8-4.1-13.3-11.1-7.3-20.7-18.4-3.6-4.2,13.5.9,6.3,2.2-35.9,6.5-20.3,46.1-20.4,60.3-.1,25.5-20.5,46.5-51,46.5-32.7,0-58.7-20.8-58.7-48.6v-49.1h.2c-.1-5.1.9-9.6,2.8-13.1" style="stroke-width:0px;"/><path d="m196.3,192.9c4.2-4.1,4.6-8,6.6-13,.6-1.6,1.8-2.8,3.2-3.8,2.9-2.2,2.8-7.1,2.2-11.1-.5-2.8.3-5.6,2.2-7.8,2.8-3.2.9-9,.5-10-2-4.5-2.3-6-3.2-7.6-.3-.5-.4-1-.3-1.7v-.6c.1-.5.1-.8.1-1,.7-1.6,4.9-12.2-3.9-15.8l-.6-.3s0-.2.1-.6c.4-2.5,1.5-11.5-4.4-12.1-2.3-.2-4.4-1.5-6-3-.8-.7-1.7-1.3-2.9-1.5-2-.3-3.9-1.2-5.4-2.5-2.9-2.6-7.9-5.9-14.6-5.9-1.8,0-3.5-.4-5-1.2-2.3-1.2-4.4-.8-6-.2h0c-1.4-1.2-3.4-2.1-5.7-1.3-1.3-.6-2.6-.6-3.7-.3-1.5.4-3.1.4-4.6.1-1.1-.2-2.2-.1-3.5.4-1.6.6-3.4.8-5.1.6-6.7-.7-12,2.1-15.1,4.3-1.6,1.2-3.6,1.9-5.6,1.9-1.1,0-2.1.5-3,1.1-1.8,1.4-4,2.4-6.4,2.4-5.8,0-5.8,9-5.6,11.5v.6c-.2.1-.4.1-.6.2-9.2,2.7-6,13.7-5.5,15.3v1.6c0,.7-.2,1.3-.5,1.7-1,1.5-3.3,2.3-4,7.2-.2,1.2-.2,2.2-.1,3-.5,2.3-.1,5.1.9,7.1s2.2,4.4,1.1,6.3c-1.9,3.3-2.5,7-1.9,8.9.9,2.8,3.9,3.1,4.4,4.6.2.7,1.3,3.8,1.5,4.4,4.6,12.3,11.2,18.5,15.8,23,12.5,12.5,51.2,27.8,84.6-4.9h0Z" style="fill:#fff; stroke-width:0px;"/><path d="m151.2,214.8c-18.4,0-33.9-8.2-41.1-15.2l-.5-.5c-4.8-4.6-11.3-11-15.9-23.4-.2-.7-1.3-3.9-1.6-4.5,0,.1-.4-.2-.7-.4-1.1-.7-2.9-1.9-3.6-4.2-.9-2.7-.1-7,2-10.7.5-.9-.5-2.8-1.2-4.2-1.2-2.4-1.7-5.5-1.2-8.2-.1-1,0-2.1.1-3.2.6-4.4,2.5-6.2,3.7-7.4l.7-.7c.1-.1.1-.2.1-.4v-1.3c-.6-2.2-1.9-8,.6-12.6,1.2-2.2,3.1-3.8,5.6-4.8-.1-2.8.3-7.9,2.9-10.7,1.3-1.4,3-2.1,4.9-2.1h0c1.6,0,3.3-.7,5-2,1.3-1,2.7-1.5,4.2-1.6,1.6-.1,3.1-.6,4.4-1.5,3.6-2.6,9.4-5.5,16.7-4.7,1.4.2,2.9,0,4.1-.5,1.5-.6,3.1-.8,4.6-.5,1.4.2,2.6.2,3.7-.1,1.5-.4,3-.4,4.4.1,1.6-.4,3.7-.3,6,1.1,2.3-.6,4.6-.4,6.6.7,1.2.6,2.5.9,4,.9h.1c7.3,0,12.7,3.5,16,6.4,1.2,1.1,2.7,1.8,4.2,2s2.8.9,4.1,2c1.6,1.5,3.2,2.3,4.8,2.5,1.9.2,3.5,1.1,4.7,2.6,2.4,3.1,2.2,8.1,1.8,11,2.4,1.2,4.1,3,5,5.3,2,4.8.1,10.5-.8,12.6,0,.2-.1.5-.1.8v.2c-.1.5,0,.5,0,.6.5,1,.9,1.8,1.4,3.1.4,1.1,1,2.5,1.9,4.6,0,.1,3.2,7.6-.8,12.3-1.4,1.7-2,3.9-1.7,6,1,6.5,0,11-3,13.2-1.3.9-2.1,1.9-2.5,2.9-.5,1.2-.9,2.3-1.2,3.4-1.2,3.6-2.4,7-5.9,10.4-15.4,15.5-31.9,20.7-46.5,20.7h0Zm-45.1-110c-.7,0-1.2.2-1.7.7-1.5,1.6-1.9,5.6-1.7,8.5v.5c.1,1.1-.6,2.2-1.7,2.4-.1,0-.2.1-.4.1-2,.6-3.3,1.6-4.1,3-1.9,3.4-.4,8.6-.1,9.6.1.2.1.5.1.8v1.5c0,1-.3,2-.9,2.9-.3.4-.7.9-1.2,1.3-1,1-2,2-2.4,4.9-.1.9-.2,1.8-.1,2.5v.7c-.4,1.8-.1,4,.7,5.6,1.2,2.3,2.8,5.5,1.1,8.4-1.7,3-2,6-1.7,7.1.3.8.9,1.2,1.8,1.9.9.6,2.1,1.3,2.5,2.8.2.7,1.2,3.7,1.5,4.3,4.2,11.4,10.3,17.4,14.8,21.8l.5.5c12,11.7,49.1,26.7,81.6-5.1,2.8-2.7,3.7-5.4,4.8-8.7.4-1.1.8-2.3,1.3-3.6.7-1.8,2-3.3,3.9-4.8,1.6-1.2,2.1-4.5,1.4-9-.6-3.4.4-6.9,2.7-9.6,1.9-2.2.5-6.9.1-7.7-.9-2.2-1.5-3.6-2-4.8s-.8-1.9-1.1-2.6c-.5-.9-.7-1.9-.6-3v-.6c0-.4.1-.6.1-.8,0-.3.1-.5.2-.8.4-1,2.4-5.9.9-9.5-.6-1.5-1.8-2.6-3.6-3.4-.1,0-.2-.1-.3-.2-1.1-.4-1.9-1.6-1.6-2.7v-.3c.5-3,.6-7-.8-8.8-.4-.5-.9-.8-1.6-.9-2.5-.3-5-1.5-7.3-3.6-.6-.5-1.1-.8-1.7-.9-2.4-.3-4.7-1.4-6.5-3.1-2.7-2.4-7.2-5.3-13.1-5.3h-.1c-2.1,0-4.2-.5-6-1.4-1.3-.7-2.6-.7-4.1-.1-.3.1-.6.2-1,.2-.5,0-.9-.2-1.3-.5-1.6-1.4-2.8-1.2-3.6-.9-.5.2-1.1.2-1.7-.1-.7-.4-1.4-.4-2.2-.2-1.7.5-3.5.5-5.5.2-.8-.1-1.6,0-2.3.3-1.9.7-4,1-6.2.8-5.9-.6-10.7,1.8-13.6,3.9-2,1.4-4.4,2.2-6.8,2.4-.6,0-1.2.3-1.8.7-2.5,1.8-5,2.7-7.6,2.7h0Z" style="stroke-width:0px;"/><path d="m116,134.8v-.5l-.1.6c0-.1.1-.3.1-.3-.1.3-.2.4,0,.2v-.1c.2-.4-.4.3,0,.1,0-.1.4-.4.1-.2-.3.3.1,0,.1-.1.1,0,.1-.1.2-.1-.3.1-.4.2-.2.1.3-.1.6-.2.9-.2l-.6.1c.6-.1,1.1-.1,1.7,0l-.6-.1c.3.1.7.1,1,.2.2.1.8.4.1,0,.1.1.3.1.5.2.1,0,.4.3.4.3,0,0-.4-.4-.2-.1q.1.1.2.2t.1.2c.2.2-.3-.5-.1-.2.1.2.2.3.3.5.2.5.8.9,1.3,1s1.3.1,1.7-.2c1.1-.7,1.3-1.9.8-3.1-1.1-2.3-3.7-3.3-6.1-3.5-1.3-.1-2.9.1-4,.9-1.3.9-2.3,2.4-2.1,4,.1.6.2,1.1.7,1.6.4.4,1,.7,1.6.7,1.1,0,2.4-.9,2.2-2.2h0Z" style="stroke-width:0px;"/><path d="m145.6,141.9v-.3c0,.2-.1.4-.1.6,0-.1.1-.4,0,0s0,.1,0,0c.1-.2-.4.4-.1.1.1-.1.3-.3,0-.1s-.1.1,0,0c.3-.2-.1,0-.2,0,.1-.1.5-.1.7-.1l-.6.1h1.2l-.6-.1c.4.1.9.2,1.3.3.1,0,.2.1.3.1.3.1-.5-.2-.2-.1.2.1.4.2.6.3.2.1.3.2.5.3s-.4-.3-.1-.1c.1.1.2.2.3.2.2.1.3.3.4.4,0,0,.2.2.2.3,0-.1-.4-.5-.1-.1.3.5.8.9,1.3,1s1.3.1,1.7-.2c.9-.6,1.5-2.1.8-3.1-1.3-1.9-3.2-3.3-5.5-3.7-1.4-.3-2.9-.3-4.2.4s-2.2,2.1-2.2,3.6c0,1.2,1,2.3,2.2,2.2,1.3.2,2.4-.8,2.4-2h0Z" style="stroke-width:0px;"/><path d="m174.7,126.1c.1.7.1.4.1.2,0-.5,0,.2,0,.2-.1,0,0-.3-.1-.4.2-.2-.2.6,0,.2.1-.1.2-.2.2-.3,0,.1-.3.4-.1.2.1-.1.2-.2.3-.3.2-.2-.1.1-.2.1.1,0,.2-.2.3-.2.3-.2-.1,0-.2.1.2,0,.4-.1.6-.2q-.4,0-.3,0h.7c.2,0,.1,0-.3,0,.1,0,.2,0,.3.1.1,0,.2.1.3.1s.5.2.1,0c-.3-.2.1,0,.1.1.1,0,.2.1.3.2s.2.1.3.2c.3.2-.3-.2-.1-.1.2.2.4.3.5.5.1.1.2.2.2.3l.1.1q.1.1,0,0c-.1-.3,0,0,.1.1s.1.2.2.3c.3.4.5.8.7,1.3.5,1.1,2.1,1.4,3.1.8,1.1-.7,1.4-1.9.8-3.1-.6-1.2-1.4-2.4-2.4-3.3-1.3-1.1-2.7-1.8-4.4-2s-3.2.4-4.4,1.4c-.6.6-1.1,1.3-1.4,2.1-.3.8-.3,1.6-.2,2.5.1.5.6,1.1,1,1.3.5.3,1.2.4,1.7.2s1.1-.5,1.3-1c.9-.5.9-1.1.8-1.7h0Z" style="stroke-width:0px;"/><path d="m159,163.3c.7-.5,1.4-1.1,2.2-1.5.2-.1.4-.2.6-.3.1,0,.2-.1.3-.1.2-.1-.4.2-.1,0,.2-.1.4-.1.6-.2.2-.1.8-.1.1-.1h1c.3,0-.6-.1-.2,0h.2c.2,0,.3.1.5.2.2.1-.5-.2-.2-.1.1,0,.1.1.2.1.1.1.2.1.2.2.2.1-.3-.3-.2-.1,0,.1.1.1.2.2.2.2-.1-.1-.1-.2.1.2.4.8.1.1.2.6.5,1,1,1.3s1.2.4,1.7.2c1-.3,2.1-1.6,1.6-2.8s-1.2-2.2-2.4-2.8c-1-.5-2.2-.8-3.4-.8-2.4.1-4.5,1.4-6.3,2.8-.5.4-.9.7-1,1.3-.2.5-.1,1.3.2,1.7.7,1,2.2,1.6,3.2.9h0Z" style="stroke-width:0px;"/><path d="m179.5,156.1c.6-.8.9-1.5,1-2.5v-1c0-.2.1-.6,0,.1.1-.4-.2.3-.1.1.1-.2-.4.4-.1.2.3-.3-.5.2-.1.1.1,0,.4-.2,0,0s0,0,.1,0,.3,0,.4-.1c-.1.1-.6.1-.2,0h.9c.2,0,.1,0-.2,0,.1-.1.7.1.8.1.6.1,1.1.3,1.6.5.4.1-.3-.1-.1,0,.1.1.2.1.3.2.3.1.5.3.8.4.2.1.4.3.6.4.1,0,.1.1.2.1q.1.1-.2-.1c.1,0,.3.2.4.3.9.8,2.3.9,3.2,0,.8-.8,1-2.4,0-3.2-2.2-1.9-5-3.2-7.9-3.2-1.4,0-2.9.4-3.9,1.5-.6.8-.9,1.6-1,2.6v.8c0,.1,0,.7,0,.2q0-.2,0-.1c.1-.2.2-.4.3-.6-.4.5-.7.9-.7,1.6,0,.6.2,1.2.7,1.6.8.7,2.4.9,3.2,0h0Z" style="stroke-width:0px;"/><path d="m146.7,119c0-.1-.1-.1-.1-.2l.2.5c-.1-.2-.1-.4-.2-.7,0,.2.1.4.1.6v-.8l-.1.6c0-.3.1-.5.2-.8l-.1.8c0-.3.2-.5.3-.7l-.4.5.5-.5-.5.4c.2-.2.4-.3.7-.4l-.5.2c.3-.1.6-.2,1-.3l-.6.1c.4-.1.8-.1,1.1,0l-.6-.1c.4.1.8.2,1.2.3l-.5-.2c.4.2.7.4,1.1.6l-.5-.3c.3.2.6.5.8.8l-.4-.5c.2.2.3.5.4.8.2.5.9.9,1.3,1,.5.1,1.3.1,1.7-.2.5-.3.9-.8,1-1.3.1-.6,0-1.1-.2-1.7-.5-1.2-1.6-2.2-2.8-2.8-1.4-.7-2.9-.9-4.5-.6s-3,1.3-3.7,2.7c-.8,1.6-.8,3.2,0,4.8.5,1.1,2.1,1.4,3.1.8,1.3-1,1.6-2.3,1-3.4h0Z" style="stroke-width:0px;"/><path d="m121.9,157.2c-.1-.2-.1-.4-.2-.6.1.1.1.3.2.6-.1-.3-.1-.7-.1-1,0,.2-.1.4-.1.6.1-.3.1-.7.3-1l-.2.5c.1-.3.3-.6.5-.9l-.4.5c.2-.2.4-.5.7-.7l-.5.4c.3-.2.5-.4.8-.5l-.5.2c.3-.1.6-.2.9-.2l-.6.1h1.1l-.6-.1c.4.1.8.2,1.2.3l-.5-.2c.3.1.6.3.9.5l-.5-.3c.2.2.5.4.7.7l-.4-.5c.1.1.2.3.3.4.6,1,2.1,1.5,3.1.8,1-.7,1.4-2,.8-3.1-1.1-1.9-3.5-3.2-5.7-3.1-1.1.1-2.3.4-3.2,1.1-1.1.8-1.8,1.8-2.3,3-.4,1.1-.5,2.5-.1,3.7.4,1.1,1.6,2,2.8,1.6,1.1-.4,2-1.7,1.6-2.8h0Z" style="stroke-width:0px;"/><path d="m133.7,178.5c.1,0,.3-.1.5-.1l-.6.1c.6-.1,1.1-.1,1.7,0l-.6-.1c.6.1,1.1.2,1.6.4l-.5-.2c.5.2,1,.5,1.4.8l-.5-.4c.4.3.7.7,1,1l-.3-.5c.1.2.2.3.3.4.6,1,2,1.5,3.1.8,1-.7,1.5-2,.8-3.1-1.9-3.1-5.7-4.5-9.1-3.7-1.1.2-1.9,1.7-1.6,2.8.4,1.4,1.6,2.1,2.8,1.8h0Z" style="stroke-width:0px;"/><path d="m171,69.4c-21.4-31.2-58.2-25.3-58.2-25.3-21.5,3.3-37,20.1-37,20.1-5.6,6.8-9.5,13.9-12,21.1,1.8,9.3,8,18,22.4,23-.4,6.2,0,13.1,4,8.5,0,0-3.1-4.7-.3,2,1.8,4.4,8.3-7.3,13.1-6.8.1,0,.3,0,.4.1,2.7.3,5.1-1.1,6.7-3.2,1.8-2.5,4.6-4.2,8.3-4.8,5.8-.9,15.3.5,21.4.4,4.9-.1,9.8-.6,14.5-1.9,32-8.4,16.7-33.2,16.7-33.2Z" style="stroke-width:0px;"/><path d="m150.2,66.3c-5.6,0-10.5-3.8-11.9-9.3-.8-3.2-.3-6.4,1.4-9.2s4.4-4.7,7.5-5.5c1-.2,1.9-.3,2.9-.3,5.6,0,10.5,3.8,11.8,9.3.8,3.2.3,6.4-1.4,9.2s-4.4,4.7-7.5,5.5c-.9.1-1.9.3-2.8.3Z" style="fill:#fff; stroke-width:0px;"/><path d="m150.2,43.5c4.8,0,9.1,3.2,10.3,8.1,1.4,5.7-2.1,11.4-7.8,12.8-.8.2-1.7.3-2.5.3-4.8,0-9.1-3.2-10.3-8.1-1.4-5.7,2.1-11.4,7.8-12.8.8-.2,1.7-.3,2.5-.3Zm0-3.3c-1.1,0-2.2.1-3.3.4-7.4,1.8-12,9.3-10.2,16.7,1.5,6.2,7,10.6,13.4,10.6,1.1,0,2.2-.1,3.3-.4,7.4-1.8,12-9.3,10.2-16.7-1.5-6.2-7-10.6-13.4-10.6Z" style="stroke-width:0px;"/><path d="m150.1,60.6c3.8,0,6.9-3.1,6.9-6.9s-3.1-6.9-6.9-6.9-6.9,3.1-6.9,6.9c0,3.8,3.1,6.9,6.9,6.9Z" style="stroke-width:0px;"/><path d="m150.1,61.2c-1.4,0-2.7-.4-3.9-1.1-1.7-1-2.9-2.7-3.4-4.6-.5-1.9-.2-4,.9-5.7,1-1.7,2.7-2.9,4.6-3.4s4-.2,5.7.9c1.7,1,2.9,2.7,3.4,4.7s.2,4-.9,5.7-2.7,2.9-4.6,3.4c-.7.1-1.3.2-1.8.1h0Zm0-13.7c-.5,0-1,.1-1.5.2-1.6.4-3,1.4-3.9,2.8-.9,1.4-1.1,3.1-.7,4.7.4,1.6,1.4,3,2.8,3.9,1.4.9,3.1,1.1,4.7.7s3-1.4,3.9-2.8c.9-1.4,1.1-3.1.7-4.7-.4-1.6-1.4-3-2.8-3.9-1-.6-2.1-.9-3.2-.9h0Z" style="fill:#fff; stroke-width:0px;"/><path d="m120.7,79.3c-5.6,0-10.5-3.8-11.9-9.3-1.6-6.5,2.4-13.1,9-14.7.9-.2,1.9-.4,2.9-.4,5.6,0,10.5,3.8,11.9,9.3,1.6,6.5-2.4,13.1-9,14.7-.9.3-1.9.4-2.9.4h0Z" style="fill:#fff; stroke-width:0px;"/><path d="m120.7,56.6c4.8,0,9.1,3.2,10.3,8.1,1.4,5.7-2.1,11.4-7.8,12.8-.8.2-1.7.3-2.5.3-4.8,0-9.1-3.2-10.3-8.1-1.4-5.7,2.1-11.4,7.8-12.8.9-.2,1.7-.3,2.5-.3Zm0-3.3c-1.1,0-2.2.1-3.3.4-7.4,1.8-12,9.3-10.2,16.7,1.5,6.2,7,10.6,13.4,10.6,1.1,0,2.2-.1,3.3-.4,3.6-.9,6.6-3.1,8.5-6.2,1.9-3.2,2.5-6.9,1.6-10.5-1.3-6.3-6.9-10.6-13.3-10.6Z" style="stroke-width:0px;"/><path d="m120.6,73.7c3.8,0,6.9-3.1,6.9-6.9s-3.1-6.9-6.9-6.9-6.9,3.1-6.9,6.9,3.1,6.9,6.9,6.9Z" style="stroke-width:0px;"/><path d="m120.6,74.3c-1.4,0-2.7-.4-3.9-1.1-1.7-1-2.9-2.7-3.4-4.6-1-4,1.5-8.1,5.5-9.1s8.1,1.5,9.1,5.5-1.5,8.1-5.5,9.1c-.6.1-1.2.2-1.8.2h0Zm-6-6c.4,1.6,1.4,3,2.8,3.9s3.1,1.1,4.7.7c3.4-.8,5.4-4.2,4.6-7.6s-4.2-5.4-7.6-4.6c-3.3.8-5.4,4.2-4.5,7.6h0Z" style="fill:#fff; stroke-width:0px;"/><path d="m167.7,71.8s-3.3-5.2-10.1-.2c-6.6,4.9-6.4,6.1-24.7,8-2.9.3-5.6,2.2-6.3,5-.5,2-.3,4.6,1.7,7.4,5.7,8.2,24.6,4.7,31.7.3,7.2-4.3,12.7-13.1,7.7-20.5h0Z" style="fill:#fff; stroke-width:0px;"/><path d="m141.3,90.3c-1.5,0-3.1-.1-4.8-.4-1.4-.2-2.3-1.5-2.1-2.8.2-1.4,1.5-2.3,2.8-2.1,14.6,2.2,22.9-8.6,23-8.7.8-1.1,2.4-1.3,3.5-.5s1.3,2.4.5,3.5c-.4.5-8.4,11-22.9,11h0Z" style="stroke-width:0px;"/><path d="m77.6,83.5c-1.5-3-4.2-5.3-7.5-6.1-5.5-1.2-14.9-1.4-26.4,5.6-18.8,11.4,11,49.7,24.5,35.9,6.4-6.5,10.1-12,12.3-16,2.1-3.8,2.3-8.4.5-12.3l-3.4-7.1h0Z" style="fill:#fff; stroke-width:0px;"/><path d="m61.3,124.3c-1.6,0-3.3-.3-5.1-.9-10-3.5-19.7-16.2-20.9-27.2-.7-6.7,1.8-12.2,7.1-15.4,12-7.3,22-7.2,28.2-5.8,3.9.9,7.3,3.6,9.2,7.4l3.5,7c2.2,4.7,2,10.2-.5,14.6-2.9,5.3-7.2,10.9-12.7,16.5-2.5,2.6-5.5,3.8-8.8,3.8h0Zm2.5-45c-5,0-11.4,1.3-18.7,5.8-3.7,2.2-5.3,5.8-4.8,10.6,1,9,9.5,20.2,17.6,23,3.5,1.2,6.4.7,8.6-1.6,5.1-5.2,9.2-10.6,11.9-15.4,1.7-3.1,1.9-6.9.4-10.1l-3.4-7c-1.2-2.4-3.3-4.2-5.8-4.7-1.7-.3-3.6-.6-5.8-.6h0Z" style="stroke-width:0px;"/><path d="m39,103.6c-.7,0-1.3-.3-1.8-.8-.9-1-.9-2.6.1-3.5.6-.6,15.2-14,40.6-15.9,1.4-.1,2.6.9,2.7,2.3s-.9,2.6-2.3,2.7c-23.6,1.8-37.4,14.5-37.5,14.6-.6.3-1.2.6-1.8.6h0Z" style="stroke-width:0px;"/><path d="m47.7,116.6c-.6,0-1.3-.2-1.8-.7-1-1-1-2.5,0-3.5.8-.8,18.9-18.9,34.7-22.6,1.4-.3,2.7.5,3,1.9.3,1.3-.5,2.7-1.9,3-14.4,3.4-32.2,21.1-32.3,21.3-.5.4-1.1.6-1.7.6Z" style="stroke-width:0px;"/><path d="m218.1,130c-2.4-1.1-4.6-2.8-6.1-5.1-6.6-9.6-12.3-24.6-13.1-31.1-.9-8.1-2.6-14.3,16.1-23,8.4-3.9,14.5-3.6,18.5-2.2,3.1,1,5.6,3.1,7.5,5.7,14.4,19.9,6.8,38.3,0,48.5-1.7,2.6-4,4.7-6.6,6.2-3.4-24.6-13.3-44.7-13.3-44.7,4,9.7-.9,35.8-3,45.7h0Z" style="fill:#fff; stroke-width:0px;"/><path d="m218.1,132.4c-.4,0-.7-.1-1-.2-2.9-1.3-5.4-3.4-7.2-6-6.7-9.6-12.7-25.2-13.5-32.2l-.1-1.2c-1.1-9.3-.4-16,17.7-24.4,9.4-4.4,16.3-3.7,20.4-2.3,3.4,1.1,6.4,3.4,8.7,6.6,15.5,21.5,6.6,41.4,0,51.3-1.9,2.9-4.5,5.2-7.5,6.9-.7.4-1.6.4-2.3.1-.7-.4-1.2-1.1-1.4-1.9-1.5-10.9-4.3-20.9-7-28.7-.6,11-3,23.4-4.4,30-.2.7-.6,1.4-1.3,1.7-.4.2-.7.3-1.1.3h0Zm9.5-62.3c-3.5,0-7.4,1-11.6,2.9-16.2,7.5-15.6,12.2-14.8,19.3l.1,1.2c.6,5.6,6,20.3,12.6,30,.7,1,1.5,1.8,2.4,2.6,2.1-10.5,5.8-32.6,2.4-40.9-.5-1.2,0-2.7,1.3-3.2,1.2-.6,2.7,0,3.2,1.2.4.8,9.1,18.6,12.9,41.4,1-.9,1.9-2,2.7-3.2,7.2-10.8,13.2-27.5.1-45.6-1.7-2.3-3.9-4-6.3-4.8-1.4-.7-3.2-.9-5-.9h0Z" style="stroke-width:0px;"/><path d="m224.6,131.3h-.2c-2.2,0-4.4-.5-6.3-1.4,2.1-9.9,7-36,2.9-45.8,0,0,9.9,20,13.3,44.7-2.9,1.7-6.2,2.6-9.7,2.5h0Z" style="stroke-width:0px;"/><path d="m224.7,133.8h-.5c-2.4,0-4.9-.6-7.2-1.6-1.1-.5-1.6-1.6-1.4-2.8,1.7-8,6.9-34.9,3.1-44.4-.5-1.2.1-2.7,1.3-3.2,1.2-.6,2.7,0,3.2,1.2.4.8,10.1,20.7,13.5,45.4.1,1-.4,2-1.2,2.5-3.3,2-7,2.9-10.8,2.9h0Zm-.2-5h.2c2.4,0,4.7-.5,6.9-1.5-1.6-10.2-4.2-19.6-6.7-26.9-.6,9.9-2.5,21-3.9,27.9,1.1.4,2.2.5,3.5.5q-.1,0,0,0Z" style="stroke-width:0px;"/><path d="m230.9,119.4c-.4,0-.7-.1-1.1-.2-1.2-.6-1.8-2.1-1.2-3.3l7.4-15.4c.6-1.2,2.1-1.8,3.3-1.2,1.2.6,1.8,2.1,1.2,3.3l-7.4,15.4c-.4.9-1.3,1.4-2.2,1.4Z" style="stroke-width:0px;"/><path d="m226.8,110c-.4,0-.7-.1-1.1-.2-1.2-.6-1.8-2.1-1.2-3.3l7.4-15.4c.6-1.2,2.1-1.8,3.3-1.2,1.2.6,1.8,2.1,1.2,3.3l-7.4,15.3c-.4,1-1.3,1.5-2.2,1.5Z" style="stroke-width:0px;"/><path d="m223.2,100.7c-.4,0-.7-.1-1.1-.2-1.2-.6-1.8-2.1-1.2-3.3l7.4-15.4c.6-1.2,2.1-1.8,3.3-1.2,1.2.6,1.8,2.1,1.2,3.3l-7.4,15.4c-.4.9-1.2,1.4-2.2,1.4Z" style="stroke-width:0px;"/><path d="m224.3,104.1c-.7,0-1.5-.3-1.9-.9l-10.6-13.4c-.9-1.1-.7-2.6.4-3.5,1.1-.9,2.6-.7,3.5.4l10.6,13.4c.9,1.1.7,2.6-.4,3.5-.5.3-1.1.5-1.6.5Z" style="stroke-width:0px;"/><path d="m224.1,111.6c-.6,0-1.2-.2-1.6-.6l-12.4-10.8c-1-.9-1.1-2.5-.2-3.5.9-1,2.5-1.1,3.5-.2l12.4,10.8c1,.9,1.1,2.5.2,3.5-.5.5-1.2.8-1.9.8h0Z" style="stroke-width:0px;"/><path d="m222.4,120.2c-.6,0-1.2-.2-1.7-.7l-11.7-11.4c-1-1-1-2.5,0-3.5s2.5-1,3.5-.1l11.6,11.3c1,1,1,2.5,0,3.5-.4.6-1.1.9-1.7.9Z" style="stroke-width:0px;"/></svg>
