<svg width="100" height="100" viewBox="0 0 100 100" fill="none" xmlns="http://www.w3.org/2000/svg">
<rect x="2.45101" y="2.45101" width="95.098" height="95.098" rx="7.35302" fill="#0B101B"/>
<rect x="2.45101" y="2.45101" width="95.098" height="95.098" rx="7.35302" stroke="#E81899" stroke-width="4.90201"/>
<rect y="81.8633" width="50" height="16.1765" fill="#FFC6E9"/>
<rect x="50" y="81.8633" width="50" height="16.1765" fill="#FF6FC8"/>
<path d="M14.4609 81.8612H85.5394L56.5719 31.9172C56.0238 30.9723 55.014 30.3906 53.9216 30.3906H46.0787C44.9863 30.3906 43.9765 30.9723 43.4284 31.9172L14.4609 81.8612Z" fill="#FF6FC8"/>
<path d="M85.5402 81.8612L56.5727 31.9172C56.0246 30.9723 55.0148 30.3906 53.9224 30.3906H50.001V81.8612H85.5402Z" fill="#9A0060"/>
<path d="M53.9186 30.3906H46.0812C44.9873 30.3906 43.9764 30.9739 43.4289 31.9208L36.5195 43.871L43.2597 56.1259L49.9999 43.871L56.7401 56.1259L63.4803 43.871L56.5709 31.9208C56.0234 30.9739 55.0125 30.3906 53.9186 30.3906Z" fill="white"/>
</svg>
