<svg width="50" height="50" viewBox="0 0 50 50" fill="none" xmlns="http://www.w3.org/2000/svg">
<circle cx="25" cy="25" r="25" fill="#5D08C8"/>
<path d="M24.8762 9C22.3463 9 20.2955 11.0509 20.2955 13.5808C20.2955 15.2763 21.2166 16.7567 22.5858 17.5487C23.6827 18.771 24.1129 21.9789 21.8225 25.0327C19.9902 28.0866 17.3384 28.0143 16.2416 27.5964C14.7668 27.0244 13.0357 27.2327 11.7135 28.2941C9.74057 29.8777 9.425 32.7609 11.0087 34.7338C12.5923 36.7067 15.4755 37.0223 17.4484 35.4386C18.7706 34.3773 18.8799 33.1042 19.109 31.1687C19.25 29.9779 20.6008 27.5964 24.8762 27.5964C29.1517 27.5964 30.6675 29.9779 30.891 31.1687C31.1722 32.6674 31.2294 34.3773 32.5516 35.4386C34.5245 37.0223 37.4077 36.7067 38.9913 34.7338C40.575 32.7609 40.2594 29.8777 38.2865 28.2941C36.9643 27.2327 35.2332 27.0244 33.7584 27.5964C33.0881 27.5053 31.7475 28.85 28.6937 25.7962C25.9283 23.0308 26.1487 18.771 27.1666 17.5487C28.5358 16.7567 29.457 15.2763 29.457 13.5808C29.457 11.0509 27.4061 9 24.8762 9Z" fill="white"/>
</svg>
