<svg width="50" height="50" viewBox="0 0 50 50" fill="none" xmlns="http://www.w3.org/2000/svg">
<circle cx="25" cy="25" r="25" fill="#444A55"/>
<path d="M37.0106 29.9755L32.7029 24.123C32.235 23.4871 31.542 23.1061 30.8041 23.0221C30.6361 23.0026 30.4861 22.9051 30.4021 22.7581C30.3166 22.6111 30.3076 22.4326 30.3751 22.2767C30.6706 21.5957 30.6886 20.8053 30.3706 20.0823L27.4564 13.4259C27.0244 12.4375 26.048 11.8 24.9696 11.8C23.8912 11.8 22.9148 12.439 22.4828 13.4259L19.5685 20.0823C19.2521 20.8053 19.2686 21.5957 19.564 22.2767C19.6315 22.4326 19.621 22.6111 19.537 22.7581C19.4515 22.9051 19.3031 23.0026 19.1351 23.0221C18.3971 23.1061 17.7042 23.4871 17.2362 24.123L12.9286 29.9755C12.2897 30.8439 12.2252 32.0078 12.7636 32.9423C13.3036 33.8752 14.3445 34.4016 15.4154 34.2831L22.6373 33.4792C23.4217 33.3922 24.0982 32.9828 24.5391 32.3858C24.6396 32.2493 24.8001 32.1683 24.9696 32.1683C25.1391 32.1683 25.2981 32.2493 25.4 32.3858C25.841 32.9828 26.5174 33.3922 27.3019 33.4792L34.5238 34.2831C35.5947 34.4031 36.6356 33.8767 37.1756 32.9423C37.714 32.0078 37.6495 30.8439 37.0106 29.9755ZM21.4524 20.9178L24.3711 14.2538C24.4761 14.0154 24.7116 13.8609 24.9711 13.8609C25.2306 13.8609 25.466 14.0154 25.571 14.2538L28.4898 20.9178C28.5813 21.1278 28.5618 21.3707 28.4358 21.5627C28.3098 21.7547 28.0968 21.8702 27.8658 21.8702H22.0748C21.8453 21.8702 21.6309 21.7547 21.5049 21.5627C21.3789 21.3707 21.3594 21.1278 21.4509 20.9178H21.4524ZM22.9507 31.0629C22.8473 31.2684 22.6463 31.4064 22.4183 31.4319L15.1889 32.2358C14.9309 32.2643 14.6789 32.1383 14.5485 31.9133C14.418 31.6884 14.4345 31.4079 14.589 31.1979L18.9011 25.3394C19.0376 25.1549 19.2566 25.0499 19.486 25.0634C19.7155 25.0754 19.9225 25.2029 20.038 25.4024L20.0425 25.4099L22.9298 30.4105L22.9343 30.418C23.0497 30.6175 23.0557 30.8604 22.9522 31.0644L22.9507 31.0629ZM25.5635 28.8011C25.4405 29.0126 25.2156 29.1446 24.9696 29.1446C24.7251 29.1446 24.4986 29.0141 24.3756 28.8026L22.1573 24.9614C22.0343 24.75 22.0343 24.4875 22.1573 24.276C22.2803 24.0645 22.5053 23.9325 22.7513 23.9325H27.1864C27.4309 23.9325 27.6574 24.0615 27.7803 24.2745C27.9033 24.4875 27.9033 24.7485 27.7803 24.9599L25.5635 28.8011ZM35.3922 31.9133C35.2617 32.1383 35.0112 32.2658 34.7518 32.2373L27.5224 31.4334C27.2944 31.4079 27.0934 31.2699 26.9899 31.0644C26.8864 30.8589 26.8924 30.616 27.0079 30.418L27.0124 30.4105L29.8997 25.4099L29.9042 25.4024C30.0197 25.2029 30.2266 25.0754 30.4561 25.0634C30.6856 25.0514 30.9046 25.1549 31.0411 25.3394L35.3532 31.1979C35.5077 31.4079 35.5227 31.6884 35.3937 31.9133H35.3922Z" fill="#FAFAFA"/>
</svg>
