<svg width="101" height="100" viewBox="0 0 101 100" fill="none" xmlns="http://www.w3.org/2000/svg">
<rect x="2.95101" y="2.45101" width="95.098" height="95.098" rx="7.35302" fill="#0B101B"/>
<rect x="2.95101" y="2.45101" width="95.098" height="95.098" rx="7.35302" stroke="#E81899" stroke-width="4.90201"/>
<path d="M50.8684 50.5968L27 35.3133L50.8684 21L74.7368 35.3133L50.8684 50.5968Z" fill="white"/>
<path d="M50.792 50.3625L74.5761 35.3154V63.9535L50.792 79.0006V50.3625Z" fill="#E81899"/>
<path d="M50.792 50.3625L27.0078 35.3154V63.9535L50.792 79.0006V50.3625Z" fill="#9A0060"/>
<circle cx="4.31643" cy="4.31643" r="4.31643" transform="matrix(0.838671 -0.544639 0 1 59.3604 50.083)" fill="white"/>
<path d="M63.042 56.3252C59.2191 58.8078 56.1201 64.5155 56.1201 69.0737L69.9638 60.0835C69.9638 55.5253 66.8648 53.8427 63.042 56.3252Z" fill="#FFC6E9"/>
<circle cx="4.31643" cy="4.31643" r="4.31643" transform="matrix(-0.838671 -0.544639 0 1 41.9004 49.6055)" fill="white"/>
<path d="M38.2188 55.8477C42.0416 58.3303 45.1406 64.0379 45.1406 68.5961L31.297 59.6059C31.297 55.0477 34.396 53.3651 38.2188 55.8477Z" fill="#FFC6E9"/>
<path d="M39.623 40.1042L40.2155 40.489L40.2131 40.7656C40.2129 40.795 40.2311 40.8246 40.2678 40.8485L41.5172 41.6598L41.5084 42.1453L41.0671 42.421L39.0139 41.0877L39.0145 40.4844L39.623 40.1042ZM43.826 37.5364C43.8952 37.54 43.9551 37.5552 44.0011 37.585L45.1356 38.3218C45.1816 38.3516 45.2043 38.3901 45.204 38.4313L45.1922 39.779C45.1964 39.8232 45.1638 39.8612 45.1173 39.8902L42.4977 41.5271L41.7355 41.5234L41.2946 41.2371L43.9746 39.5624C44.0117 39.5392 44.0351 39.5129 44.0307 39.4805L44.042 38.7125C44.0377 38.6801 44.0195 38.6505 43.9873 38.6296L43.4958 38.3104C43.4591 38.2866 43.413 38.2744 43.3668 38.274L42.2398 38.2642C42.1936 38.2638 42.1473 38.2751 42.1101 38.2984L38.7241 40.4142L37.962 40.4046L37.5256 40.1212L41.6176 37.5642C41.6641 37.5352 41.7243 37.521 41.7889 37.5216L43.826 37.5364ZM46.8931 37.7387L50.3534 35.5764L51.1156 35.586L51.5519 35.8694L47.3577 38.4902C47.3067 38.5222 47.2418 38.5393 47.1679 38.5386L45.9444 38.472C45.8889 38.4715 45.8337 38.4534 45.7923 38.4265L44.8874 37.8389L45.3287 37.5632L46.0909 37.5669L46.3251 37.719C46.3573 37.7399 46.3987 37.755 46.4449 37.7554L46.7542 37.7728C46.805 37.7762 46.856 37.7619 46.8931 37.7387ZM44.2633 37.3685C44.1986 37.3679 44.1387 37.3527 44.0928 37.3228L43.9136 37.2065L43.0685 36.6576L43.6212 36.3123L44.3834 36.316L44.8197 36.5994C44.8519 36.6202 44.9026 36.6354 44.9487 36.6358L45.7756 36.6342C45.8264 36.6376 45.8727 36.6262 45.9099 36.603L48.9522 34.702L49.3885 34.9853L49.3843 35.4679L46.3838 37.3428C46.3374 37.3719 46.2818 37.389 46.2171 37.3885L44.2633 37.3685ZM44.5966 35.7028L48.0104 33.5696L48.4468 33.8529L48.4472 34.3385L45.0333 36.4717L44.5924 36.1854L44.5966 35.7028ZM51.0602 34.1749L52.5753 34.1881L53.2441 33.7702L53.6851 34.0565L53.6762 34.542L53.0492 34.9338L50.6011 34.9125C50.5318 34.9148 50.4719 34.8937 50.426 34.8639L48.2257 33.435L48.667 33.1593L49.4292 33.163L50.9312 34.1384C50.9679 34.1623 51.014 34.1745 51.0602 34.1749ZM52.5964 30.7039L53.0423 30.4253L55.2425 31.8541C55.2885 31.884 55.3158 31.9254 55.3155 31.9666L55.3018 33.5262L54.6702 33.9209L53.9126 33.9143L53.4717 33.628L54.1405 33.21L54.1489 32.2448C54.1492 32.2154 54.131 32.1858 54.0942 32.1619L52.5922 31.1865L52.5964 30.7039ZM57.0053 31.3672C57.0561 31.3706 57.107 31.3563 57.1442 31.3331L59.8753 29.6266L60.3162 29.9129L60.312 30.3955L57.6088 32.0847C57.5577 32.1166 57.4929 32.1337 57.419 32.133L56.1954 32.0665C56.1354 32.063 56.0847 32.0478 56.0434 32.021L55.1982 31.4721L55.6394 31.1964L56.4016 31.2001L56.5762 31.3135C56.6083 31.3343 56.6497 31.3494 56.6959 31.3498L57.0053 31.3672ZM60.6359 28.7415C60.7052 28.745 60.7651 28.7603 60.8111 28.7901L61.4036 29.1749L61.3989 29.7164L60.9205 30.0153L60.0477 29.4485L59.1054 29.4462C59.0546 29.4487 59.0083 29.4601 58.9758 29.4804L56.6673 30.9229C56.6209 30.9519 56.5607 30.9661 56.496 30.9655L54.5237 30.9512C54.459 30.9507 54.3945 30.9324 54.3486 30.9026L53.756 30.5178L53.7608 29.9764L54.2392 29.6774L55.1119 30.2442L56.0127 30.2432C56.0589 30.2436 56.1052 30.2323 56.1423 30.209L58.4461 28.7695C58.4926 28.7405 58.5574 28.7234 58.622 28.7239L60.6359 28.7415ZM58.9642 27.6263C59.0242 27.6297 59.0749 27.6449 59.1163 27.6717L59.9614 28.2206L59.5202 28.4963L58.758 28.4926L58.5835 28.3793C58.5513 28.3584 58.5099 28.3433 58.4637 28.3429L58.1543 28.3255C58.1036 28.3221 58.0526 28.3364 58.0155 28.3596L55.2844 30.0662L54.8434 29.7798L54.8476 29.2972L57.5647 27.6052C57.6112 27.5762 57.6852 27.5592 57.7545 27.5627L58.9642 27.6263Z" fill="#E81899"/>
</svg>
