<svg width="101" height="100" viewBox="0 0 101 100" fill="none" xmlns="http://www.w3.org/2000/svg">
<rect x="2.95101" y="2.45101" width="95.098" height="95.098" rx="7.35302" fill="#0B101B"/>
<rect x="2.95101" y="2.45101" width="95.098" height="95.098" rx="7.35302" stroke="#E81899" stroke-width="4.90201"/>
<path d="M22.9444 47.3V49.106L22.2864 49.764C22.2164 49.834 22.1744 49.932 22.1744 50.044V53.852L21.0124 55H19.6824V48.742L21.1104 47.3H22.9444ZM35.4744 47.44C35.5724 47.552 35.6284 47.678 35.6284 47.818V51.276C35.6284 51.416 35.5724 51.542 35.4744 51.64L32.2684 54.846C32.1704 54.958 32.0304 55 31.8904 55H23.9944L22.8324 53.852V52.508H30.9104C31.0224 52.508 31.1204 52.48 31.1904 52.396L33.0244 50.576C33.0944 50.492 33.1364 50.394 33.1364 50.296V48.798C33.1364 48.686 33.0944 48.588 33.0244 48.518L31.3164 46.81C31.2464 46.74 31.1484 46.698 31.0364 46.698H20.8304L19.6824 45.536V44.206H32.0164C32.1564 44.206 32.2824 44.262 32.3804 44.36L35.4744 47.44ZM39.7074 52.508H50.1374L51.2854 53.67V55H38.6434C38.4894 55 38.3494 54.944 38.2374 54.832L36.5154 52.844C36.4314 52.76 36.3894 52.634 36.3894 52.508V49.75H37.7194L38.8814 50.898V51.612C38.8814 51.71 38.9094 51.808 38.9794 51.878L39.4134 52.382C39.4834 52.466 39.5954 52.508 39.7074 52.508ZM36.5434 47.692C36.4454 47.594 36.3894 47.468 36.3894 47.328V46.782V44.206H38.0554L39.2174 45.354V46.684C39.2174 46.782 39.2594 46.894 39.3294 46.964L40.6034 48.196C40.6734 48.28 40.7714 48.322 40.8834 48.322H50.0534V49.652L48.9054 50.8H39.8614C39.7214 50.8 39.5954 50.758 39.4974 50.66L36.5434 47.692ZM40.9954 44.206H51.2854V45.536L50.1374 46.698H39.8474V45.354L40.9954 44.206ZM54.5383 50.212L56.8343 52.508H58.8503V53.852L57.6883 55H55.7983L52.0883 51.29C51.9763 51.192 51.9343 51.052 51.9343 50.912V44.206H53.2643L54.4263 45.354V49.932C54.4263 50.044 54.4683 50.142 54.5383 50.212ZM65.1083 44.206H66.4523V50.912C66.4523 51.052 66.3963 51.192 66.2983 51.29L62.5883 55H60.6843L59.5363 53.852V52.508H61.5523L63.8483 50.212C63.9183 50.142 63.9603 50.044 63.9603 49.932V45.354L65.1083 44.206ZM70.3119 52.382C70.3819 52.466 70.4939 52.508 70.6059 52.508H78.8379V53.852L77.6899 55H69.5419C69.3879 55 69.2479 54.944 69.1359 54.832L67.4139 52.844C67.3299 52.746 67.2879 52.634 67.2879 52.508V49.932H68.6179L69.7799 51.08V51.612C69.7799 51.71 69.8079 51.808 69.8779 51.878L70.3119 52.382ZM82.0999 51.528C82.1979 51.64 82.2539 51.766 82.2539 51.906V53.712L80.9659 55H79.5239V52.34L78.0819 50.926C77.9979 50.856 77.8999 50.814 77.8019 50.814H70.8439C70.7039 50.814 70.5779 50.758 70.4799 50.66L67.4839 47.678C67.3859 47.58 67.3299 47.44 67.3299 47.3V45.494L68.6179 44.206H70.0599V46.866L71.4459 48.21C71.5159 48.28 71.6139 48.322 71.7259 48.322H78.6699C78.8099 48.322 78.9499 48.378 79.0479 48.476L82.0999 51.528ZM82.1699 46.362C82.2539 46.46 82.2959 46.572 82.2959 46.698V49.274H80.9659L79.8039 48.126V47.594C79.8039 47.496 79.7759 47.398 79.7059 47.328L79.2719 46.824C79.2019 46.74 79.0899 46.698 78.9779 46.698H70.7459V45.354L71.8939 44.206L80.0699 44.22C80.2099 44.22 80.3639 44.29 80.4619 44.402L82.1699 46.362Z" fill="white"/>
</svg>
