<svg width="101" height="100" viewBox="0 0 101 100" fill="none" xmlns="http://www.w3.org/2000/svg">
<rect x="2.95101" y="2.45101" width="95.098" height="95.098" rx="7.35302" fill="#0B101B"/>
<rect x="2.95101" y="2.45101" width="95.098" height="95.098" rx="7.35302" stroke="#E81899" stroke-width="4.90201"/>
<path d="M44.5627 63.9893L37.9376 57.3643L28 73.927L44.5627 63.9893Z" fill="#FFE2A0"/>
<path d="M70.8619 41.7836C64.701 50.8285 53.0671 57.9655 47.3242 60.6775L40.1465 53.5003C42.7656 47.954 49.512 36.9132 58.1182 30.6141C61.3518 28.2474 65.3849 27.4442 69.3866 27.2335L73.8245 27L73.5316 32.5647C73.3602 35.821 72.6976 39.0886 70.8619 41.7836Z" fill="white"/>
<path d="M48.0366 40.8023C44.3764 45.5594 41.6128 50.3922 40.1453 53.4999L31.8643 45.2187C33.6284 43.1945 39.3326 39.4773 48.0366 40.8023Z" fill="#E81899"/>
<path d="M60.0218 52.7861C55.2647 56.4464 50.4319 59.2097 47.3242 60.6773L55.6054 68.9585C57.6297 67.1944 61.3468 61.4902 60.0218 52.7861Z" fill="#E81899"/>
</svg>
