<svg width="101" height="100" viewBox="0 0 101 100" fill="none" xmlns="http://www.w3.org/2000/svg">
<g clip-path="url(#clip0_1028_18001)">
<rect x="0.5" width="100" height="100" rx="9.80402" fill="#0B101B"/>
<rect x="0.5" y="81.8633" width="50" height="16.1765" fill="#FFC6E9"/>
<rect x="50.5" y="81.8633" width="50" height="16.1765" fill="#FF6FC8"/>
<path d="M14.9609 81.8632H86.0394L57.0719 31.9192C56.5238 30.9742 55.514 30.3926 54.4216 30.3926H46.5787C45.4863 30.3926 44.4765 30.9742 43.9284 31.9192L14.9609 81.8632Z" fill="#FF6FC8"/>
<path d="M86.0402 81.8632L57.0727 31.9192C56.5246 30.9742 55.5148 30.3926 54.4224 30.3926H50.501V81.8632H86.0402Z" fill="#9A0060"/>
<path d="M54.4186 30.3926H46.5812C45.4873 30.3926 44.4764 30.9758 43.9289 31.9228L37.0195 43.873L43.7597 56.1279L50.4999 43.873L57.2401 56.1279L63.9803 43.873L57.0709 31.9228C56.5234 30.9758 55.5125 30.3926 54.4186 30.3926Z" fill="white"/>
</g>
<rect x="2.95101" y="2.45101" width="95.098" height="95.098" rx="7.35302" stroke="#E81899" stroke-width="4.90201"/>
<defs>
<clipPath id="clip0_1028_18001">
<rect x="0.5" width="100" height="100" rx="9.80402" fill="white"/>
</clipPath>
</defs>
</svg>
