<svg width="101" height="100" viewBox="0 0 101 100" fill="none" xmlns="http://www.w3.org/2000/svg">
<rect x="2.95101" y="2.45101" width="95.098" height="95.098" rx="7.35302" fill="#0B101B"/>
<rect x="2.95101" y="2.45101" width="95.098" height="95.098" rx="7.35302" stroke="#E81899" stroke-width="4.90201"/>
<mask id="path-2-outside-1_1028_18098" maskUnits="userSpaceOnUse" x="18" y="20" width="65" height="59" fill="black">
<rect fill="white" x="18" y="20" width="65" height="59"/>
<path fill-rule="evenodd" clip-rule="evenodd" d="M45.0912 29H55.9065V40.1838L65.5922 34.5918L70.9998 43.9582L61.3158 49.5492L71.0004 55.1406L65.5927 64.507L55.9065 58.9147V70.0983H45.0912V58.9165L35.4077 64.5073L30 55.1409L39.6851 49.5492L30.0005 43.9578L35.4082 34.5915L45.0912 40.182V29Z"/>
</mask>
<path d="M55.9065 29H64.5588V20.3477H55.9065V29ZM45.0912 29V20.3477H36.4389V29H45.0912ZM55.9065 40.1838H47.2543V55.17L60.2327 47.6769L55.9065 40.1838ZM65.5922 34.5918L73.0853 30.2657L68.7591 22.7726L61.266 27.0987L65.5922 34.5918ZM70.9998 43.9582L75.326 51.4512L82.8191 47.1251L78.4929 39.632L70.9998 43.9582ZM61.3158 49.5492L56.9897 42.0561L44.0113 49.5492L56.9897 57.0423L61.3158 49.5492ZM71.0004 55.1406L78.4935 59.4668L82.8196 51.9737L75.3265 47.6475L71.0004 55.1406ZM65.5927 64.507L61.2666 72.0001L68.7597 76.3262L73.0858 68.8331L65.5927 64.507ZM55.9065 58.9147L60.2327 51.4216L47.2543 43.9285V58.9147H55.9065ZM55.9065 70.0983V78.7506H64.5588V70.0983H55.9065ZM45.0912 70.0983H36.4389V78.7506H45.0912V70.0983ZM45.0912 58.9165H53.7435V43.9303L40.7651 51.4234L45.0912 58.9165ZM35.4077 64.5073L27.9146 68.8334L32.2407 76.3265L39.7338 72.0004L35.4077 64.5073ZM30 55.1409L25.6739 47.6479L18.1808 51.974L22.5069 59.4671L30 55.1409ZM39.6851 49.5492L44.0113 57.0423L56.9897 49.5492L44.0113 42.0561L39.6851 49.5492ZM30.0005 43.9578L22.5074 39.6317L18.1813 47.1248L25.6744 51.4509L30.0005 43.9578ZM35.4082 34.5915L39.7343 27.0984L32.2413 22.7723L27.9151 30.2653L35.4082 34.5915ZM45.0912 40.182L40.7651 47.675L53.7435 55.1681V40.182H45.0912ZM55.9065 20.3477H45.0912V37.6523H55.9065V20.3477ZM64.5588 40.1838V29H47.2543V40.1838H64.5588ZM61.266 27.0987L51.5804 32.6907L60.2327 47.6769L69.9183 42.0849L61.266 27.0987ZM78.4929 39.632L73.0853 30.2657L58.0991 38.9179L63.5067 48.2843L78.4929 39.632ZM65.6419 57.0423L75.326 51.4512L66.6737 36.4651L56.9897 42.0561L65.6419 57.0423ZM56.9897 57.0423L66.6742 62.6337L75.3265 47.6475L65.6419 42.0561L56.9897 57.0423ZM63.5073 50.8145L58.0996 60.1808L73.0858 68.8331L78.4935 59.4668L63.5073 50.8145ZM69.9188 57.0139L60.2327 51.4216L51.5804 66.4078L61.2666 72.0001L69.9188 57.0139ZM64.5588 70.0983V58.9147H47.2543V70.0983H64.5588ZM45.0912 78.7506H55.9065V61.446H45.0912V78.7506ZM36.4389 58.9165V70.0983H53.7435V58.9165H36.4389ZM39.7338 72.0004L49.4173 66.4096L40.7651 51.4234L31.0815 57.0142L39.7338 72.0004ZM22.5069 59.4671L27.9146 68.8334L42.9008 60.1812L37.4931 50.8148L22.5069 59.4671ZM35.359 42.0561L25.6739 47.6479L34.3261 62.634L44.0113 57.0423L35.359 42.0561ZM44.0113 42.0561L34.3267 36.4647L25.6744 51.4509L35.359 57.0423L44.0113 42.0561ZM37.4936 48.284L42.9013 38.9176L27.9151 30.2653L22.5074 39.6317L37.4936 48.284ZM31.0821 42.0846L40.7651 47.675L49.4173 32.6889L39.7343 27.0984L31.0821 42.0846ZM36.4389 29V40.182H53.7435V29H36.4389Z" fill="#E81899" fill-opacity="0.1" mask="url(#path-2-outside-1_1028_18098)"/>
<mask id="path-4-outside-2_1028_18098" maskUnits="userSpaceOnUse" x="24" y="24" width="53" height="51" fill="black">
<rect fill="white" x="24" y="24" width="53" height="51"/>
<path fill-rule="evenodd" clip-rule="evenodd" d="M45.0912 29H55.9065V40.1838L65.5922 34.5918L70.9998 43.9582L61.3158 49.5492L71.0004 55.1406L65.5927 64.507L55.9065 58.9147V70.0983H45.0912V58.9165L35.4077 64.5073L30 55.1409L39.6851 49.5492L30.0005 43.9578L35.4082 34.5915L45.0912 40.182V29Z"/>
</mask>
<path d="M55.9065 29H60.2327V24.6739H55.9065V29ZM45.0912 29V24.6739H40.7651V29H45.0912ZM55.9065 40.1838H51.5804V47.6769L58.0696 43.9303L55.9065 40.1838ZM65.5922 34.5918L69.3387 32.4287L67.1756 28.6822L63.4291 30.8453L65.5922 34.5918ZM70.9998 43.9582L73.1629 47.7047L76.9094 45.5416L74.7464 41.7951L70.9998 43.9582ZM61.3158 49.5492L59.1527 45.8027L52.6635 49.5492L59.1527 53.2958L61.3158 49.5492ZM71.0004 55.1406L74.7469 57.3037L76.91 53.5571L73.1634 51.3941L71.0004 55.1406ZM65.5927 64.507L63.4296 68.2535L67.1762 70.4166L69.3392 66.6701L65.5927 64.507ZM55.9065 58.9147L58.0696 55.1681L51.5804 51.4216V58.9147H55.9065ZM55.9065 70.0983V74.4244H60.2327V70.0983H55.9065ZM45.0912 70.0983H40.7651V74.4244H45.0912V70.0983ZM45.0912 58.9165H49.4173V51.4234L42.9281 55.17L45.0912 58.9165ZM35.4077 64.5073L31.6611 66.6704L33.8242 70.4169L37.5707 68.2538L35.4077 64.5073ZM30 55.1409L27.8369 51.3944L24.0904 53.5575L26.2535 57.304L30 55.1409ZM39.6851 49.5492L41.8482 53.2958L48.3374 49.5492L41.8482 45.8027L39.6851 49.5492ZM30.0005 43.9578L26.254 41.7948L24.0909 45.5413L27.8375 47.7044L30.0005 43.9578ZM35.4082 34.5915L37.5713 30.8449L33.8247 28.6819L31.6617 32.4284L35.4082 34.5915ZM45.0912 40.182L42.9281 43.9285L49.4173 47.675V40.182H45.0912ZM55.9065 24.6739H45.0912V33.3261H55.9065V24.6739ZM60.2327 40.1838V29H51.5804V40.1838H60.2327ZM63.4291 30.8453L53.7435 36.4373L58.0696 43.9303L67.7552 38.3383L63.4291 30.8453ZM74.7464 41.7951L69.3387 32.4287L61.8456 36.7549L67.2533 46.1212L74.7464 41.7951ZM63.4789 53.2958L73.1629 47.7047L68.8368 40.2116L59.1527 45.8027L63.4789 53.2958ZM59.1527 53.2958L68.8373 58.8872L73.1634 51.3941L63.4789 45.8027L59.1527 53.2958ZM67.2538 52.9776L61.8462 62.3439L69.3392 66.6701L74.7469 57.3037L67.2538 52.9776ZM67.7558 60.7604L58.0696 55.1681L53.7435 62.6612L63.4296 68.2535L67.7558 60.7604ZM60.2327 70.0983V58.9147H51.5804V70.0983H60.2327ZM45.0912 74.4244H55.9065V65.7722H45.0912V74.4244ZM40.7651 58.9165V70.0983H49.4173V58.9165H40.7651ZM37.5707 68.2538L47.2543 62.6631L42.9281 55.17L33.2446 60.7608L37.5707 68.2538ZM26.2535 57.304L31.6611 66.6704L39.1542 62.3442L33.7465 52.9779L26.2535 57.304ZM37.5221 45.8027L27.8369 51.3944L32.1631 58.8875L41.8482 53.2958L37.5221 45.8027ZM41.8482 45.8027L32.1636 40.2113L27.8375 47.7044L37.5221 53.2958L41.8482 45.8027ZM33.7471 46.1209L39.1547 36.7545L31.6617 32.4284L26.254 41.7948L33.7471 46.1209ZM33.2451 38.338L42.9281 43.9285L47.2543 36.4354L37.5713 30.8449L33.2451 38.338ZM40.7651 29V40.182H49.4173V29H40.7651Z" fill="#E81899" fill-opacity="0.3" mask="url(#path-4-outside-2_1028_18098)"/>
<path fill-rule="evenodd" clip-rule="evenodd" d="M45.0912 29H55.9065V40.1838L65.5922 34.5918L70.9998 43.9582L61.3158 49.5492L71.0004 55.1406L65.5927 64.507L55.9065 58.9147V70.0983H45.0912V58.9165L35.4077 64.5073L30 55.1409L39.6851 49.5492L30.0005 43.9578L35.4082 34.5915L45.0912 40.182V29Z" fill="#E81899"/>
<path d="M24.9106 44.8398V46.481C24.9106 46.5828 24.9488 46.6718 25.0124 46.7354L25.6104 47.3334V49.0127H23.9437L22.6461 47.7023V43.7838H23.8547L24.9106 44.8398ZM26.9844 42.8297C27.0607 42.8933 27.1498 42.9314 27.2516 42.9314H29.4907V44.1528L28.4475 45.196H26.361C26.2338 45.196 26.1065 45.1451 26.0175 45.0561L22.786 41.8246C22.697 41.7355 22.6461 41.6083 22.6461 41.4811V39.1911H23.8547L24.9106 40.2343V40.5905C24.9106 40.6923 24.9488 40.7814 25.0124 40.845L26.9844 42.8297ZM35.7628 39.1911H36.9714V41.4811C36.9714 41.6083 36.9333 41.7355 36.8442 41.8246L33.6 45.0561C33.511 45.1451 33.3837 45.196 33.2692 45.196H31.17L30.1268 44.1528V42.9314H32.3659C32.4677 42.9314 32.5568 42.8933 32.6331 42.8297L34.6051 40.845C34.6814 40.7814 34.7069 40.6923 34.7069 40.5905V40.2343L35.7628 39.1911ZM34.7069 46.481V44.8398L35.7628 43.7838H36.9714V47.7023L35.6737 49.0127H34.0071V47.3334L34.6051 46.7354C34.6687 46.6718 34.7069 46.5828 34.7069 46.481ZM37.5923 39.1911H49.9966V40.3997L48.9534 41.4556H38.6356L37.5923 40.3997V39.1911ZM44.8695 43.3131V46.7354H48.9534L49.9966 47.7914V49H37.5923V47.7914L38.6356 46.7354H42.6049V44.191C42.6049 44.0892 42.5668 44.0001 42.5032 43.9365L41.9052 43.3386V42.0027H43.5718L44.8695 43.3131ZM59.2007 42.9314C59.2516 42.9314 59.3025 42.9569 59.3407 42.9951L64.4042 48.0585L63.4627 49.0127H62.1523L58.3483 45.196H55.7784C55.7275 45.196 55.6767 45.1833 55.6385 45.1451L52.865 42.3589V47.9568L51.8091 49.0127H50.6004V40.247C50.6004 40.1961 50.6132 40.1452 50.6513 40.1071L51.5801 39.1911H52.8905L56.6308 42.9314H59.2007ZM63.2973 39.1911H64.5187V46.0739H63.2973L62.2541 45.0179V40.2343L63.2973 39.1911ZM74.0228 42.9314C74.0737 42.9314 74.1246 42.9569 74.1627 42.9951L79.2262 48.0585L78.2848 49.0127H76.9744L73.1704 45.196H70.6005C70.5496 45.196 70.4987 45.1833 70.4605 45.1451L67.687 42.3589V47.9568L66.6311 49.0127H65.4225V40.247C65.4225 40.1961 65.4352 40.1452 65.4734 40.1071L66.4021 39.1911H67.7125L71.4529 42.9314H74.0228ZM78.1194 39.1911H79.3407V46.0739H78.1194L77.0761 45.0179V40.2343L78.1194 39.1911Z" fill="white"/>
<path d="M35.9774 59.4581H38.7127L39.7559 60.514V61.7227H34.9978C34.8705 61.7227 34.7433 61.6718 34.6415 61.57L33.0767 59.7634C33.0004 59.6871 32.9622 59.5726 32.9622 59.4581V54.1783C32.9622 54.0638 33.0004 53.962 33.0767 53.873L34.6415 52.0664C34.7433 51.9646 34.8705 51.9137 34.9978 51.9137H39.7432V53.1224L38.7 54.1783H35.9774C35.8756 54.1783 35.7738 54.2165 35.7102 54.2928L35.3158 54.7508C35.2522 54.8144 35.2268 54.9035 35.2268 54.9925V58.6438C35.2268 58.7329 35.2522 58.822 35.3158 58.8856L35.7102 59.3436C35.7738 59.4199 35.8756 59.4581 35.9774 59.4581ZM47.0713 53.873C47.1476 53.962 47.1858 54.0638 47.1858 54.1783V59.4581C47.1858 59.5726 47.1476 59.6871 47.0713 59.7634L45.4937 61.57C45.4046 61.6718 45.2774 61.7227 45.1375 61.7227H40.3539V60.514L41.3971 59.4581H44.1578C44.2723 59.4581 44.3614 59.4199 44.4377 59.3436L44.8321 58.8856C44.883 58.822 44.9212 58.7329 44.9212 58.6438V54.9925C44.9212 54.9035 44.883 54.8144 44.8321 54.7508L44.4377 54.2928C44.3614 54.2165 44.2723 54.1783 44.1578 54.1783H41.3844L40.3411 53.1224V51.9137H45.1375C45.2774 51.9137 45.4046 51.9646 45.4937 52.0664L47.0713 53.873ZM50.2848 56.0867L49.2289 57.1299H48.0203V53.2114L49.318 51.9137H50.9846V53.5931L50.3866 54.1783C50.323 54.2419 50.2848 54.3437 50.2848 54.4328V56.0867ZM51.7352 55.7177H53.7962L54.8394 56.7737V57.9823H52.6258C52.524 57.9823 52.4349 58.0205 52.3586 58.0968L50.3866 60.0688C50.323 60.1451 50.2848 60.2341 50.2848 60.3232V60.6794L49.2289 61.7354H48.0203V59.4326C48.0203 59.3054 48.0584 59.1909 48.1602 59.1019L51.3917 55.8577C51.4807 55.7686 51.608 55.7177 51.7352 55.7177ZM60.9971 51.9137L62.2947 53.2114V57.1299H61.0734L60.0302 56.0867V54.4328C60.0302 54.3437 59.992 54.2419 59.9284 54.1783L59.3304 53.5931V51.9137H60.9971ZM58.9233 55.8577L62.1548 59.1019C62.2439 59.1909 62.2947 59.3054 62.2947 59.4326V61.7354H61.0734L60.0302 60.6794V60.3232C60.0302 60.2341 59.992 60.1451 59.9284 60.0688L57.9437 58.0968C57.8801 58.0205 57.791 57.9823 57.6893 57.9823H55.4756V56.7737L56.5188 55.7177H58.5798C58.707 55.7177 58.8215 55.7686 58.9233 55.8577ZM65.8015 59.3436C65.8651 59.4199 65.9669 59.4581 66.0687 59.4581H73.5494V60.6794L72.5062 61.7227H65.1018C64.9619 61.7227 64.8346 61.6718 64.7329 61.57L63.168 59.7634C63.0917 59.6744 63.0535 59.5726 63.0535 59.4581V57.1172H64.2621L65.3181 58.1604V58.6438C65.3181 58.7329 65.3435 58.822 65.4071 58.8856L65.8015 59.3436ZM76.5138 58.5675C76.6028 58.6693 76.6537 58.7838 76.6537 58.911V60.5522L75.4832 61.7227H74.1728V59.3054L72.8624 58.0205C72.7861 57.9568 72.697 57.9187 72.608 57.9187H66.285C66.1578 57.9187 66.0433 57.8678 65.9542 57.7787L63.2316 55.0689C63.1426 54.9798 63.0917 54.8526 63.0917 54.7254V53.0842L64.2621 51.9137H65.5725V54.331L66.832 55.5523C66.8957 55.6159 66.9847 55.6541 67.0865 55.6541H73.3968C73.524 55.6541 73.6512 55.705 73.7403 55.794L76.5138 58.5675ZM76.5774 53.873C76.6537 53.962 76.6919 54.0638 76.6919 54.1783V56.5192H75.4832L74.4273 55.476V54.9925C74.4273 54.9035 74.4018 54.8144 74.3382 54.7508L73.9438 54.2928C73.8802 54.2165 73.7784 54.1783 73.6767 54.1783H66.1959V52.957L67.2392 51.9137L74.669 51.9264C74.7962 51.9264 74.9362 51.9901 75.0252 52.0918L76.5774 53.873Z" fill="white"/>
<path d="M25.1807 58.2885V56.6982H32.337V58.2885L31.5418 59.0837H25.9758L25.1807 58.2885Z" fill="white"/>
</svg>
