<svg width="101" height="100" viewBox="0 0 101 100" fill="none" xmlns="http://www.w3.org/2000/svg">
<rect x="2.95101" y="2.45101" width="95.098" height="95.098" rx="7.35302" fill="#0B101B"/>
<rect x="2.95101" y="2.45101" width="95.098" height="95.098" rx="7.35302" stroke="#E81899" stroke-width="4.90201"/>
<mask id="path-2-outside-1_1028_18109" maskUnits="userSpaceOnUse" x="18" y="22" width="65" height="59" fill="black">
<rect fill="white" x="18" y="22" width="65" height="59"/>
<path fill-rule="evenodd" clip-rule="evenodd" d="M45.0912 31H55.9065V42.1838L65.5922 36.5918L70.9998 45.9582L61.3158 51.5492L71.0004 57.1406L65.5927 66.507L55.9065 60.9147V72.0983H45.0912V60.9165L35.4077 66.5073L30 57.1409L39.6851 51.5492L30.0005 45.9578L35.4082 36.5915L45.0912 42.182V31Z"/>
</mask>
<path d="M55.9065 31H64.5588V22.3477H55.9065V31ZM45.0912 31V22.3477H36.4389V31H45.0912ZM55.9065 42.1838H47.2543V57.17L60.2327 49.6769L55.9065 42.1838ZM65.5922 36.5918L73.0853 32.2657L68.7591 24.7726L61.266 29.0987L65.5922 36.5918ZM70.9998 45.9582L75.326 53.4512L82.8191 49.1251L78.4929 41.632L70.9998 45.9582ZM61.3158 51.5492L56.9897 44.0561L44.0113 51.5492L56.9897 59.0423L61.3158 51.5492ZM71.0004 57.1406L78.4935 61.4668L82.8196 53.9737L75.3265 49.6475L71.0004 57.1406ZM65.5927 66.507L61.2666 74.0001L68.7597 78.3262L73.0858 70.8331L65.5927 66.507ZM55.9065 60.9147L60.2327 53.4216L47.2543 45.9285V60.9147H55.9065ZM55.9065 72.0983V80.7506H64.5588V72.0983H55.9065ZM45.0912 72.0983H36.4389V80.7506H45.0912V72.0983ZM45.0912 60.9165H53.7435V45.9303L40.7651 53.4234L45.0912 60.9165ZM35.4077 66.5073L27.9146 70.8334L32.2407 78.3265L39.7338 74.0004L35.4077 66.5073ZM30 57.1409L25.6739 49.6479L18.1808 53.974L22.5069 61.4671L30 57.1409ZM39.6851 51.5492L44.0113 59.0423L56.9897 51.5492L44.0113 44.0561L39.6851 51.5492ZM30.0005 45.9578L22.5074 41.6317L18.1813 49.1248L25.6744 53.4509L30.0005 45.9578ZM35.4082 36.5915L39.7343 29.0984L32.2413 24.7723L27.9151 32.2653L35.4082 36.5915ZM45.0912 42.182L40.7651 49.675L53.7435 57.1681V42.182H45.0912ZM55.9065 22.3477H45.0912V39.6523H55.9065V22.3477ZM64.5588 42.1838V31H47.2543V42.1838H64.5588ZM61.266 29.0987L51.5804 34.6907L60.2327 49.6769L69.9183 44.0849L61.266 29.0987ZM78.4929 41.632L73.0853 32.2657L58.0991 40.9179L63.5067 50.2843L78.4929 41.632ZM65.6419 59.0423L75.326 53.4512L66.6737 38.4651L56.9897 44.0561L65.6419 59.0423ZM56.9897 59.0423L66.6742 64.6337L75.3265 49.6475L65.6419 44.0561L56.9897 59.0423ZM63.5073 52.8145L58.0996 62.1808L73.0858 70.8331L78.4935 61.4668L63.5073 52.8145ZM69.9188 59.0139L60.2327 53.4216L51.5804 68.4078L61.2666 74.0001L69.9188 59.0139ZM64.5588 72.0983V60.9147H47.2543V72.0983H64.5588ZM45.0912 80.7506H55.9065V63.446H45.0912V80.7506ZM36.4389 60.9165V72.0983H53.7435V60.9165H36.4389ZM39.7338 74.0004L49.4173 68.4096L40.7651 53.4234L31.0815 59.0142L39.7338 74.0004ZM22.5069 61.4671L27.9146 70.8334L42.9008 62.1812L37.4931 52.8148L22.5069 61.4671ZM35.359 44.0561L25.6739 49.6479L34.3261 64.634L44.0113 59.0423L35.359 44.0561ZM44.0113 44.0561L34.3267 38.4647L25.6744 53.4509L35.359 59.0423L44.0113 44.0561ZM37.4936 50.284L42.9013 40.9176L27.9151 32.2653L22.5074 41.6317L37.4936 50.284ZM31.0821 44.0846L40.7651 49.675L49.4173 34.6889L39.7343 29.0984L31.0821 44.0846ZM36.4389 31V42.182H53.7435V31H36.4389Z" fill="#E81899" fill-opacity="0.1" mask="url(#path-2-outside-1_1028_18109)"/>
<mask id="path-4-outside-2_1028_18109" maskUnits="userSpaceOnUse" x="24" y="26" width="53" height="51" fill="black">
<rect fill="white" x="24" y="26" width="53" height="51"/>
<path fill-rule="evenodd" clip-rule="evenodd" d="M45.0912 31H55.9065V42.1838L65.5922 36.5918L70.9998 45.9582L61.3158 51.5492L71.0004 57.1406L65.5927 66.507L55.9065 60.9147V72.0983H45.0912V60.9165L35.4077 66.5073L30 57.1409L39.6851 51.5492L30.0005 45.9578L35.4082 36.5915L45.0912 42.182V31Z"/>
</mask>
<path d="M55.9065 31H60.2327V26.6739H55.9065V31ZM45.0912 31V26.6739H40.7651V31H45.0912ZM55.9065 42.1838H51.5804V49.6769L58.0696 45.9303L55.9065 42.1838ZM65.5922 36.5918L69.3387 34.4287L67.1756 30.6822L63.4291 32.8453L65.5922 36.5918ZM70.9998 45.9582L73.1629 49.7047L76.9094 47.5416L74.7464 43.7951L70.9998 45.9582ZM61.3158 51.5492L59.1527 47.8027L52.6635 51.5492L59.1527 55.2958L61.3158 51.5492ZM71.0004 57.1406L74.7469 59.3037L76.91 55.5571L73.1634 53.3941L71.0004 57.1406ZM65.5927 66.507L63.4296 70.2535L67.1762 72.4166L69.3392 68.6701L65.5927 66.507ZM55.9065 60.9147L58.0696 57.1681L51.5804 53.4216V60.9147H55.9065ZM55.9065 72.0983V76.4244H60.2327V72.0983H55.9065ZM45.0912 72.0983H40.7651V76.4244H45.0912V72.0983ZM45.0912 60.9165H49.4173V53.4234L42.9281 57.17L45.0912 60.9165ZM35.4077 66.5073L31.6611 68.6704L33.8242 72.4169L37.5707 70.2538L35.4077 66.5073ZM30 57.1409L27.8369 53.3944L24.0904 55.5575L26.2535 59.304L30 57.1409ZM39.6851 51.5492L41.8482 55.2958L48.3374 51.5492L41.8482 47.8027L39.6851 51.5492ZM30.0005 45.9578L26.254 43.7948L24.0909 47.5413L27.8375 49.7044L30.0005 45.9578ZM35.4082 36.5915L37.5713 32.8449L33.8247 30.6819L31.6617 34.4284L35.4082 36.5915ZM45.0912 42.182L42.9281 45.9285L49.4173 49.675V42.182H45.0912ZM55.9065 26.6739H45.0912V35.3261H55.9065V26.6739ZM60.2327 42.1838V31H51.5804V42.1838H60.2327ZM63.4291 32.8453L53.7435 38.4373L58.0696 45.9303L67.7552 40.3383L63.4291 32.8453ZM74.7464 43.7951L69.3387 34.4287L61.8456 38.7549L67.2533 48.1212L74.7464 43.7951ZM63.4789 55.2958L73.1629 49.7047L68.8368 42.2116L59.1527 47.8027L63.4789 55.2958ZM59.1527 55.2958L68.8373 60.8872L73.1634 53.3941L63.4789 47.8027L59.1527 55.2958ZM67.2538 54.9776L61.8462 64.3439L69.3392 68.6701L74.7469 59.3037L67.2538 54.9776ZM67.7558 62.7604L58.0696 57.1681L53.7435 64.6612L63.4296 70.2535L67.7558 62.7604ZM60.2327 72.0983V60.9147H51.5804V72.0983H60.2327ZM45.0912 76.4244H55.9065V67.7722H45.0912V76.4244ZM40.7651 60.9165V72.0983H49.4173V60.9165H40.7651ZM37.5707 70.2538L47.2543 64.6631L42.9281 57.17L33.2446 62.7608L37.5707 70.2538ZM26.2535 59.304L31.6611 68.6704L39.1542 64.3442L33.7465 54.9779L26.2535 59.304ZM37.5221 47.8027L27.8369 53.3944L32.1631 60.8875L41.8482 55.2958L37.5221 47.8027ZM41.8482 47.8027L32.1636 42.2113L27.8375 49.7044L37.5221 55.2958L41.8482 47.8027ZM33.7471 48.1209L39.1547 38.7545L31.6617 34.4284L26.254 43.7948L33.7471 48.1209ZM33.2451 40.338L42.9281 45.9285L47.2543 38.4354L37.5713 32.8449L33.2451 40.338ZM40.7651 31V42.182H49.4173V31H40.7651Z" fill="#E81899" fill-opacity="0.3" mask="url(#path-4-outside-2_1028_18109)"/>
<path fill-rule="evenodd" clip-rule="evenodd" d="M45.0912 31H55.9065V42.1838L65.5922 36.5918L70.9998 45.9582L61.3158 51.5492L71.0004 57.1406L65.5927 66.507L55.9065 60.9147V72.0983H45.0912V60.9165L35.4077 66.5073L30 57.1409L39.6851 51.5492L30.0005 45.9578L35.4082 36.5915L45.0912 42.182V31Z" fill="#E81899"/>
<path d="M12.722 50.684L11.726 51.668H10.586V47.972L11.81 46.748H13.382V48.332L12.818 48.884C12.758 48.944 12.722 49.04 12.722 49.124V50.684ZM14.09 50.336H16.034L17.018 51.332V52.472H14.93C14.834 52.472 14.75 52.508 14.678 52.58L12.818 54.44C12.758 54.512 12.722 54.596 12.722 54.68V55.016L11.726 56.012H10.586V53.84C10.586 53.72 10.622 53.612 10.718 53.528L13.766 50.468C13.85 50.384 13.97 50.336 14.09 50.336ZM22.826 46.748L24.05 47.972V51.668H22.898L21.914 50.684V49.124C21.914 49.04 21.878 48.944 21.818 48.884L21.254 48.332V46.748H22.826ZM20.87 50.468L23.918 53.528C24.002 53.612 24.05 53.72 24.05 53.84V56.012H22.898L21.914 55.016V54.68C21.914 54.596 21.878 54.512 21.818 54.44L19.946 52.58C19.886 52.508 19.802 52.472 19.706 52.472H17.618V51.332L18.602 50.336H20.546C20.666 50.336 20.774 50.384 20.87 50.468ZM35.5983 49.088C35.5983 49.004 35.5623 48.92 35.5023 48.848L34.9383 48.284V46.748H36.5103L37.7343 47.972V51.584H36.5823L35.5983 50.6V49.088ZM27.0423 50.6L26.0463 51.584H24.9063V47.972L26.1303 46.748H27.7023V48.284L27.1383 48.848C27.0783 48.92 27.0423 49.004 27.0423 49.088V50.6ZM37.6023 53.468C37.6863 53.552 37.7343 53.66 37.7343 53.78V56H36.5823L35.5983 55.016V54.62C35.5983 54.524 35.5623 54.44 35.5023 54.38L33.6303 52.508C33.5703 52.448 33.4863 52.412 33.3903 52.412H29.2503C29.1543 52.412 29.0703 52.448 28.9983 52.508L27.1383 54.38C27.0783 54.44 27.0423 54.524 27.0423 54.62V55.016L26.0463 56H24.9063V53.78C24.9063 53.66 24.9543 53.552 25.0383 53.468L28.0863 50.408C28.1703 50.324 28.2903 50.276 28.4103 50.276H34.2303C34.3503 50.276 34.4703 50.324 34.5543 50.408L37.6023 53.468ZM48.2781 50.408L51.3381 53.468C51.4221 53.552 51.4701 53.66 51.4701 53.78V56H50.3181L49.3341 55.016V54.62C49.3341 54.524 49.2981 54.44 49.2261 54.38L47.3661 52.508C47.2941 52.448 47.2101 52.412 47.1261 52.412H42.9261C42.8301 52.412 42.7461 52.448 42.6741 52.508L40.8141 54.38C40.7541 54.44 40.7181 54.524 40.7181 54.62V55.016L39.7221 56H38.5821V53.78C38.5821 53.66 38.6301 53.552 38.7141 53.468L41.7621 50.408C41.8461 50.324 41.9661 50.276 42.0861 50.276H47.9661C48.0861 50.276 48.1941 50.324 48.2781 50.408ZM51.3501 48.596C51.4221 48.68 51.4701 48.776 51.4701 48.884V51.584H50.3181L49.3341 50.588V49.652C49.3341 49.568 49.2981 49.484 49.2381 49.424L48.8661 48.992C48.8061 48.92 48.7101 48.884 48.6141 48.884H41.4261C41.3301 48.884 41.2341 48.92 41.1741 48.992L40.8021 49.424C40.7421 49.484 40.7181 49.568 40.7181 49.652V50.588L39.7221 51.584H38.5821V48.884C38.5821 48.776 38.6181 48.68 38.6901 48.596L40.1661 46.892C40.2621 46.796 40.3821 46.748 40.5141 46.748H49.5381C49.6581 46.748 49.7901 46.796 49.8741 46.892L51.3501 48.596ZM55.0902 53.396H53.2422L52.2462 52.4V52.172V48.008L53.5062 46.748H55.1502V48.404L54.5742 48.98C54.5142 49.028 54.4782 49.1 54.4782 49.184V51.176C54.4782 51.272 54.5142 51.356 54.5862 51.428C54.7182 51.56 55.0062 51.86 55.0902 51.944V53.396ZM63.4902 51.212H64.6422V53.9C64.6422 54.008 64.6062 54.116 64.5342 54.188L63.0462 55.892C62.9622 55.988 62.8422 56.036 62.7102 56.036H52.2702V54.896L53.2542 53.9H61.7862C61.8942 53.9 61.9902 53.864 62.0502 53.792L62.4222 53.36C62.4822 53.3 62.5062 53.216 62.5062 53.132V52.196L63.4902 51.212ZM68.098 53.864H77.038L78.022 54.86V56H67.186C67.054 56 66.934 55.952 66.838 55.856L65.362 54.152C65.29 54.08 65.254 53.972 65.254 53.864V51.5H66.394L67.39 52.484V53.096C67.39 53.18 67.414 53.264 67.474 53.324L67.846 53.756C67.906 53.828 68.002 53.864 68.098 53.864ZM65.386 49.736C65.302 49.652 65.254 49.544 65.254 49.424V48.956V46.748H66.682L67.678 47.732V48.872C67.678 48.956 67.714 49.052 67.774 49.112L68.866 50.168C68.926 50.24 69.01 50.276 69.106 50.276H76.966V51.416L75.982 52.4H68.23C68.11 52.4 68.002 52.364 67.918 52.28L65.386 49.736ZM69.202 46.748H78.022V47.888L77.038 48.884H68.218V47.732L69.202 46.748ZM81.1233 53.756C81.1833 53.828 81.2793 53.864 81.3753 53.864H88.4313V55.016L87.4473 56H80.4633C80.3313 56 80.2113 55.952 80.1153 55.856L78.6393 54.152C78.5673 54.068 78.5313 53.972 78.5313 53.864V51.656H79.6713L80.6673 52.64V53.096C80.6673 53.18 80.6913 53.264 80.7513 53.324L81.1233 53.756ZM91.2273 53.024C91.3113 53.12 91.3593 53.228 91.3593 53.348V54.896L90.2553 56H89.0193V53.72L87.7833 52.508C87.7113 52.448 87.6273 52.412 87.5433 52.412H81.5793C81.4593 52.412 81.3513 52.364 81.2673 52.28L78.6993 49.724C78.6153 49.64 78.5673 49.52 78.5673 49.4V47.852L79.6713 46.748H80.9073V49.028L82.0953 50.18C82.1553 50.24 82.2393 50.276 82.3353 50.276H88.2873C88.4073 50.276 88.5273 50.324 88.6113 50.408L91.2273 53.024ZM91.2873 48.596C91.3593 48.68 91.3953 48.776 91.3953 48.884V51.092H90.2553L89.2593 50.108V49.652C89.2593 49.568 89.2353 49.484 89.1753 49.424L88.8033 48.992C88.7433 48.92 88.6473 48.884 88.5513 48.884H81.4953V47.732L82.4793 46.748L89.4873 46.76C89.6073 46.76 89.7393 46.82 89.8233 46.916L91.2873 48.596Z" fill="white"/>
</svg>
