<svg width="101" height="100" viewBox="0 0 101 100" fill="none" xmlns="http://www.w3.org/2000/svg">
<rect x="2.95101" y="2.45101" width="95.098" height="95.098" rx="7.35302" fill="#0B101B"/>
<rect x="2.95101" y="2.45101" width="95.098" height="95.098" rx="7.35302" stroke="#E81899" stroke-width="4.90201"/>
<path d="M11.722 50.684L10.726 51.668H9.58602V47.972L10.81 46.748H12.382V48.332L11.818 48.884C11.758 48.944 11.722 49.04 11.722 49.124V50.684ZM13.09 50.336H15.034L16.018 51.332V52.472H13.93C13.834 52.472 13.75 52.508 13.678 52.58L11.818 54.44C11.758 54.512 11.722 54.596 11.722 54.68V55.016L10.726 56.012H9.58602V53.84C9.58602 53.72 9.62202 53.612 9.71802 53.528L12.766 50.468C12.85 50.384 12.97 50.336 13.09 50.336ZM21.826 46.748L23.05 47.972V51.668H21.898L20.914 50.684V49.124C20.914 49.04 20.878 48.944 20.818 48.884L20.254 48.332V46.748H21.826ZM19.87 50.468L22.918 53.528C23.002 53.612 23.05 53.72 23.05 53.84V56.012H21.898L20.914 55.016V54.68C20.914 54.596 20.878 54.512 20.818 54.44L18.946 52.58C18.886 52.508 18.802 52.472 18.706 52.472H16.618V51.332L17.602 50.336H19.546C19.666 50.336 19.774 50.384 19.87 50.468ZM34.5983 49.088C34.5983 49.004 34.5623 48.92 34.5023 48.848L33.9383 48.284V46.748H35.5103L36.7343 47.972V51.584H35.5823L34.5983 50.6V49.088ZM26.0423 50.6L25.0463 51.584H23.9063V47.972L25.1303 46.748H26.7023V48.284L26.1383 48.848C26.0783 48.92 26.0423 49.004 26.0423 49.088V50.6ZM36.6023 53.468C36.6863 53.552 36.7343 53.66 36.7343 53.78V56H35.5823L34.5983 55.016V54.62C34.5983 54.524 34.5623 54.44 34.5023 54.38L32.6303 52.508C32.5703 52.448 32.4863 52.412 32.3903 52.412H28.2503C28.1543 52.412 28.0703 52.448 27.9983 52.508L26.1383 54.38C26.0783 54.44 26.0423 54.524 26.0423 54.62V55.016L25.0463 56H23.9063V53.78C23.9063 53.66 23.9543 53.552 24.0383 53.468L27.0863 50.408C27.1703 50.324 27.2903 50.276 27.4103 50.276H33.2303C33.3503 50.276 33.4703 50.324 33.5543 50.408L36.6023 53.468ZM47.2781 50.408L50.3381 53.468C50.4221 53.552 50.4701 53.66 50.4701 53.78V56H49.3181L48.3341 55.016V54.62C48.3341 54.524 48.2981 54.44 48.2261 54.38L46.3661 52.508C46.2941 52.448 46.2101 52.412 46.1261 52.412H41.9261C41.8301 52.412 41.7461 52.448 41.6741 52.508L39.8141 54.38C39.7541 54.44 39.7181 54.524 39.7181 54.62V55.016L38.7221 56H37.5821V53.78C37.5821 53.66 37.6301 53.552 37.7141 53.468L40.7621 50.408C40.8461 50.324 40.9661 50.276 41.0861 50.276H46.9661C47.0861 50.276 47.1941 50.324 47.2781 50.408ZM50.3501 48.596C50.4221 48.68 50.4701 48.776 50.4701 48.884V51.584H49.3181L48.3341 50.588V49.652C48.3341 49.568 48.2981 49.484 48.2381 49.424L47.8661 48.992C47.8061 48.92 47.7101 48.884 47.6141 48.884H40.4261C40.3301 48.884 40.2341 48.92 40.1741 48.992L39.8021 49.424C39.7421 49.484 39.7181 49.568 39.7181 49.652V50.588L38.7221 51.584H37.5821V48.884C37.5821 48.776 37.6181 48.68 37.6901 48.596L39.1661 46.892C39.2621 46.796 39.3821 46.748 39.5141 46.748H48.5381C48.6581 46.748 48.7901 46.796 48.8741 46.892L50.3501 48.596ZM54.0902 53.396H52.2422L51.2462 52.4V52.172V48.008L52.5062 46.748H54.1502V48.404L53.5742 48.98C53.5142 49.028 53.4782 49.1 53.4782 49.184V51.176C53.4782 51.272 53.5142 51.356 53.5862 51.428C53.7182 51.56 54.0062 51.86 54.0902 51.944V53.396ZM62.4902 51.212H63.6422V53.9C63.6422 54.008 63.6062 54.116 63.5342 54.188L62.0462 55.892C61.9622 55.988 61.8422 56.036 61.7102 56.036H51.2702V54.896L52.2542 53.9H60.7862C60.8942 53.9 60.9902 53.864 61.0502 53.792L61.4222 53.36C61.4822 53.3 61.5062 53.216 61.5062 53.132V52.196L62.4902 51.212ZM67.098 53.864H76.038L77.022 54.86V56H66.186C66.054 56 65.934 55.952 65.838 55.856L64.362 54.152C64.29 54.08 64.254 53.972 64.254 53.864V51.5H65.394L66.39 52.484V53.096C66.39 53.18 66.414 53.264 66.474 53.324L66.846 53.756C66.906 53.828 67.002 53.864 67.098 53.864ZM64.386 49.736C64.302 49.652 64.254 49.544 64.254 49.424V48.956V46.748H65.682L66.678 47.732V48.872C66.678 48.956 66.714 49.052 66.774 49.112L67.866 50.168C67.926 50.24 68.01 50.276 68.106 50.276H75.966V51.416L74.982 52.4H67.23C67.11 52.4 67.002 52.364 66.918 52.28L64.386 49.736ZM68.202 46.748H77.022V47.888L76.038 48.884H67.218V47.732L68.202 46.748ZM80.1233 53.756C80.1833 53.828 80.2793 53.864 80.3753 53.864H87.4313V55.016L86.4473 56H79.4633C79.3313 56 79.2113 55.952 79.1153 55.856L77.6393 54.152C77.5673 54.068 77.5313 53.972 77.5313 53.864V51.656H78.6713L79.6673 52.64V53.096C79.6673 53.18 79.6913 53.264 79.7513 53.324L80.1233 53.756ZM90.2273 53.024C90.3113 53.12 90.3593 53.228 90.3593 53.348V54.896L89.2553 56H88.0193V53.72L86.7833 52.508C86.7113 52.448 86.6273 52.412 86.5433 52.412H80.5793C80.4593 52.412 80.3513 52.364 80.2673 52.28L77.6993 49.724C77.6153 49.64 77.5673 49.52 77.5673 49.4V47.852L78.6713 46.748H79.9073V49.028L81.0953 50.18C81.1553 50.24 81.2393 50.276 81.3353 50.276H87.2873C87.4073 50.276 87.5273 50.324 87.6113 50.408L90.2273 53.024ZM90.2873 48.596C90.3593 48.68 90.3953 48.776 90.3953 48.884V51.092H89.2553L88.2593 50.108V49.652C88.2593 49.568 88.2353 49.484 88.1753 49.424L87.8033 48.992C87.7433 48.92 87.6473 48.884 87.5513 48.884H80.4953V47.732L81.4793 46.748L88.4873 46.76C88.6073 46.76 88.7393 46.82 88.8233 46.916L90.2873 48.596Z" fill="white"/>
</svg>
