<svg width="87" height="87" viewBox="0 0 87 87" fill="none" xmlns="http://www.w3.org/2000/svg">
<path d="M86.8502 43.4251C86.8502 19.4421 67.4081 -5.89301e-06 43.4251 -3.79634e-06C19.4421 -1.69968e-06 -5.89301e-06 19.4421 -3.79634e-06 43.4251C-1.69968e-06 67.4081 19.4421 86.8502 43.4251 86.8502C67.4081 86.8502 86.8502 67.4081 86.8502 43.4251Z" fill="url(#paint0_linear_234_21)"/>
<circle cx="43.4251" cy="43.4251" r="37.577" transform="matrix(1 -8.74228e-08 -8.74228e-08 -1 0.000579834 86.8502)" fill="url(#paint1_linear_234_21)" stroke="#E81899" stroke-width="11.6962"/>
<path d="M61.7575 53.3511L55.3236 44.544C54.6247 43.587 53.5897 43.0137 52.4875 42.8873C52.2366 42.858 52.0126 42.7113 51.8872 42.4901C51.7595 42.2689 51.746 42.0003 51.8468 41.7656C52.2882 40.7409 52.315 39.5514 51.8401 38.4635L47.4874 28.4467C46.8423 26.9593 45.3839 26 43.7732 26C42.1625 26 40.7041 26.9615 40.0589 28.4467L35.7063 38.4635C35.2336 39.5514 35.2582 40.7409 35.6995 41.7656C35.8003 42.0003 35.7847 42.2689 35.6592 42.4901C35.5315 42.7113 35.3097 42.858 35.0588 42.8873C33.9567 43.0137 32.9217 43.587 32.2228 44.544L25.7889 53.3511C24.8346 54.6579 24.7383 56.4094 25.5425 57.8155C26.349 59.2194 27.9037 60.0117 29.5032 59.8334L40.2897 58.6236C41.4613 58.4927 42.4716 57.8765 43.1303 56.9782C43.2803 56.7728 43.5201 56.6509 43.7732 56.6509C44.0263 56.6509 44.2638 56.7728 44.4161 56.9782C45.0747 57.8765 46.0851 58.4927 47.2567 58.6236L58.0432 59.8334C59.6427 60.0139 61.1974 59.2217 62.0039 57.8155C62.8081 56.4094 62.7118 54.6579 61.7575 53.3511ZM38.5199 39.7207L42.8793 29.6926C43.0362 29.3337 43.3879 29.1012 43.7754 29.1012C44.163 29.1012 44.5147 29.3337 44.6715 29.6926L49.0309 39.7207C49.1676 40.0367 49.1385 40.4023 48.9503 40.6912C48.7621 40.9801 48.444 41.1539 48.099 41.1539H39.4496C39.1069 41.1539 38.7865 40.9801 38.5983 40.6912C38.4102 40.4023 38.381 40.0367 38.5177 39.7207H38.5199ZM40.7579 54.9874C40.6033 55.2967 40.3031 55.5043 39.9626 55.5427L29.1649 56.7525C28.7796 56.7953 28.4032 56.6058 28.2083 56.2672C28.0134 55.9286 28.0381 55.5066 28.2688 55.1906L34.7094 46.3745C34.9132 46.0969 35.2403 45.9389 35.583 45.9592C35.9258 45.9773 36.2349 46.1691 36.4074 46.4693L36.4142 46.4806L40.7265 54.0056L40.7332 54.0169C40.9057 54.3171 40.9147 54.6827 40.7601 54.9897L40.7579 54.9874ZM44.6603 51.5838C44.4766 51.902 44.1406 52.1007 43.7732 52.1007C43.408 52.1007 43.0698 51.9043 42.8861 51.5861L39.5728 45.8057C39.3891 45.4875 39.3891 45.0925 39.5728 44.7742C39.7565 44.456 40.0926 44.2574 40.4599 44.2574H47.0842C47.4493 44.2574 47.7876 44.4515 47.9713 44.772C48.155 45.0925 48.155 45.4852 47.9713 45.8035L44.6603 51.5838ZM59.3403 56.2672C59.1454 56.6058 58.7713 56.7976 58.3837 56.7547L47.586 55.5449C47.2455 55.5066 46.9453 55.2989 46.7907 54.9897C46.6362 54.6805 46.6451 54.3148 46.8176 54.0169L46.8243 54.0056L51.1367 46.4806L51.1434 46.4693C51.3159 46.1691 51.6251 45.9773 51.9678 45.9592C52.3106 45.9411 52.6376 46.0969 52.8415 46.3745L59.282 55.1906C59.5128 55.5066 59.5352 55.9286 59.3425 56.2672H59.3403Z" fill="#FAFAFA"/>
<defs>
<linearGradient id="paint0_linear_234_21" x1="141.674" y1="111.88" x2="-51.2185" y2="1.14899" gradientUnits="userSpaceOnUse">
<stop stop-color="#E81899"/>
<stop offset="0.925484" stop-color="#C8047D"/>
</linearGradient>
<linearGradient id="paint1_linear_234_21" x1="141.674" y1="-25.0298" x2="-51.2185" y2="85.7012" gradientUnits="userSpaceOnUse">
<stop stop-color="#E81899"/>
<stop offset="0.925484" stop-color="#C8047D"/>
</linearGradient>
</defs>
</svg>
