<svg width="44" height="44" viewBox="0 0 44 44" fill="none" xmlns="http://www.w3.org/2000/svg">
<path fill-rule="evenodd" clip-rule="evenodd" d="M28.2994 12.8877C34.3259 16.3671 36.3908 24.0731 32.9114 30.0996C29.432 36.1261 21.7259 38.1909 15.6994 34.7115C9.67296 31.2321 7.60813 23.5261 11.0875 17.4996C11.3906 16.9746 11.7258 16.4796 12.0892 16.0158C12.4521 15.5526 13.1523 15.6226 13.5168 16.0846C14.0167 16.7181 14.5861 17.2943 15.2135 17.8017C15.8122 18.286 16.6296 17.7149 16.6054 16.9452C16.6018 16.8306 16.6 16.7154 16.6 16.5999C16.6 14.9465 16.9716 13.3799 17.6357 11.979C18.5953 9.95474 20.166 8.27645 22.1094 7.18232C22.554 6.93203 23.1002 7.15391 23.3279 7.61047C24.3935 9.74682 26.0771 11.6046 28.2994 12.8877ZM29.2 25.5999C29.2 29.5764 25.9765 32.7999 22 32.7999C18.5561 32.7999 15.6623 30.2828 14.9623 27.073C14.7939 26.3008 15.7534 25.9148 16.4271 26.328C17.3019 26.8645 18.2871 27.2135 19.3097 27.3432C19.8544 27.4123 20.2649 26.9121 20.2266 26.3643C20.209 26.1118 20.2 25.8569 20.2 25.5999C20.2 23.0315 21.0966 20.6725 22.5938 18.8188C22.7807 18.5874 23.0781 18.4739 23.3701 18.5302C26.6913 19.17 29.2 22.092 29.2 25.5999Z" fill="#FF9601"/>
</svg>
