<svg width="236" height="67" viewBox="0 0 236 67" fill="none" xmlns="http://www.w3.org/2000/svg">
<path d="M117.065 39.1064C118.752 38.7248 120.397 38.3921 122.084 38.0105C128.272 36.5967 134.46 35.7061 140.562 36.2649C142.423 36.4288 143.245 35.7175 144.11 34.2161C149.52 24.9195 157.049 17.8477 166.526 12.9782C169.685 11.3696 170.464 11.492 172.281 13.6667C174.228 15.9999 175.31 18.7445 173.45 21.3709C171.026 24.8511 167.781 27.1679 164.405 29.3263C160.9 31.5442 157.352 33.7238 153.154 33.6724C151.986 33.6414 149.952 36.8994 149.476 39.661C152.678 38.2214 155.664 36.9829 158.564 35.5805C163.886 33.0087 169.165 30.3549 174.488 27.6959C175.137 27.3546 175.873 27.0463 176.565 26.8741C176.998 26.7773 177.69 26.8231 177.863 27.0635C178.123 27.4676 178.253 28.2364 177.993 28.6171C177.387 29.5634 176.695 30.5204 175.83 31.1934C170.464 35.3401 165.098 39.5304 159.516 43.4421C157.222 45.0752 154.539 46.2766 151.943 47.1186C148.957 48.0956 146.663 46.6768 145.235 44.2799C144.37 42.773 143.418 42.0616 141.427 42.3932C136.278 43.1998 131.042 43.1888 125.936 44.4697C118.147 46.4288 110.357 48.8676 103.131 53.1555C101.227 54.2613 99.2794 55.2415 97.4187 56.3856C95.2983 57.6487 94.1299 57.5741 92.9616 55.9737C91.6201 54.1329 91.7499 51.8062 93.4808 50.2858C99.0198 45.3767 104.602 40.4622 110.184 35.5478C112.002 33.9295 113.733 32.2346 115.507 30.5781C115.42 30.4143 115.377 30.2016 115.291 30.0379C113.819 30.5237 112.348 30.9223 110.877 31.4518C108.237 32.3863 105.597 33.4951 102.914 34.3477C102.006 34.6337 100.881 34.5975 99.9718 34.3602C99.2795 34.1401 98.3274 33.167 98.4572 32.8023C98.89 31.6592 98.1976 30.1747 100.231 29.4018C109.535 25.9487 118.839 22.3649 128.099 18.612C130.133 17.7955 131.951 16.308 133.811 15.0331C135.542 13.8179 137.057 13.4575 138.831 14.4168C140.259 15.157 140.692 16.3682 140.216 17.7346C139.783 18.8777 138.831 20.2154 137.793 20.7353C132.859 23.0849 129.311 27.0084 125.546 30.8713C123.512 32.9522 121.262 34.7544 119.099 36.6768C118.32 37.3828 117.584 38.0399 116.848 38.7406C116.935 38.9044 116.978 39.0734 117.065 39.2372V39.1064ZM166.093 20.1378C163.583 22.1027 161.03 24.0294 158.52 25.9943C161.463 26.3305 165.574 23.1663 166.093 20.1378Z" fill="url(#paint0_linear_744_23951)"/>
<path d="M218.67 27.1104C216.203 26.4105 213.91 25.951 211.79 25.0778C206.986 23.1388 207.592 17.0043 210.751 13.7826C214.602 9.90906 218.324 5.70269 223.646 3.82841C224.079 3.68808 224.382 2.99691 224.728 2.56202C225.55 1.37112 226.373 0.441803 227.974 0.288811C231.695 0.00626198 232.69 1.49719 232.474 5.27319C232.258 8.56961 231.868 11.7565 230.57 14.8806C230.051 16.1215 228.882 18.0088 227.974 18.1204C226.632 18.2851 225.031 17.4354 224.036 16.5112C223.084 15.6254 222.738 14.0547 222.088 12.6085C218.713 14.0257 216.29 16.8083 213.65 20.4459C215.424 20.664 216.852 20.9683 218.324 20.962C222.651 20.9539 227.022 20.766 231.392 20.7525C232.431 20.7558 233.469 21.0643 234.335 21.5248C236.585 22.7308 236.585 26.0879 234.162 27.519C230.181 29.8389 226.07 31.826 221.959 33.8131C217.718 35.8597 213.391 37.7426 209.063 39.5819C207.419 40.3069 205.731 40.7758 204.26 41.2616C203.871 40.7862 203.654 40.3768 203.308 40.1577C202.745 39.7036 201.534 39.242 201.62 38.9698C201.88 38.066 202.399 36.9123 203.178 36.4242C206.337 34.4669 209.626 32.7987 212.785 30.9285C214.819 29.7196 216.766 28.347 218.627 27.1157L218.67 27.1104Z" fill="url(#paint1_linear_744_23951)"/>
<path d="M39.9953 63.7851C40.2549 61.2246 40.2549 58.6523 40.7742 56.1034C41.8993 50.9079 43.0244 45.7124 44.6688 40.6275C46.4862 34.911 48.8663 29.2562 51.0299 23.5844C52.6311 19.4203 54.1456 15.2234 55.9198 11.0817C56.6987 9.24212 57.9103 7.52382 59.0787 5.85443C59.4249 5.33235 60.3336 4.95918 60.9827 4.87948C62.4107 4.70414 63.8388 4.5724 65.2668 4.65865C68.2526 4.77162 68.7286 5.71592 67.3439 8.67622C64.6177 14.5479 61.6318 20.3207 59.0787 26.2147C56.266 32.6638 53.7994 39.2448 51.1598 45.8034C49.7317 49.3358 48.5201 52.9724 46.7459 56.4165C45.7939 58.2338 43.8899 59.6883 42.4619 61.3024C41.7695 62.0849 41.1637 62.9877 40.5146 63.8086C40.2982 63.8351 40.1251 63.7692 39.9087 63.7522L39.9953 63.7851Z" fill="url(#paint2_linear_744_23951)"/>
<path d="M192.879 17.2413C194.524 15.3827 195.822 13.9589 197.077 12.4969C197.726 11.7196 198.158 10.8381 198.764 10.0662C200.019 8.42974 201.101 6.68378 203.481 8.09188C206.034 9.60951 207.029 11.2312 206.034 13.8821C204.736 17.3986 203.308 20.8438 201.967 24.3219C201.49 25.6011 200.755 25.8223 199.803 25.198C198.721 24.5024 197.726 23.7527 196.514 22.9423C190.11 29.0476 187.254 37.4204 181.888 44.4881C178.599 45.1099 176.089 41.7558 177.431 38.2341C180.719 29.4594 183.965 20.6901 187.21 11.9208C187.6 10.8702 187.946 10.3481 189.201 10.63C192.62 11.3438 193.182 12.1467 192.836 17.203L192.879 17.2413Z" fill="url(#paint3_linear_744_23951)"/>
<path d="M14.9402 40.5281C18.6184 39.6405 21.9504 38.7518 25.2825 38.0374C33.2014 36.3675 39.3029 41.8529 36.9229 49.5568C36.2305 51.8653 34.7593 54.5747 32.8552 55.9856C28.3548 59.4156 23.5515 62.4033 18.6616 65.0964C13.7285 67.8384 9.74741 64.665 8.49249 60.0233C8.40594 59.6416 8.27611 59.3087 8.05975 58.5505C6.93465 60.6506 5.93936 62.3423 5.0739 64.1053C3.9488 66.3798 3.60262 66.2043 1.91497 64.842C-0.551595 62.8777 0.184053 60.1715 0.616784 57.6769C2.00152 49.9208 4.1219 42.2052 7.54048 34.8969C11.0889 27.2676 15.1133 19.7977 18.9213 12.2237C19.2675 11.5708 19.7435 10.8584 19.7435 10.2044C19.8733 7.92137 21.9937 7.70462 23.1621 7.29957C24.0708 6.97 25.9315 8.00588 26.4508 9.03207C28.2683 12.3404 27.7057 15.8537 25.6719 19.5476C22.2966 25.717 19.1809 32.0289 15.9355 38.2696C15.5893 38.9224 15.3296 39.6083 14.8969 40.5334L14.9402 40.5281ZM23.4217 46.5931C22.3399 46.6824 21.7773 46.5771 21.3446 46.761C17.8395 48.4557 14.3344 50.1504 10.9591 52.0908C10.0503 52.5948 9.44448 53.9335 8.92521 55C8.57902 55.6529 8.36266 57.031 8.6223 57.1735C9.35794 57.5192 10.3532 57.4405 11.2187 57.4651C11.4351 57.4385 11.738 57.1833 11.9976 57.0206C15.3729 54.4699 18.7915 51.9575 22.1235 49.2812C22.7293 48.8145 22.9024 47.7905 23.465 46.5878L23.4217 46.5931Z" fill="url(#paint4_linear_744_23951)"/>
<path d="M85.6484 57.8743C84.5233 57.2277 83.8742 56.7406 83.0953 56.4438C80.8018 55.5483 80.672 53.3843 80.4556 51.2746C80.3258 49.939 80.2825 48.5928 80.1527 46.7776C77.6429 49.0041 75.609 50.9977 73.4021 52.7946C70.8923 54.8031 68.2093 56.6585 65.6129 58.5468C65.3533 58.7095 64.8773 58.7679 64.6176 58.669C58.1267 55.9782 56.3092 47.0893 60.3769 42.4045C62.8867 39.4804 65.0937 36.2448 67.69 33.3973C71.3683 29.327 75.8687 27.5101 80.9749 28.1039C81.7971 28.1773 82.5327 28.523 83.4847 28.7985C83.9175 27.7426 84.3069 26.8228 84.7397 25.8541C85.5618 23.8784 86.5138 21.7124 88.8506 21.5999C91.9663 21.4789 94.3463 23.7154 94.5194 26.4408C94.6059 27.5637 94.5194 28.7515 94.1732 29.884C92.0528 37.9048 89.8892 45.9309 87.639 53.924C87.2495 55.3234 86.3408 56.6557 85.7349 57.9073L85.6484 57.8743ZM66.5217 48.8001C66.9111 48.6214 67.3439 48.4811 67.6468 48.2259C71.4548 45.4477 75.2196 42.6311 79.0709 39.8911C81.1913 38.3664 81.2778 36.3503 81.2345 33.9141C75.2628 38.048 70.4163 42.8721 66.5217 48.8001Z" fill="url(#paint5_linear_744_23951)"/>
<defs>
<linearGradient id="paint0_linear_744_23951" x1="-127.24" y1="55.9678" x2="236.122" y2="55.9678" gradientUnits="userSpaceOnUse">
<stop stop-color="#E81899"/>
<stop offset="1" stop-color="#FFE2A0"/>
</linearGradient>
<linearGradient id="paint1_linear_744_23951" x1="-127.24" y1="55.9678" x2="236.122" y2="55.9678" gradientUnits="userSpaceOnUse">
<stop stop-color="#E81899"/>
<stop offset="1" stop-color="#FFE2A0"/>
</linearGradient>
<linearGradient id="paint2_linear_744_23951" x1="-127.24" y1="55.9678" x2="236.122" y2="55.9678" gradientUnits="userSpaceOnUse">
<stop stop-color="#E81899"/>
<stop offset="1" stop-color="#FFE2A0"/>
</linearGradient>
<linearGradient id="paint3_linear_744_23951" x1="-127.24" y1="55.9678" x2="236.122" y2="55.9678" gradientUnits="userSpaceOnUse">
<stop stop-color="#E81899"/>
<stop offset="1" stop-color="#FFE2A0"/>
</linearGradient>
<linearGradient id="paint4_linear_744_23951" x1="-127.24" y1="55.9678" x2="236.122" y2="55.9678" gradientUnits="userSpaceOnUse">
<stop stop-color="#E81899"/>
<stop offset="1" stop-color="#FFE2A0"/>
</linearGradient>
<linearGradient id="paint5_linear_744_23951" x1="-127.24" y1="55.9678" x2="236.122" y2="55.9678" gradientUnits="userSpaceOnUse">
<stop stop-color="#E81899"/>
<stop offset="1" stop-color="#FFE2A0"/>
</linearGradient>
</defs>
</svg>
