<svg width="120" height="120" viewBox="0 0 120 120" fill="none" xmlns="http://www.w3.org/2000/svg">
<g clip-path="url(#clip0_1106_16211)">
<path d="M84.3426 20.2763L74.7456 15.623L34.782 100.105L44.379 104.758L84.3426 20.2763Z" fill="#E81899"/>
<path d="M83.1838 71.645C72.1486 94.9732 54.7699 109.798 44.3786 104.759C33.9873 99.7208 35.8917 77.3934 46.9269 54.0652C57.9621 30.737 73.9443 15.2355 84.3422 20.2771C94.7401 25.3187 94.2191 48.3168 83.1838 71.645Z" fill="#E81899"/>
<path d="M74.262 67.3192C63.2268 90.6474 45.8613 105.478 35.4767 100.443C25.092 95.4078 25.6197 72.413 36.6549 49.0847C47.6902 25.7565 65.0556 10.9258 75.4403 15.961C85.8249 20.9961 85.2973 43.991 74.262 67.3192Z" fill="#FF6FC8"/>
<path d="M67.0207 62.8463C58.5393 80.7757 48.2495 93.6008 41.2735 90.2183C33.8672 86.6273 33.2693 68.5231 41.7507 50.5938C50.232 32.6644 62.7678 20.8708 69.7439 24.2532C71.4581 25.0844 73.3179 25.9862 74.9473 30.4197C77.5139 37.413 73.4228 49.3124 67.0207 62.8463Z" fill="#9A0060"/>
<path d="M69.5296 65.0245C61.254 82.519 48.8827 93.9648 41.9067 90.5824C34.9306 87.1999 35.9808 70.2732 44.2596 52.772C52.5384 35.2708 64.9065 23.8317 71.8825 27.2142C78.8586 30.5966 77.8084 47.5234 69.5296 65.0245Z" fill="#E81899"/>
<path d="M62.654 71.113L63.7325 60.9513C63.8497 59.8472 63.6295 59.0449 63.169 58.6683C63.0644 58.582 63.0273 58.386 63.0714 58.139C63.1145 57.8916 63.2335 57.6234 63.3906 57.4148C64.077 56.5045 64.6449 55.3368 64.9289 54.1547L67.5532 43.2748C67.9434 41.6595 67.7038 40.3796 66.9445 40.0114C66.1853 39.6433 65.049 40.2588 64.0516 41.577L57.3237 50.4672C56.5931 51.4327 56.0494 52.6122 55.7791 53.7243C55.717 53.9789 55.5843 54.2404 55.4219 54.43C55.2584 54.6191 55.0854 54.7132 54.9534 54.6848C54.3749 54.5576 53.6194 54.8868 52.8432 55.6715L45.6991 62.8922C44.6392 63.9637 43.7762 65.6701 43.4989 67.2416C43.2237 68.8113 43.5867 69.9485 44.4239 70.1381L50.0732 71.4095C50.6866 71.5481 51.4505 71.171 52.1803 70.435C52.3469 70.2666 52.5168 70.2011 52.6361 70.259C52.7555 70.3168 52.8105 70.4914 52.7864 70.7289C52.6775 71.7659 52.8661 72.6049 53.3573 73.0019L57.8771 76.6611C58.5468 77.2048 59.6495 76.7784 60.686 75.575C61.7215 74.3712 62.4937 72.6208 62.654 71.113ZM58.0632 52.3509L64.7994 43.4511C65.0409 43.1328 65.3152 42.9838 65.4979 43.0723C65.6806 43.1609 65.7378 43.4707 65.6442 43.8607L63.0178 54.7532C62.9347 55.0963 62.7503 55.4505 62.5268 55.6926C62.3032 55.9347 62.0721 56.0335 61.9095 55.9546L57.8324 53.9777C57.6708 53.8994 57.6009 53.6547 57.6471 53.3266C57.6932 52.9985 57.8502 52.631 58.0621 52.3504L58.0632 52.3509ZM51.9913 67.9283C51.7741 68.1981 51.5357 68.3344 51.3572 68.2944L45.7027 67.0204C45.501 66.9747 45.4121 66.7015 45.4783 66.3229C45.5445 65.9442 45.7531 65.5334 46.0094 65.2743L53.1608 58.0462C53.3865 57.8189 53.6145 57.7377 53.7665 57.8361C53.9197 57.9322 53.9758 58.1922 53.917 58.5279L53.9149 58.5405L52.4349 66.9522L52.4328 66.9649C52.3739 67.3005 52.2075 67.6634 51.9913 67.931L51.9913 67.9283ZM55.4197 65.4613C55.1846 65.7334 54.9334 65.8526 54.7603 65.7686C54.5881 65.6852 54.5203 65.4141 54.5823 65.058L55.7189 58.5965C55.7809 58.2405 55.9652 57.8507 56.2004 57.5786C56.4356 57.3065 56.6867 57.1873 56.8599 57.2713L59.9824 58.7853C60.1545 58.8688 60.2234 59.1376 60.1603 59.4959C60.0973 59.8542 59.914 60.2417 59.6788 60.5138L55.4197 65.4613ZM60.1533 73.4383C59.9033 73.7278 59.6374 73.8317 59.4748 73.7008L54.9497 70.039C54.8071 69.9233 54.7625 69.6498 54.834 69.3093C54.9055 68.9688 55.0804 68.6101 55.3008 68.3555L55.3092 68.3459L60.8548 61.9055L60.8633 61.8959C61.0847 61.6391 61.32 61.5204 61.49 61.5809C61.66 61.6414 61.7414 61.8699 61.7079 62.1904L60.6284 72.3625C60.5896 72.7271 60.4032 73.1487 60.1543 73.4388L60.1533 73.4383Z" fill="#9A0060"/>
<path d="M54.5852 67.1213L60.426 60.1867L59.6817 58.9006L53.1914 65.9829L54.5852 67.1213Z" fill="#9A0060"/>
<path d="M43.42 63.7652L52.0576 55.5137L52.6259 56.3547L44.9525 64.5083L45.12 68.2391L44.2448 70.0893L42.113 69.0557L42.3693 66.9054L43.42 63.7652Z" fill="#9A0060"/>
<path d="M67.1268 40.0992L64.8477 38.9941L61.936 54.4426L59.5511 56.2162L60.6069 58.7843L59.1357 72.5152L55.9209 75.7369L58.1608 76.823L61.0014 73.7796L62.7052 61.3951L61.5732 57.8649L63.3467 56.6687L67.1268 40.0992Z" fill="#9A0060"/>
<path d="M56.2761 53.5993L64.7264 41.6588L63.8244 40.5018L55.8316 50.4538L53.5003 54.3609L51.6617 65.6006L53.4509 66.0055L54.6112 58.4464L56.2761 53.5993Z" fill="#9A0060"/>
<path d="M60.6295 70.1306L61.7081 59.9689C61.8253 58.8648 61.6051 58.0625 61.1446 57.6858C61.04 57.5995 61.0029 57.4036 61.047 57.1566C61.0901 56.9091 61.2091 56.641 61.3662 56.4324C62.0526 55.522 62.6205 54.3544 62.9045 53.1722L65.5288 42.2924C65.919 40.6771 65.6793 39.3971 64.9201 39.029C64.1608 38.6609 63.0246 39.2764 62.0271 40.5946L55.2993 49.4847C54.5687 50.4503 54.025 51.6297 53.7547 52.7418C53.6926 52.9965 53.5599 53.258 53.3975 53.4476C53.234 53.6367 53.061 53.7308 52.929 53.7024C52.3505 53.5752 51.595 53.9044 50.8188 54.6891L43.6747 61.9098C42.6148 62.9813 41.7518 64.6877 41.4745 66.2591C41.1993 67.8289 41.5623 68.966 42.3995 69.1556L48.0488 70.4271C48.6622 70.5657 49.4261 70.1885 50.1559 69.4526C50.3225 69.2842 50.4924 69.2187 50.6117 69.2766C50.731 69.3344 50.7861 69.509 50.762 69.7465C50.6531 70.7835 50.8417 71.6225 51.3329 72.0195L55.8527 75.6786C56.5224 76.2224 57.625 75.7959 58.6616 74.5926C59.6971 73.3888 60.4693 71.6383 60.6295 70.1306ZM56.0388 51.3685L62.775 42.4687C63.0165 42.1504 63.2908 42.0013 63.4735 42.0899C63.6561 42.1785 63.7134 42.4883 63.6198 42.8783L60.9934 53.7708C60.9103 54.1139 60.7259 54.4681 60.5023 54.7101C60.2788 54.9522 60.0477 55.051 59.8851 54.9722L55.8079 52.9953C55.6464 52.917 55.5765 52.6723 55.6227 52.3442C55.6688 52.016 55.8258 51.6486 56.0377 51.368L56.0388 51.3685ZM49.9669 66.9458C49.7497 67.2157 49.5112 67.352 49.3328 67.312L43.6782 66.038C43.4766 65.9922 43.3877 65.7191 43.4539 65.3405C43.5201 64.9618 43.7287 64.5509 43.985 64.2918L51.1364 57.0638C51.3621 56.8364 51.59 56.7553 51.7421 56.8537C51.8953 56.9498 51.9514 57.2098 51.8926 57.5455L51.8905 57.5581L50.4104 65.9698L50.4083 65.9824C50.3495 66.3181 50.1831 66.681 49.9669 66.9486L49.9669 66.9458ZM53.3953 64.4789C53.1601 64.751 52.909 64.8702 52.7358 64.7862C52.5637 64.7027 52.4959 64.4317 52.5579 64.0756L53.6945 57.6141C53.7564 57.258 53.9408 56.8682 54.176 56.5962C54.4111 56.3241 54.6623 56.2049 54.8354 56.2889L57.958 57.8029C58.1301 57.8863 58.1989 58.1552 58.1359 58.5135C58.0729 58.8717 57.8896 59.2593 57.6544 59.5314L53.3953 64.4789ZM58.1288 72.4559C57.8789 72.7454 57.613 72.8492 57.4504 72.7183L52.9253 69.0566C52.7827 68.9409 52.7381 68.6674 52.8096 68.3269C52.8811 67.9864 53.056 67.6276 53.2764 67.3731L53.2848 67.3635L58.8304 60.9231L58.8388 60.9134C59.0603 60.6566 59.2956 60.538 59.4656 60.5985C59.6356 60.659 59.717 60.8874 59.6835 61.208L58.604 71.3801C58.5652 71.7447 58.3788 72.1663 58.1299 72.4564L58.1288 72.4559Z" fill="#FF6FC8"/>
<mask id="mask0_1106_16211" style="mask-type:alpha" maskUnits="userSpaceOnUse" x="2" y="1" width="110" height="119">
<path d="M55.6377 22.8418C54.6751 23.6332 50.3627 28.0103 49.6377 28.8418L84.1377 68.3418C84.4957 67.7387 86.6377 60.8418 86.6377 62.8418L92.6377 66.3418L111.318 102.04L105.138 119.342C65.7236 125.156 20.3115 57.0499 3.59701 24.3251L2.22964 11.2089L17.8575 1.38611L20.5886 1.51942L55.6377 22.8418Z" fill="#D9D9D9"/>
</mask>
<g mask="url(#mask0_1106_16211)">
<g opacity="0.6" filter="url(#filter0_f_1106_16211)">
<path d="M71.5926 46.6456C84.6101 60.9992 94.5796 75.5922 100.186 87.5616C102.992 93.5515 104.681 98.8359 105.139 103.077C105.6 107.343 104.799 110.349 102.902 112.069C101.005 113.789 97.9351 114.294 93.7347 113.42C89.5584 112.551 84.4637 110.355 78.7755 106.979C67.409 100.234 53.8564 88.8903 40.8389 74.5367C27.8214 60.1832 17.8519 45.5902 12.2456 33.6208C9.43996 27.6309 7.75014 22.3465 7.29223 18.1054C6.83167 13.8399 7.63267 10.8337 9.52956 9.11339C11.4265 7.39306 14.4963 6.88865 18.6967 7.76245C22.873 8.63124 27.9677 10.8277 33.656 14.2033C45.0224 20.9487 58.5751 32.2921 71.5926 46.6456Z" stroke="url(#paint0_linear_1106_16211)" stroke-width="1.82294"/>
</g>
<path d="M71.5926 46.6456C84.6101 60.9992 94.5796 75.5922 100.186 87.5616C102.992 93.5515 104.681 98.8359 105.139 103.077C105.6 107.343 104.799 110.349 102.902 112.069C101.005 113.789 97.9351 114.294 93.7347 113.42C89.5584 112.551 84.4637 110.355 78.7755 106.979C67.409 100.234 53.8564 88.8903 40.8389 74.5367C27.8214 60.1832 17.8519 45.5902 12.2456 33.6208C9.43996 27.6309 7.75014 22.3465 7.29223 18.1054C6.83167 13.8399 7.63267 10.8337 9.52956 9.11339C11.4265 7.39306 14.4963 6.88865 18.6967 7.76245C22.873 8.63124 27.9677 10.8277 33.656 14.2033C45.0224 20.9487 58.5751 32.2921 71.5926 46.6456Z" stroke="url(#paint1_linear_1106_16211)" stroke-width="1.82294"/>
</g>
<mask id="mask1_1106_16211" style="mask-type:alpha" maskUnits="userSpaceOnUse" x="0" y="24" width="120" height="70">
<path d="M119.31 39.347L110.697 24.601L104.86 25.4209L89.6377 28.8418C89.8557 29.634 90.4917 31.3024 90.6377 32.3418L34.1504 54.3418C34.4154 53.5269 35.4664 51.378 35.6377 50.8418L26.1225 48.1906L3.45006 72.0802L0.499386 88.9547C28.4685 106.172 87.0188 67.5797 110.319 48.2214L119.31 39.347Z" fill="#D9D9D9"/>
</mask>
<g mask="url(#mask1_1106_16211)">
<g opacity="0.6" filter="url(#filter1_f_1106_16211)">
<path d="M52.7553 42.86C38.2276 49.5024 25.9313 57.317 17.7933 64.5623C13.7207 68.1881 10.7227 71.6422 8.99722 74.7063C7.26173 77.788 6.89135 80.3258 7.76918 82.2457C8.64701 84.1656 10.8087 85.5456 14.2749 86.249C17.7212 86.9484 22.2948 86.9406 27.7014 86.2323C38.505 84.817 52.4595 80.629 66.9871 73.9866C81.5148 67.3442 93.8111 59.5296 101.949 52.2843C106.022 48.6585 109.02 45.2044 110.745 42.1404C112.481 39.0586 112.851 36.5208 111.973 34.6009C111.095 32.681 108.934 31.301 105.468 30.5976C102.021 29.8982 97.4476 29.906 92.041 30.6143C81.2374 32.0296 67.2829 36.2176 52.7553 42.86Z" stroke="url(#paint2_linear_1106_16211)" stroke-width="1.50278"/>
</g>
<path d="M52.7553 42.86C38.2276 49.5024 25.9313 57.317 17.7933 64.5623C13.7207 68.1881 10.7227 71.6422 8.99722 74.7063C7.26173 77.788 6.89135 80.3258 7.76918 82.2457C8.64701 84.1656 10.8087 85.5456 14.2749 86.249C17.7212 86.9484 22.2948 86.9406 27.7014 86.2323C38.505 84.817 52.4595 80.629 66.9871 73.9866C81.5148 67.3442 93.8111 59.5296 101.949 52.2843C106.022 48.6585 109.02 45.2044 110.745 42.1404C112.481 39.0586 112.851 36.5208 111.973 34.6009C111.095 32.681 108.934 31.301 105.468 30.5976C102.021 29.8982 97.4476 29.906 92.041 30.6143C81.2374 32.0296 67.2829 36.2176 52.7553 42.86Z" stroke="url(#paint3_linear_1106_16211)" stroke-width="1.50278"/>
</g>
<rect x="104.555" y="10.3008" width="6.30522" height="6.30522" transform="rotate(135 104.555 10.3008)" fill="#E81899"/>
<rect x="113.087" y="22.5664" width="3.85345" height="3.85345" transform="rotate(135 113.087 22.5664)" fill="#9A0060"/>
<rect x="22.9932" y="111.518" width="5.20116" height="5.20116" transform="rotate(135 22.9932 111.518)" fill="#FF6FC8"/>
<g filter="url(#filter2_f_1106_16211)">
<rect x="12.3145" y="51.6777" width="2.60018" height="2.60018" transform="rotate(135 12.3145 51.6777)" fill="#FF6FC8"/>
</g>
<g filter="url(#filter3_f_1106_16211)">
<rect x="111.314" y="76.6777" width="2.60018" height="2.60018" transform="rotate(135 111.314 76.6777)" fill="#9A0060"/>
</g>
</g>
<defs>
<filter id="filter0_f_1106_16211" x="4.31281" y="4.49055" width="103.806" height="112.203" filterUnits="userSpaceOnUse" color-interpolation-filters="sRGB">
<feFlood flood-opacity="0" result="BackgroundImageFix"/>
<feBlend mode="normal" in="SourceGraphic" in2="BackgroundImageFix" result="shape"/>
<feGaussianBlur stdDeviation="0.970547" result="effect1_foregroundBlur_1106_16211"/>
</filter>
<filter id="filter1_f_1106_16211" x="3.35871" y="26.1258" width="113.025" height="64.5941" filterUnits="userSpaceOnUse" color-interpolation-filters="sRGB">
<feFlood flood-opacity="0" result="BackgroundImageFix"/>
<feBlend mode="normal" in="SourceGraphic" in2="BackgroundImageFix" result="shape"/>
<feGaussianBlur stdDeviation="1.60019" result="effect1_foregroundBlur_1106_16211"/>
</filter>
<filter id="filter2_f_1106_16211" x="6.44603" y="47.6487" width="8.0596" height="8.05813" filterUnits="userSpaceOnUse" color-interpolation-filters="sRGB">
<feFlood flood-opacity="0" result="BackgroundImageFix"/>
<feBlend mode="normal" in="SourceGraphic" in2="BackgroundImageFix" result="shape"/>
<feGaussianBlur stdDeviation="1.09559" result="effect1_foregroundBlur_1106_16211"/>
</filter>
<filter id="filter3_f_1106_16211" x="105.446" y="72.6487" width="8.0596" height="8.05813" filterUnits="userSpaceOnUse" color-interpolation-filters="sRGB">
<feFlood flood-opacity="0" result="BackgroundImageFix"/>
<feBlend mode="normal" in="SourceGraphic" in2="BackgroundImageFix" result="shape"/>
<feGaussianBlur stdDeviation="1.09559" result="effect1_foregroundBlur_1106_16211"/>
</filter>
<linearGradient id="paint0_linear_1106_16211" x1="61.0668" y1="50.946" x2="72.0516" y2="37.3756" gradientUnits="userSpaceOnUse">
<stop stop-color="white"/>
<stop offset="0.524135" stop-color="white" stop-opacity="0"/>
</linearGradient>
<linearGradient id="paint1_linear_1106_16211" x1="61.0668" y1="50.946" x2="77.9961" y2="33.1563" gradientUnits="userSpaceOnUse">
<stop stop-color="white"/>
<stop offset="0.524135" stop-color="white" stop-opacity="0"/>
</linearGradient>
<linearGradient id="paint2_linear_1106_16211" x1="66.8417" y1="70.5784" x2="52.985" y2="34.5863" gradientUnits="userSpaceOnUse">
<stop stop-color="white"/>
<stop offset="0.93929" stop-color="white" stop-opacity="0"/>
</linearGradient>
<linearGradient id="paint3_linear_1106_16211" x1="66.8417" y1="70.5784" x2="52.985" y2="34.5863" gradientUnits="userSpaceOnUse">
<stop stop-color="white"/>
<stop offset="0.93929" stop-color="white" stop-opacity="0"/>
</linearGradient>
<clipPath id="clip0_1106_16211">
<rect width="120" height="120" fill="white"/>
</clipPath>
</defs>
</svg>
