<svg width="150" height="150" viewBox="0 0 150 150" fill="none" xmlns="http://www.w3.org/2000/svg">
<rect x="9" y="32" width="131" height="113" fill="url(#paint0_linear_104_6848)"/>
<g clip-path="url(#clip0_104_6848)">
<path d="M9.02288 43.1008L9.04211 28.0864L139.801 28.2539L139.782 43.2683L9.02288 43.1008Z" fill="#E81899"/>
<path d="M74.3647 72.6333C110.472 72.6796 139.761 59.5252 139.782 43.2683C139.803 27.0114 110.544 15.9564 74.4374 15.9102C38.3305 15.8639 9.04364 26.8335 9.0228 43.1007C9.00196 59.368 38.2578 72.587 74.3647 72.6333Z" fill="#E81899"/>
<path d="M74.3827 58.6751C110.49 58.7214 139.779 45.5877 139.8 29.3411C139.821 13.0946 110.565 -0.11412 74.458 -0.160379C38.3511 -0.206638 9.06149 12.9271 9.04068 29.1736C9.01987 45.4202 38.2758 58.6289 74.3827 58.6751Z" fill="#FF6FC8"/>
<path d="M73.1864 46.7657C100.937 46.8012 123.372 41.4558 123.386 30.542C123.401 18.9551 100.988 7.26693 73.237 7.23137C45.4864 7.19582 22.9743 16.0203 22.9603 26.9341C22.9568 29.616 22.9531 32.5257 27.5342 37.274C34.7625 44.7594 52.2388 46.7388 73.1864 46.7657Z" fill="#9A0060"/>
<path d="M74.3921 51.2716C101.47 51.3063 123.443 42.4811 123.457 31.5672C123.471 20.6534 101.531 11.772 74.4428 11.7373C47.3548 11.7026 25.3915 20.5277 25.3775 31.4416C25.3635 42.3555 47.3042 51.2369 74.3921 51.2716Z" fill="#E81899"/>
<path d="M86.2603 46.2006L72.8143 41.4386C71.3533 40.9213 70.4786 40.1569 70.2866 39.3439C70.242 39.1588 70.0181 38.9933 69.6804 38.9003C69.3427 38.8057 68.9324 38.7953 68.5738 38.8692C67.0082 39.1926 65.1914 39.2101 63.5302 38.8578L48.2345 35.6282C45.9632 35.1495 44.4994 34.0722 44.5009 32.8843C44.5025 31.6965 45.9725 30.6229 48.2415 30.15L63.5454 26.9596C65.2075 26.6132 67.0243 26.6337 68.5891 26.9612C68.9475 27.036 69.3578 27.0249 69.6957 26.9328C70.0337 26.8391 70.258 26.6758 70.3031 26.4909C70.4972 25.6783 71.3738 24.9162 72.8362 24.4026L86.2942 19.6751C88.2912 18.9739 90.9665 18.9063 93.1135 19.5021C95.2571 20.0996 96.4657 21.2477 96.1918 22.4269L94.3338 30.3792C94.1327 31.243 93.1906 31.9869 91.8179 32.4708C91.5041 32.5811 91.3177 32.7576 91.3174 32.9443C91.3172 33.131 91.5031 33.3063 91.8167 33.4191C93.1882 33.9065 94.1284 34.6528 94.3272 35.5171L96.1649 43.4741C96.4392 44.6541 95.2276 45.799 93.0791 46.391C90.9306 46.9814 88.2554 46.9069 86.2603 46.2006ZM65.463 29.0371L50.1418 32.2324C49.5935 32.3473 49.2381 32.6062 49.2377 32.892C49.2374 33.1778 49.5921 33.4377 50.1401 33.554L65.4531 36.7886C65.9356 36.8899 66.4941 36.8692 66.9356 36.731C67.377 36.5928 67.6428 36.3585 67.6431 36.1041L67.6513 29.7255C67.6516 29.4727 67.3864 29.2362 66.9453 29.0968C66.5042 28.9575 65.9458 28.9353 65.463 29.0354L65.463 29.0371ZM88.7795 30.7174C89.252 30.604 89.5694 30.383 89.6283 30.132L91.4864 22.1714C91.5522 21.8874 91.263 21.6094 90.7461 21.465C90.2291 21.3207 89.5844 21.338 89.1016 21.5075L75.6297 26.24C75.2055 26.3898 74.9639 26.6307 74.9946 26.8835C75.0218 27.1363 75.3146 27.3646 75.7729 27.4924L75.7901 27.4974L87.2799 30.6923L87.2971 30.6973C87.7555 30.8251 88.3139 30.8324 88.7829 30.719L88.7795 30.7174ZM83.577 33.5886C84.0633 33.4538 84.367 33.2063 84.3674 32.9354C84.3677 32.6661 84.0681 32.4163 83.5822 32.2802L74.7564 29.8255C74.2704 29.6894 73.6671 29.6886 73.1809 29.8235C72.6946 29.9583 72.3909 30.2057 72.3906 30.4767L72.3843 35.3618C72.384 35.6311 72.6801 35.8809 73.1695 36.017C73.6589 36.1531 74.2587 36.1539 74.745 36.019L83.577 33.5886ZM90.7167 44.4237C91.234 44.2806 91.5273 44.0051 91.4622 43.7192L89.6246 35.7539C89.5663 35.5028 89.2494 35.281 88.7772 35.1664C88.3051 35.0518 87.7466 35.0577 87.2914 35.1843L87.2741 35.1892L75.7762 38.3547L75.759 38.3596C75.3003 38.4863 75.007 38.7139 74.9791 38.9666C74.9512 39.2193 75.1887 39.4608 75.6126 39.6117L89.0723 44.3786C89.5547 44.5494 90.1994 44.5668 90.7167 44.4254L90.7167 44.4237Z" fill="#9A0060"/>
<path d="M86.1778 33.53L73.8774 36.7725L72.7147 35.0497L85.5985 31.0701L86.1778 33.53Z" fill="#9A0060"/>
<path d="M88.7874 17.3031L73.1181 23.3079L73.8284 24.5384L88.7843 19.7008L93.376 22.1658L96.2398 22.1695L96.244 18.8343L93.3816 17.8623L88.7874 17.3031Z" fill="#9A0060"/>
<path d="M44.5006 33.1692L44.5051 29.6035L65.7251 35.2252L69.4165 33.2626L72.0015 36.1554L90.1788 42.5725L96.2002 40.4284L96.1957 43.9327L90.6278 45.7084L74.0023 40.4L70.2533 36.8295L67.6626 38.3631L44.5006 33.1692Z" fill="#9A0060"/>
<path d="M68.1294 27.5189L47.9332 31.0588L47.0295 29.2133L64.4437 25.0551L70.7868 24.4484L86.0543 28.8944L85.4686 31.4142L75.2473 28.3272L68.1294 27.5189Z" fill="#9A0060"/>
<path d="M86.2643 43.0326L72.8184 38.2707C71.3573 37.7533 70.4826 36.989 70.2906 36.1759C70.246 35.9908 70.0222 35.8253 69.6844 35.7324C69.3467 35.6378 68.9365 35.6273 68.5778 35.7012C67.0123 36.0247 65.1954 36.0422 63.5342 35.6898L48.2385 32.4603C45.9672 31.9816 44.5034 30.9042 44.505 29.7164C44.5065 28.5285 45.9765 27.4549 48.2455 26.982L63.5495 23.7917C65.2116 23.4452 67.0284 23.4657 68.5931 23.7932C68.9515 23.868 69.3618 23.8569 69.6998 23.7649C70.0377 23.6711 70.262 23.5079 70.3071 23.3229C70.5012 22.5103 71.3778 21.7482 72.8402 21.2346L86.2983 16.5072C88.2953 15.8059 90.9706 15.7383 93.1176 16.3342C95.2611 16.9316 96.4697 18.0797 96.1959 19.2589L94.3378 27.2112C94.1368 28.075 93.1947 28.8189 91.8219 29.3028C91.5081 29.4131 91.3217 29.5897 91.3215 29.7763C91.3212 29.963 91.5072 30.1384 91.8207 30.2511C93.1922 30.7386 94.1324 31.4849 94.3312 32.3491L96.1689 40.3062C96.4432 41.4861 95.2317 42.6311 93.0831 43.2231C90.9346 43.8134 88.2595 43.7389 86.2643 43.0326ZM65.467 25.8691L50.1459 29.0644C49.5976 29.1793 49.2421 29.4383 49.2418 29.7241C49.2414 30.0099 49.5962 30.2697 50.1442 30.3861L65.4571 33.6206C65.9396 33.722 66.4981 33.7012 66.9396 33.563C67.381 33.4248 67.6468 33.1905 67.6471 32.9361L67.6553 26.5575C67.6556 26.3048 67.3905 26.0682 66.9494 25.9288C66.5083 25.7895 65.9498 25.7673 65.467 25.8675L65.467 25.8691ZM88.7835 27.5494C89.256 27.436 89.5734 27.2151 89.6324 26.964L91.4904 19.0035C91.5563 18.7194 91.267 18.4415 90.7501 18.2971C90.2332 18.1527 89.5885 18.17 89.1056 18.3396L75.6337 23.072C75.2095 23.2218 74.9679 23.4627 74.9986 23.7155C75.0258 23.9683 75.3186 24.1966 75.7769 24.3244L75.7942 24.3294L87.2839 27.5244L87.3011 27.5293C87.7595 27.6571 88.318 27.6645 88.787 27.5511L88.7835 27.5494ZM83.5811 30.4206C84.0673 30.2858 84.371 30.0384 84.3714 29.7674C84.3717 29.4981 84.0721 29.2483 83.5862 29.1122L74.7604 26.6575C74.2745 26.5214 73.6712 26.5206 73.1849 26.6555C72.6986 26.7903 72.3949 27.0377 72.3946 27.3087L72.3883 32.1938C72.388 32.4631 72.6842 32.7129 73.1735 32.849C73.6629 32.9851 74.2627 32.9859 74.749 32.8511L83.5811 30.4206ZM90.7207 41.2557C91.238 41.1127 91.5314 40.8372 91.4662 40.5513L89.6286 32.586C89.5703 32.3348 89.2534 32.113 88.7813 31.9984C88.3091 31.8838 87.7506 31.8897 87.2954 32.0163L87.2782 32.0213L75.7803 35.1867L75.763 35.1917C75.3043 35.3183 75.011 35.5459 74.9831 35.7986C74.9552 36.0514 75.1928 36.2929 75.6166 36.4438L89.0763 41.2107C89.5587 41.3815 90.2034 41.3988 90.7207 41.2574L90.7207 41.2557Z" fill="#FF6FC8"/>
</g>
<defs>
<linearGradient id="paint0_linear_104_6848" x1="74.5" y1="54.5" x2="74.5" y2="140" gradientUnits="userSpaceOnUse">
<stop stop-color="#E81899" stop-opacity="0.5"/>
<stop offset="1" stop-color="#FF6FC8" stop-opacity="0"/>
</linearGradient>
<clipPath id="clip0_104_6848">
<rect width="130.74" height="76.2649" fill="white" transform="translate(9)"/>
</clipPath>
</defs>
</svg>
