<svg width="682" height="216" viewBox="0 0 682 216" fill="none" xmlns="http://www.w3.org/2000/svg">
<path opacity="0.5" d="M192.516 -42.0835L404.103 169.504L569.807 3.80079" stroke="#FF6FC8" stroke-width="3.18958"/>
<path opacity="0.5" d="M161.566 101.209L353.756 -90.981L415.266 -29.4715" stroke="#FF6FC8" stroke-width="3.18958"/>
<path opacity="0.5" d="M254 192L157 95" stroke="#FF6FC8" stroke-width="3.18958"/>
<path opacity="0.5" d="M140.258 121.046L8.6875 252.616" stroke="#FF6FC8" stroke-width="3.18958"/>
<path d="M534.521 136.805L370.049 301.277" stroke="#9A0060" stroke-width="3.18958" stroke-dasharray="3.19 3.19"/>
<path d="M562.174 44.0337L656.873 138.733" stroke="url(#paint0_linear_1004_14438)" stroke-width="3.18958" stroke-dasharray="3.19 3.19"/>
<path d="M151.345 84.6422L2 -64.7026" stroke="#9A0060" stroke-width="3.18958" stroke-dasharray="3.19 3.19"/>
<path d="M310.594 -11.5684L447.355 125.193" stroke="#9A0060" stroke-width="2.58041" stroke-dasharray="2.58 2.58"/>
<rect opacity="0.15" x="483.758" y="161.722" width="73.0572" height="73.0572" transform="rotate(180 483.758 161.722)" fill="white"/>
<rect x="469.625" y="147.612" width="45.0961" height="45.0961" transform="rotate(180 469.625 147.612)" fill="#FF6FC8"/>
<rect opacity="0.15" x="497.883" y="75.4961" width="122.615" height="122.615" transform="rotate(-90 497.883 75.4961)" fill="white"/>
<rect x="521.564" y="51.7803" width="75.6869" height="75.6869" transform="rotate(-90 521.564 51.7803)" fill="#FF6FC8"/>
<g filter="url(#filter0_d_1004_14438)">
<rect x="264.219" y="175.407" width="26.8134" height="26.8134" transform="rotate(90 264.219 175.407)" fill="#FF6FC8"/>
</g>
<g opacity="0.56" filter="url(#filter1_d_1004_14438)">
<rect x="317.896" y="-3.89209" width="14.597" height="14.597" transform="rotate(180 317.896 -3.89209)" fill="#9A0060"/>
</g>
<rect x="541.096" y="144.749" width="14.597" height="14.597" transform="rotate(180 541.096 144.749)" fill="#E81899"/>
<rect x="666.033" y="149.129" width="18.3249" height="18.3249" transform="rotate(-180 666.033 149.129)" fill="#FF6FC8"/>
<rect opacity="0.15" x="216.527" y="153.957" width="109.923" height="109.923" transform="rotate(180 216.527 153.957)" fill="white"/>
<rect x="195.266" y="132.728" width="67.8525" height="67.8525" transform="rotate(180 195.266 132.728)" fill="#FF6FC8"/>
<path fill-rule="evenodd" clip-rule="evenodd" d="M278.074 107.264L279.216 108.406L281.472 106.151L280.33 105.009L278.074 107.264ZM281.501 110.69L283.785 112.975L286.04 110.719L283.756 108.435L281.501 110.69ZM286.069 115.259L288.353 117.543L290.609 115.288L288.324 113.004L286.069 115.259ZM290.637 119.827L292.922 122.111L295.177 119.856L292.893 117.572L290.637 119.827ZM295.206 124.396L297.49 126.68L299.745 124.425L297.461 122.14L295.206 124.396ZM299.774 128.964L302.058 131.248L304.314 128.993L302.03 126.709L299.774 128.964ZM304.343 133.533L306.627 135.817L308.882 133.561L306.598 131.277L304.343 133.533ZM308.911 138.101L311.195 140.385L313.451 138.13L311.166 135.846L308.911 138.101ZM313.479 142.669L315.764 144.954L318.019 142.698L315.735 140.414L313.479 142.669ZM318.048 147.238L320.332 149.522L322.587 147.267L320.303 144.982L318.048 147.238ZM322.616 151.806L324.9 154.09L327.156 151.835L324.872 149.551L322.616 151.806ZM327.185 156.375L329.469 158.659L331.724 156.403L329.44 154.119L327.185 156.375ZM331.753 160.943L334.037 163.227L336.293 160.972L334.008 158.688L331.753 160.943ZM336.321 165.511L338.606 167.796L340.861 165.54L338.577 163.256L336.321 165.511ZM340.89 170.08L343.174 172.364L345.429 170.109L343.145 167.824L340.89 170.08ZM345.458 174.648L347.742 176.932L349.998 174.677L347.714 172.393L345.458 174.648ZM350.027 179.217L352.311 181.501L354.566 179.245L352.282 176.961L350.027 179.217ZM354.595 183.785L356.879 186.069L359.135 183.814L356.85 181.53L354.595 183.785ZM359.164 188.353L361.448 190.638L363.703 188.382L361.419 186.098L359.164 188.353ZM363.732 192.922L366.016 195.206L368.271 192.951L365.987 190.666L363.732 192.922ZM368.3 197.49L370.585 199.774L372.84 197.519L370.556 195.235L368.3 197.49ZM372.869 202.059L375.153 204.343L377.408 202.088L375.124 199.803L372.869 202.059ZM377.437 206.627L379.721 208.911L381.977 206.656L379.693 204.372L377.437 206.627ZM382.006 211.195L384.29 213.48L386.545 211.224L384.261 208.94L382.006 211.195ZM386.574 215.764L387.716 216.906L387.718 216.904L388.845 218.032L389.971 216.906L391.099 215.778L389.971 214.651L388.829 213.509L386.574 215.764ZM384.338 218.029L382.086 220.281L384.341 222.536L386.593 220.284L384.338 218.029ZM379.833 222.533L377.581 224.785L379.837 227.041L382.089 224.789L379.833 222.533ZM375.329 227.038L373.077 229.29L375.332 231.545L377.584 229.293L375.329 227.038ZM370.825 231.542L368.572 233.794L370.828 236.05L373.08 233.797L370.825 231.542ZM366.32 236.046L364.068 238.299L366.323 240.554L368.576 238.302L366.32 236.046ZM361.816 240.551L359.564 242.803L361.819 245.058L364.071 242.806L361.816 240.551ZM357.311 245.055L355.059 247.307L357.315 249.563L359.567 247.311L357.311 245.055ZM352.807 249.56L350.555 251.812L352.81 254.067L355.062 251.815L352.807 249.56ZM348.303 254.064L346.05 256.316L348.306 258.572L350.558 256.319L348.303 254.064ZM343.798 258.568L341.546 260.821L343.801 263.076L346.054 260.824L343.798 258.568ZM339.294 263.073L337.042 265.325L339.297 267.58L341.549 265.328L339.294 263.073ZM334.79 267.577L332.537 269.829L334.793 272.085L337.045 269.833L334.79 267.577ZM330.285 272.082L328.033 274.334L330.288 276.589L332.541 274.337L330.285 272.082ZM325.781 276.586L323.529 278.838L325.784 281.093L328.036 278.841L325.781 276.586ZM321.276 281.09L319.024 283.342L321.28 285.598L323.532 283.346L321.276 281.09ZM316.772 285.595L314.52 287.847L316.775 290.102L319.027 287.85L316.772 285.595ZM312.268 290.099L311.142 291.225L313.397 293.481L314.523 292.354L312.268 290.099Z" fill="url(#paint1_linear_1004_14438)"/>
<rect x="290.957" y="119.477" width="18.3249" height="18.3249" transform="rotate(180 290.957 119.477)" fill="#E81899"/>
<defs>
<filter id="filter0_d_1004_14438" x="215.276" y="154.473" width="71.0723" height="71.0732" filterUnits="userSpaceOnUse" color-interpolation-filters="sRGB">
<feFlood flood-opacity="0" result="BackgroundImageFix"/>
<feColorMatrix in="SourceAlpha" type="matrix" values="0 0 0 0 0 0 0 0 0 0 0 0 0 0 0 0 0 0 127 0" result="hardAlpha"/>
<feOffset dy="1.19621"/>
<feGaussianBlur stdDeviation="11.0649"/>
<feColorMatrix type="matrix" values="0 0 0 0 0.511458 0 0 0 0 0.757952 0 0 0 0 0.988542 0 0 0 0.25 0"/>
<feBlend mode="normal" in2="BackgroundImageFix" result="effect1_dropShadow_1004_14438"/>
<feBlend mode="normal" in="SourceGraphic" in2="effect1_dropShadow_1004_14438" result="shape"/>
</filter>
<filter id="filter1_d_1004_14438" x="279.43" y="-41.0678" width="62.3352" height="62.3347" filterUnits="userSpaceOnUse" color-interpolation-filters="sRGB">
<feFlood flood-opacity="0" result="BackgroundImageFix"/>
<feColorMatrix in="SourceAlpha" type="matrix" values="0 0 0 0 0 0 0 0 0 0 0 0 0 0 0 0 0 0 127 0" result="hardAlpha"/>
<feOffset dy="1.2902"/>
<feGaussianBlur stdDeviation="11.9344"/>
<feColorMatrix type="matrix" values="0 0 0 0 0.511458 0 0 0 0 0.757952 0 0 0 0 0.988542 0 0 0 0.25 0"/>
<feBlend mode="normal" in2="BackgroundImageFix" result="effect1_dropShadow_1004_14438"/>
<feBlend mode="normal" in="SourceGraphic" in2="effect1_dropShadow_1004_14438" result="shape"/>
</filter>
<linearGradient id="paint0_linear_1004_14438" x1="592.854" y1="16.7933" x2="592.854" y2="86.8316" gradientUnits="userSpaceOnUse">
<stop stop-color="#FFC6E9"/>
<stop offset="1" stop-color="#FF6FC8"/>
</linearGradient>
<linearGradient id="paint1_linear_1004_14438" x1="306.922" y1="-22.9659" x2="306.922" y2="189.95" gradientUnits="userSpaceOnUse">
<stop stop-color="#FFC6E9"/>
<stop offset="1" stop-color="#FF6FC8"/>
</linearGradient>
</defs>
</svg>
