<svg width="49" height="48" viewBox="0 0 49 48" fill="none" xmlns="http://www.w3.org/2000/svg">
<rect x="0.5" width="48" height="48" rx="10" fill="#FFC6E9"/>
<path fill-rule="evenodd" clip-rule="evenodd" d="M24.5008 12.7998C22.2254 12.7998 19.9925 12.985 17.8167 13.3412C17.3654 13.4151 17.0341 13.805 17.0341 14.2623V14.7433C16.0054 14.9384 14.9907 15.1732 13.9916 15.4458C13.5972 15.5535 13.3188 15.9053 13.3046 16.3138C13.3021 16.3867 13.3008 16.4598 13.3008 16.5331C13.3008 19.7623 15.7604 22.4167 18.9087 22.7254C19.8661 23.8067 21.1338 24.6094 22.5738 24.993C22.4542 25.9716 22.1599 26.8954 21.7231 27.7331H21.3897C20.3587 27.7331 19.523 28.5689 19.523 29.5998V32.7109H18.5897C17.7306 32.7109 17.0341 33.4074 17.0341 34.2665C17.0341 34.7819 17.452 35.1998 17.9674 35.1998H31.0341C31.5496 35.1998 31.9674 34.7819 31.9674 34.2665C31.9674 33.4074 31.271 32.7109 30.4119 32.7109H29.4786V29.5998C29.4786 28.5689 28.6428 27.7331 27.6119 27.7331H27.2784C26.8417 26.8954 26.5474 25.9716 26.4277 24.993C27.8678 24.6094 29.1354 23.8067 30.0929 22.7254C33.2412 22.4167 35.7008 19.7623 35.7008 16.5331C35.7008 16.4598 35.6995 16.3867 35.697 16.3138C35.6828 15.9053 35.4043 15.5535 35.0099 15.4458C34.0108 15.1732 32.9961 14.9384 31.9674 14.7433V14.2623C31.9674 13.805 31.6362 13.4151 31.1849 13.3412C29.009 12.985 26.7762 12.7998 24.5008 12.7998ZM15.1989 17.0588C15.8049 16.9062 16.4168 16.7681 17.0341 16.6449V17.7776C17.0341 18.6978 17.2009 19.5798 17.5058 20.3945C16.2634 19.7441 15.3736 18.5114 15.1989 17.0588ZM33.8027 17.0588C33.6279 18.5114 32.7382 19.7441 31.4957 20.3945C31.8006 19.5798 31.9674 18.6978 31.9674 17.7776V16.6449C32.5847 16.7681 33.1966 16.9062 33.8027 17.0588Z" fill="#E81899"/>
</svg>
