<svg width="36" height="36" viewBox="0 0 36 36" fill="none" xmlns="http://www.w3.org/2000/svg">
<path d="M9.77911 25.0501L12.0503 19.3721C12.4125 18.4667 12.9547 17.6444 13.6442 16.9549L26.0987 4.50119C27.5899 3.01002 30.0076 3.01002 31.4987 4.50119C32.9899 5.99236 32.9899 8.41002 31.4987 9.90119L19.0442 22.3549C18.3547 23.0444 17.5324 23.5866 16.627 23.9488L10.949 26.22C10.2143 26.5138 9.48524 25.7848 9.77911 25.0501Z" fill="#F3F3F3"/>
<path d="M6.29961 10.3499C6.29961 9.10726 7.30697 8.0999 8.54961 8.0999H17.9996C18.7452 8.0999 19.3496 7.49549 19.3496 6.7499C19.3496 6.00432 18.7452 5.3999 17.9996 5.3999H8.54961C5.8158 5.3999 3.59961 7.61609 3.59961 10.3499V27.4499C3.59961 30.1837 5.8158 32.3999 8.54961 32.3999H25.6496C28.3834 32.3999 30.5996 30.1837 30.5996 27.4499V17.9999C30.5996 17.2543 29.9952 16.6499 29.2496 16.6499C28.504 16.6499 27.8996 17.2543 27.8996 17.9999V27.4499C27.8996 28.6925 26.8923 29.6999 25.6496 29.6999H8.54961C7.30697 29.6999 6.29961 28.6925 6.29961 27.4499V10.3499Z" fill="#F3F3F3"/>
</svg>
