<svg width="32" height="32" viewBox="0 0 32 32" fill="none" xmlns="http://www.w3.org/2000/svg">
    <g clip-path="url(#clip0_1394_6264)">
        <g clip-path="url(#clip1_1394_6264)">
            <path
                d="M25.3445 32C21.0315 24.6152 10.9685 24.6152 6.6556 32C8.98979 24.6152 7.38514 23.0107 0 25.3448C7.38514 21.032 7.38514 10.9696 0 6.65694C7.38514 8.98931 8.98979 7.38475 6.6556 0C10.9685 7.38475 21.0315 7.38475 25.3445 0C23.0118 7.38475 24.6166 8.98931 32 6.65694C24.6166 10.9696 24.6166 21.032 32 25.3448C24.6166 23.0107 23.0118 24.6152 25.3445 32Z"
                fill="#EE42AD" />
        </g>
        <path
            d="M22.7058 19.6745L20.3068 16.4151C20.0462 16.0609 19.6603 15.8488 19.2493 15.802C19.1558 15.7911 19.0723 15.7368 19.0255 15.655C18.9779 15.5731 18.9729 15.4737 19.0104 15.3869C19.175 15.0076 19.185 14.5674 19.0079 14.1648L17.3849 10.4577C17.1444 9.90725 16.6006 9.55225 16 9.55225C15.3994 9.55225 14.8556 9.90809 14.6151 10.4577L12.9921 14.1648C12.8158 14.5674 12.825 15.0076 12.9896 15.3869C13.0271 15.4737 13.0213 15.5731 12.9745 15.655C12.9269 15.7368 12.8442 15.7911 12.7507 15.802C12.3397 15.8488 11.9538 16.0609 11.6932 16.4151L9.29417 19.6745C8.93833 20.1581 8.90241 20.8063 9.20228 21.3267C9.50299 21.8463 10.0827 22.1395 10.6791 22.0735L14.7011 21.6257C15.138 21.5773 15.5147 21.3493 15.7603 21.0168C15.8162 20.9408 15.9056 20.8957 16 20.8957C16.0944 20.8957 16.1829 20.9408 16.2397 21.0168C16.4853 21.3493 16.862 21.5773 17.2989 21.6257L21.3209 22.0735C21.9173 22.1403 22.497 21.8471 22.7977 21.3267C23.0976 20.8063 23.0617 20.1581 22.7058 19.6745ZM14.0412 14.6301L15.6667 10.9188C15.7252 10.786 15.8563 10.7 16.0008 10.7C16.1453 10.7 16.2765 10.786 16.335 10.9188L17.9605 14.6301C18.0114 14.747 18.0006 14.8823 17.9304 14.9892C17.8602 15.0962 17.7416 15.1605 17.613 15.1605H14.3879C14.2601 15.1605 14.1406 15.0962 14.0704 14.9892C14.0003 14.8823 13.9894 14.747 14.0404 14.6301H14.0412ZM14.8757 20.2801C14.818 20.3945 14.7061 20.4714 14.5791 20.4856L10.553 20.9333C10.4093 20.9492 10.269 20.879 10.1963 20.7537C10.1236 20.6284 10.1328 20.4722 10.2188 20.3553L12.6204 17.0925C12.6964 16.9898 12.8183 16.9313 12.9461 16.9389C13.0739 16.9455 13.1892 17.0165 13.2535 17.1276L13.256 17.1318L14.864 19.9167L14.8665 19.9209C14.9308 20.032 14.9341 20.1673 14.8765 20.2809L14.8757 20.2801ZM16.3308 19.0204C16.2623 19.1382 16.137 19.2117 16 19.2117C15.8638 19.2117 15.7377 19.139 15.6692 19.0213L14.4338 16.882C14.3653 16.7643 14.3653 16.6181 14.4338 16.5003C14.5023 16.3825 14.6276 16.309 14.7646 16.309H17.2346C17.3707 16.309 17.4969 16.3809 17.5654 16.4995C17.6339 16.6181 17.6339 16.7634 17.5654 16.8812L16.3308 19.0204ZM21.8045 20.7537C21.7319 20.879 21.5924 20.95 21.4479 20.9341L17.4217 20.4864C17.2947 20.4722 17.1828 20.3953 17.1252 20.2809C17.0675 20.1665 17.0709 20.0312 17.1352 19.9209L17.1377 19.9167L18.7456 17.1318L18.7482 17.1276C18.8125 17.0165 18.9277 16.9455 19.0555 16.9389C19.1833 16.9322 19.3053 16.9898 19.3813 17.0925L21.7828 20.3553C21.8689 20.4722 21.8772 20.6284 21.8054 20.7537H21.8045Z"
            fill="#FAFAFA" />
    </g>
    <defs>
        <clipPath id="clip0_1394_6264">
            <rect width="32" height="32" fill="white" />
        </clipPath>
        <clipPath id="clip1_1394_6264">
            <rect width="32" height="32" fill="white" />
        </clipPath>
    </defs>
</svg>
