<svg width="48" height="48" viewBox="0 0 48 48" fill="none" xmlns="http://www.w3.org/2000/svg">
<rect width="48" height="48" rx="10" fill="#FFEABA"/>
<path fill-rule="evenodd" clip-rule="evenodd" d="M24 12.7998C21.7246 12.7998 19.4917 12.985 17.3159 13.3412C16.8646 13.4151 16.5333 13.805 16.5333 14.2623V14.7433C15.5046 14.9384 14.4899 15.1732 13.4908 15.4458C13.0964 15.5535 12.818 15.9053 12.8038 16.3138C12.8013 16.3867 12.8 16.4598 12.8 16.5331C12.8 19.7623 15.2596 22.4167 18.4079 22.7254C19.3653 23.8067 20.633 24.6094 22.073 24.993C21.9534 25.9716 21.6591 26.8954 21.2223 27.7331H20.8889C19.8579 27.7331 19.0222 28.5689 19.0222 29.5998V32.7109H18.0889C17.2298 32.7109 16.5333 33.4074 16.5333 34.2665C16.5333 34.7819 16.9512 35.1998 17.4667 35.1998H30.5333C31.0488 35.1998 31.4667 34.7819 31.4667 34.2665C31.4667 33.4074 30.7702 32.7109 29.9111 32.7109H28.9778V29.5998C28.9778 28.5689 28.142 27.7331 27.1111 27.7331H26.7776C26.3409 26.8954 26.0466 25.9716 25.9269 24.993C27.367 24.6094 28.6346 23.8067 29.5921 22.7254C32.7404 22.4167 35.2 19.7623 35.2 16.5331C35.2 16.4598 35.1987 16.3867 35.1962 16.3138C35.182 15.9053 34.9035 15.5535 34.5091 15.4458C33.51 15.1732 32.4953 14.9384 31.4667 14.7433V14.2623C31.4667 13.805 31.1354 13.4151 30.6841 13.3412C28.5082 12.985 26.2754 12.7998 24 12.7998ZM14.6981 17.0588C15.3041 16.9062 15.916 16.7681 16.5333 16.6449V17.7776C16.5333 18.6978 16.7001 19.5798 17.005 20.3945C15.7626 19.7441 14.8728 18.5114 14.6981 17.0588ZM33.3019 17.0588C33.1271 18.5114 32.2374 19.7441 30.9949 20.3945C31.2999 19.5798 31.4667 18.6978 31.4667 17.7776V16.6449C32.084 16.7681 32.6958 16.9062 33.3019 17.0588Z" fill="#EBB222"/>
</svg>
