<svg width="674" height="492" viewBox="0 0 674 492" fill="none" xmlns="http://www.w3.org/2000/svg">
    <rect x="119.874" y="89" width="433.205" height="57.8894" rx="11.3123" fill="#2B303B" />
    <rect x="184.517" y="110.242" width="136.04" height="15.4372" rx="4.82411" fill="#444A55" />
    <rect x="359.15" y="110.226" width="31.8392" height="15.4372" rx="4.82411" fill="#444A55" />
    <rect x="449.843" y="110.226" width="83.9396" height="15.4372" rx="4.82411"
        fill="url(#paint0_linear_868_8115)" />
    <rect x="126.661" y="95.7876" width="44.1181" height="44.1181" rx="10.4706" fill="#5D08C8" />
    <rect x="120.921" y="238.729" width="433.205" height="57.8894" rx="11.3123" fill="#2B303B" />
    <rect x="185.564" y="259.956" width="136.04" height="15.4372" rx="4.82411" fill="#444A55" />
    <rect x="360.197" y="259.956" width="31.8392" height="15.4372" rx="4.82411" fill="#444A55" />
    <rect x="450.89" y="259.956" width="83.9396" height="15.4372" rx="4.82411"
        fill="url(#paint1_linear_868_8115)" />
    <rect x="127.708" y="245.517" width="44.1181" height="44.1181" rx="10.4706" fill="#6ECEB0" />
    <g opacity="0.6">
        <rect x="156.906" y="306.788" width="359.526" height="48.0436" rx="9.38835" fill="#2B303B" />
    </g>
    <g opacity="0.5" filter="url(#filter0_f_868_8115)">
        <rect x="56" y="366" width="44.832" height="44.832" rx="5.40145" fill="#FFC6E9" />
        <rect width="27.0072" height="27.0072" transform="translate(64.6421 375.183)" fill="#FFC6E9" />
        <path fill-rule="evenodd" clip-rule="evenodd"
            d="M78.1457 377.883C75.9509 377.883 73.7973 378.062 71.6985 378.405C71.2633 378.477 70.9437 378.853 70.9437 379.294V379.758C69.9515 379.946 68.9728 380.173 68.0091 380.436C67.6287 380.539 67.3601 380.879 67.3464 381.273C67.344 381.343 67.3428 381.414 67.3428 381.484C67.3428 384.599 69.7152 387.159 72.7519 387.457C73.6753 388.5 74.8981 389.274 76.287 389.644C76.1716 390.588 75.8878 391.479 75.4665 392.287H75.1449C74.1505 392.287 73.3444 393.093 73.3444 394.088V397.088H72.4441C71.6155 397.088 70.9437 397.76 70.9437 398.589C70.9437 399.086 71.3468 399.489 71.844 399.489H84.4474C84.9446 399.489 85.3476 399.086 85.3476 398.589C85.3476 397.76 84.6759 397.088 83.8472 397.088H82.947V394.088C82.947 393.093 82.1409 392.287 81.1465 392.287H80.8248C80.4036 391.479 80.1197 390.588 80.0043 389.644C81.3933 389.274 82.616 388.5 83.5395 387.457C86.5762 387.159 88.9486 384.599 88.9486 381.484C88.9486 381.413 88.9473 381.343 88.9449 381.273C88.9312 380.879 88.6626 380.539 88.2822 380.436C87.3185 380.173 86.3398 379.946 85.3476 379.758V379.294C85.3476 378.853 85.0281 378.477 84.5928 378.405C82.4941 378.062 80.3404 377.883 78.1457 377.883ZM69.1735 381.991C69.7581 381.844 70.3483 381.711 70.9437 381.592V382.685C70.9437 383.572 71.1046 384.423 71.3987 385.209C70.2003 384.581 69.3421 383.392 69.1735 381.991ZM87.1178 381.991C86.9492 383.392 86.091 384.581 84.8926 385.209C85.1867 384.423 85.3476 383.572 85.3476 382.685V381.592C85.943 381.711 86.5332 381.844 87.1178 381.991Z"
            fill="#91969F" />
    </g>
    <g opacity="0.3">
        <rect x="189.365" y="365.423" width="295.656" height="39.5086" rx="7.72049" fill="#2B303B" />
    </g>
    <g filter="url(#filter1_d_868_8115)">
        <rect x="70.5235" y="157.582" width="532.953" height="70.3115" rx="13.4209" fill="#E81899"
            stroke="#E81899" stroke-width="1.04706" />
        <rect x="149.684" y="183.224" width="167.693" height="19.029" rx="5.94655" fill="#FF6FC8" />
        <rect x="364.949" y="183.224" width="39.2472" height="19.029" rx="5.94655" fill="#FF6FC8" />
        <rect x="476.744" y="183.224" width="103.47" height="19.029" rx="5.94655" fill="#FF6FC8" />
        <rect x="78.3667" y="165.426" width="54.3832" height="54.3832" rx="10.4706" fill="white" />
    </g>
    <rect x="402" width="60.7495" height="60.7495" rx="7.31922" fill="#FFE2A0" />
    <rect width="36.5961" height="36.5961" transform="translate(413.711 12.4429)" fill="#FFE2A0" />
    <path fill-rule="evenodd" clip-rule="evenodd"
        d="M432.009 16.1025C429.035 16.1025 426.117 16.3445 423.273 16.8101C422.683 16.9067 422.25 17.4163 422.25 18.014V18.6427C420.906 18.8977 419.579 19.2045 418.274 19.5609C417.758 19.7016 417.394 20.1614 417.376 20.6954C417.372 20.7906 417.371 20.8861 417.371 20.982C417.371 25.2025 420.585 28.6718 424.7 29.0753C425.952 30.4886 427.608 31.5377 429.491 32.0391C429.334 33.3181 428.949 34.5255 428.379 35.6205H427.943C426.595 35.6205 425.503 36.7128 425.503 38.0602V42.1264H424.283C423.16 42.1264 422.25 43.0367 422.25 44.1595C422.25 44.8333 422.796 45.3794 423.47 45.3794H440.548C441.222 45.3794 441.768 44.8333 441.768 44.1595C441.768 43.0367 440.858 42.1264 439.735 42.1264H438.515V38.0602C438.515 36.7128 437.423 35.6205 436.075 35.6205H435.639C435.069 34.5255 434.684 33.3181 434.528 32.0391C436.41 31.5377 438.067 30.4886 439.318 29.0753C443.433 28.6718 446.647 25.2025 446.647 20.982C446.647 20.8861 446.646 20.7906 446.643 20.6954C446.624 20.1614 446.26 19.7016 445.745 19.5609C444.439 19.2045 443.112 18.8977 441.768 18.6427V18.014C441.768 17.4163 441.335 16.9067 440.745 16.8101C437.901 16.3445 434.983 16.1025 432.009 16.1025ZM419.851 21.6691C420.644 21.4696 421.443 21.2891 422.25 21.1281V22.6085C422.25 23.8113 422.468 24.9641 422.867 26.0288C421.243 25.1787 420.08 23.5676 419.851 21.6691ZM444.167 21.6691C443.938 23.5676 442.775 25.1787 441.151 26.0288C441.55 24.9641 441.768 23.8113 441.768 22.6085V21.1281C442.575 21.2891 443.375 21.4696 444.167 21.6691Z"
        fill="#775602" />
    <rect x="516" y="439" width="53" height="53" rx="6.38554" fill="#5D08C8" />
    <rect width="31.9277" height="31.9277" transform="translate(526.217 449.855)" fill="#5D08C8" />
    <path fill-rule="evenodd" clip-rule="evenodd"
        d="M542.181 453.048C539.586 453.048 537.04 453.259 534.559 453.666C534.044 453.75 533.667 454.195 533.667 454.716V455.264C532.494 455.487 531.337 455.755 530.197 456.066C529.748 456.188 529.43 456.589 529.414 457.055C529.411 457.138 529.41 457.222 529.41 457.305C529.41 460.987 532.214 464.014 535.804 464.366C536.896 465.599 538.341 466.514 539.983 466.952C539.847 468.068 539.511 469.121 539.013 470.076H538.633C537.458 470.076 536.505 471.029 536.505 472.205V475.752H535.44C534.461 475.752 533.667 476.547 533.667 477.526C533.667 478.114 534.143 478.591 534.731 478.591H549.631C550.218 478.591 550.695 478.114 550.695 477.526C550.695 476.547 549.901 475.752 548.921 475.752H547.857V472.205C547.857 471.029 546.904 470.076 545.728 470.076H545.348C544.85 469.121 544.514 468.068 544.378 466.952C546.02 466.514 547.466 465.599 548.557 464.366C552.147 464.014 554.952 460.987 554.952 457.305C554.952 457.222 554.95 457.138 554.947 457.055C554.931 456.589 554.614 456.188 554.164 456.066C553.025 455.755 551.868 455.487 550.695 455.264V454.716C550.695 454.195 550.317 453.75 549.803 453.666C547.321 453.259 544.775 453.048 542.181 453.048ZM531.574 457.905C532.265 457.731 532.963 457.573 533.667 457.433V458.724C533.667 459.774 533.857 460.779 534.205 461.708C532.788 460.967 531.773 459.561 531.574 457.905ZM552.788 457.905C552.588 459.561 551.574 460.967 550.157 461.708C550.505 460.779 550.695 459.774 550.695 458.724V457.433C551.399 457.573 552.096 457.731 552.788 457.905Z"
        fill="#EBB222" />
    <defs>
        <filter id="filter0_f_868_8115" x="49" y="359" width="58.832" height="58.832"
            filterUnits="userSpaceOnUse" color-interpolation-filters="sRGB">
            <feFlood flood-opacity="0" result="BackgroundImageFix" />
            <feBlend mode="normal" in="SourceGraphic" in2="BackgroundImageFix" result="shape" />
            <feGaussianBlur stdDeviation="3.5" result="effect1_foregroundBlur_868_8115" />
        </filter>
        <filter id="filter1_d_868_8115" x="0.894119" y="108.894" width="672.212" height="209.57"
            filterUnits="userSpaceOnUse" color-interpolation-filters="sRGB">
            <feFlood flood-opacity="0" result="BackgroundImageFix" />
            <feColorMatrix in="SourceAlpha" type="matrix"
                values="0 0 0 0 0 0 0 0 0 0 0 0 0 0 0 0 0 0 127 0" result="hardAlpha" />
            <feOffset dy="20.9412" />
            <feGaussianBlur stdDeviation="34.5529" />
            <feColorMatrix type="matrix"
                values="0 0 0 0 0.0196078 0 0 0 0 0.0352941 0 0 0 0 0.0705882 0 0 0 0.48 0" />
            <feBlend mode="normal" in2="BackgroundImageFix" result="effect1_dropShadow_868_8115" />
            <feBlend mode="normal" in="SourceGraphic" in2="effect1_dropShadow_868_8115"
                result="shape" />
        </filter>
        <linearGradient id="paint0_linear_868_8115" x1="541.662" y1="101.655" x2="524.175"
            y2="147.617" gradientUnits="userSpaceOnUse">
            <stop stop-color="#FFC6E9" />
            <stop offset="0.335973" stop-color="#F581C4" />
            <stop offset="1" stop-color="#E81899" />
        </linearGradient>
        <linearGradient id="paint1_linear_868_8115" x1="542.709" y1="251.384" x2="525.222"
            y2="297.347" gradientUnits="userSpaceOnUse">
            <stop stop-color="#FFC6E9" />
            <stop offset="0.335973" stop-color="#F581C4" />
            <stop offset="1" stop-color="#E81899" />
        </linearGradient>
    </defs>
</svg>