<svg width="56" height="56" viewBox="0 0 56 56" fill="none" xmlns="http://www.w3.org/2000/svg">
<circle opacity="0.2" cx="28" cy="28" r="22.75" fill="#E81899"/>
<circle opacity="0.2" cx="28" cy="28" r="28" fill="#E81899"/>
<path fill-rule="evenodd" clip-rule="evenodd" d="M10.9375 28C10.9375 18.5766 18.5766 10.9375 28 10.9375C37.4234 10.9375 45.0625 18.5766 45.0625 28C45.0625 37.4234 37.4234 45.0625 28 45.0625C18.5766 45.0625 10.9375 37.4234 10.9375 28ZM30.8484 21.1457C29.293 19.7848 26.7078 19.7848 25.1524 21.1457C24.6068 21.6231 23.7777 21.5678 23.3003 21.0223C22.823 20.4767 22.8783 19.6476 23.4238 19.1702C25.9689 16.9433 30.0319 16.9433 32.577 19.1702C35.2249 21.4871 35.2249 25.3254 32.577 27.6423C32.1278 28.0353 31.6332 28.3572 31.1116 28.6096C29.9281 29.1824 29.3129 29.9638 29.3129 30.625V31.9375C29.3129 32.6624 28.7253 33.25 28.0004 33.25C27.2755 33.25 26.6879 32.6624 26.6879 31.9375V30.625C26.6879 28.3867 28.5416 26.9371 29.9681 26.2468C30.2877 26.0921 30.5839 25.8982 30.8484 25.6668C32.3011 24.3957 32.3011 22.4168 30.8484 21.1457ZM28 38.5C28.7249 38.5 29.3125 37.9124 29.3125 37.1875C29.3125 36.4626 28.7249 35.875 28 35.875C27.2751 35.875 26.6875 36.4626 26.6875 37.1875C26.6875 37.9124 27.2751 38.5 28 38.5Z" fill="#E81899"/>
</svg>
