<svg width="14" height="16" viewBox="0 0 14 16" fill="none" xmlns="http://www.w3.org/2000/svg">
<path fill-rule="evenodd" clip-rule="evenodd" d="M12.3127 9.42357C11.5265 12.3576 8.51067 14.0988 5.57661 13.3127C4.60759 13.053 3.77054 12.5514 3.11082 11.8904L2.79929 11.5789L5.23252 11.5785C5.64673 11.5784 5.98246 11.2425 5.98238 10.8283C5.98231 10.4141 5.64646 10.0784 5.23225 10.0785L0.988815 10.0792C0.789898 10.0792 0.599145 10.1583 0.458516 10.299C0.317889 10.4397 0.238908 10.6305 0.23895 10.8294L0.239842 15.0712C0.239929 15.4854 0.575786 15.8211 0.989999 15.821C1.40421 15.821 1.73993 15.4851 1.73984 15.0709L1.73933 12.6403L2.04918 12.9501C2.89022 13.7926 3.9579 14.4318 5.18838 14.7615C8.92264 15.7621 12.761 13.5461 13.7616 9.8118C13.8688 9.41171 13.6314 9.00045 13.2313 8.89324C12.8312 8.78604 12.4199 9.02348 12.3127 9.42357ZM13.5416 5.70119C13.6823 5.56051 13.7613 5.36971 13.7613 5.17078L13.7606 0.928833C13.7605 0.514619 13.4246 0.178888 13.0104 0.178955C12.5962 0.179024 12.2605 0.514865 12.2606 0.929078L12.261 3.35995L11.9511 3.05013C11.1101 2.20771 10.0422 1.56827 8.81185 1.23859C5.07758 0.237997 1.23923 2.45407 0.238632 6.18834C0.131426 6.58844 0.368863 6.99969 0.768962 7.1069C1.16906 7.2141 1.58031 6.97667 1.68752 6.57657C2.4737 3.6425 5.48955 1.9013 8.42362 2.68748C9.39268 2.94714 10.2297 3.44881 10.8895 4.10979L11.2006 4.4209L8.76861 4.4209C8.3544 4.4209 8.01861 4.75669 8.01861 5.1709C8.01861 5.58512 8.3544 5.9209 8.76861 5.9209H13.0113C13.2102 5.9209 13.401 5.84187 13.5416 5.70119Z" fill="#CACBCE"/>
</svg>
