<svg width="150" height="150" viewBox="0 0 150 150" fill="none" xmlns="http://www.w3.org/2000/svg">
<g clip-path="url(#clip0_85_7148)">
<ellipse opacity="0.05" cx="75" cy="75" rx="75" ry="75" transform="matrix(1 -8.74228e-08 -8.74228e-08 -1 0 150)" fill="#47E0A0"/>
<ellipse opacity="0.2" cx="60.9848" cy="60.9187" rx="60.9848" ry="60.9187" transform="matrix(1 -8.74228e-08 -8.74228e-08 -1 14.0156 135.918)" fill="#47E0A0"/>
<path fill-rule="evenodd" clip-rule="evenodd" d="M74.7498 120.95C100.265 120.95 120.95 100.266 120.95 74.75C120.95 49.2345 100.265 28.55 74.7498 28.55C49.2342 28.55 28.5498 49.2345 28.5498 74.75C28.5498 100.266 49.2342 120.95 74.7498 120.95ZM97.0214 64.3038C98.4283 62.3692 98.0006 59.6604 96.066 58.2534C94.1315 56.8465 91.4226 57.2742 90.0157 59.2088L69.897 86.8719L59.0437 76.0186C57.3522 74.3272 54.6098 74.3272 52.9184 76.0186C51.2269 77.7101 51.2269 80.4525 52.9184 82.1439L67.3559 96.5814C68.2516 97.4771 69.4945 97.9358 70.7573 97.8367C72.0202 97.7377 73.1763 97.0907 73.9214 96.0663L97.0214 64.3038Z" fill="#47E0A0"/>
</g>
<defs>
<clipPath id="clip0_85_7148">
<rect width="150" height="150" fill="white"/>
</clipPath>
</defs>
</svg>
