<svg width="25" height="24" viewBox="0 0 25 24" fill="none" xmlns="http://www.w3.org/2000/svg">
<circle cx="12.6357" cy="12" r="12" fill="#E81899"/>
<path d="M19.4613 15.0975L17.0195 11.8461C16.7542 11.4928 16.3614 11.2811 15.9431 11.2345C15.8479 11.2236 15.7629 11.1695 15.7152 11.0878C15.6668 11.0062 15.6617 10.907 15.6999 10.8203C15.8674 10.442 15.8776 10.0029 15.6974 9.60128L14.0454 5.90326C13.8005 5.35414 13.2471 5 12.6357 5C12.0244 5 11.4709 5.35497 11.2261 5.90326L9.57409 9.60128C9.3947 10.0029 9.40405 10.442 9.57154 10.8203C9.6098 10.907 9.60385 11.0062 9.55624 11.0878C9.50778 11.1695 9.4236 11.2236 9.32838 11.2345C8.91007 11.2811 8.51727 11.4928 8.252 11.8461L5.81016 15.0975C5.44797 15.5799 5.41141 16.2266 5.71664 16.7457C6.02272 17.264 6.61277 17.5564 7.21983 17.4906L11.3136 17.044C11.7583 16.9957 12.1418 16.7682 12.3917 16.4365C12.4487 16.3607 12.5397 16.3157 12.6357 16.3157C12.7318 16.3157 12.8219 16.3607 12.8798 16.4365C13.1297 16.7682 13.5132 16.9957 13.9578 17.044L18.0517 17.4906C18.6587 17.5573 19.2488 17.2648 19.5548 16.7457C19.8601 16.2266 19.8235 15.5799 19.4613 15.0975ZM10.642 10.0654L12.2965 6.36322C12.356 6.23073 12.4895 6.1449 12.6366 6.1449C12.7837 6.1449 12.9172 6.23073 12.9767 6.36322L14.6312 10.0654C14.6831 10.1821 14.672 10.317 14.6006 10.4237C14.5292 10.5304 14.4085 10.5945 14.2775 10.5945H10.9948C10.8647 10.5945 10.7431 10.5304 10.6717 10.4237C10.6003 10.317 10.5893 10.1821 10.6411 10.0654H10.642ZM11.4913 15.7016C11.4327 15.8158 11.3187 15.8924 11.1895 15.9066L7.09145 16.3532C6.94521 16.369 6.80237 16.299 6.7284 16.1741C6.65443 16.0491 6.66378 15.8932 6.75136 15.7766L9.19574 12.5219C9.27311 12.4194 9.39725 12.361 9.52733 12.3685C9.65742 12.3752 9.77475 12.446 9.84021 12.5569L9.84276 12.561L11.4794 15.3391L11.482 15.3433C11.5475 15.4541 11.5509 15.5891 11.4922 15.7024L11.4913 15.7016ZM12.9724 14.445C12.9027 14.5625 12.7752 14.6359 12.6357 14.6359C12.4972 14.6359 12.3688 14.5634 12.2991 14.4459L11.0416 12.3119C10.9719 12.1944 10.9719 12.0486 11.0416 11.9311C11.1113 11.8136 11.2388 11.7403 11.3783 11.7403H13.8924C14.031 11.7403 14.1593 11.8119 14.2291 11.9302C14.2988 12.0486 14.2988 12.1936 14.2291 12.311L12.9724 14.445ZM18.5439 16.1741C18.47 16.299 18.328 16.3699 18.1809 16.354L14.0828 15.9074C13.9536 15.8932 13.8397 15.8166 13.781 15.7024C13.7223 15.5883 13.7257 15.4533 13.7912 15.3433L13.7937 15.3391L15.4304 12.561L15.433 12.5569C15.4984 12.446 15.6158 12.3752 15.7459 12.3685C15.8759 12.3619 16.0001 12.4194 16.0774 12.5219L18.5218 15.7766C18.6094 15.8932 18.6179 16.0491 18.5448 16.1741H18.5439Z" fill="#FAFAFA"/>
</svg>
