<svg width="120" height="120" viewBox="0 0 120 120" fill="none" xmlns="http://www.w3.org/2000/svg">
<g clip-path="url(#clip0_1133_14929)">
<ellipse opacity="0.05" cx="56.5" cy="56.5" rx="56.5" ry="56.5" transform="matrix(1 -8.74228e-08 -8.74228e-08 -1 3.01172 116)" fill="#EBB222"/>
<ellipse opacity="0.2" cx="45.9419" cy="45.8921" rx="45.9419" ry="45.8921" transform="matrix(1 -8.74228e-08 -8.74228e-08 -1 13.5703 105.393)" fill="#EBB222"/>
<path fill-rule="evenodd" clip-rule="evenodd" d="M93.4118 59.4996C93.4118 78.222 78.2342 93.3996 59.5118 93.3996C40.7894 93.3996 25.6118 78.222 25.6118 59.4996C25.6118 40.7772 40.7894 25.5996 59.5118 25.5996C78.2342 25.5996 93.4118 40.7772 93.4118 59.4996ZM59.5118 38.3121C61.267 38.3121 62.6899 39.735 62.6899 41.4902V60.559C62.6899 62.3142 61.267 63.7371 59.5118 63.7371C57.7566 63.7371 56.3337 62.3142 56.3337 60.559V41.4902C56.3337 39.735 57.7566 38.3121 59.5118 38.3121ZM59.5118 80.6871C61.8521 80.6871 63.7493 78.7899 63.7493 76.4496C63.7493 74.1093 61.8521 72.2121 59.5118 72.2121C57.1715 72.2121 55.2743 74.1093 55.2743 76.4496C55.2743 78.7899 57.1715 80.6871 59.5118 80.6871Z" fill="#EBB222"/>
</g>
<defs>
<clipPath id="clip0_1133_14929">
<rect width="120" height="120" fill="white"/>
</clipPath>
</defs>
</svg>
