<svg width="1344" height="250" viewBox="0 0 1344 250" fill="none" xmlns="http://www.w3.org/2000/svg">
<g clip-path="url(#clip0_728_20069)">
<rect width="1344" height="250" rx="30" fill="#191E28"/>
<path d="M-112.263 201.125L-112.263 476.852L78.1654 662.694H446.707L644.037 470.116V401.668L367.412 131.685L290.148 131.685L20.543 -131.421H-193V-68.6461L363.535 474.465H160.486L87.0994 402.85L87.0994 321.687L-37.0557 200.534L-112.263 201.125Z" fill="#2B303B" fill-opacity="0.5"/>
<path d="M833.612 -10.4304V-286.157L643.184 -472L274.642 -472L77.2888 -279.398V-210.95L353.938 59.0095H431.201L700.806 322.115H914.349V259.34L357.814 -283.77H560.863L634.25 -212.156V-130.993L758.381 -9.81587L833.612 -10.4304Z" fill="#2B303B" fill-opacity="0.5"/>
<rect x="1359.04" y="-185.618" width="473.04" height="741.11" transform="rotate(45 1359.04 -185.618)" fill="#FFC6E9"/>
<path fill-rule="evenodd" clip-rule="evenodd" d="M967.288 41.5919L921.354 -37.9683L910.474 -31.6865L910.439 -31.7465C893.109 -21.7407 889.342 4.1808 902.027 26.1507C914.665 48.0419 938.869 57.7498 956.187 47.9205L956.222 47.9812L967.288 41.5919Z" fill="#E81899"/>
<ellipse cx="944.422" cy="1.91197" rx="45.9341" ry="36.2638" transform="rotate(60 944.422 1.91197)" fill="#FF6FC8"/>
<path fill-rule="evenodd" clip-rule="evenodd" d="M1128.81 205.964L1208.37 251.899L1203.78 259.847L1203.83 259.881C1193.83 277.212 1167.91 280.978 1145.94 268.294C1124.05 255.654 1114.34 231.45 1124.17 214.132L1124.11 214.098L1128.81 205.964Z" fill="#E81899"/>
<path d="M1202.59 259.09C1187.57 272.883 1160.04 270.603 1141.17 254.138C1122.3 237.673 1119.17 213.091 1134.16 199.344C1149.18 185.551 1176.65 187.797 1195.58 204.296C1214.48 220.842 1217.58 245.343 1202.59 259.09Z" fill="#FF6FC8"/>
<path fill-rule="evenodd" clip-rule="evenodd" d="M1062.75 67.8074L1086.52 -20.9305L1076.87 -23.5163L1076.87 -23.5165C1069.31 -25.5442 1057.85 -7.32331 1051.28 17.181C1044.72 41.6593 1045.53 63.1481 1053.07 65.2149L1053.07 65.2151L1062.75 67.8074Z" fill="url(#paint0_linear_728_20069)"/>
<path fill-rule="evenodd" clip-rule="evenodd" d="M1108.21 103.247L1196.95 79.4698L1199.53 89.1197L1199.53 89.1196C1201.56 96.6871 1183.34 108.145 1158.83 114.71C1134.36 121.269 1112.87 120.466 1110.8 112.921L1110.8 112.921L1108.21 103.247Z" fill="url(#paint1_linear_728_20069)"/>
<path fill-rule="evenodd" clip-rule="evenodd" d="M1213.41 149.62L1121.54 149.62L1121.54 162.053L1121.54 162.053C1121.73 174.658 1142.22 184.848 1167.48 184.848C1192.73 184.848 1213.22 174.658 1213.41 162.053L1213.41 162.053L1213.41 161.894C1213.41 161.89 1213.41 161.885 1213.41 161.881L1213.41 149.62Z" fill="#E81899"/>
<path d="M1211.96 155.149C1205.85 167.461 1180.89 174.922 1156.34 171.87C1131.78 168.817 1116.79 156.336 1122.89 144.059C1129 131.747 1153.89 124.286 1178.52 127.338C1203.14 130.425 1218.06 142.872 1211.96 155.149Z" fill="#FF6FC8"/>
<ellipse cx="1016.6" cy="3.32706" rx="45.8974" ry="22.9487" transform="rotate(90 1016.6 3.32706)" fill="url(#paint2_linear_728_20069)"/>
<path fill-rule="evenodd" clip-rule="evenodd" d="M1022.43 -16.2064L1032.2 3.34595L1028.3 11.142L1018.53 -8.41037L1022.43 -16.2064ZM1010.74 -16.192L1026.37 15.0545L1022.47 22.8506L1006.85 -8.39589L1010.74 -16.192ZM1020.51 26.7409L1004.89 -4.50557L1000.99 3.29051L1016.62 34.537L1020.51 26.7409ZM1016.59 -27.8828L1020.49 -20.0867L1016.59 -12.2907L1012.69 -20.0867L1016.59 -27.8828Z" fill="white"/>
<path fill-rule="evenodd" clip-rule="evenodd" d="M1016.37 49.3921L1016.37 -42.4761L1004.11 -42.4761L1004.11 -42.4766C1004.08 -42.4766 1004.04 -42.4764 1004 -42.4761L1003.94 -42.4761L1003.94 -42.4753C991.335 -42.2898 981.145 -21.796 981.145 3.45754C981.145 28.7111 991.335 49.2048 1003.94 49.3904L1003.94 49.3921L1016.37 49.3921Z" fill="#E81899"/>
<ellipse cx="1016.42" cy="3.32706" rx="45.8974" ry="23.1239" transform="rotate(90 1016.42 3.32706)" fill="#FF6FC8"/>
<path fill-rule="evenodd" clip-rule="evenodd" d="M1108.32 103.359L1197.06 79.5822L1199.64 89.232L1199.64 89.2318C1201.67 96.7993 1183.45 108.257 1158.95 114.823C1134.47 121.381 1112.98 120.578 1110.91 113.034L1110.91 113.034L1108.32 103.359Z" fill="#E81899"/>
<ellipse cx="45.9341" cy="14.1601" rx="45.9341" ry="14.1601" transform="matrix(-0.965926 0.258819 0.258819 0.965926 1193.28 65.793)" fill="#FF6FC8"/>
<path fill-rule="evenodd" clip-rule="evenodd" d="M1061.13 67.2917L1084.9 -21.4462L1075.25 -24.032L1075.25 -24.0321C1067.69 -26.0598 1056.23 -7.83891 1049.66 16.6654C1043.1 41.1436 1043.91 62.6323 1051.45 64.6993L1051.45 64.6994L1061.13 67.2917Z" fill="#E81899"/>
<ellipse cx="1074.48" cy="23.4065" rx="46.0155" ry="14.1946" transform="rotate(105 1074.48 23.4065)" fill="#FF6FC8"/>
<rect x="1144.19" y="18.1904" width="15.4898" height="91.8682" transform="rotate(45 1144.19 18.1904)" fill="url(#paint3_linear_728_20069)"/>
<path d="M91.56 126H74.1L95.07 65.7H119.64L140.52 126H121.98L118.29 114.39H95.43L91.56 126ZM101.46 96.12L100.29 99.63H113.52L112.44 96.12L107.67 80.37H106.41L101.46 96.12ZM178.113 126H154.803L134.193 65.7H153.273L166.053 107.1H167.223L179.733 65.7H198.813L178.113 126ZM209.987 126H192.527L213.497 65.7H238.067L258.947 126H240.407L236.717 114.39H213.857L209.987 126ZM219.887 96.12L218.717 99.63H231.947L230.867 96.12L226.097 80.37H224.837L219.887 96.12ZM309.631 126H262.471V65.7H279.391V110.79H309.631V126ZM341.787 126.9C322.617 126.9 311.457 114.66 311.457 95.85C311.457 77.04 322.617 64.8 341.787 64.8C360.867 64.8 372.027 77.04 372.027 95.85C372.027 114.66 360.867 126.9 341.787 126.9ZM341.787 110.43C351.057 110.43 353.847 107.46 353.847 95.85C353.847 84.24 351.057 81.27 341.787 81.27C332.427 81.27 329.637 84.24 329.637 95.85C329.637 107.46 332.427 110.43 341.787 110.43ZM395.884 126H378.964V65.7H397.054L413.884 92.79L417.844 100.17H419.014L418.114 92.79V65.7H434.944V126H416.944L401.014 100.89L396.154 92.34H394.984L395.884 100.89V126ZM473.624 126H456.164L477.134 65.7H501.704L522.584 126H504.044L500.354 114.39H477.494L473.624 126ZM483.524 96.12L482.354 99.63H495.584L494.504 96.12L489.734 80.37H488.474L483.524 96.12ZM543.027 126H526.107V65.7H543.027V126ZM569.282 126H552.362V65.7H582.692C597.902 65.7 605.102 72.18 605.102 84.24C605.102 93.78 601.412 99.72 591.242 100.89V101.7C597.362 103.32 599.792 107.19 602.132 112.32L608.432 126H588.722L582.782 113.49C580.262 108.27 579.092 106.74 573.422 106.74H569.282V126ZM569.282 80.91V92.7H582.062C586.832 92.7 588.182 91.35 588.182 86.58C588.182 82.17 586.832 80.91 582.062 80.91H569.282ZM639.08 126H613.07V65.7H639.08C658.88 65.7 669.77 76.77 669.77 95.85C669.77 114.93 658.88 126 639.08 126ZM638.18 80.91H629.99V110.79H638.18C648.8 110.79 651.5 108.54 651.5 95.85C651.5 83.16 648.8 80.91 638.18 80.91ZM693.598 126H676.678V65.7H707.008C722.218 65.7 729.418 72.18 729.418 84.24C729.418 93.78 725.728 99.72 715.558 100.89V101.7C721.678 103.32 724.108 107.19 726.448 112.32L732.748 126H713.038L707.098 113.49C704.578 108.27 703.408 106.74 697.738 106.74H693.598V126ZM693.598 80.91V92.7H706.378C711.148 92.7 712.498 91.35 712.498 86.58C712.498 82.17 711.148 80.91 706.378 80.91H693.598ZM766.366 126.9C747.196 126.9 736.036 114.66 736.036 95.85C736.036 77.04 747.196 64.8 766.366 64.8C785.446 64.8 796.606 77.04 796.606 95.85C796.606 114.66 785.446 126.9 766.366 126.9ZM766.366 110.43C775.636 110.43 778.426 107.46 778.426 95.85C778.426 84.24 775.636 81.27 766.366 81.27C757.006 81.27 754.216 84.24 754.216 95.85C754.216 107.46 757.006 110.43 766.366 110.43ZM820.463 126H803.543V65.7H832.073C846.473 65.7 855.743 74.07 855.743 87.93C855.743 102.24 846.473 110.07 832.073 110.07H820.463V126ZM831.443 80.91H820.463V94.95H831.443C837.203 94.95 838.823 93.87 838.823 87.93C838.823 81.99 837.203 80.91 831.443 80.91Z" fill="#E81899"/>
<path d="M90.345 188H81.885V168.2H75V161.585H76.485C79.32 161.585 81.12 160.55 82.47 157.85H90.345V188ZM110.207 188.45C100.982 188.45 96.2115 182.195 96.2115 172.925C96.2115 163.7 100.982 157.4 110.207 157.4C119.387 157.4 124.202 163.7 124.202 172.925C124.202 182.195 119.387 188.45 110.207 188.45ZM110.207 180.215C114.077 180.215 115.112 179.18 115.112 172.925C115.112 166.67 114.077 165.635 110.207 165.635C106.292 165.635 105.302 166.67 105.302 172.925C105.302 179.18 106.292 180.215 110.207 180.215ZM143.262 188.45C134.037 188.45 129.267 182.195 129.267 172.925C129.267 163.7 134.037 157.4 143.262 157.4C152.442 157.4 157.257 163.7 157.257 172.925C157.257 182.195 152.442 188.45 143.262 188.45ZM143.262 180.215C147.132 180.215 148.167 179.18 148.167 172.925C148.167 166.67 147.132 165.635 143.262 165.635C139.347 165.635 138.357 166.67 138.357 172.925C138.357 179.18 139.347 180.215 143.262 180.215ZM169.997 188H160.187L168.692 173.015V172.61L160.187 157.85H170.132L175.622 167.66H176.027L181.112 157.85H190.922L182.507 172.43V172.835L190.922 188H180.977L175.487 178.28H175.082L169.997 188ZM220.138 188H211.678V165.455H202.408V157.85H229.408V165.455H220.138V188ZM241.786 188H231.976L240.481 173.015V172.61L231.976 157.85H241.921L247.411 167.66H247.816L252.901 157.85H262.711L254.296 172.43V172.835L262.711 188H252.766L247.276 178.28H246.871L241.786 188ZM295.257 188H283.602L273.297 157.85H282.837L289.227 178.55H289.812L296.067 157.85H305.607L295.257 188ZM312.094 188H303.364L313.849 157.85H326.134L336.574 188H327.304L325.459 182.195H314.029L312.094 188ZM317.044 173.06L316.459 174.815H323.074L322.534 173.06L320.149 165.185H319.519L317.044 173.06ZM362.816 188H339.236V157.85H347.696V180.395H362.816V188ZM379.944 188.45C370.629 188.45 366.354 183.68 366.354 176.345V157.85H374.814V175.895C374.814 179.27 375.624 180.215 379.944 180.215C384.264 180.215 385.074 179.27 385.074 175.895V157.85H393.534V176.345C393.534 183.68 389.259 188.45 379.944 188.45ZM423.233 188H398.888V157.85H423.233V165.455H407.348V169.1H422.558V176.66H407.348V180.395H423.233V188ZM449.329 164.915C448.069 164.915 447.349 165.365 447.349 167.12C447.349 168.695 448.069 169.145 449.329 169.145H454.594V166.22H462.919V169.145H467.284V176.075H462.919V177.875C462.919 184.67 459.904 188.45 450.094 188.45C441.679 188.45 437.494 185.93 437.494 179.675C437.494 175.04 440.599 172.79 444.064 172.475V172.25C440.599 171.89 438.889 169.1 438.889 165.545C438.889 159.38 443.344 157.22 449.734 157.22H453.784V164.915H449.329ZM450.544 180.755C454.189 180.755 454.594 180.395 454.594 177.785V176.075H448.834C447.034 176.075 446.089 176.345 446.089 178.55C446.089 180.71 447.034 180.755 450.544 180.755ZM489.033 188H480.573V157.85H494.838C502.038 157.85 506.673 162.035 506.673 168.965C506.673 176.12 502.038 180.035 494.838 180.035H489.033V188ZM494.523 165.455H489.033V172.475H494.523C497.403 172.475 498.213 171.935 498.213 168.965C498.213 165.995 497.403 165.455 494.523 165.455ZM525.218 188.45C515.633 188.45 510.053 182.33 510.053 172.925C510.053 163.52 515.633 157.4 525.218 157.4C534.758 157.4 540.338 163.52 540.338 172.925C540.338 182.33 534.758 188.45 525.218 188.45ZM525.218 180.215C529.853 180.215 531.248 178.73 531.248 172.925C531.248 167.12 529.853 165.635 525.218 165.635C520.538 165.635 519.143 167.12 519.143 172.925C519.143 178.73 520.538 180.215 525.218 180.215ZM553.167 188H544.707V157.85H553.167V188ZM567.194 188H558.734V157.85H567.779L576.194 171.395L578.174 175.085H578.759L578.309 171.395V157.85H586.724V188H577.724L569.759 175.445L567.329 171.17H566.744L567.194 175.445V188ZM608.219 188H599.759V165.455H590.489V157.85H617.489V165.455H608.219V188ZM634.376 188.45C625.736 188.45 621.416 184.4 621.416 178.1V177.515H629.741V177.875C629.741 180.35 630.641 180.845 634.691 180.845C637.886 180.845 638.561 180.35 638.561 179.045C638.561 177.65 638.111 177.2 636.041 176.885L629.471 175.85C623.351 174.905 620.831 171.665 620.831 166.985C620.831 161.63 624.926 157.4 633.791 157.4C642.206 157.4 646.211 161.63 646.211 167.255V168.02H637.886V167.48C637.886 165.725 637.031 165.005 633.251 165.005C630.056 165.005 629.246 165.545 629.246 166.67C629.246 167.615 629.831 168.02 631.586 168.335L638.156 169.505C644.546 170.63 647.021 173.96 647.021 178.64C647.021 183.905 643.421 188.45 634.376 188.45Z" fill="#5DDEB5"/>
<rect x="687" y="149" width="170" height="48" rx="24" fill="#C8047D"/>
<path d="M722.246 179.16C721.168 179.16 720.238 178.909 719.454 178.408C718.67 177.907 718.064 177.203 717.638 176.296C717.216 175.389 717.006 174.331 717.006 173.12C717.006 171.904 717.216 170.861 717.638 169.992C718.059 169.117 718.662 168.445 719.446 167.976C720.23 167.507 721.163 167.272 722.246 167.272C723.115 167.272 723.888 167.448 724.566 167.8C725.248 168.147 725.798 168.621 726.214 169.224C726.635 169.827 726.883 170.507 726.958 171.264H724.51C724.435 170.864 724.299 170.509 724.102 170.2C723.904 169.885 723.646 169.64 723.326 169.464C723.006 169.283 722.622 169.192 722.174 169.192C721.635 169.192 721.171 169.323 720.782 169.584C720.392 169.845 720.094 170.267 719.886 170.848C719.678 171.429 719.574 172.197 719.574 173.152C719.574 174.592 719.803 175.635 720.262 176.28C720.726 176.92 721.363 177.24 722.174 177.24C722.622 177.24 723.006 177.139 723.326 176.936C723.646 176.728 723.904 176.456 724.102 176.12C724.299 175.779 724.435 175.405 724.51 175H726.958C726.888 175.549 726.755 176.075 726.558 176.576C726.36 177.072 726.08 177.515 725.718 177.904C725.355 178.293 724.888 178.6 724.318 178.824C723.747 179.048 723.056 179.16 722.246 179.16ZM731.442 179.144C730.834 179.144 730.352 179.072 729.994 178.928C729.637 178.784 729.373 178.595 729.202 178.36C729.032 178.12 728.922 177.856 728.874 177.568C728.826 177.275 728.802 176.979 728.802 176.68V167.112H731.09V176.392C731.09 176.696 731.154 176.944 731.282 177.136C731.416 177.323 731.664 177.437 732.026 177.48L732.418 177.504V178.944C732.258 178.997 732.096 179.043 731.93 179.08C731.765 179.123 731.602 179.144 731.442 179.144ZM736.526 179.16C736.003 179.16 735.528 179.061 735.102 178.864C734.68 178.667 734.347 178.381 734.102 178.008C733.856 177.629 733.734 177.171 733.734 176.632C733.734 175.725 734.072 175.037 734.75 174.568C735.427 174.093 736.496 173.848 737.958 173.832L738.998 173.816V173.32C738.998 172.941 738.886 172.651 738.662 172.448C738.443 172.24 738.099 172.139 737.63 172.144C737.294 172.149 736.971 172.229 736.662 172.384C736.358 172.539 736.147 172.808 736.03 173.192H734.086C734.118 172.595 734.291 172.104 734.606 171.72C734.926 171.331 735.355 171.043 735.894 170.856C736.432 170.664 737.048 170.568 737.742 170.568C738.584 170.568 739.262 170.675 739.774 170.888C740.286 171.096 740.656 171.397 740.886 171.792C741.12 172.181 741.238 172.645 741.238 173.184V179H739.286L739.094 177.576C738.811 178.173 738.456 178.587 738.03 178.816C737.608 179.045 737.107 179.16 736.526 179.16ZM737.318 177.624C737.526 177.624 737.728 177.587 737.926 177.512C738.128 177.432 738.31 177.328 738.47 177.2C738.63 177.067 738.755 176.917 738.846 176.752C738.942 176.587 738.992 176.416 738.998 176.24V175.016L738.158 175.032C737.768 175.037 737.406 175.085 737.07 175.176C736.734 175.261 736.462 175.403 736.254 175.6C736.051 175.797 735.95 176.064 735.95 176.4C735.95 176.784 736.08 177.085 736.342 177.304C736.608 177.517 736.934 177.624 737.318 177.624ZM743.236 179V170.728H745.468V179H743.236ZM743.212 169.544V167.44H745.484V169.544H743.212ZM747.605 179V170.728H749.893V171.896C750.143 171.533 750.479 171.221 750.901 170.96C751.327 170.699 751.863 170.568 752.509 170.568C752.791 170.568 753.079 170.619 753.373 170.72C753.666 170.821 753.941 170.971 754.197 171.168C754.458 171.36 754.669 171.603 754.829 171.896C755.095 171.517 755.445 171.203 755.877 170.952C756.314 170.696 756.799 170.568 757.333 170.568C757.642 170.568 757.954 170.619 758.269 170.72C758.589 170.821 758.882 170.987 759.149 171.216C759.415 171.445 759.629 171.752 759.789 172.136C759.954 172.515 760.037 172.984 760.037 173.544V179H757.701V173.832C757.701 173.501 757.634 173.237 757.501 173.04C757.373 172.837 757.207 172.693 757.005 172.608C756.807 172.517 756.597 172.472 756.373 172.472C756.165 172.472 755.954 172.515 755.741 172.6C755.527 172.68 755.346 172.811 755.197 172.992C755.047 173.173 754.973 173.411 754.973 173.704V179H752.645V173.624C752.645 173.373 752.578 173.163 752.445 172.992C752.311 172.821 752.143 172.693 751.941 172.608C751.743 172.517 751.541 172.472 751.333 172.472C751.119 172.472 750.906 172.517 750.693 172.608C750.479 172.693 750.301 172.829 750.157 173.016C750.013 173.197 749.941 173.427 749.941 173.704V179H747.605ZM769.216 179.16C768.406 179.16 767.699 178.987 767.096 178.64C766.499 178.293 766.035 177.803 765.704 177.168C765.379 176.533 765.216 175.781 765.216 174.912C765.216 174.043 765.379 173.283 765.704 172.632C766.035 171.981 766.499 171.475 767.096 171.112C767.699 170.749 768.408 170.568 769.224 170.568C770.04 170.568 770.747 170.747 771.344 171.104C771.942 171.456 772.403 171.957 772.728 172.608C773.054 173.259 773.216 174.027 773.216 174.912C773.216 175.744 773.056 176.48 772.736 177.12C772.422 177.755 771.966 178.253 771.368 178.616C770.776 178.979 770.059 179.16 769.216 179.16ZM769.224 177.424C769.635 177.424 769.966 177.304 770.216 177.064C770.467 176.824 770.648 176.509 770.76 176.12C770.872 175.725 770.928 175.296 770.928 174.832C770.928 174.395 770.878 173.981 770.776 173.592C770.675 173.203 770.499 172.888 770.248 172.648C769.998 172.408 769.656 172.288 769.224 172.288C768.814 172.288 768.48 172.403 768.224 172.632C767.974 172.856 767.79 173.163 767.672 173.552C767.555 173.936 767.496 174.363 767.496 174.832C767.496 175.264 767.55 175.68 767.656 176.08C767.763 176.475 767.942 176.797 768.192 177.048C768.443 177.299 768.787 177.424 769.224 177.424ZM774.892 179V170.728H777.188V171.896C777.316 171.693 777.481 171.499 777.684 171.312C777.892 171.12 778.153 170.963 778.468 170.84C778.782 170.717 779.156 170.656 779.588 170.656C780.094 170.656 780.566 170.755 781.004 170.952C781.446 171.149 781.804 171.461 782.076 171.888C782.348 172.309 782.484 172.861 782.484 173.544V179H780.148V173.832C780.148 173.384 780.014 173.048 779.748 172.824C779.481 172.6 779.156 172.488 778.772 172.488C778.516 172.488 778.268 172.533 778.028 172.624C777.793 172.715 777.601 172.851 777.452 173.032C777.302 173.213 777.228 173.437 777.228 173.704V179H774.892ZM790.945 179V169.512H787.449V167.432H796.705V169.512H793.289V179H790.945ZM799.572 179.16C799.049 179.16 798.575 179.061 798.148 178.864C797.727 178.667 797.393 178.381 797.148 178.008C796.903 177.629 796.78 177.171 796.78 176.632C796.78 175.725 797.119 175.037 797.796 174.568C798.473 174.093 799.543 173.848 801.004 173.832L802.044 173.816V173.32C802.044 172.941 801.932 172.651 801.708 172.448C801.489 172.24 801.145 172.139 800.676 172.144C800.34 172.149 800.017 172.229 799.708 172.384C799.404 172.539 799.193 172.808 799.076 173.192H797.132C797.164 172.595 797.337 172.104 797.652 171.72C797.972 171.331 798.401 171.043 798.94 170.856C799.479 170.664 800.095 170.568 800.788 170.568C801.631 170.568 802.308 170.675 802.82 170.888C803.332 171.096 803.703 171.397 803.932 171.792C804.167 172.181 804.284 172.645 804.284 173.184V179H802.332L802.14 177.576C801.857 178.173 801.503 178.587 801.076 178.816C800.655 179.045 800.153 179.16 799.572 179.16ZM800.364 177.624C800.572 177.624 800.775 177.587 800.972 177.512C801.175 177.432 801.356 177.328 801.516 177.2C801.676 177.067 801.801 176.917 801.892 176.752C801.988 176.587 802.039 176.416 802.044 176.24V175.016L801.204 175.032C800.815 175.037 800.452 175.085 800.116 175.176C799.78 175.261 799.508 175.403 799.3 175.6C799.097 175.797 798.996 176.064 798.996 176.4C798.996 176.784 799.127 177.085 799.388 177.304C799.655 177.517 799.98 177.624 800.364 177.624ZM806.282 179V170.728H808.514V179H806.282ZM806.258 169.544V167.44H808.53V169.544H806.258ZM810.651 179V167.112H812.987V174.16L816.027 170.728H818.539L815.531 174.024L818.643 179H816.315L814.083 175.432L812.987 176.6V179H810.651ZM823.167 179.16C822.356 179.16 821.65 178.987 821.047 178.64C820.45 178.293 819.986 177.803 819.655 177.168C819.33 176.533 819.167 175.781 819.167 174.912C819.167 174.043 819.33 173.283 819.655 172.632C819.986 171.981 820.45 171.475 821.047 171.112C821.65 170.749 822.359 170.568 823.175 170.568C823.991 170.568 824.698 170.747 825.295 171.104C825.892 171.456 826.354 171.957 826.679 172.608C827.004 173.259 827.167 174.027 827.167 174.912C827.167 175.744 827.007 176.48 826.687 177.12C826.372 177.755 825.916 178.253 825.319 178.616C824.727 178.979 824.01 179.16 823.167 179.16ZM823.175 177.424C823.586 177.424 823.916 177.304 824.167 177.064C824.418 176.824 824.599 176.509 824.711 176.12C824.823 175.725 824.879 175.296 824.879 174.832C824.879 174.395 824.828 173.981 824.727 173.592C824.626 173.203 824.45 172.888 824.199 172.648C823.948 172.408 823.607 172.288 823.175 172.288C822.764 172.288 822.431 172.403 822.175 172.632C821.924 172.856 821.74 173.163 821.623 173.552C821.506 173.936 821.447 174.363 821.447 174.832C821.447 175.264 821.5 175.68 821.607 176.08C821.714 176.475 821.892 176.797 822.143 177.048C822.394 177.299 822.738 177.424 823.175 177.424Z" fill="#F3F3F3"/>
</g>
<defs>
<linearGradient id="paint0_linear_728_20069" x1="1074.63" y1="23.4383" x2="1051.28" y2="17.181" gradientUnits="userSpaceOnUse">
<stop stop-color="#F8D33A"/>
<stop offset="0.965864" stop-color="#FFA142"/>
</linearGradient>
<linearGradient id="paint1_linear_728_20069" x1="1152.58" y1="91.3584" x2="1158.83" y2="114.71" gradientUnits="userSpaceOnUse">
<stop stop-color="#F8D33A"/>
<stop offset="0.965864" stop-color="#FFA142"/>
</linearGradient>
<linearGradient id="paint2_linear_728_20069" x1="1016.6" y1="-19.6216" x2="1016.6" y2="26.2758" gradientUnits="userSpaceOnUse">
<stop stop-color="#F0B90B"/>
<stop offset="0.403354" stop-color="#F8D33A"/>
</linearGradient>
<linearGradient id="paint3_linear_728_20069" x1="1169.46" y1="-8.28549" x2="1124.15" y2="-3.89943" gradientUnits="userSpaceOnUse">
<stop stop-color="#E81899"/>
<stop offset="0.925484" stop-color="#C8047D"/>
</linearGradient>
<clipPath id="clip0_728_20069">
<rect width="1344" height="250" rx="30" fill="white"/>
</clipPath>
</defs>
</svg>
