<?xml version="1.0" encoding="utf-8"?>
<!-- Generator: Adobe Illustrator 28.0.0, SVG Export Plug-In . SVG Version: 6.00 Build 0)  -->
<svg version="1.1" id="Layer_1" xmlns="http://www.w3.org/2000/svg"
    xmlns:xlink="http://www.w3.org/1999/xlink" x="0px" y="0px"
    viewBox="0 0 40 40" style="enable-background:new 0 0 40 40;" xml:space="preserve">
<style type="text/css">
	.st0{fill-rule:evenodd;clip-rule:evenodd;fill:url(#SVGID_1_);}
	.st1{fill-rule:evenodd;clip-rule:evenodd;fill:#FEFFFE;}
	.st2{fill-rule:evenodd;clip-rule:evenodd;fill:#D2FD2B;}
</style>
<linearGradient id="SVGID_1_" gradientUnits="userSpaceOnUse" x1="328.2164" y1="22" x2="358.3078" y2="22" gradientTransform="matrix(1 0 0 -1 0 42)">
	<stop  offset="0" style="stop-color:#92FE9D"/>
	<stop  offset="1" style="stop-color:#00C9FF"/>
	<stop  offset="1" style="stop-color:#00C9FF"/>
</linearGradient>
<path class="st0" d="M330.5,14.6l-2.3,1.4c0,6.2,0,12.4,0,18.7l2.3,1.3l11.6-6.7l-4.6-2.7l-4.6,2.7c0-2.7,0-5.3,0-8l20.8,12l4.6-2.7
	L330.5,14.6z M351.3,24l7-4c-9.3-5.3-18.5-10.6-27.8-16l-2.3,1.3v5.4l2.3-1.4c6.2,3.5,12.3,7.1,18.5,10.6l-2.3,1.4L351.3,24z"/>
<g>
	<path class="st1" d="M31.9,12.5c0.1,0.2,0.2,0.3,0.3,0.3s0.2,0,0.4-0.1l0.3-0.1c0.2-0.1,0.3-0.2,0.3-0.3c0-0.1,0-0.2-0.1-0.4
		c-2.7-4.3-7.4-7.1-12.8-7.2c-5.4-0.1-10.2,2.6-13,6.8c-0.1,0.2-0.2,0.3-0.2,0.4c0,0.1,0.1,0.2,0.3,0.3l0.3,0.2
		c0.2,0.1,0.3,0.2,0.4,0.1c0.1,0,0.2-0.1,0.3-0.3c2.6-3.8,7-6.3,11.9-6.2C25.2,6,29.5,8.6,31.9,12.5z M20.2,34.9
		c0,0.2,0,0.3,0.1,0.4c0.1,0.1,0.2,0.1,0.4,0.1c8-0.3,14.5-6.9,14.7-15.1c0-2.4-0.5-4.7-1.4-6.7c-0.1-0.2-0.1-0.3-0.2-0.3
		c-0.1,0-0.2,0-0.4,0.1L33,13.5c-0.2,0.1-0.3,0.2-0.3,0.2c0,0.1,0,0.2,0.1,0.4c0.9,1.9,1.3,4,1.3,6.2C34,27.7,28,33.8,20.7,34.1
		c-0.2,0-0.3,0-0.4,0.1c-0.1,0.1-0.1,0.2-0.1,0.4L20.2,34.9z M6.3,13.1c-1,2-1.6,4.3-1.7,6.7c-0.1,8.2,6.1,14.9,14.1,15.6
		c0.2,0,0.3,0,0.4,0c0.1-0.1,0.1-0.2,0.1-0.4l0-0.3c0-0.2,0-0.3-0.1-0.4c-0.1-0.1-0.2-0.1-0.4-0.1c-7.4-0.6-13.1-6.8-13-14.3
		c0-2.2,0.6-4.3,1.5-6.1c0.1-0.2,0.1-0.3,0.1-0.4c0-0.1-0.1-0.1-0.3-0.2L7,12.9c-0.2-0.1-0.3-0.2-0.4-0.1
		C6.5,12.8,6.4,12.9,6.3,13.1z M14.4,14.2c2.3-2.3,5-3.7,7.6-4.1c2.5-0.4,4.7,0.1,6.2,1.6c1.5,1.5,2,3.7,1.6,6.2
		c-0.4,2.5-1.8,5.2-4.1,7.6c-2.3,2.3-5,3.7-7.6,4.1c-2.5,0.4-4.7-0.1-6.2-1.6c-1.5-1.5-2-3.7-1.6-6.2C10.7,19.2,12,16.5,14.4,14.2z
		 M29.4,10.4c-2-2-4.9-2.6-7.8-2.1c-2.9,0.5-6,2.1-8.6,4.6c-2.5,2.5-4.1,5.6-4.6,8.6c-0.5,2.9,0.1,5.8,2.1,7.8s4.9,2.6,7.8,2.1
		c2.9-0.5,6-2.1,8.6-4.6c2.5-2.5,4.1-5.6,4.6-8.6C32,15.3,31.4,12.4,29.4,10.4z"/>
	<path class="st2" d="M19.5,12.7c-0.4,0.8-1.1,1.5-1.9,1.9c-0.1,0.1-0.1,0.3,0,0.3c0.8,0.4,1.5,1.1,1.9,1.9c0.1,0.1,0.3,0.1,0.3,0
		c0.4-0.8,1.1-1.5,1.9-1.9c0.1-0.1,0.1-0.3,0-0.3c-0.8-0.4-1.5-1.1-1.9-1.9C19.8,12.6,19.6,12.6,19.5,12.7z M25.2,25
		c-4.3,4.3-10,5.4-12.9,2.5c-1-1-1.5-2.4-1.6-4c0-0.4,0-0.5,0.1-0.7c0.1-0.1,0.3-0.1,0.7-0.2c2.7-0.2,5.5-0.3,8.5-0.3
		c1.9,0,3.8,0,5.6,0.1c0.7,0,1.1,0,1.2,0.3c0.1,0.3-0.1,0.5-0.5,1.1C25.9,24.3,25.6,24.7,25.2,25z"/>
</g>
</svg>