<?xml version="1.0" encoding="utf-8"?>
<!-- Generator: Adobe Illustrator 28.0.0, SVG Export Plug-In . SVG Version: 6.00 Build 0)  -->
<svg version="1.1" id="Layer_1" xmlns="http://www.w3.org/2000/svg"
    xmlns:xlink="http://www.w3.org/1999/xlink" x="0px" y="0px"
    viewBox="0 0 40 40" style="enable-background:new 0 0 40 40;" xml:space="preserve">
<style type="text/css">
	.st0{fill-rule:evenodd;clip-rule:evenodd;fill:url(#SVGID_1_);}
	.st1{fill-rule:evenodd;clip-rule:evenodd;fill:#FEFFFE;}
	.st2{fill-rule:evenodd;clip-rule:evenodd;fill:#D2FD2B;}
	.st3{fill-rule:evenodd;clip-rule:evenodd;fill:#FFFFFF;}
	.st4{fill-rule:evenodd;clip-rule:evenodd;}
</style>
<rect y="0" class="st3" width="40" height="40"/>
<path class="st4" d="M27,15.4l4.1,1.8c0.1,0,0.2,0,0.3,0l4.1-1.8c0.2-0.1,0.4,0,0.5,0.2c0,0,0,0.1,0,0.2v1.5c0,0.2-0.1,0.3-0.2,0.4
	l-4.4,2c-0.1,0-0.2,0-0.3,0l-4.4-2c-0.1-0.1-0.2-0.2-0.2-0.4v-1.5C26.4,15.5,26.7,15.3,27,15.4 M8.5,24.7c2.9,0,4.7-2.1,4.7-4.9
	c0-2.6-1.9-4.4-4.7-4.4H4.4c-0.3,0-0.5,0.2-0.5,0.5v8.3c0,0.3,0.2,0.5,0.5,0.5L8.5,24.7z M11,19.8c0,1.8-1.2,3-3.1,3H6.4
	c-0.3,0-0.5-0.2-0.5-0.5v-4.5c0-0.3,0.2-0.5,0.5-0.5h1.5C9.8,17.3,11,18.2,11,19.8 M20.9,17.4h3.2l0,0c0.2,0,0.4-0.2,0.4-0.4
	c0,0,0,0,0,0v-1.3c0-0.2-0.2-0.4-0.4-0.4c0,0,0,0,0,0H15c-0.2,0-0.4,0.2-0.4,0.4c0,0,0,0,0,0V17c0,0.2,0.2,0.4,0.4,0.4h3.2
	c0.2,0,0.4,0.2,0.4,0.4v6.6c0,0.2,0.2,0.4,0.4,0.4h1.3c0.2,0,0.4-0.2,0.4-0.4c0,0,0,0,0,0v-6.6C20.6,17.5,20.7,17.4,20.9,17.4
	 M26.4,22.9v1.3c0,0.3,0.3,0.5,0.5,0.4l4.1-1.8c0.1,0,0.2,0,0.3,0l4.1,1.8c0.2,0.1,0.4,0,0.5-0.2c0,0,0-0.1,0-0.2v-1.3
	c0-0.2-0.1-0.3-0.2-0.4l-4.4-2c-0.1,0-0.2,0-0.3,0l-4.4,2C26.5,22.6,26.4,22.8,26.4,22.9"/>
</svg>