<svg width="771" height="164" viewBox="0 0 771 164" fill="none" xmlns="http://www.w3.org/2000/svg">
<path d="M1.05626 165.255H-26.7437L37.4668 0.423927H75.5994L139.81 165.255H111.026L94.2967 122.448H17.7854L1.05626 165.255ZM44.3553 55.0397L27.1341 98.5847H84.9481L67.7269 55.0397L57.1482 24.5336H55.18L44.3553 55.0397ZM169.455 27.4858H143.131L142.885 0.423927H169.455V27.4858ZM169.701 165.255H143.131V42.2468H169.701V165.255ZM212.058 165.255H185.488V42.2468H209.844V61.6822H211.074C215.994 50.3654 227.311 40.5247 245.27 40.5247C270.856 40.5247 280.697 59.222 280.697 82.1016V90.2202H254.127V85.2998C254.127 69.0627 249.453 63.1583 233.954 63.1583C217.963 63.1583 212.058 69.3087 212.058 85.5458V165.255ZM338.032 167.716C303.098 167.716 284.155 142.868 284.155 103.997C284.155 65.3724 302.852 40.5247 336.556 40.5247C358.206 40.5247 371.245 50.8574 376.657 61.9282H377.395V0.423927H403.719V165.255H379.363V145.082H378.379C372.475 159.105 358.944 167.716 338.032 167.716ZM310.724 103.997C310.724 134.257 320.319 145.082 343.937 145.082C365.586 145.082 377.395 135.487 377.395 115.068V93.1724C377.395 72.7529 365.586 63.1583 343.937 63.1583C320.565 63.1583 310.724 73.983 310.724 103.997ZM447.821 165.255H421.251V42.2468H445.607V61.6822H446.837C451.758 50.3654 463.074 40.5247 481.034 40.5247C506.619 40.5247 516.46 59.222 516.46 82.1016V90.2202H489.89V85.2998C489.89 69.0627 485.216 63.1583 469.717 63.1583C453.726 63.1583 447.821 69.3087 447.821 85.5458V165.255ZM580.93 167.716C543.289 167.716 519.918 142.13 519.918 103.997C519.918 66.1105 543.289 40.5247 580.93 40.5247C618.325 40.5247 640.958 66.1105 640.958 103.997C640.958 142.13 618.325 167.716 580.93 167.716ZM580.93 144.098C606.516 144.098 615.372 131.551 615.372 103.997C615.372 76.6892 606.516 64.1424 580.93 64.1424C555.098 64.1424 545.996 76.6892 545.996 103.997C545.996 131.551 555.098 144.098 580.93 144.098ZM677.549 207.816H651.226V42.9849H675.335V63.1583H676.565C682.224 48.8893 696.247 40.5247 717.404 40.5247C751.847 40.5247 770.79 65.3724 770.79 104.243C770.79 142.868 752.339 167.716 719.126 167.716C697.231 167.716 683.7 157.629 678.287 146.312H677.549V207.816ZM677.549 115.068C677.549 135.487 689.358 145.082 711.008 145.082C734.379 145.082 744.22 134.257 744.22 104.243C744.22 73.983 734.625 63.1583 711.008 63.1583C689.358 63.1583 677.549 72.7529 677.549 93.1724V115.068Z" fill="white"/>
</svg>
