<svg width="780" height="89" viewBox="0 0 780 89" fill="none" xmlns="http://www.w3.org/2000/svg">
<mask id="mask0_68_1588" style="mask-type:alpha" maskUnits="userSpaceOnUse" x="-29" y="0" width="809" height="89">
<rect x="-29" width="809" height="88.4556" fill="#D9D9D9"/>
</mask>
<g mask="url(#mask0_68_1588)">
<mask id="path-2-inside-1_68_1588" fill="white">
<path d="M1.05626 174.358H-26.7437L37.4668 9.52634H75.5994L139.81 174.358H111.026L94.2967 131.551H17.7854L1.05626 174.358ZM44.3553 64.1421L27.1341 107.687H84.9481L67.7269 64.1421L57.1482 33.636H55.18L44.3553 64.1421ZM169.455 36.5882H143.131L142.885 9.52634H169.455V36.5882ZM169.701 174.358H143.131V51.3493H169.701V174.358ZM212.058 174.358H185.488V51.3493H209.844V70.7846H211.074C215.994 59.4678 227.311 49.6271 245.27 49.6271C270.856 49.6271 280.697 68.3244 280.697 91.204V99.3226H254.127V94.4022C254.127 78.1651 249.453 72.2607 233.954 72.2607C217.963 72.2607 212.058 78.4111 212.058 94.6483V174.358ZM338.032 176.818C303.098 176.818 284.155 151.97 284.155 113.1C284.155 74.4749 302.852 49.6271 336.556 49.6271C358.206 49.6271 371.245 59.9598 376.657 71.0306H377.395V9.52634H403.719V174.358H379.363V154.184H378.379C372.475 168.207 358.944 176.818 338.032 176.818ZM310.724 113.1C310.724 143.36 320.319 154.184 343.937 154.184C365.586 154.184 377.395 144.59 377.395 124.17V102.275C377.395 81.8554 365.586 72.2607 343.937 72.2607C320.565 72.2607 310.724 83.0854 310.724 113.1ZM447.821 174.358H421.251V51.3493H445.607V70.7846H446.837C451.758 59.4678 463.074 49.6271 481.034 49.6271C506.619 49.6271 516.46 68.3244 516.46 91.204V99.3226H489.89V94.4022C489.89 78.1651 485.216 72.2607 469.717 72.2607C453.726 72.2607 447.821 78.4111 447.821 94.6483V174.358ZM580.93 176.818C543.289 176.818 519.918 151.232 519.918 113.1C519.918 75.2129 543.289 49.6271 580.93 49.6271C618.325 49.6271 640.958 75.2129 640.958 113.1C640.958 151.232 618.325 176.818 580.93 176.818ZM580.93 153.2C606.516 153.2 615.372 140.653 615.372 113.1C615.372 85.7916 606.516 73.2448 580.93 73.2448C555.098 73.2448 545.996 85.7916 545.996 113.1C545.996 140.653 555.098 153.2 580.93 153.2ZM677.549 216.919H651.226V52.0873H675.335V72.2607H676.565C682.224 57.9917 696.247 49.6271 717.404 49.6271C751.847 49.6271 770.79 74.4749 770.79 113.346C770.79 151.97 752.339 176.818 719.126 176.818C697.231 176.818 683.7 166.731 678.287 155.414H677.549V216.919ZM677.549 124.17C677.549 144.59 689.358 154.184 711.008 154.184C734.379 154.184 744.22 143.36 744.22 113.346C744.22 83.0854 734.625 72.2607 711.008 72.2607C689.358 72.2607 677.549 81.8554 677.549 102.275V124.17Z"/>
</mask>
<path d="M1.05626 174.358V175.74H2.00004L2.34357 174.861L1.05626 174.358ZM-26.7437 174.358L-28.0315 173.856L-28.7654 175.74H-26.7437V174.358ZM37.4668 9.52634V8.14423H36.5219L36.1789 9.02466L37.4668 9.52634ZM75.5994 9.52634L76.8873 9.02466L76.5443 8.14423H75.5994V9.52634ZM139.81 174.358V175.74H141.832L141.098 173.856L139.81 174.358ZM111.026 174.358L109.739 174.861L110.082 175.74H111.026V174.358ZM94.2967 131.551L95.584 131.048L95.2405 130.169H94.2967V131.551ZM17.7854 131.551V130.169H16.8416L16.4981 131.048L17.7854 131.551ZM44.3553 64.1421L45.6405 64.6504L45.6496 64.6275L45.6578 64.6043L44.3553 64.1421ZM27.1341 107.687L25.8488 107.179L25.1012 109.069H27.1341V107.687ZM84.9481 107.687V109.069H86.981L86.2333 107.179L84.9481 107.687ZM67.7269 64.1421L66.4211 64.595L66.4307 64.6229L66.4416 64.6504L67.7269 64.1421ZM57.1482 33.636L58.454 33.1832L58.1317 32.2539H57.1482V33.636ZM55.18 33.636V32.2539H54.2039L53.8775 33.1738L55.18 33.636ZM1.05626 172.976H-26.7437V175.74H1.05626V172.976ZM-25.4558 174.859L38.7546 10.028L36.1789 9.02466L-28.0315 173.856L-25.4558 174.859ZM37.4668 10.9085H75.5994V8.14423H37.4668V10.9085ZM74.3116 10.028L138.522 174.859L141.098 173.856L76.8873 9.02466L74.3116 10.028ZM139.81 172.976H111.026V175.74H139.81V172.976ZM112.313 173.855L95.584 131.048L93.0094 132.054L109.739 174.861L112.313 173.855ZM94.2967 130.169H17.7854V132.933H94.2967V130.169ZM16.4981 131.048L-0.231045 173.855L2.34357 174.861L19.0727 132.054L16.4981 131.048ZM43.07 63.6338L25.8488 107.179L28.4193 108.195L45.6405 64.6504L43.07 63.6338ZM27.1341 109.069H84.9481V106.305H27.1341V109.069ZM86.2333 107.179L69.0121 63.6338L66.4416 64.6504L83.6628 108.195L86.2333 107.179ZM69.0327 63.6893L58.454 33.1832L55.8423 34.0888L66.4211 64.595L69.0327 63.6893ZM57.1482 32.2539H55.18V35.0181H57.1482V32.2539ZM53.8775 33.1738L43.0527 63.6799L45.6578 64.6043L56.4826 34.0982L53.8775 33.1738ZM169.455 36.5882V37.9703H170.837V36.5882H169.455ZM143.131 36.5882L141.749 36.6008L141.762 37.9703H143.131V36.5882ZM142.885 9.52634V8.14423H141.49L141.503 9.53891L142.885 9.52634ZM169.455 9.52634H170.837V8.14423H169.455V9.52634ZM169.701 174.358V175.74H171.083V174.358H169.701ZM143.131 174.358H141.749V175.74H143.131V174.358ZM143.131 51.3493V49.9671H141.749V51.3493H143.131ZM169.701 51.3493H171.083V49.9671H169.701V51.3493ZM169.455 35.2061H143.131V37.9703H169.455V35.2061ZM144.513 36.5757L144.267 9.51378L141.503 9.53891L141.749 36.6008L144.513 36.5757ZM142.885 10.9085H169.455V8.14423H142.885V10.9085ZM168.073 9.52634V36.5882H170.837V9.52634H168.073ZM169.701 172.976H143.131V175.74H169.701V172.976ZM144.513 174.358V51.3493H141.749V174.358H144.513ZM143.131 52.7314H169.701V49.9671H143.131V52.7314ZM168.319 51.3493V174.358H171.083V51.3493H168.319ZM212.058 174.358V175.74H213.44V174.358H212.058ZM185.488 174.358H184.106V175.74H185.488V174.358ZM185.488 51.3493V49.9671H184.106V51.3493H185.488ZM209.844 51.3493H211.226V49.9671H209.844V51.3493ZM209.844 70.7846H208.462V72.1667H209.844V70.7846ZM211.074 70.7846V72.1667H211.98L212.342 71.3357L211.074 70.7846ZM280.697 99.3226V100.705H282.079V99.3226H280.697ZM254.127 99.3226H252.745V100.705H254.127V99.3226ZM212.058 172.976H185.488V175.74H212.058V172.976ZM186.87 174.358V51.3493H184.106V174.358H186.87ZM185.488 52.7314H209.844V49.9671H185.488V52.7314ZM208.462 51.3493V70.7846H211.226V51.3493H208.462ZM209.844 72.1667H211.074V69.4025H209.844V72.1667ZM212.342 71.3357C217.058 60.4875 227.9 51.0092 245.27 51.0092V48.245C226.723 48.245 214.931 58.4481 209.807 70.2335L212.342 71.3357ZM245.27 51.0092C257.685 51.0092 266.108 55.5216 271.473 62.6657C276.886 69.8732 279.315 79.9319 279.315 91.204H282.079C282.079 79.5965 279.587 68.8667 273.684 61.0057C267.732 53.0813 258.442 48.245 245.27 48.245V51.0092ZM279.315 91.204V99.3226H282.079V91.204H279.315ZM280.697 97.9405H254.127V100.705H280.697V97.9405ZM255.509 99.3226V94.4022H252.745V99.3226H255.509ZM255.509 94.4022C255.509 86.2377 254.355 80.2402 250.887 76.326C247.376 72.3631 241.815 70.8786 233.954 70.8786V73.6428C241.592 73.6428 246.117 75.1105 248.818 78.1591C251.562 81.2564 252.745 86.3296 252.745 94.4022H255.509ZM233.954 70.8786C225.837 70.8786 219.889 72.4288 216.019 76.4011C212.159 80.3641 210.676 86.4231 210.676 94.6483H213.44C213.44 86.6362 214.91 81.5015 217.999 78.33C221.08 75.1678 226.08 73.6428 233.954 73.6428V70.8786ZM210.676 94.6483V174.358H213.44V94.6483H210.676ZM376.657 71.0306L375.415 71.6376L375.794 72.4127H376.657V71.0306ZM377.395 71.0306V72.4127H378.777V71.0306H377.395ZM377.395 9.52634V8.14423H376.013V9.52634H377.395ZM403.719 9.52634H405.101V8.14423H403.719V9.52634ZM403.719 174.358V175.74H405.101V174.358H403.719ZM379.363 174.358H377.981V175.74H379.363V174.358ZM379.363 154.184H380.745V152.802H379.363V154.184ZM378.379 154.184V152.802H377.461L377.105 153.648L378.379 154.184ZM338.032 175.436C320.921 175.436 307.866 169.367 299.061 158.657C290.224 147.91 285.537 132.33 285.537 113.1H282.773C282.773 132.74 287.557 149.019 296.926 160.413C306.325 171.845 320.21 178.2 338.032 178.2V175.436ZM285.537 113.1C285.537 93.9907 290.164 78.4653 298.793 67.7458C307.39 57.0662 320.076 51.0092 336.556 51.0092V48.245C319.332 48.245 305.817 54.612 296.64 66.0124C287.494 77.3728 282.773 93.5837 282.773 113.1H285.537ZM336.556 51.0092C357.721 51.0092 370.253 61.079 375.415 71.6376L377.899 70.4236C372.236 58.8407 358.69 48.245 336.556 48.245V51.0092ZM376.657 72.4127H377.395V69.6485H376.657V72.4127ZM378.777 71.0306V9.52634H376.013V71.0306H378.777ZM377.395 10.9085H403.719V8.14423H377.395V10.9085ZM402.337 9.52634V174.358H405.101V9.52634H402.337ZM403.719 172.976H379.363V175.74H403.719V172.976ZM380.745 174.358V154.184H377.981V174.358H380.745ZM379.363 152.802H378.379V155.567H379.363V152.802ZM377.105 153.648C371.466 167.041 358.528 175.436 338.032 175.436V178.2C359.36 178.2 373.483 169.374 379.653 154.721L377.105 153.648ZM309.342 113.1C309.342 128.306 311.738 138.994 317.408 145.869C323.139 152.818 331.945 155.567 343.937 155.567V152.802C332.311 152.802 324.511 150.138 319.54 144.11C314.508 138.008 312.107 128.153 312.107 113.1H309.342ZM343.937 155.567C354.937 155.567 363.686 153.133 369.695 147.875C375.738 142.587 378.777 134.649 378.777 124.17H376.013C376.013 134.111 373.148 141.18 367.874 145.794C362.567 150.439 354.586 152.802 343.937 152.802V155.567ZM378.777 124.17V102.275H376.013V124.17H378.777ZM378.777 102.275C378.777 91.7958 375.738 83.8584 369.695 78.5703C363.686 73.3124 354.937 70.8786 343.937 70.8786V73.6428C354.586 73.6428 362.567 76.0063 367.874 80.6506C373.148 85.2647 376.013 92.3343 376.013 102.275H378.777ZM343.937 70.8786C332.063 70.8786 323.264 73.6286 317.505 80.54C311.802 87.3825 309.342 98.0074 309.342 113.1H312.107C312.107 98.1776 314.567 88.383 319.628 82.3096C324.632 76.3051 332.438 73.6428 343.937 73.6428V70.8786ZM447.821 174.358V175.74H449.203V174.358H447.821ZM421.251 174.358H419.869V175.74H421.251V174.358ZM421.251 51.3493V49.9671H419.869V51.3493H421.251ZM445.607 51.3493H446.989V49.9671H445.607V51.3493ZM445.607 70.7846H444.225V72.1667H445.607V70.7846ZM446.837 70.7846V72.1667H447.743L448.105 71.3357L446.837 70.7846ZM516.46 99.3226V100.705H517.842V99.3226H516.46ZM489.89 99.3226H488.508V100.705H489.89V99.3226ZM447.821 172.976H421.251V175.74H447.821V172.976ZM422.634 174.358V51.3493H419.869V174.358H422.634ZM421.251 52.7314H445.607V49.9671H421.251V52.7314ZM444.225 51.3493V70.7846H446.989V51.3493H444.225ZM445.607 72.1667H446.837V69.4025H445.607V72.1667ZM448.105 71.3357C452.821 60.4875 463.663 51.0092 481.034 51.0092V48.245C462.486 48.245 450.694 58.4481 445.57 70.2335L448.105 71.3357ZM481.034 51.0092C493.448 51.0092 501.871 55.5216 507.236 62.6657C512.649 69.8732 515.078 79.9319 515.078 91.204H517.842C517.842 79.5965 515.35 68.8667 509.447 61.0057C503.495 53.0813 494.205 48.245 481.034 48.245V51.0092ZM515.078 91.204V99.3226H517.842V91.204H515.078ZM516.46 97.9405H489.89V100.705H516.46V97.9405ZM491.272 99.3226V94.4022H488.508V99.3226H491.272ZM491.272 94.4022C491.272 86.2377 490.118 80.2402 486.65 76.326C483.139 72.3631 477.578 70.8786 469.717 70.8786V73.6428C477.355 73.6428 481.88 75.1105 484.581 78.1591C487.325 81.2564 488.508 86.3296 488.508 94.4022H491.272ZM469.717 70.8786C461.6 70.8786 455.652 72.4288 451.782 76.4011C447.922 80.3641 446.439 86.4231 446.439 94.6483H449.203C449.203 86.6362 450.673 81.5015 453.762 78.33C456.843 75.1678 461.843 73.6428 469.717 73.6428V70.8786ZM446.439 94.6483V174.358H449.203V94.6483H446.439ZM580.93 175.436C562.436 175.436 547.565 169.159 537.313 158.309C527.053 147.451 521.3 131.885 521.3 113.1H518.536C518.536 132.447 524.469 148.74 535.304 160.208C546.148 171.684 561.784 178.2 580.93 178.2V175.436ZM521.3 113.1C521.3 94.4397 527.052 78.9352 537.312 68.1065C547.564 57.2864 562.435 51.0092 580.93 51.0092V48.245C561.784 48.245 546.149 54.7607 535.305 66.2052C524.47 77.641 518.536 93.8727 518.536 113.1H521.3ZM580.93 51.0092C599.297 51.0092 613.918 57.2832 623.954 68.0961C634.002 78.9214 639.576 94.4279 639.576 113.1H642.34C642.34 93.8845 636.598 77.6549 625.98 66.2156C615.351 54.7639 599.957 48.245 580.93 48.245V51.0092ZM639.576 113.1C639.576 131.896 634.001 147.464 623.953 158.32C613.917 169.162 599.297 175.436 580.93 175.436V178.2C599.957 178.2 615.352 171.681 625.981 160.197C636.599 148.726 642.34 132.435 642.34 113.1H639.576ZM580.93 154.582C593.928 154.582 603.03 151.393 608.813 144.361C614.541 137.397 616.755 126.961 616.755 113.1H613.99C613.99 126.792 611.776 136.407 606.678 142.605C601.637 148.734 593.518 151.818 580.93 151.818V154.582ZM616.755 113.1C616.755 99.359 614.54 88.9842 608.811 82.0513C603.028 75.0522 593.928 71.8626 580.93 71.8626V74.6269C593.518 74.6269 601.639 77.7108 606.68 83.8121C611.777 89.9796 613.99 99.5322 613.99 113.1H616.755ZM580.93 71.8626C567.813 71.8626 558.594 75.05 552.718 82.0425C546.892 88.9753 544.614 99.3528 544.614 113.1H547.378C547.378 99.5384 549.651 89.9885 554.834 83.8209C559.967 77.713 568.215 74.6269 580.93 74.6269V71.8626ZM544.614 113.1C544.614 126.967 546.891 137.406 552.716 144.369C558.592 151.395 567.813 154.582 580.93 154.582V151.818C568.215 151.818 559.969 148.732 554.836 142.596C549.652 136.398 547.378 126.786 547.378 113.1H544.614ZM677.549 216.919V218.301H678.932V216.919H677.549ZM651.226 216.919H649.843V218.301H651.226V216.919ZM651.226 52.0873V50.7052H649.843V52.0873H651.226ZM675.335 52.0873H676.717V50.7052H675.335V52.0873ZM675.335 72.2607H673.953V73.6428H675.335V72.2607ZM676.565 72.2607V73.6428H677.504L677.85 72.7702L676.565 72.2607ZM678.287 155.414L679.534 154.818L679.158 154.032H678.287V155.414ZM677.549 155.414V154.032H676.167V155.414H677.549ZM677.549 215.537H651.226V218.301H677.549V215.537ZM652.608 216.919V52.0873H649.843V216.919H652.608ZM651.226 53.4694H675.335V50.7052H651.226V53.4694ZM673.953 52.0873V72.2607H676.717V52.0873H673.953ZM675.335 73.6428H676.565V70.8786H675.335V73.6428ZM677.85 72.7702C683.236 59.1879 696.619 51.0092 717.404 51.0092V48.245C695.874 48.245 681.211 56.7955 675.281 71.7512L677.85 72.7702ZM717.404 51.0092C734.264 51.0092 747.196 57.0738 755.942 67.7841C764.72 78.5327 769.408 94.1156 769.408 113.346H772.172C772.172 93.7048 767.388 77.4285 758.083 66.0356C748.748 54.6043 734.987 48.245 717.404 48.245V51.0092ZM769.408 113.346C769.408 132.458 764.841 147.986 756.33 158.707C747.853 169.385 735.353 175.436 719.126 175.436V178.2C736.112 178.2 749.443 171.827 758.495 160.425C767.513 149.066 772.172 132.858 772.172 113.346H769.408ZM719.126 175.436C697.679 175.436 684.683 165.584 679.534 154.818L677.041 156.011C682.717 167.879 696.782 178.2 719.126 178.2V175.436ZM678.287 154.032H677.549V156.797H678.287V154.032ZM676.167 155.414V216.919H678.932V155.414H676.167ZM676.167 124.17C676.167 134.649 679.206 142.587 685.25 147.875C691.259 153.133 700.008 155.567 711.008 155.567V152.802C700.358 152.802 692.378 150.439 687.07 145.794C681.797 141.18 678.932 134.111 678.932 124.17H676.167ZM711.008 155.567C722.881 155.567 731.68 152.816 737.44 145.905C743.142 139.063 745.602 128.438 745.602 113.346H742.838C742.838 128.268 740.378 138.062 735.316 144.135C730.313 150.14 722.506 152.802 711.008 152.802V155.567ZM745.602 113.346C745.602 98.1389 743.206 87.4515 737.537 80.5763C731.806 73.6268 723 70.8786 711.008 70.8786V73.6428C722.633 73.6428 730.433 76.307 735.404 82.3349C740.436 88.4371 742.838 98.2921 742.838 113.346H745.602ZM711.008 70.8786C700.008 70.8786 691.259 73.3124 685.25 78.5703C679.206 83.8584 676.167 91.7958 676.167 102.275H678.932C678.932 92.3343 681.797 85.2647 687.07 80.6506C692.378 76.0063 700.358 73.6428 711.008 73.6428V70.8786ZM676.167 102.275V124.17H678.932V102.275H676.167Z" fill="white" mask="url(#path-2-inside-1_68_1588)"/>
</g>
</svg>
