<svg width="780" height="122" viewBox="0 0 780 122" fill="none" xmlns="http://www.w3.org/2000/svg">
<mask id="mask0_68_1591" style="mask-type:alpha" maskUnits="userSpaceOnUse" x="-29" y="0" width="809" height="122">
<rect x="-29" y="0.363525" width="809" height="121.626" fill="#D9D9D9"/>
</mask>
<g mask="url(#mask0_68_1591)">
<mask id="path-2-inside-1_68_1591" fill="white">
<path d="M1.05626 174.721H-26.7437L37.4668 9.88963H75.5994L139.81 174.721H111.026L94.2967 131.914H17.7854L1.05626 174.721ZM44.3553 64.5054L27.1341 108.05H84.9481L67.7269 64.5054L57.1482 33.9993H55.18L44.3553 64.5054ZM169.455 36.9515H143.131L142.885 9.88963H169.455V36.9515ZM169.701 174.721H143.131V51.7125H169.701V174.721ZM212.058 174.721H185.488V51.7125H209.844V71.1479H211.074C215.994 59.8311 227.311 49.9904 245.27 49.9904C270.856 49.9904 280.697 68.6877 280.697 91.5673V99.6859H254.127V94.7655C254.127 78.5284 249.453 72.624 233.954 72.624C217.963 72.624 212.058 78.7744 212.058 95.0115V174.721ZM338.032 177.181C303.098 177.181 284.155 152.334 284.155 113.463C284.155 74.8381 302.852 49.9904 336.556 49.9904C358.206 49.9904 371.245 60.3231 376.657 71.3939H377.395V9.88963H403.719V174.721H379.363V154.548H378.379C372.475 168.571 358.944 177.181 338.032 177.181ZM310.724 113.463C310.724 143.723 320.319 154.548 343.937 154.548C365.586 154.548 377.395 144.953 377.395 124.534V102.638C377.395 82.2186 365.586 72.624 343.937 72.624C320.565 72.624 310.724 83.4487 310.724 113.463ZM447.821 174.721H421.251V51.7125H445.607V71.1479H446.837C451.758 59.8311 463.074 49.9904 481.034 49.9904C506.619 49.9904 516.46 68.6877 516.46 91.5673V99.6859H489.89V94.7655C489.89 78.5284 485.216 72.624 469.717 72.624C453.726 72.624 447.821 78.7744 447.821 95.0115V174.721ZM580.93 177.181C543.289 177.181 519.918 151.595 519.918 113.463C519.918 75.5762 543.289 49.9904 580.93 49.9904C618.325 49.9904 640.958 75.5762 640.958 113.463C640.958 151.595 618.325 177.181 580.93 177.181ZM580.93 153.564C606.516 153.564 615.372 141.017 615.372 113.463C615.372 86.1549 606.516 73.608 580.93 73.608C555.098 73.608 545.996 86.1549 545.996 113.463C545.996 141.017 555.098 153.564 580.93 153.564ZM677.549 217.282H651.226V52.4506H675.335V72.624H676.565C682.224 58.355 696.247 49.9904 717.404 49.9904C751.847 49.9904 770.79 74.8381 770.79 113.709C770.79 152.334 752.339 177.181 719.126 177.181C697.231 177.181 683.7 167.095 678.287 155.778H677.549V217.282ZM677.549 124.534C677.549 144.953 689.358 154.548 711.008 154.548C734.379 154.548 744.22 143.723 744.22 113.709C744.22 83.4487 734.625 72.624 711.008 72.624C689.358 72.624 677.549 82.2186 677.549 102.638V124.534Z"/>
</mask>
<path d="M1.05626 174.721V176.103H2.00004L2.34357 175.224L1.05626 174.721ZM-26.7437 174.721L-28.0315 174.219L-28.7654 176.103H-26.7437V174.721ZM37.4668 9.88963V8.50751H36.5219L36.1789 9.38794L37.4668 9.88963ZM75.5994 9.88963L76.8873 9.38794L76.5443 8.50751H75.5994V9.88963ZM139.81 174.721V176.103H141.832L141.098 174.219L139.81 174.721ZM111.026 174.721L109.739 175.224L110.082 176.103H111.026V174.721ZM94.2967 131.914L95.584 131.411L95.2405 130.532H94.2967V131.914ZM17.7854 131.914V130.532H16.8416L16.4981 131.411L17.7854 131.914ZM44.3553 64.5054L45.6405 65.0137L45.6496 64.9908L45.6578 64.9676L44.3553 64.5054ZM27.1341 108.05L25.8488 107.542L25.1012 109.433H27.1341V108.05ZM84.9481 108.05V109.433H86.981L86.2333 107.542L84.9481 108.05ZM67.7269 64.5054L66.4211 64.9582L66.4307 64.9862L66.4416 65.0137L67.7269 64.5054ZM57.1482 33.9993L58.454 33.5465L58.1317 32.6172H57.1482V33.9993ZM55.18 33.9993V32.6172H54.2039L53.8775 33.5371L55.18 33.9993ZM1.05626 173.339H-26.7437V176.103H1.05626V173.339ZM-25.4558 175.223L38.7546 10.3913L36.1789 9.38794L-28.0315 174.219L-25.4558 175.223ZM37.4668 11.2717H75.5994V8.50751H37.4668V11.2717ZM74.3116 10.3913L138.522 175.223L141.098 174.219L76.8873 9.38794L74.3116 10.3913ZM139.81 173.339H111.026V176.103H139.81V173.339ZM112.313 174.218L95.584 131.411L93.0094 132.417L109.739 175.224L112.313 174.218ZM94.2967 130.532H17.7854V133.296H94.2967V130.532ZM16.4981 131.411L-0.231045 174.218L2.34357 175.224L19.0727 132.417L16.4981 131.411ZM43.07 63.9971L25.8488 107.542L28.4193 108.559L45.6405 65.0137L43.07 63.9971ZM27.1341 109.433H84.9481V106.668H27.1341V109.433ZM86.2333 107.542L69.0121 63.9971L66.4416 65.0137L83.6628 108.559L86.2333 107.542ZM69.0327 64.0526L58.454 33.5465L55.8423 34.4521L66.4211 64.9582L69.0327 64.0526ZM57.1482 32.6172H55.18V35.3814H57.1482V32.6172ZM53.8775 33.5371L43.0527 64.0432L45.6578 64.9676L56.4826 34.4615L53.8775 33.5371ZM169.455 36.9515V38.3336H170.837V36.9515H169.455ZM143.131 36.9515L141.749 36.9641L141.762 38.3336H143.131V36.9515ZM142.885 9.88963V8.50751H141.49L141.503 9.90219L142.885 9.88963ZM169.455 9.88963H170.837V8.50751H169.455V9.88963ZM169.701 174.721V176.103H171.083V174.721H169.701ZM143.131 174.721H141.749V176.103H143.131V174.721ZM143.131 51.7125V50.3304H141.749V51.7125H143.131ZM169.701 51.7125H171.083V50.3304H169.701V51.7125ZM169.455 35.5694H143.131V38.3336H169.455V35.5694ZM144.513 36.9389L144.267 9.87706L141.503 9.90219L141.749 36.9641L144.513 36.9389ZM142.885 11.2717H169.455V8.50751H142.885V11.2717ZM168.073 9.88963V36.9515H170.837V9.88963H168.073ZM169.701 173.339H143.131V176.103H169.701V173.339ZM144.513 174.721V51.7125H141.749V174.721H144.513ZM143.131 53.0947H169.701V50.3304H143.131V53.0947ZM168.319 51.7125V174.721H171.083V51.7125H168.319ZM212.058 174.721V176.103H213.44V174.721H212.058ZM185.488 174.721H184.106V176.103H185.488V174.721ZM185.488 51.7125V50.3304H184.106V51.7125H185.488ZM209.844 51.7125H211.226V50.3304H209.844V51.7125ZM209.844 71.1479H208.462V72.53H209.844V71.1479ZM211.074 71.1479V72.53H211.98L212.342 71.699L211.074 71.1479ZM280.697 99.6859V101.068H282.079V99.6859H280.697ZM254.127 99.6859H252.745V101.068H254.127V99.6859ZM212.058 173.339H185.488V176.103H212.058V173.339ZM186.87 174.721V51.7125H184.106V174.721H186.87ZM185.488 53.0947H209.844V50.3304H185.488V53.0947ZM208.462 51.7125V71.1479H211.226V51.7125H208.462ZM209.844 72.53H211.074V69.7658H209.844V72.53ZM212.342 71.699C217.058 60.8508 227.9 51.3725 245.27 51.3725V48.6083C226.723 48.6083 214.931 58.8114 209.807 70.5968L212.342 71.699ZM245.27 51.3725C257.685 51.3725 266.108 55.8849 271.473 63.029C276.886 70.2365 279.315 80.2952 279.315 91.5673H282.079C282.079 79.9598 279.587 69.23 273.684 61.369C267.732 53.4446 258.442 48.6083 245.27 48.6083V51.3725ZM279.315 91.5673V99.6859H282.079V91.5673H279.315ZM280.697 98.3037H254.127V101.068H280.697V98.3037ZM255.509 99.6859V94.7655H252.745V99.6859H255.509ZM255.509 94.7655C255.509 86.601 254.355 80.6034 250.887 76.6893C247.376 72.7264 241.815 71.2419 233.954 71.2419V74.0061C241.592 74.0061 246.117 75.4737 248.818 78.5224C251.562 81.6197 252.745 86.6929 252.745 94.7655H255.509ZM233.954 71.2419C225.837 71.2419 219.889 72.7921 216.019 76.7644C212.159 80.7273 210.676 86.7864 210.676 95.0115H213.44C213.44 86.9995 214.91 81.8648 217.999 78.6933C221.08 75.5311 226.08 74.0061 233.954 74.0061V71.2419ZM210.676 95.0115V174.721H213.44V95.0115H210.676ZM376.657 71.3939L375.415 72.0009L375.794 72.776H376.657V71.3939ZM377.395 71.3939V72.776H378.777V71.3939H377.395ZM377.395 9.88963V8.50751H376.013V9.88963H377.395ZM403.719 9.88963H405.101V8.50751H403.719V9.88963ZM403.719 174.721V176.103H405.101V174.721H403.719ZM379.363 174.721H377.981V176.103H379.363V174.721ZM379.363 154.548H380.745V153.166H379.363V154.548ZM378.379 154.548V153.166H377.461L377.105 154.011L378.379 154.548ZM338.032 175.799C320.921 175.799 307.866 169.73 299.061 159.021C290.224 148.274 285.537 132.693 285.537 113.463H282.773C282.773 133.103 287.557 149.382 296.926 160.776C306.325 172.209 320.21 178.563 338.032 178.563V175.799ZM285.537 113.463C285.537 94.354 290.164 78.8286 298.793 68.109C307.39 57.4294 320.076 51.3725 336.556 51.3725V48.6083C319.332 48.6083 305.817 54.9752 296.64 66.3757C287.494 77.7361 282.773 93.947 282.773 113.463H285.537ZM336.556 51.3725C357.721 51.3725 370.253 61.4422 375.415 72.0009L377.899 70.7869C372.236 59.204 358.69 48.6083 336.556 48.6083V51.3725ZM376.657 72.776H377.395V70.0118H376.657V72.776ZM378.777 71.3939V9.88963H376.013V71.3939H378.777ZM377.395 11.2717H403.719V8.50751H377.395V11.2717ZM402.337 9.88963V174.721H405.101V9.88963H402.337ZM403.719 173.339H379.363V176.103H403.719V173.339ZM380.745 174.721V154.548H377.981V174.721H380.745ZM379.363 153.166H378.379V155.93H379.363V153.166ZM377.105 154.011C371.466 167.404 358.528 175.799 338.032 175.799V178.563C359.36 178.563 373.483 169.737 379.653 155.084L377.105 154.011ZM309.342 113.463C309.342 128.669 311.738 139.357 317.408 146.232C323.139 153.182 331.945 155.93 343.937 155.93V153.166C332.311 153.166 324.511 150.501 319.54 144.473C314.508 138.371 312.107 128.516 312.107 113.463H309.342ZM343.937 155.93C354.937 155.93 363.686 153.496 369.695 148.238C375.738 142.95 378.777 135.013 378.777 124.534H376.013C376.013 134.474 373.148 141.544 367.874 146.158C362.567 150.802 354.586 153.166 343.937 153.166V155.93ZM378.777 124.534V102.638H376.013V124.534H378.777ZM378.777 102.638C378.777 92.1591 375.738 84.2217 369.695 78.9336C363.686 73.6757 354.937 71.2419 343.937 71.2419V74.0061C354.586 74.0061 362.567 76.3696 367.874 81.0139C373.148 85.6279 376.013 92.6976 376.013 102.638H378.777ZM343.937 71.2419C332.063 71.2419 323.264 73.9919 317.505 80.9033C311.802 87.7458 309.342 98.3707 309.342 113.463H312.107C312.107 98.5409 314.567 88.7463 319.628 82.6729C324.632 76.6684 332.438 74.0061 343.937 74.0061V71.2419ZM447.821 174.721V176.103H449.203V174.721H447.821ZM421.251 174.721H419.869V176.103H421.251V174.721ZM421.251 51.7125V50.3304H419.869V51.7125H421.251ZM445.607 51.7125H446.989V50.3304H445.607V51.7125ZM445.607 71.1479H444.225V72.53H445.607V71.1479ZM446.837 71.1479V72.53H447.743L448.105 71.699L446.837 71.1479ZM516.46 99.6859V101.068H517.842V99.6859H516.46ZM489.89 99.6859H488.508V101.068H489.89V99.6859ZM447.821 173.339H421.251V176.103H447.821V173.339ZM422.634 174.721V51.7125H419.869V174.721H422.634ZM421.251 53.0947H445.607V50.3304H421.251V53.0947ZM444.225 51.7125V71.1479H446.989V51.7125H444.225ZM445.607 72.53H446.837V69.7658H445.607V72.53ZM448.105 71.699C452.821 60.8508 463.663 51.3725 481.034 51.3725V48.6083C462.486 48.6083 450.694 58.8114 445.57 70.5968L448.105 71.699ZM481.034 51.3725C493.448 51.3725 501.871 55.8849 507.236 63.029C512.649 70.2365 515.078 80.2952 515.078 91.5673H517.842C517.842 79.9598 515.35 69.23 509.447 61.369C503.495 53.4446 494.205 48.6083 481.034 48.6083V51.3725ZM515.078 91.5673V99.6859H517.842V91.5673H515.078ZM516.46 98.3037H489.89V101.068H516.46V98.3037ZM491.272 99.6859V94.7655H488.508V99.6859H491.272ZM491.272 94.7655C491.272 86.601 490.118 80.6034 486.65 76.6893C483.139 72.7264 477.578 71.2419 469.717 71.2419V74.0061C477.355 74.0061 481.88 75.4737 484.581 78.5224C487.325 81.6197 488.508 86.6929 488.508 94.7655H491.272ZM469.717 71.2419C461.6 71.2419 455.652 72.7921 451.782 76.7644C447.922 80.7273 446.439 86.7864 446.439 95.0115H449.203C449.203 86.9995 450.673 81.8648 453.762 78.6933C456.843 75.5311 461.843 74.0061 469.717 74.0061V71.2419ZM446.439 95.0115V174.721H449.203V95.0115H446.439ZM580.93 175.799C562.436 175.799 547.565 169.522 537.313 158.673C527.053 147.814 521.3 132.248 521.3 113.463H518.536C518.536 132.81 524.469 149.104 535.304 160.571C546.148 172.047 561.784 178.563 580.93 178.563V175.799ZM521.3 113.463C521.3 94.803 527.052 79.2985 537.312 68.4697C547.564 57.6497 562.435 51.3725 580.93 51.3725V48.6083C561.784 48.6083 546.149 55.124 535.305 66.5685C524.47 78.0043 518.536 94.236 518.536 113.463H521.3ZM580.93 51.3725C599.297 51.3725 613.918 57.6465 623.954 68.4594C634.002 79.2846 639.576 94.7912 639.576 113.463H642.34C642.34 94.2478 636.598 78.0182 625.98 66.5789C615.351 55.1272 599.957 48.6083 580.93 48.6083V51.3725ZM639.576 113.463C639.576 132.26 634.001 147.828 623.953 158.683C613.917 169.525 599.297 175.799 580.93 175.799V178.563C599.957 178.563 615.352 172.044 625.981 160.561C636.599 149.09 642.34 132.799 642.34 113.463H639.576ZM580.93 154.946C593.928 154.946 603.03 151.756 608.813 144.724C614.541 137.76 616.755 127.324 616.755 113.463H613.99C613.99 127.155 611.776 136.77 606.678 142.968C601.637 149.098 593.518 152.181 580.93 152.181V154.946ZM616.755 113.463C616.755 99.7223 614.54 89.3474 608.811 82.4146C603.028 75.4155 593.928 72.2259 580.93 72.2259V74.9902C593.518 74.9902 601.639 78.0741 606.68 84.1753C611.777 90.3429 613.99 99.8954 613.99 113.463H616.755ZM580.93 72.2259C567.813 72.2259 558.594 75.4133 552.718 82.4058C546.892 89.3385 544.614 99.7161 544.614 113.463H547.378C547.378 99.9017 549.651 90.3518 554.834 84.1842C559.967 78.0763 568.215 74.9902 580.93 74.9902V72.2259ZM544.614 113.463C544.614 127.33 546.891 137.769 552.716 144.733C558.592 151.758 567.813 154.946 580.93 154.946V152.181C568.215 152.181 559.969 149.096 554.836 142.959C549.652 136.761 547.378 127.149 547.378 113.463H544.614ZM677.549 217.282V218.664H678.932V217.282H677.549ZM651.226 217.282H649.843V218.664H651.226V217.282ZM651.226 52.4506V51.0685H649.843V52.4506H651.226ZM675.335 52.4506H676.717V51.0685H675.335V52.4506ZM675.335 72.624H673.953V74.0061H675.335V72.624ZM676.565 72.624V74.0061H677.504L677.85 73.1335L676.565 72.624ZM678.287 155.778L679.534 155.181L679.158 154.396H678.287V155.778ZM677.549 155.778V154.396H676.167V155.778H677.549ZM677.549 215.9H651.226V218.664H677.549V215.9ZM652.608 217.282V52.4506H649.843V217.282H652.608ZM651.226 53.8327H675.335V51.0685H651.226V53.8327ZM673.953 52.4506V72.624H676.717V52.4506H673.953ZM675.335 74.0061H676.565V71.2419H675.335V74.0061ZM677.85 73.1335C683.236 59.5512 696.619 51.3725 717.404 51.3725V48.6083C695.874 48.6083 681.211 57.1588 675.281 72.1145L677.85 73.1335ZM717.404 51.3725C734.264 51.3725 747.196 57.4371 755.942 68.1473C764.72 78.8959 769.408 94.4788 769.408 113.709H772.172C772.172 94.0681 767.388 77.7918 758.083 66.3989C748.748 54.9676 734.987 48.6083 717.404 48.6083V51.3725ZM769.408 113.709C769.408 132.821 764.841 148.35 756.33 159.07C747.853 169.748 735.353 175.799 719.126 175.799V178.563C736.112 178.563 749.443 172.191 758.495 160.789C767.513 149.429 772.172 133.221 772.172 113.709H769.408ZM719.126 175.799C697.679 175.799 684.683 165.947 679.534 155.181L677.041 156.374C682.717 168.242 696.782 178.563 719.126 178.563V175.799ZM678.287 154.396H677.549V157.16H678.287V154.396ZM676.167 155.778V217.282H678.932V155.778H676.167ZM676.167 124.534C676.167 135.013 679.206 142.95 685.25 148.238C691.259 153.496 700.008 155.93 711.008 155.93V153.166C700.358 153.166 692.378 150.802 687.07 146.158C681.797 141.544 678.932 134.474 678.932 124.534H676.167ZM711.008 155.93C722.881 155.93 731.68 153.18 737.44 146.268C743.142 139.426 745.602 128.801 745.602 113.709H742.838C742.838 128.631 740.378 138.425 735.316 144.499C730.313 150.503 722.506 153.166 711.008 153.166V155.93ZM745.602 113.709C745.602 98.5022 743.206 87.8147 737.537 80.9395C731.806 73.99 723 71.2419 711.008 71.2419V74.0061C722.633 74.0061 730.433 76.6703 735.404 82.6982C740.436 88.8004 742.838 98.6553 742.838 113.709H745.602ZM711.008 71.2419C700.008 71.2419 691.259 73.6757 685.25 78.9336C679.206 84.2217 676.167 92.1591 676.167 102.638H678.932C678.932 92.6976 681.797 85.6279 687.07 81.0139C692.378 76.3696 700.358 74.0061 711.008 74.0061V71.2419ZM676.167 102.638V124.534H678.932V102.638H676.167Z" fill="white" mask="url(#path-2-inside-1_68_1591)"/>
</g>
</svg>
