<svg width="400" height="400" viewBox="0 0 400 400" fill="none" xmlns="http://www.w3.org/2000/svg">
<mask id="mask0_72_331" style="mask-type:alpha" maskUnits="userSpaceOnUse" x="0" y="0" width="400" height="400">
<rect width="400" height="400" rx="30" fill="#F8F4FE"/>
</mask>
<g mask="url(#mask0_72_331)">
<g filter="url(#filter0_f_72_331)">
<ellipse cx="112.32" cy="250.58" rx="6.78525" ry="6.78524" fill="white"/>
</g>
<g style="mix-blend-mode:color-dodge" filter="url(#filter1_f_72_331)">
<ellipse cx="280.612" cy="148.395" rx="29.3751" ry="29.3751" fill="#FFC6E9"/>
</g>
<g style="mix-blend-mode:color-dodge" opacity="0.2" filter="url(#filter2_f_72_331)">
<circle cx="132.496" cy="247.044" r="82.5087" fill="#FFC6E9"/>
</g>
<g filter="url(#filter3_f_72_331)">
<circle cx="228.046" cy="319.124" r="3.85742" fill="white"/>
</g>
<g filter="url(#filter4_f_72_331)">
<circle cx="162.174" cy="93.7631" r="2.39321" fill="white"/>
</g>
<g filter="url(#filter5_f_72_331)">
<ellipse cx="133.842" cy="86.8487" rx="2.10664" ry="2.10664" fill="white"/>
</g>
<g filter="url(#filter6_f_72_331)">
<ellipse cx="290.54" cy="247.044" rx="2.10664" ry="2.10664" fill="white"/>
</g>
<g filter="url(#filter7_f_72_331)">
<circle cx="280.612" cy="148.396" r="5.37819" fill="#FFC6E9"/>
</g>
<g opacity="0.5" filter="url(#filter8_f_72_331)">
<path d="M256.272 110.052L235.526 98.6691L136.396 279.341L157.142 290.724L256.272 110.052Z" fill="#E81899"/>
<path d="M247.397 222.713C220.024 272.603 179.605 303.048 157.142 290.724C134.68 278.399 141.649 229.6 169.022 179.711C196.395 129.821 233.796 97.7193 256.272 110.052C278.749 122.384 274.77 172.824 247.397 222.713Z" fill="#E81899"/>
<path d="M228.111 212.131C200.738 262.021 160.347 292.482 137.899 280.166C115.451 267.849 119.444 217.417 146.817 167.528C174.19 117.638 214.581 87.1767 237.029 99.4934C259.477 111.81 255.484 162.242 228.111 212.131Z" fill="#FF6FC8"/>
<path d="M212.576 201.43C191.538 239.773 167.109 266.689 152.029 258.415C136.02 249.631 136.913 209.802 157.951 171.459C178.989 133.115 208.28 108.737 223.359 117.011C227.065 119.044 231.085 121.25 234.161 131.183C239.003 146.852 228.456 172.486 212.576 201.43Z" fill="#9A0060"/>
<path d="M217.881 206.519C197.353 243.932 168.471 267.566 153.391 259.292C138.311 251.018 142.72 213.975 163.256 176.547C183.792 139.119 212.666 115.5 227.746 123.774C242.826 132.048 238.417 169.091 217.881 206.519Z" fill="#E81899"/>
<path d="M201.861 219.052L205.503 196.868C205.899 194.458 205.509 192.669 204.532 191.786C204.31 191.584 204.252 191.149 204.38 190.612C204.506 190.074 204.803 189.5 205.178 189.061C206.814 187.145 208.219 184.65 208.995 182.088L216.158 158.515C217.223 155.015 216.848 152.175 215.207 151.274C213.566 150.374 210.966 151.588 208.589 154.361L192.555 173.068C190.814 175.1 189.461 177.624 188.724 180.033C188.555 180.585 188.228 181.143 187.844 181.54C187.458 181.935 187.062 182.121 186.773 182.042C185.503 181.693 183.785 182.324 181.964 183.953L165.211 198.943C162.725 201.167 160.599 204.81 159.79 208.227C158.986 211.641 159.653 214.182 161.489 214.7L173.881 218.177C175.226 218.556 176.969 217.82 178.681 216.293C179.071 215.943 179.457 215.82 179.715 215.962C179.973 216.103 180.074 216.493 179.991 217.012C179.622 219.276 179.938 221.141 180.98 222.072L190.57 230.656C191.991 231.931 194.493 231.129 196.943 228.612C199.39 226.094 201.32 222.344 201.861 219.052ZM193.966 177.294L210.02 158.568C210.596 157.898 211.223 157.604 211.618 157.821C212.013 158.037 212.102 158.725 211.846 159.57L204.676 183.171C204.45 183.914 203.997 184.669 203.47 185.174C202.944 185.678 202.419 185.867 202.067 185.674L193.254 180.839C192.905 180.647 192.779 180.101 192.922 179.386C193.065 178.671 193.459 177.883 193.964 177.293L193.966 177.294ZM178.569 210.765C178.053 211.331 177.507 211.602 177.115 211.492L164.712 208.009C164.27 207.884 164.106 207.273 164.299 206.45C164.493 205.626 165.006 204.749 165.607 204.211L182.379 189.206C182.908 188.734 183.424 188.584 183.75 188.818C184.078 189.048 184.171 189.626 183.999 190.356L183.993 190.383L179.673 208.675L179.667 208.703C179.495 209.433 179.081 210.21 178.568 210.771L178.569 210.765ZM186.486 205.764C185.93 206.333 185.358 206.564 184.984 206.359C184.612 206.154 184.494 205.551 184.676 204.776L187.993 190.725C188.174 189.951 188.632 189.117 189.187 188.548C189.743 187.979 190.315 187.748 190.69 187.953L197.44 191.657C197.812 191.861 197.932 192.46 197.748 193.239C197.564 194.018 197.109 194.847 196.553 195.416L186.486 205.764ZM196.021 223.855C195.431 224.461 194.827 224.656 194.482 224.349L184.881 215.759C184.578 215.488 184.513 214.882 184.713 214.143C184.914 213.404 185.346 212.637 185.867 212.105L185.887 212.085L198.995 198.614L199.015 198.594C199.538 198.057 200.075 197.825 200.445 197.979C200.815 198.132 200.968 198.644 200.855 199.344L197.209 221.55C197.078 222.346 196.612 223.249 196.024 223.856L196.021 223.855Z" fill="#9A0060"/>
<path d="M184.429 209.31L198.253 194.791L196.758 191.876L181.473 206.641L184.429 209.31Z" fill="#9A0060"/>
<path d="M160.041 200.583L180.239 183.511L181.398 185.426L163.354 202.401L163.269 210.614L161.098 214.571L156.489 212.042L157.322 207.351L160.041 200.583Z" fill="#9A0060"/>
<path d="M215.601 151.49L210.674 148.787L202.311 182.358L196.797 185.964L198.826 191.731L193.874 221.706L186.338 228.39L191.18 231.047L197.863 224.708L203.167 197.719L201.086 189.83L205.172 187.418L215.601 151.49Z" fill="#9A0060"/>
<path d="M189.844 179.822L210.078 154.626L208.217 151.976L189.242 172.861L183.585 181.158L178.122 205.617L182.046 206.723L185.551 190.264L189.844 179.822Z" fill="#9A0060"/>
<path d="M197.484 216.65L201.126 194.466C201.522 192.056 201.132 190.267 200.155 189.385C199.933 189.182 199.875 188.747 200.003 188.211C200.129 187.672 200.426 187.098 200.801 186.659C202.437 184.743 203.842 182.248 204.618 179.686L211.781 156.113C212.846 152.613 212.471 149.773 210.83 148.873C209.189 147.972 206.589 149.186 204.212 151.96L188.178 170.666C186.437 172.698 185.084 175.222 184.347 177.631C184.178 178.183 183.851 178.741 183.467 179.138C183.081 179.533 182.685 179.719 182.396 179.641C181.126 179.291 179.408 179.922 177.587 181.551L160.834 196.541C158.348 198.766 156.222 202.408 155.413 205.825C154.609 209.239 155.276 211.78 157.112 212.298L169.504 215.775C170.849 216.154 172.592 215.419 174.304 213.891C174.695 213.541 175.08 213.418 175.338 213.56C175.596 213.701 175.697 214.091 175.614 214.61C175.245 216.874 175.561 218.739 176.603 219.671L186.193 228.254C187.614 229.53 190.116 228.727 192.566 226.21C195.013 223.692 196.943 219.942 197.484 216.65ZM189.589 174.893L205.643 156.166C206.219 155.496 206.846 155.202 207.241 155.419C207.636 155.636 207.725 156.323 207.469 157.168L200.3 180.769C200.073 181.512 199.62 182.268 199.094 182.772C198.567 183.277 198.042 183.466 197.69 183.273L188.877 178.437C188.528 178.245 188.403 177.7 188.545 176.985C188.688 176.27 189.082 175.482 189.587 174.891L189.589 174.893ZM174.192 208.363C173.676 208.93 173.13 209.2 172.738 209.091L160.335 205.607C159.893 205.482 159.729 204.872 159.922 204.048C160.116 203.225 160.629 202.348 161.23 201.81L178.002 186.805C178.531 186.333 179.047 186.182 179.373 186.417C179.701 186.646 179.794 187.224 179.622 187.954L179.616 187.982L175.296 206.274L175.29 206.301C175.118 207.031 174.704 207.808 174.191 208.369L174.192 208.363ZM182.109 203.362C181.554 203.931 180.981 204.162 180.607 203.957C180.235 203.753 180.117 203.149 180.299 202.375L183.616 188.323C183.797 187.549 184.255 186.715 184.81 186.146C185.366 185.577 185.938 185.346 186.313 185.552L193.063 189.255C193.435 189.459 193.555 190.058 193.371 190.837C193.187 191.616 192.732 192.445 192.176 193.014L182.109 203.362ZM191.644 221.453C191.054 222.059 190.45 222.255 190.105 221.947L180.504 213.357C180.201 213.086 180.136 212.48 180.336 211.741C180.537 211.002 180.969 210.235 181.49 209.703L181.51 209.683L194.618 196.213L194.638 196.193C195.161 195.656 195.698 195.423 196.068 195.577C196.438 195.73 196.591 196.242 196.478 196.942L192.832 219.149C192.701 219.944 192.235 220.848 191.647 221.454L191.644 221.453Z" fill="#FF6FC8"/>
</g>
<g opacity="0.8" filter="url(#filter9_f_72_331)">
<path d="M256.272 110.052L235.526 98.6691L136.396 279.341L157.142 290.724L256.272 110.052Z" fill="#E81899"/>
<path d="M247.397 222.713C220.024 272.603 179.605 303.048 157.142 290.724C134.68 278.399 141.649 229.6 169.022 179.711C196.395 129.821 233.796 97.7193 256.272 110.052C278.749 122.384 274.77 172.824 247.397 222.713Z" fill="#E81899"/>
<path d="M228.111 212.131C200.738 262.021 160.347 292.482 137.899 280.166C115.451 267.849 119.444 217.417 146.817 167.528C174.19 117.638 214.581 87.1767 237.029 99.4934C259.477 111.81 255.484 162.242 228.111 212.131Z" fill="#FF6FC8"/>
<path d="M212.576 201.43C191.538 239.773 167.109 266.689 152.029 258.415C136.02 249.631 136.913 209.802 157.951 171.459C178.989 133.115 208.28 108.737 223.359 117.011C227.065 119.044 231.085 121.25 234.161 131.183C239.003 146.852 228.456 172.486 212.576 201.43Z" fill="#9A0060"/>
<path d="M217.881 206.519C197.353 243.932 168.471 267.566 153.391 259.292C138.311 251.018 142.72 213.975 163.256 176.547C183.792 139.119 212.666 115.5 227.746 123.774C242.826 132.048 238.417 169.091 217.881 206.519Z" fill="#E81899"/>
<path d="M201.861 219.052L205.503 196.868C205.899 194.458 205.509 192.669 204.532 191.786C204.31 191.584 204.252 191.149 204.38 190.612C204.506 190.074 204.803 189.5 205.178 189.061C206.814 187.145 208.219 184.65 208.995 182.088L216.158 158.515C217.223 155.015 216.848 152.175 215.207 151.274C213.566 150.374 210.966 151.588 208.589 154.361L192.555 173.068C190.814 175.1 189.461 177.624 188.724 180.033C188.555 180.585 188.228 181.143 187.844 181.54C187.458 181.935 187.062 182.121 186.773 182.042C185.503 181.693 183.785 182.324 181.964 183.953L165.211 198.943C162.725 201.167 160.599 204.81 159.79 208.227C158.986 211.641 159.653 214.182 161.489 214.7L173.881 218.177C175.226 218.556 176.969 217.82 178.681 216.293C179.071 215.943 179.457 215.82 179.715 215.962C179.973 216.103 180.074 216.493 179.991 217.012C179.622 219.276 179.938 221.141 180.98 222.072L190.57 230.656C191.991 231.931 194.493 231.129 196.943 228.612C199.39 226.094 201.32 222.344 201.861 219.052ZM193.966 177.294L210.02 158.568C210.596 157.898 211.223 157.604 211.618 157.821C212.013 158.037 212.102 158.725 211.846 159.57L204.676 183.171C204.45 183.914 203.997 184.669 203.47 185.174C202.944 185.678 202.419 185.867 202.067 185.674L193.254 180.839C192.905 180.647 192.779 180.101 192.922 179.386C193.065 178.671 193.459 177.883 193.964 177.293L193.966 177.294ZM178.569 210.765C178.053 211.331 177.507 211.602 177.115 211.492L164.712 208.009C164.27 207.884 164.106 207.273 164.299 206.45C164.493 205.626 165.006 204.749 165.607 204.211L182.379 189.206C182.908 188.734 183.424 188.584 183.75 188.818C184.078 189.048 184.171 189.626 183.999 190.356L183.993 190.383L179.673 208.675L179.667 208.703C179.495 209.433 179.081 210.21 178.568 210.771L178.569 210.765ZM186.486 205.764C185.93 206.333 185.358 206.564 184.984 206.359C184.612 206.154 184.494 205.551 184.676 204.776L187.993 190.725C188.174 189.951 188.632 189.117 189.187 188.548C189.743 187.979 190.315 187.748 190.69 187.953L197.44 191.657C197.812 191.861 197.932 192.46 197.748 193.239C197.564 194.018 197.109 194.847 196.553 195.416L186.486 205.764ZM196.021 223.855C195.431 224.461 194.827 224.656 194.482 224.349L184.881 215.759C184.578 215.488 184.513 214.882 184.713 214.143C184.914 213.404 185.346 212.637 185.867 212.105L185.887 212.085L198.995 198.614L199.015 198.594C199.538 198.057 200.075 197.825 200.445 197.979C200.815 198.132 200.968 198.644 200.855 199.344L197.209 221.55C197.078 222.346 196.612 223.249 196.024 223.856L196.021 223.855Z" fill="#9A0060"/>
<path d="M184.429 209.31L198.253 194.791L196.758 191.876L181.473 206.641L184.429 209.31Z" fill="#9A0060"/>
<path d="M160.041 200.583L180.239 183.511L181.398 185.426L163.354 202.401L163.269 210.614L161.098 214.571L156.489 212.042L157.322 207.351L160.041 200.583Z" fill="#9A0060"/>
<path d="M215.601 151.49L210.674 148.787L202.311 182.358L196.797 185.964L198.826 191.731L193.874 221.706L186.338 228.39L191.18 231.047L197.863 224.708L203.167 197.719L201.086 189.83L205.172 187.418L215.601 151.49Z" fill="#9A0060"/>
<path d="M189.844 179.822L210.078 154.626L208.217 151.976L189.242 172.861L183.585 181.158L178.122 205.617L182.046 206.723L185.551 190.264L189.844 179.822Z" fill="#9A0060"/>
<path d="M197.484 216.65L201.126 194.466C201.522 192.056 201.132 190.267 200.155 189.385C199.933 189.182 199.875 188.747 200.003 188.211C200.129 187.672 200.426 187.098 200.801 186.659C202.437 184.743 203.842 182.248 204.618 179.686L211.781 156.113C212.846 152.613 212.471 149.773 210.83 148.873C209.189 147.972 206.589 149.186 204.212 151.96L188.178 170.666C186.437 172.698 185.084 175.222 184.347 177.631C184.178 178.183 183.851 178.741 183.467 179.138C183.081 179.533 182.685 179.719 182.396 179.641C181.126 179.291 179.408 179.922 177.587 181.551L160.834 196.541C158.348 198.766 156.222 202.408 155.413 205.825C154.609 209.239 155.276 211.78 157.112 212.298L169.504 215.775C170.849 216.154 172.592 215.419 174.304 213.891C174.695 213.541 175.08 213.418 175.338 213.56C175.596 213.701 175.697 214.091 175.614 214.61C175.245 216.874 175.561 218.739 176.603 219.671L186.193 228.254C187.614 229.53 190.116 228.727 192.566 226.21C195.013 223.692 196.943 219.942 197.484 216.65ZM189.589 174.893L205.643 156.166C206.219 155.496 206.846 155.202 207.241 155.419C207.636 155.636 207.725 156.323 207.469 157.168L200.3 180.769C200.073 181.512 199.62 182.268 199.094 182.772C198.567 183.277 198.042 183.466 197.69 183.273L188.877 178.437C188.528 178.245 188.403 177.7 188.545 176.985C188.688 176.27 189.082 175.482 189.587 174.891L189.589 174.893ZM174.192 208.363C173.676 208.93 173.13 209.2 172.738 209.091L160.335 205.607C159.893 205.482 159.729 204.872 159.922 204.048C160.116 203.225 160.629 202.348 161.23 201.81L178.002 186.805C178.531 186.333 179.047 186.182 179.373 186.417C179.701 186.646 179.794 187.224 179.622 187.954L179.616 187.982L175.296 206.274L175.29 206.301C175.118 207.031 174.704 207.808 174.191 208.369L174.192 208.363ZM182.109 203.362C181.554 203.931 180.981 204.162 180.607 203.957C180.235 203.753 180.117 203.149 180.299 202.375L183.616 188.323C183.797 187.549 184.255 186.715 184.81 186.146C185.366 185.577 185.938 185.346 186.313 185.552L193.063 189.255C193.435 189.459 193.555 190.058 193.371 190.837C193.187 191.616 192.732 192.445 192.176 193.014L182.109 203.362ZM191.644 221.453C191.054 222.059 190.45 222.255 190.105 221.947L180.504 213.357C180.201 213.086 180.136 212.48 180.336 211.741C180.537 211.002 180.969 210.235 181.49 209.703L181.51 209.683L194.618 196.213L194.638 196.193C195.161 195.656 195.698 195.423 196.068 195.577C196.438 195.73 196.591 196.242 196.478 196.942L192.832 219.149C192.701 219.944 192.235 220.848 191.647 221.454L191.644 221.453Z" fill="#FF6FC8"/>
</g>
<path d="M256.272 110.052L235.526 98.6691L136.396 279.341L157.142 290.724L256.272 110.052Z" fill="#E81899"/>
<path d="M247.397 222.713C220.024 272.603 179.605 303.048 157.142 290.724C134.68 278.399 141.649 229.6 169.022 179.711C196.395 129.821 233.796 97.7193 256.272 110.052C278.749 122.384 274.77 172.824 247.397 222.713Z" fill="#E81899"/>
<path d="M228.111 212.131C200.738 262.021 160.347 292.482 137.899 280.166C115.451 267.849 119.444 217.417 146.817 167.528C174.19 117.638 214.581 87.1767 237.029 99.4934C259.477 111.81 255.484 162.242 228.111 212.131Z" fill="#FF6FC8"/>
<path d="M212.576 201.43C191.538 239.773 167.109 266.689 152.029 258.415C136.02 249.631 136.913 209.802 157.951 171.459C178.989 133.115 208.28 108.737 223.359 117.011C227.065 119.044 231.085 121.25 234.161 131.183C239.003 146.852 228.456 172.486 212.576 201.43Z" fill="#9A0060"/>
<path d="M217.881 206.519C197.353 243.932 168.471 267.566 153.391 259.292C138.311 251.018 142.72 213.975 163.256 176.547C183.792 139.119 212.666 115.5 227.746 123.774C242.826 132.048 238.417 169.091 217.881 206.519Z" fill="#E81899"/>
<path d="M201.861 219.052L205.503 196.868C205.899 194.458 205.509 192.669 204.532 191.786C204.31 191.584 204.252 191.149 204.38 190.612C204.506 190.074 204.803 189.5 205.178 189.061C206.814 187.145 208.219 184.65 208.995 182.088L216.158 158.515C217.223 155.015 216.848 152.175 215.207 151.274C213.566 150.374 210.966 151.588 208.589 154.361L192.555 173.068C190.814 175.1 189.461 177.624 188.724 180.033C188.555 180.585 188.228 181.143 187.844 181.54C187.458 181.935 187.062 182.121 186.773 182.042C185.503 181.693 183.785 182.324 181.964 183.953L165.211 198.943C162.725 201.167 160.599 204.81 159.79 208.227C158.986 211.641 159.653 214.182 161.489 214.7L173.881 218.177C175.226 218.556 176.969 217.82 178.681 216.293C179.071 215.943 179.457 215.82 179.715 215.962C179.973 216.103 180.074 216.493 179.991 217.012C179.622 219.276 179.938 221.141 180.98 222.072L190.57 230.656C191.991 231.931 194.493 231.129 196.943 228.612C199.39 226.094 201.32 222.344 201.861 219.052ZM193.966 177.294L210.02 158.568C210.596 157.898 211.223 157.604 211.618 157.821C212.013 158.037 212.102 158.725 211.846 159.57L204.676 183.171C204.45 183.914 203.997 184.669 203.47 185.174C202.944 185.678 202.419 185.867 202.067 185.674L193.254 180.839C192.905 180.647 192.779 180.101 192.922 179.386C193.065 178.671 193.459 177.883 193.964 177.293L193.966 177.294ZM178.569 210.765C178.053 211.331 177.507 211.602 177.115 211.492L164.712 208.009C164.27 207.884 164.106 207.273 164.299 206.45C164.493 205.626 165.006 204.749 165.607 204.211L182.379 189.206C182.908 188.734 183.424 188.584 183.75 188.818C184.078 189.048 184.171 189.626 183.999 190.356L183.993 190.383L179.673 208.675L179.667 208.703C179.495 209.433 179.081 210.21 178.568 210.771L178.569 210.765ZM186.486 205.764C185.93 206.333 185.358 206.564 184.984 206.359C184.612 206.154 184.494 205.551 184.676 204.776L187.993 190.725C188.174 189.951 188.632 189.117 189.187 188.548C189.743 187.979 190.315 187.748 190.69 187.953L197.44 191.657C197.812 191.861 197.932 192.46 197.748 193.239C197.564 194.018 197.109 194.847 196.553 195.416L186.486 205.764ZM196.021 223.855C195.431 224.461 194.827 224.656 194.482 224.349L184.881 215.759C184.578 215.488 184.513 214.882 184.713 214.143C184.914 213.404 185.346 212.637 185.867 212.105L185.887 212.085L198.995 198.614L199.015 198.594C199.538 198.057 200.075 197.825 200.445 197.979C200.815 198.132 200.968 198.644 200.855 199.344L197.209 221.55C197.078 222.346 196.612 223.249 196.024 223.856L196.021 223.855Z" fill="#9A0060"/>
<path d="M184.429 209.31L198.253 194.791L196.758 191.876L181.473 206.641L184.429 209.31Z" fill="#9A0060"/>
<path d="M160.041 200.583L180.239 183.511L181.398 185.426L163.354 202.401L163.269 210.614L161.098 214.571L156.489 212.042L157.322 207.351L160.041 200.583Z" fill="#9A0060"/>
<path d="M215.601 151.49L210.674 148.787L202.311 182.358L196.797 185.964L198.826 191.731L193.874 221.706L186.338 228.39L191.18 231.047L197.863 224.708L203.167 197.719L201.086 189.83L205.172 187.418L215.601 151.49Z" fill="#9A0060"/>
<path d="M189.844 179.822L210.078 154.626L208.217 151.976L189.242 172.861L183.585 181.158L178.122 205.617L182.046 206.723L185.551 190.264L189.844 179.822Z" fill="#9A0060"/>
<path d="M197.484 216.65L201.126 194.466C201.522 192.056 201.132 190.267 200.155 189.385C199.933 189.182 199.875 188.747 200.003 188.211C200.129 187.672 200.426 187.098 200.801 186.659C202.437 184.743 203.842 182.248 204.618 179.686L211.781 156.113C212.846 152.613 212.471 149.773 210.83 148.873C209.189 147.972 206.589 149.186 204.212 151.96L188.178 170.666C186.437 172.698 185.084 175.222 184.347 177.631C184.178 178.183 183.851 178.741 183.467 179.138C183.081 179.533 182.685 179.719 182.396 179.641C181.126 179.291 179.408 179.922 177.587 181.551L160.834 196.541C158.348 198.766 156.222 202.408 155.413 205.825C154.609 209.239 155.276 211.78 157.112 212.298L169.504 215.775C170.849 216.154 172.592 215.419 174.304 213.891C174.695 213.541 175.08 213.418 175.338 213.56C175.596 213.701 175.697 214.091 175.614 214.61C175.245 216.874 175.561 218.739 176.603 219.671L186.193 228.254C187.614 229.53 190.116 228.727 192.566 226.21C195.013 223.692 196.943 219.942 197.484 216.65ZM189.589 174.893L205.643 156.166C206.219 155.496 206.846 155.202 207.241 155.419C207.636 155.636 207.725 156.323 207.469 157.168L200.3 180.769C200.073 181.512 199.62 182.268 199.094 182.772C198.567 183.277 198.042 183.466 197.69 183.273L188.877 178.437C188.528 178.245 188.403 177.7 188.545 176.985C188.688 176.27 189.082 175.482 189.587 174.891L189.589 174.893ZM174.192 208.363C173.676 208.93 173.13 209.2 172.738 209.091L160.335 205.607C159.893 205.482 159.729 204.872 159.922 204.048C160.116 203.225 160.629 202.348 161.23 201.81L178.002 186.805C178.531 186.333 179.047 186.182 179.373 186.417C179.701 186.646 179.794 187.224 179.622 187.954L179.616 187.982L175.296 206.274L175.29 206.301C175.118 207.031 174.704 207.808 174.191 208.369L174.192 208.363ZM182.109 203.362C181.554 203.931 180.981 204.162 180.607 203.957C180.235 203.753 180.117 203.149 180.299 202.375L183.616 188.323C183.797 187.549 184.255 186.715 184.81 186.146C185.366 185.577 185.938 185.346 186.313 185.552L193.063 189.255C193.435 189.459 193.555 190.058 193.371 190.837C193.187 191.616 192.732 192.445 192.176 193.014L182.109 203.362ZM191.644 221.453C191.054 222.059 190.45 222.255 190.105 221.947L180.504 213.357C180.201 213.086 180.136 212.48 180.336 211.741C180.537 211.002 180.969 210.235 181.49 209.703L181.51 209.683L194.618 196.213L194.638 196.193C195.161 195.656 195.698 195.423 196.068 195.577C196.438 195.73 196.591 196.242 196.478 196.942L192.832 219.149C192.701 219.944 192.235 220.848 191.647 221.454L191.644 221.453Z" fill="#FF6FC8"/>
<mask id="mask1_72_331" style="mask-type:alpha" maskUnits="userSpaceOnUse" x="79" y="80" width="232" height="226">
<path d="M179.965 122.637C178.086 124.342 175.419 126.905 174.027 128.668L253.498 210.784C254.166 209.522 256.467 204.273 257.488 201.923L265.41 208.706L310.319 276.161L294.731 303.812C215.157 319.548 120.788 193.706 83.5499 128.817L79.4673 102.281L110.272 80.7544H115.839L179.965 122.637Z" fill="#D9D9D9"/>
</mask>
<g mask="url(#mask1_72_331)">
<g opacity="0.6" filter="url(#filter10_f_72_331)">
<path d="M224.036 167.462C251.932 195.358 273.654 224.044 286.243 247.828C292.543 259.73 296.504 270.309 297.856 278.888C299.216 287.516 297.886 293.709 294.199 297.396C290.512 301.082 284.32 302.413 275.691 301.053C267.112 299.701 256.534 295.74 244.632 289.44C220.848 276.851 192.162 255.129 164.265 227.233C136.369 199.336 114.647 170.65 102.058 146.866C95.7583 134.964 91.7974 124.386 90.4453 115.807C89.0853 107.178 90.4158 100.986 94.1024 97.2989C97.7891 93.6123 103.982 92.2818 112.61 93.6418C121.189 94.9939 131.767 98.9548 143.67 105.255C167.454 117.844 196.139 139.565 224.036 167.462Z" stroke="url(#paint0_linear_72_331)" stroke-width="3.71144"/>
</g>
<path d="M224.036 167.462C251.932 195.358 273.654 224.044 286.243 247.828C292.543 259.73 296.504 270.309 297.856 278.888C299.216 287.516 297.886 293.709 294.199 297.396C290.512 301.082 284.32 302.413 275.691 301.053C267.112 299.701 256.534 295.74 244.632 289.44C220.848 276.851 192.162 255.129 164.265 227.233C136.369 199.336 114.647 170.65 102.058 146.866C95.7583 134.964 91.7974 124.386 90.4453 115.807C89.0853 107.178 90.4158 100.986 94.1024 97.2989C97.7891 93.6123 103.982 92.2818 112.61 93.6418C121.189 94.9939 131.767 98.9548 143.67 105.255C167.454 117.844 196.139 139.565 224.036 167.462Z" stroke="url(#paint1_linear_72_331)" stroke-width="3.71144"/>
</g>
<mask id="mask2_72_331" style="mask-type:alpha" maskUnits="userSpaceOnUse" x="49" y="132" width="300" height="138">
<path d="M348.171 168.813L331.326 135.219L326.43 132.569L270.305 137.864C270.566 139.877 270.815 143.153 270.815 145.745L141.077 178.365C142.005 176.463 144 172.845 144.603 171.592L126.04 161.212L62.3836 211.851L49.3708 252.108C111.861 303.823 268.315 229.549 331.95 190.208L348.171 168.813Z" fill="#D9D9D9"/>
</mask>
<g mask="url(#mask2_72_331)">
<g opacity="0.6" filter="url(#filter11_f_72_331)">
<path d="M190.005 157.325C152.193 168.58 119.435 183.468 97.0433 198.393C85.8374 205.862 77.3189 213.28 72.0462 220.181C66.7432 227.122 64.9656 233.201 66.4531 238.198C67.9405 243.195 72.7534 247.313 80.989 250.224C89.1774 253.118 100.366 254.67 113.832 254.795C140.741 255.044 176.308 249.595 214.12 238.34C251.932 227.085 284.69 212.196 307.082 197.271C318.288 189.803 326.806 182.385 332.079 175.484C337.382 168.543 339.159 162.463 337.672 157.466C336.184 152.469 331.372 148.351 323.136 145.44C314.948 142.546 303.759 140.994 290.293 140.869C263.384 140.62 227.817 146.069 190.005 157.325Z" stroke="url(#paint2_linear_72_331)" stroke-width="3.71144"/>
</g>
<path d="M190.005 157.325C152.193 168.58 119.435 183.468 97.0433 198.393C85.8374 205.862 77.3189 213.28 72.0462 220.181C66.7432 227.122 64.9656 233.201 66.4531 238.198C67.9405 243.195 72.7534 247.313 80.989 250.224C89.1774 253.118 100.366 254.67 113.832 254.795C140.741 255.044 176.308 249.595 214.12 238.34C251.932 227.085 284.69 212.196 307.082 197.271C318.288 189.803 326.806 182.385 332.079 175.484C337.382 168.543 339.159 162.463 337.672 157.466C336.184 152.469 331.372 148.351 323.136 145.44C314.948 142.546 303.759 140.994 290.293 140.869C263.384 140.62 227.817 146.069 190.005 157.325Z" stroke="url(#paint3_linear_72_331)" stroke-width="3.71144"/>
</g>
</g>
<defs>
<filter id="filter0_f_72_331" x="100.879" y="239.139" width="22.8816" height="22.8818" filterUnits="userSpaceOnUse" color-interpolation-filters="sRGB">
<feFlood flood-opacity="0" result="BackgroundImageFix"/>
<feBlend mode="normal" in="SourceGraphic" in2="BackgroundImageFix" result="shape"/>
<feGaussianBlur stdDeviation="2.32783" result="effect1_foregroundBlur_72_331"/>
</filter>
<filter id="filter1_f_72_331" x="158.124" y="25.9072" width="244.976" height="244.976" filterUnits="userSpaceOnUse" color-interpolation-filters="sRGB">
<feFlood flood-opacity="0" result="BackgroundImageFix"/>
<feBlend mode="normal" in="SourceGraphic" in2="BackgroundImageFix" result="shape"/>
<feGaussianBlur stdDeviation="46.5566" result="effect1_foregroundBlur_72_331"/>
</filter>
<filter id="filter2_f_72_331" x="-43.1259" y="71.4218" width="351.244" height="351.244" filterUnits="userSpaceOnUse" color-interpolation-filters="sRGB">
<feFlood flood-opacity="0" result="BackgroundImageFix"/>
<feBlend mode="normal" in="SourceGraphic" in2="BackgroundImageFix" result="shape"/>
<feGaussianBlur stdDeviation="46.5566" result="effect1_foregroundBlur_72_331"/>
</filter>
<filter id="filter3_f_72_331" x="219.533" y="310.61" width="17.0262" height="17.0262" filterUnits="userSpaceOnUse" color-interpolation-filters="sRGB">
<feFlood flood-opacity="0" result="BackgroundImageFix"/>
<feBlend mode="normal" in="SourceGraphic" in2="BackgroundImageFix" result="shape"/>
<feGaussianBlur stdDeviation="2.32783" result="effect1_foregroundBlur_72_331"/>
</filter>
<filter id="filter4_f_72_331" x="155.126" y="86.7142" width="14.0979" height="14.0977" filterUnits="userSpaceOnUse" color-interpolation-filters="sRGB">
<feFlood flood-opacity="0" result="BackgroundImageFix"/>
<feBlend mode="normal" in="SourceGraphic" in2="BackgroundImageFix" result="shape"/>
<feGaussianBlur stdDeviation="2.32783" result="effect1_foregroundBlur_72_331"/>
</filter>
<filter id="filter5_f_72_331" x="130.339" y="83.3454" width="7.00677" height="7.00665" filterUnits="userSpaceOnUse" color-interpolation-filters="sRGB">
<feFlood flood-opacity="0" result="BackgroundImageFix"/>
<feBlend mode="normal" in="SourceGraphic" in2="BackgroundImageFix" result="shape"/>
<feGaussianBlur stdDeviation="0.698349" result="effect1_foregroundBlur_72_331"/>
</filter>
<filter id="filter6_f_72_331" x="287.036" y="243.54" width="7.00677" height="7.00665" filterUnits="userSpaceOnUse" color-interpolation-filters="sRGB">
<feFlood flood-opacity="0" result="BackgroundImageFix"/>
<feBlend mode="normal" in="SourceGraphic" in2="BackgroundImageFix" result="shape"/>
<feGaussianBlur stdDeviation="0.698349" result="effect1_foregroundBlur_72_331"/>
</filter>
<filter id="filter7_f_72_331" x="270.578" y="138.362" width="20.0677" height="20.0677" filterUnits="userSpaceOnUse" color-interpolation-filters="sRGB">
<feFlood flood-opacity="0" result="BackgroundImageFix"/>
<feBlend mode="normal" in="SourceGraphic" in2="BackgroundImageFix" result="shape"/>
<feGaussianBlur stdDeviation="2.32783" result="effect1_foregroundBlur_72_331"/>
</filter>
<filter id="filter8_f_72_331" x="37.9719" y="17.9115" width="318.27" height="354.418" filterUnits="userSpaceOnUse" color-interpolation-filters="sRGB">
<feFlood flood-opacity="0" result="BackgroundImageFix"/>
<feBlend mode="normal" in="SourceGraphic" in2="BackgroundImageFix" result="shape"/>
<feGaussianBlur stdDeviation="29.64" result="effect1_foregroundBlur_72_331"/>
</filter>
<filter id="filter9_f_72_331" x="77.4919" y="57.4315" width="239.23" height="275.378" filterUnits="userSpaceOnUse" color-interpolation-filters="sRGB">
<feFlood flood-opacity="0" result="BackgroundImageFix"/>
<feBlend mode="normal" in="SourceGraphic" in2="BackgroundImageFix" result="shape"/>
<feGaussianBlur stdDeviation="9.88001" result="effect1_foregroundBlur_72_331"/>
</filter>
<filter id="filter10_f_72_331" x="84.1173" y="87.3141" width="220.067" height="220.066" filterUnits="userSpaceOnUse" color-interpolation-filters="sRGB">
<feFlood flood-opacity="0" result="BackgroundImageFix"/>
<feBlend mode="normal" in="SourceGraphic" in2="BackgroundImageFix" result="shape"/>
<feGaussianBlur stdDeviation="1.976" result="effect1_foregroundBlur_72_331"/>
</filter>
<filter id="filter11_f_72_331" x="56.1863" y="131.101" width="291.752" height="133.461" filterUnits="userSpaceOnUse" color-interpolation-filters="sRGB">
<feFlood flood-opacity="0" result="BackgroundImageFix"/>
<feBlend mode="normal" in="SourceGraphic" in2="BackgroundImageFix" result="shape"/>
<feGaussianBlur stdDeviation="3.952" result="effect1_foregroundBlur_72_331"/>
</filter>
<linearGradient id="paint0_linear_72_331" x1="203.058" y1="177.252" x2="224.049" y2="148.565" gradientUnits="userSpaceOnUse">
<stop stop-color="white"/>
<stop offset="0.524135" stop-color="white" stop-opacity="0"/>
</linearGradient>
<linearGradient id="paint1_linear_72_331" x1="203.058" y1="177.252" x2="235.719" y2="139.395" gradientUnits="userSpaceOnUse">
<stop stop-color="white"/>
<stop offset="0.524135" stop-color="white" stop-opacity="0"/>
</linearGradient>
<linearGradient id="paint2_linear_72_331" x1="214.935" y1="229.954" x2="193.409" y2="137.168" gradientUnits="userSpaceOnUse">
<stop stop-color="white"/>
<stop offset="0.93929" stop-color="white" stop-opacity="0"/>
</linearGradient>
<linearGradient id="paint3_linear_72_331" x1="214.935" y1="229.954" x2="193.409" y2="137.168" gradientUnits="userSpaceOnUse">
<stop stop-color="white"/>
<stop offset="0.93929" stop-color="white" stop-opacity="0"/>
</linearGradient>
</defs>
</svg>
