<svg width="125" height="125" viewBox="0 0 125 125" fill="none" xmlns="http://www.w3.org/2000/svg">
    <g clip-path="url(#clip0_34_2652)">
        <rect width="74.7469" height="74.7469" rx="7.8681" transform="matrix(-1 0 0 1 94.1357 30.9155)"
            fill="#E81899" />
        <g filter="url(#filter0_bii_34_2652)">
            <rect width="74.7469" height="74.7469" rx="7.8681" transform="matrix(-1 0 0 1 106.793 18.5194)" fill="white"
                fill-opacity="0.2" />
        </g>
        <mask id="mask0_34_2652" style="mask-type:alpha" maskUnits="userSpaceOnUse" x="31" y="18" width="76"
            height="76">
            <rect x="31.8428" y="18.4307" width="74.7469" height="74.7469" rx="7.8681" fill="#D9D9D9" />
        </mask>
        <g mask="url(#mask0_34_2652)">
            <path
                d="M84.3531 40.0327C87.3428 37.3498 91.8735 37.3498 94.8632 40.0327L130.137 71.6871C135.508 76.507 132.098 85.4111 124.882 85.4111H54.3344C47.1178 85.4111 43.7084 76.507 49.0793 71.6871L84.3531 40.0327Z"
                fill="white" />
            <path
                d="M41.803 57.1867C44.8008 54.4717 49.3686 54.4717 52.3664 57.1867L67.975 71.3228C73.3109 76.1553 69.8923 85.0228 62.6933 85.0228H31.4761C24.2772 85.0228 20.8585 76.1553 26.1944 71.3228L41.803 57.1867Z"
                fill="white" />
            <rect x="20.1924" y="84.6344" width="97.0818" height="19.9988" rx="7.8681" fill="white" />
            <circle cx="47.5707" cy="36.0935" r="8.34903" fill="white" />
        </g>
    </g>
    <defs>
        <filter id="filter0_bii_34_2652" x="27.828" y="14.3015" width="83.1828" height="83.1827"
            filterUnits="userSpaceOnUse" color-interpolation-filters="sRGB">
            <feFlood flood-opacity="0" result="BackgroundImageFix" />
            <feGaussianBlur in="BackgroundImageFix" stdDeviation="2.10894" />
            <feComposite in2="SourceAlpha" operator="in" result="effect1_backgroundBlur_34_2652" />
            <feBlend mode="normal" in="SourceGraphic" in2="effect1_backgroundBlur_34_2652" result="shape" />
            <feColorMatrix in="SourceAlpha" type="matrix" values="0 0 0 0 0 0 0 0 0 0 0 0 0 0 0 0 0 0 127 0"
                result="hardAlpha" />
            <feOffset dx="0.632683" dy="-1.47626" />
            <feGaussianBlur stdDeviation="9.95421" />
            <feComposite in2="hardAlpha" operator="arithmetic" k2="-1" k3="1" />
            <feColorMatrix type="matrix" values="0 0 0 0 1 0 0 0 0 1 0 0 0 0 1 0 0 0 0.4 0" />
            <feBlend mode="normal" in2="shape" result="effect2_innerShadow_34_2652" />
            <feColorMatrix in="SourceAlpha" type="matrix" values="0 0 0 0 0 0 0 0 0 0 0 0 0 0 0 0 0 0 127 0"
                result="hardAlpha" />
            <feOffset />
            <feGaussianBlur stdDeviation="0.421789" />
            <feComposite in2="hardAlpha" operator="arithmetic" k2="-1" k3="1" />
            <feColorMatrix type="matrix" values="0 0 0 0 1 0 0 0 0 1 0 0 0 0 1 0 0 0 0.25 0" />
            <feBlend mode="normal" in2="effect2_innerShadow_34_2652" result="effect3_innerShadow_34_2652" />
        </filter>
        <clipPath id="clip0_34_2652">
            <rect width="125" height="125" fill="white" />
        </clipPath>
    </defs>
</svg>