<svg width="25" height="25" viewBox="0 0 25 25" fill="none" xmlns="http://www.w3.org/2000/svg">
<g filter="url(#filter0_di_592_28138)">
<path fill-rule="evenodd" clip-rule="evenodd" d="M10.5384 5.96154C10.5384 5.60043 10.8312 5.30769 11.1923 5.30769H19.0384C19.3995 5.30769 19.6923 5.60043 19.6923 5.96154V13.8077C19.6923 14.1688 19.3995 14.4615 19.0384 14.4615H11.1923C10.8312 14.4615 10.5384 14.1688 10.5384 13.8077V5.96154ZM11.1923 4C10.1089 4 9.23073 4.87821 9.23073 5.96154V13.8077C9.23073 14.891 10.1089 15.7692 11.1923 15.7692H19.0384C20.1218 15.7692 21 14.891 21 13.8077V5.96154C21 4.87821 20.1218 4 19.0384 4H11.1923ZM5.30769 12.5C5.30769 12.1389 5.60043 11.8462 5.96154 11.8462H7.35096C7.71207 11.8462 8.00481 11.5534 8.00481 11.1923C8.00481 10.8312 7.71207 10.5385 7.35096 10.5385H5.96154C4.87821 10.5385 4 11.4167 4 12.5V19.0385C4 20.1218 4.87821 21 5.96154 21H12.5C13.5833 21 14.4615 20.1218 14.4615 19.0385V17.649C14.4615 17.2879 14.1688 16.9952 13.8077 16.9952C13.4466 16.9952 13.1538 17.2879 13.1538 17.649V19.0385C13.1538 19.3996 12.8611 19.6923 12.5 19.6923H5.96154C5.60043 19.6923 5.30769 19.3996 5.30769 19.0385V12.5Z" fill="white"/>
</g>
<defs>
<filter id="filter0_di_592_28138" x="-4" y="-3" width="32" height="32" filterUnits="userSpaceOnUse" color-interpolation-filters="sRGB">
<feFlood flood-opacity="0" result="BackgroundImageFix"/>
<feColorMatrix in="SourceAlpha" type="matrix" values="0 0 0 0 0 0 0 0 0 0 0 0 0 0 0 0 0 0 127 0" result="hardAlpha"/>
<feOffset/>
<feGaussianBlur stdDeviation="2"/>
<feComposite in2="hardAlpha" operator="out"/>
<feColorMatrix type="matrix" values="0 0 0 0 0.803922 0 0 0 0 0.0235294 0 0 0 0 0.509804 0 0 0 1 0"/>
<feBlend mode="normal" in2="BackgroundImageFix" result="effect1_dropShadow_592_28138"/>
<feBlend mode="normal" in="SourceGraphic" in2="effect1_dropShadow_592_28138" result="shape"/>
<feColorMatrix in="SourceAlpha" type="matrix" values="0 0 0 0 0 0 0 0 0 0 0 0 0 0 0 0 0 0 127 0" result="hardAlpha"/>
<feOffset/>
<feGaussianBlur stdDeviation="0.5"/>
<feComposite in2="hardAlpha" operator="arithmetic" k2="-1" k3="1"/>
<feColorMatrix type="matrix" values="0 0 0 0 0.803922 0 0 0 0 0.0235294 0 0 0 0 0.509804 0 0 0 1 0"/>
<feBlend mode="normal" in2="shape" result="effect2_innerShadow_592_28138"/>
</filter>
</defs>
</svg>
