<svg width="33" height="26" viewBox="0 0 33 26" xmlns="http://www.w3.org/2000/svg">
    <path
        d="M27.489 2.32345C25.4494 1.37425 23.2623 0.67492 20.9755 0.274385C20.9339 0.266655 20.8923 0.285973 20.8708 0.324611C20.5896 0.832039 20.278 1.49402 20.0598 2.01433C17.6003 1.64085 15.1533 1.64085 12.7442 2.01433C12.526 1.48245 12.2031 0.832039 11.9205 0.324611C11.8991 0.287262 11.8575 0.267944 11.8158 0.274385C9.53035 0.67364 7.34324 1.37297 5.30243 2.32345C5.28476 2.33118 5.26962 2.34407 5.25957 2.3608C1.11108 8.64708 -0.0253599 14.7789 0.532141 20.8346C0.534664 20.8642 0.55106 20.8926 0.573764 20.9106C3.31082 22.9493 5.96212 24.187 8.56418 25.0074C8.60583 25.0203 8.64995 25.0048 8.67645 24.9701C9.29197 24.1175 9.84065 23.2185 10.3111 22.2732C10.3389 22.2178 10.3124 22.1521 10.2556 22.1302C9.38531 21.7954 8.55661 21.3871 7.75946 20.9235C7.69641 20.8861 7.69136 20.7947 7.74936 20.7509C7.91711 20.6234 8.08491 20.4907 8.24509 20.3568C8.27407 20.3323 8.31445 20.3271 8.34852 20.3426C13.5855 22.7678 19.2551 22.7678 24.4302 20.3426C24.4643 20.3259 24.5047 20.331 24.5349 20.3555C24.6952 20.4894 24.8629 20.6234 25.0319 20.7509C25.0899 20.7947 25.0861 20.8861 25.0231 20.9235C24.2259 21.3961 23.3972 21.7954 22.5257 22.1289C22.4689 22.1508 22.4437 22.2178 22.4715 22.2732C22.952 23.2172 23.5007 24.1162 24.1048 24.9688C24.1301 25.0048 24.1755 25.0203 24.2171 25.0074C26.8318 24.187 29.4831 22.9493 32.2201 20.9106C32.2441 20.8926 32.2592 20.8655 32.2618 20.8359C32.929 13.8348 31.1442 7.75329 27.5306 2.36208C27.5217 2.34407 27.5066 2.33118 27.489 2.32345ZM11.0931 17.1473C9.51647 17.1473 8.21732 15.6791 8.21732 13.876C8.21732 12.0729 9.49127 10.6047 11.0931 10.6047C12.7076 10.6047 13.9942 12.0858 13.9689 13.876C13.9689 15.6791 12.695 17.1473 11.0931 17.1473ZM21.726 17.1473C20.1494 17.1473 18.8502 15.6791 18.8502 13.876C18.8502 12.0729 20.1241 10.6047 21.726 10.6047C23.3405 10.6047 24.627 12.0858 24.6018 13.876C24.6018 15.6791 23.3405 17.1473 21.726 17.1473Z"
        fill="currentColor" />
</svg>