<svg width="25" height="25" viewBox="0 0 25 25" fill="none" xmlns="http://www.w3.org/2000/svg">
<path d="M12.5 0.404297C5.87346 0.404297 0.5 5.77681 0.5 12.4043C0.5 17.7064 3.93837 22.2045 8.70639 23.7912C9.30609 23.9023 9.52632 23.5309 9.52632 23.2139C9.52632 22.9278 9.51512 21.9825 9.51004 20.9798C6.17152 21.7057 5.46707 19.5639 5.46707 19.5639C4.92121 18.1768 4.1347 17.8081 4.1347 17.8081C3.04598 17.0633 4.21676 17.0785 4.21676 17.0785C5.4218 17.1632 6.05632 18.3152 6.05632 18.3152C7.12659 20.1498 8.86356 19.6193 9.54834 19.3128C9.65601 18.5371 9.96705 18.0078 10.3102 17.7082C7.64488 17.4046 4.84291 16.3757 4.84291 11.7776C4.84291 10.4676 5.31169 9.39701 6.07938 8.55667C5.95477 8.25437 5.54406 7.0339 6.19561 5.38097C6.19561 5.38097 7.20329 5.05844 9.49648 6.61104C10.4536 6.34507 11.4802 6.21181 12.5 6.20729C13.5199 6.21181 14.5472 6.34507 15.5062 6.61104C17.7967 5.05844 18.803 5.38097 18.803 5.38097C19.4561 7.0339 19.0452 8.25437 18.9206 8.55667C19.69 9.39701 20.1556 10.4675 20.1556 11.7776C20.1556 16.3866 17.3483 17.4015 14.6763 17.6986C15.1066 18.071 15.4902 18.8013 15.4902 19.9208C15.4902 21.5264 15.4762 22.8187 15.4762 23.2139C15.4762 23.5333 15.6922 23.9075 16.3006 23.7896C21.066 22.2011 24.5 17.7046 24.5 12.4043C24.5 5.77681 19.1273 0.404297 12.5 0.404297Z" fill="#CACBCE"/>
<path d="M4.99523 17.4979C4.96888 17.5575 4.87496 17.5754 4.78959 17.5345C4.70254 17.4954 4.6536 17.4141 4.68183 17.3542C4.70771 17.2928 4.80164 17.2757 4.88851 17.3169C4.97575 17.356 5.02544 17.4381 4.99523 17.4979ZM5.58552 18.0246C5.5283 18.0777 5.4164 18.053 5.34044 17.9692C5.26195 17.8855 5.24727 17.7737 5.30534 17.7197C5.36435 17.6668 5.47286 17.6915 5.55154 17.7753C5.63003 17.8599 5.64528 17.971 5.58542 18.0247M5.99049 18.6984C5.9169 18.7495 5.79662 18.7016 5.72236 18.5949C5.64886 18.4883 5.64886 18.3603 5.72396 18.309C5.7985 18.2577 5.9169 18.3038 5.99219 18.4097C6.0656 18.5182 6.0656 18.6462 5.9904 18.6985M6.67527 19.4789C6.60948 19.5514 6.46944 19.532 6.36686 19.433C6.26201 19.3363 6.23274 19.1989 6.29872 19.1264C6.36526 19.0537 6.50614 19.0741 6.60948 19.1723C6.71367 19.2689 6.74548 19.4072 6.67536 19.4789M7.56032 19.7425C7.53143 19.8364 7.39647 19.8791 7.26057 19.8392C7.12485 19.7981 7.03601 19.688 7.0634 19.593C7.09163 19.4984 7.22715 19.4539 7.36409 19.4966C7.49962 19.5376 7.58865 19.6468 7.56041 19.7425M8.56772 19.8542C8.57111 19.9532 8.45582 20.0352 8.31314 20.037C8.16962 20.0401 8.05357 19.96 8.05207 19.8627C8.05207 19.7628 8.16472 19.6815 8.30815 19.6791C8.45083 19.6763 8.56772 19.7558 8.56772 19.8542ZM9.55724 19.8162C9.57437 19.9128 9.47517 20.012 9.33353 20.0384C9.19424 20.0638 9.0653 20.0042 9.04751 19.9085C9.0302 19.8095 9.13128 19.7104 9.27028 19.6847C9.41221 19.66 9.53917 19.7181 9.55724 19.8162Z" fill="#CACBCE"/>
</svg>
