<svg width="54" height="54" viewBox="0 0 54 54" fill="none" xmlns="http://www.w3.org/2000/svg">
<rect x="4.74023" y="4.13867" width="44.9697" height="44.9697" rx="11.2424" fill="white"/>
<rect opacity="0.5" x="1.22461" y="0.625" width="52" height="52" rx="13.1515" stroke="white"/>
<path d="M33.9629 23.0053C33.9629 24.9122 31.1092 26.458 27.5889 26.458C24.0686 26.458 21.2148 24.9122 21.2148 23.0053C21.2148 21.0985 24.0686 19.5527 27.5889 19.5527C31.1092 19.5527 33.9629 21.0985 33.9629 23.0053Z" fill="#E81899"/>
<path d="M27.5889 27.5203C29.4906 27.5203 31.265 27.1051 32.602 26.3808C33.0907 26.1161 33.5556 25.7882 33.945 25.4004C33.9569 25.4865 33.9629 25.5735 33.9629 25.6612C33.9629 27.568 31.1092 29.1138 27.5889 29.1138C24.0686 29.1138 21.2148 27.568 21.2148 25.6612C21.2148 25.5735 21.2209 25.4865 21.2328 25.4004C21.6222 25.7882 22.0871 26.1161 22.5758 26.3808C23.9128 27.1051 25.6872 27.5203 27.5889 27.5203Z" fill="#E81899"/>
<path d="M27.5889 30.1762C29.4906 30.1762 31.265 29.7609 32.602 29.0367C33.0907 28.772 33.5556 28.4441 33.945 28.0562C33.9569 28.1423 33.9629 28.2293 33.9629 28.3171C33.9629 30.2239 31.1092 31.7697 27.5889 31.7697C24.0686 31.7697 21.2148 30.2239 21.2148 28.3171C21.2148 28.2293 21.2209 28.1423 21.2328 28.0562C21.6222 28.4441 22.0871 28.772 22.5758 29.0367C23.9128 29.7609 25.6872 30.1762 27.5889 30.1762Z" fill="#E81899"/>
<path d="M27.5889 32.832C29.4906 32.832 31.265 32.4168 32.602 31.6925C33.0907 31.4278 33.5556 31.0999 33.945 30.7121C33.9569 30.7982 33.9629 30.8852 33.9629 30.9729C33.9629 32.8797 31.1092 34.4255 27.5889 34.4255C24.0686 34.4255 21.2148 32.8797 21.2148 30.9729C21.2148 30.8852 21.2209 30.7982 21.2328 30.7121C21.6222 31.0999 22.0871 31.4278 22.5758 31.6925C23.9128 32.4168 25.6872 32.832 27.5889 32.832Z" fill="#E81899"/>
</svg>
