<svg width="34" height="31" viewBox="0 0 34 31" fill="none" xmlns="http://www.w3.org/2000/svg">
    <path
        d="M33.1552 24.8897L27.4115 17.0862C26.7876 16.2382 25.8636 15.7302 24.8797 15.6182C24.6557 15.5922 24.4557 15.4623 24.3437 15.2663C24.2297 15.0703 24.2177 14.8323 24.3077 14.6243C24.7017 13.7164 24.7257 12.6624 24.3017 11.6985L20.4159 2.82302C19.84 1.5051 18.5381 0.655151 17.1001 0.655151C15.6622 0.655151 14.3603 1.5071 13.7843 2.82302L9.89858 11.6985C9.47661 12.6624 9.4986 13.7164 9.89258 14.6243C9.98258 14.8323 9.96858 15.0703 9.85658 15.2663C9.74259 15.4623 9.5446 15.5922 9.32061 15.6182C8.33667 15.7302 7.41273 16.2382 6.78877 17.0862L1.04512 24.8897C0.193167 26.0476 0.107171 27.5995 0.825128 28.8455C1.54508 30.0894 2.933 30.7913 4.36091 30.6334L13.9903 29.5614C15.0363 29.4454 15.9382 28.8994 16.5262 28.1035C16.6602 27.9215 16.8742 27.8135 17.1001 27.8135C17.3261 27.8135 17.5381 27.9215 17.6741 28.1035C18.2621 28.8994 19.164 29.4454 20.21 29.5614L29.8394 30.6334C31.2673 30.7933 32.6552 30.0914 33.3752 28.8455C34.0931 27.5995 34.0071 26.0476 33.1552 24.8897ZM12.4104 12.8124L16.3022 3.92695C16.4422 3.60897 16.7562 3.40298 17.1021 3.40298C17.4481 3.40298 17.7621 3.60897 17.9021 3.92695L21.7939 12.8124C21.9159 13.0924 21.8899 13.4164 21.7219 13.6724C21.5539 13.9283 21.2699 14.0823 20.9619 14.0823H13.2404C12.9344 14.0823 12.6484 13.9283 12.4804 13.6724C12.3124 13.4164 12.2864 13.0924 12.4084 12.8124H12.4104ZM14.4083 26.3396C14.2703 26.6136 14.0023 26.7976 13.6984 26.8316L4.05893 27.9035C3.71495 27.9415 3.37897 27.7735 3.20498 27.4735C3.03099 27.1736 3.05299 26.7996 3.25898 26.5196L9.00863 18.7081C9.19062 18.4621 9.48261 18.3221 9.78859 18.3401C10.0946 18.3561 10.3706 18.5261 10.5245 18.7921L10.5305 18.8021L14.3803 25.4697L14.3863 25.4797C14.5403 25.7456 14.5483 26.0696 14.4103 26.3416L14.4083 26.3396ZM17.8921 23.3238C17.7281 23.6058 17.4281 23.7818 17.1001 23.7818C16.7742 23.7818 16.4722 23.6078 16.3082 23.3258L13.3504 18.2041C13.1864 17.9221 13.1864 17.5721 13.3504 17.2902C13.5144 17.0082 13.8143 16.8322 14.1423 16.8322H20.056C20.382 16.8322 20.6839 17.0042 20.8479 17.2881C21.0119 17.5721 21.0119 17.9201 20.8479 18.2021L17.8921 23.3238ZM30.9973 27.4735C30.8233 27.7735 30.4893 27.9435 30.1434 27.9055L20.5039 26.8336C20.2 26.7996 19.932 26.6156 19.794 26.3416C19.656 26.0676 19.664 25.7436 19.818 25.4797L19.824 25.4697L23.6738 18.8021L23.6798 18.7921C23.8337 18.5261 24.1097 18.3561 24.4157 18.3401C24.7217 18.3241 25.0137 18.4621 25.1957 18.7081L30.9453 26.5196C31.1513 26.7996 31.1713 27.1736 30.9993 27.4735H30.9973Z"
        fill="#DCDCDC" />
</svg>