<svg width="91" height="26" viewBox="0 0 91 26" fill="none" xmlns="http://www.w3.org/2000/svg">
<path d="M51.5441 20.4062C51.0944 21.0462 50.4977 21.5218 49.754 21.8331C49.0103 22.1271 48.1801 22.2742 47.2634 22.2742C46.537 22.2742 45.8711 22.1877 45.2658 22.0147C44.6777 21.8418 44.1588 21.5823 43.7091 21.2364C43.2595 20.8732 42.9049 20.4322 42.6455 19.9133C42.386 19.3771 42.2563 18.7718 42.2563 18.0973C42.2563 17.3535 42.4033 16.7223 42.6973 16.2034C42.9914 15.6672 43.3892 15.2348 43.8908 14.9062C44.4096 14.5776 45.015 14.3355 45.7068 14.1798C46.3986 14.0068 47.125 13.9204 47.886 13.9204H51.3884C51.3884 12.9172 51.1636 12.1389 50.7139 11.5855C50.2642 11.032 49.4772 10.7466 48.353 10.7293C47.6958 10.7293 47.125 10.8417 46.6408 11.0666C46.1738 11.2914 45.8625 11.6633 45.7068 12.1822H42.6714C42.7752 11.4557 43.0087 10.8417 43.3719 10.3402C43.7524 9.8386 44.2021 9.4235 44.7209 9.09488C45.2571 8.76627 45.8452 8.53278 46.4851 8.39441C47.1423 8.25605 47.7996 8.18686 48.4568 8.18686C49.3043 8.18686 50.0912 8.29928 50.8176 8.52413C51.5441 8.74897 52.1754 9.12947 52.7115 9.66564C53.3169 10.2883 53.7233 11.032 53.9309 11.8968C54.1384 12.7616 54.2422 13.7042 54.2422 14.7246V22.0926H51.6738L51.5441 20.4062ZM51.3884 16.0218H48.5346C48.0331 16.0218 47.5315 16.065 47.0299 16.1515C46.5283 16.2207 46.0959 16.4023 45.7327 16.6963C45.3868 16.973 45.2139 17.3795 45.2139 17.9157C45.2139 18.5729 45.4474 19.0745 45.9143 19.4204C46.3986 19.749 46.9867 19.9133 47.6785 19.9133C48.2147 19.9133 48.7076 19.8441 49.1573 19.7058C49.6243 19.5674 50.022 19.3425 50.3507 19.0312C50.6793 18.7026 50.9301 18.2962 51.103 17.8119C51.2933 17.3103 51.3884 16.7136 51.3884 16.0218Z" fill="#FAFAFA"/>
<path d="M59.1041 2.73874C59.6403 2.73874 60.0813 2.90305 60.4273 3.23166C60.7905 3.56028 60.9721 4.00997 60.9721 4.58072C60.9721 5.13418 60.7905 5.57522 60.4273 5.90384C60.0813 6.23246 59.6403 6.39677 59.1041 6.39677C58.5334 6.39677 58.0751 6.23246 57.7291 5.90384C57.3832 5.57522 57.2103 5.13418 57.2103 4.58072C57.2103 4.00997 57.3832 3.56028 57.7291 3.23166C58.0751 2.90305 58.5334 2.73874 59.1041 2.73874ZM57.5994 22.0926V8.42035H60.557V22.0926H57.5994Z" fill="#FAFAFA"/>
<path d="M84.0627 8.18686C85.1524 8.18686 86.1123 8.35982 86.9425 8.70573C87.7727 9.05165 88.4731 9.53592 89.0439 10.1586C89.6319 10.7639 90.073 11.499 90.367 12.3638C90.661 13.2285 90.808 14.1884 90.808 15.2435C90.808 16.3158 90.661 17.2844 90.367 18.1491C90.0903 18.9966 89.6665 19.7317 89.0958 20.3543C88.525 20.977 87.8159 21.4526 86.9684 21.7812C86.1382 22.1098 85.1697 22.2742 84.0627 22.2742C82.9731 22.2742 82.0132 22.1098 81.183 21.7812C80.3528 21.4353 79.6524 20.9597 79.0816 20.3543C78.5281 19.7317 78.1044 18.988 77.8104 18.1232C77.5337 17.2584 77.3953 16.2985 77.3953 15.2435C77.3953 14.1884 77.5337 13.2285 77.8104 12.3638C78.1044 11.499 78.5368 10.7639 79.1075 10.1586C79.6783 9.53592 80.3788 9.05165 81.209 8.70573C82.0392 8.35982 82.9904 8.18686 84.0627 8.18686ZM84.0627 19.7058C84.7373 19.7058 85.308 19.5933 85.775 19.3685C86.2593 19.1264 86.6484 18.8064 86.9425 18.4086C87.2538 18.0108 87.4786 17.5438 87.617 17.0076C87.7727 16.4715 87.8505 15.8921 87.8505 15.2694C87.8505 14.6468 87.7727 14.0674 87.617 13.5312C87.4786 12.9778 87.2538 12.5021 86.9425 12.1043C86.6484 11.7065 86.2593 11.3952 85.775 11.1704C85.308 10.9455 84.7373 10.8331 84.0627 10.8331C83.4055 10.8331 82.8434 10.9455 82.3764 11.1704C81.9094 11.3952 81.5203 11.7065 81.209 12.1043C80.8977 12.5021 80.6642 12.9778 80.5085 13.5312C80.3701 14.0674 80.3009 14.6468 80.3009 15.2694C80.3009 15.8921 80.3701 16.4715 80.5085 17.0076C80.6642 17.5438 80.889 18.0108 81.183 18.4086C81.4943 18.8064 81.8835 19.1264 82.3505 19.3685C82.8348 19.5933 83.4055 19.7058 84.0627 19.7058Z" fill="#FAFAFA"/>
<path d="M69.0386 13.9982H66.9112V4.293H63.9796V22.0926H66.9112V16.5666H69.2202L72.8264 22.0926H76.2509L71.5811 14.9322L75.8877 8.42035H72.5669L69.0386 13.9982Z" fill="#FAFAFA"/>
<path d="M40.2565 8.38151H36.7545V4.293H35.8496L31.5937 10.0753V10.823H33.7791V17.59C33.7791 19.1874 34.139 20.3371 34.8587 21.0393C35.5959 21.7414 36.8159 22.0925 38.5186 22.0925H40.1511V19.5121H38.782C37.992 19.5121 37.4566 19.319 37.1758 18.9328C36.8949 18.5467 36.7545 17.9586 36.7545 17.1687V10.823H40.2565V8.38151Z" fill="#FAFAFA"/>
<path d="M27.7162 20.8012L23.0023 14.3968C22.4903 13.7009 21.732 13.284 20.9244 13.1921C20.7406 13.1707 20.5765 13.064 20.4846 12.9032C20.391 12.7423 20.3812 12.547 20.455 12.3763C20.7784 11.6312 20.7981 10.7662 20.4501 9.97509L17.261 2.69093C16.7883 1.6093 15.7198 0.911743 14.5397 0.911743C13.3596 0.911743 12.2911 1.61094 11.8184 2.69093L8.62934 9.97509C8.28302 10.7662 8.30108 11.6312 8.62442 12.3763C8.69828 12.547 8.68679 12.7423 8.59488 12.9032C8.50132 13.064 8.33883 13.1707 8.155 13.1921C7.34747 13.284 6.58919 13.7009 6.0771 14.3968L1.36324 20.8012C0.664037 21.7515 0.593459 23.0252 1.18269 24.0477C1.77357 25.0686 2.91264 25.6447 4.08454 25.5151L11.9875 24.6353C12.8459 24.5401 13.5861 24.092 14.0687 23.4388C14.1786 23.2894 14.3543 23.2008 14.5397 23.2008C14.7252 23.2008 14.8992 23.2894 15.0108 23.4388C15.4933 24.092 16.2336 24.5401 17.092 24.6353L24.9949 25.5151C26.1668 25.6464 27.3059 25.0703 27.8968 24.0477C28.486 23.0252 28.4154 21.7515 27.7162 20.8012ZM10.6908 10.8893L13.8848 3.59694C13.9997 3.33597 14.2574 3.16691 14.5414 3.16691C14.8253 3.16691 15.083 3.33597 15.1979 3.59694L18.3919 10.8893C18.492 11.1191 18.4707 11.385 18.3328 11.5951C18.1949 11.8052 17.9619 11.9315 17.7091 11.9315H11.372C11.1209 11.9315 10.8862 11.8052 10.7483 11.5951C10.6104 11.385 10.5891 11.1191 10.6892 10.8893H10.6908ZM12.3305 21.9912C12.2173 22.216 11.9973 22.367 11.7478 22.3949L3.8367 23.2747C3.55439 23.3059 3.27865 23.168 3.13586 22.9218C2.99306 22.6756 3.01112 22.3687 3.18017 22.1389L7.89895 15.7279C8.04832 15.526 8.28795 15.4111 8.53907 15.4259C8.79019 15.439 9.01669 15.5785 9.14307 15.7968L9.148 15.805L12.3075 21.2772L12.3125 21.2854C12.4388 21.5037 12.4454 21.7696 12.3321 21.9928L12.3305 21.9912ZM15.1897 19.5161C15.0551 19.7475 14.8089 19.8919 14.5397 19.8919C14.2722 19.8919 14.0243 19.7491 13.8898 19.5177L11.4623 15.3143C11.3277 15.0829 11.3277 14.7956 11.4623 14.5642C11.5968 14.3328 11.843 14.1884 12.1122 14.1884H16.9656C17.2331 14.1884 17.481 14.3295 17.6156 14.5626C17.7501 14.7956 17.7501 15.0812 17.6156 15.3127L15.1897 19.5161ZM25.9452 22.9218C25.8024 23.168 25.5283 23.3075 25.2444 23.2763L17.3332 22.3966C17.0838 22.3687 16.8638 22.2177 16.7506 21.9928C16.6373 21.7679 16.6439 21.5021 16.7703 21.2854L16.7752 21.2772L19.9347 15.805L19.9397 15.7968C20.066 15.5785 20.2925 15.439 20.5437 15.4259C20.7948 15.4128 21.0344 15.526 21.1838 15.7279L25.9025 22.1389C26.0716 22.3687 26.088 22.6756 25.9469 22.9218H25.9452Z" fill="#E81899"/>
</svg>
