<svg width="188" height="103" viewBox="0 0 188 103" fill="none" xmlns="http://www.w3.org/2000/svg">
    <g clip-path="url(#clip0_191_2030)">
        <path
            d="M52.3834 49.6547C54.8898 43.4669 57.2415 37.2053 59.9434 31.1051C64.0601 21.8141 68.4951 12.6707 72.6527 3.39822C74.1174 0.129101 76.2917 -0.322767 79.1392 1.07894C81.9958 2.48066 84.8069 3.98381 87.5362 5.62528C87.9729 5.8881 88.214 7.23909 87.9592 7.82007C75.855 35.1396 63.7053 62.4407 51.46 89.6957C51.0097 90.7008 49.495 91.9596 48.5761 91.8812C44.1729 91.5031 39.7697 90.8807 35.4393 89.9954C33.1194 89.5204 32.1824 87.8144 32.4371 85.1447C33.8472 70.3945 35.08 55.6258 36.3627 40.8617C36.4309 40.0871 36.3718 39.2986 35.4757 38.2796C33.2877 43.0242 30.836 47.6628 28.9664 52.5273C24.1766 65.0182 19.6187 77.6013 15.0381 90.1752C14.374 91.9965 13.7281 93.1723 11.5538 92.144C8.0831 90.5026 4.48958 89.1055 1.10531 87.3026C0.391152 86.9199 -0.227479 85.0387 0.0727391 84.2041C10.221 55.9163 21.6748 28.2325 37.4271 2.59132C38.0093 1.64147 39.8607 0.654742 40.7977 0.908341C45.4284 2.1625 49.9908 3.71637 54.4667 5.45468C55.24 5.75439 55.9906 7.52497 55.886 8.52553C54.5987 21.0487 53.1431 33.5535 51.7648 46.0628C51.6374 47.2109 51.7466 48.3867 51.7466 49.544C51.9558 49.5809 52.1696 49.6132 52.3789 49.6501L52.3834 49.6547Z"
            fill="#EA34A5" />
        <path
            d="M115.425 10.4391C116.712 10.4391 117.999 10.4299 119.291 10.4391C125.655 10.499 130.308 17.9087 127.674 23.9121C127.433 24.4608 126.428 24.8712 125.728 24.968C120.492 25.6873 115.22 26.1622 110.021 27.0752C108.752 27.2965 107.201 28.6198 106.659 29.8371C104.089 35.633 101.86 41.5811 99.4267 47.4415C98.6989 49.189 99.2129 49.415 100.832 49.1844C103.598 48.7879 106.382 48.336 109.161 48.2991C113.059 48.2484 114.388 49.7239 114.169 53.6478C114.065 55.5336 113.737 57.4978 113.032 59.2269C112.7 60.0384 111.294 60.7162 110.289 60.8776C105.449 61.643 100.541 62.0211 95.7422 62.971C94.4322 63.2292 92.8993 64.76 92.3307 66.0833C87.4226 77.5322 82.6964 89.0594 77.9566 100.582C76.8695 103.224 75.5594 103.602 73.1941 101.813C64.3377 95.1135 64.2694 95.0167 68.5271 84.7252C70.9515 78.8601 73.4306 73.0135 75.6095 67.0562C76.1963 65.447 75.8915 63.4551 75.7823 61.6523C75.6641 59.7434 74.9772 57.8252 75.1455 55.967C75.2456 54.8604 75.8551 53.2051 77.2789 52.9607C83.0649 51.9556 82.6054 50.8259 83.7381 47.4507C85.412 42.4571 88.0594 37.7678 89.4377 32.7097C90.261 29.6896 89.8926 26.1253 89.2921 22.9531C87.8911 15.5618 87.8001 15.0776 94.8552 13.4177C101.592 11.827 108.62 11.6933 115.434 10.4391C115.384 10.1532 115.484 10.725 115.434 10.4391H115.425Z"
            fill="#EA34A5" />
        <path
            d="M132.933 12.2235C132.351 8.69615 135.066 7.8293 137.332 7.43277C152.379 4.79995 167.453 2.34234 182.551 0.0138401C183.547 -0.138319 185.166 0.949851 185.803 1.92736C186.772 3.42129 187.286 5.27948 187.723 7.05006C188.723 11.103 187.045 13.6436 183.051 14.2984C179.016 14.9577 174.945 15.4419 170.951 16.2765C169.869 16.5024 168.509 17.5306 168.086 18.5358C158.074 42.6139 148.189 66.7473 138.164 90.8161C137.85 91.5677 136.117 92.3101 135.262 92.1072C133.702 91.7337 132.205 90.8023 130.863 89.8386C126.169 86.4727 125.796 84.9372 127.957 79.5102C135.544 60.4718 143.131 41.4289 150.678 22.3721C151.019 21.5144 150.969 20.4954 151.105 19.5548C150.154 19.5779 149.19 19.4902 148.258 19.6378C145.642 20.062 143.054 20.6568 140.438 21.0441C135.366 21.7957 134.125 20.8228 133.338 15.654C133.165 14.5151 133.065 13.367 132.933 12.2235Z"
            fill="#EA34A5" />
    </g>
    <defs>
        <clipPath id="clip0_191_2030">
            <rect width="188" height="102.92" fill="white" />
        </clipPath>
    </defs>
</svg>