<svg width="94" height="25" viewBox="0 0 94 25" fill="none" xmlns="http://www.w3.org/2000/svg">
<rect x="0.522461" y="0.5" width="92.5796" height="24" rx="12" fill="#E81899" fill-opacity="0.6"/>
<rect x="0.522461" y="0.5" width="92.5796" height="24" rx="12" stroke="url(#paint0_linear_191_2059)"/>
<path d="M78.5461 18.412V9.98H80.2581L80.3541 11.18C81.0048 10.284 81.8901 9.836 83.0101 9.836C83.1168 9.836 83.2181 9.84133 83.3141 9.852C83.4208 9.852 83.5168 9.85733 83.6021 9.868V11.564C83.4741 11.564 83.3461 11.5693 83.2181 11.58C83.1008 11.58 82.9835 11.58 82.8661 11.58C82.3968 11.5907 82.0021 11.676 81.6821 11.836C81.3728 11.9853 81.1168 12.188 80.9141 12.444C80.7221 12.7 80.5835 13.004 80.4981 13.356C80.4128 13.6973 80.3701 14.0653 80.3701 14.46V18.412H78.5461Z" fill="#FAFAFA"/>
<path d="M70.9912 14.812C71.0126 15.1213 71.0766 15.4093 71.1832 15.676C71.2899 15.9427 71.4339 16.1773 71.6152 16.38C71.8072 16.572 72.0366 16.7267 72.3032 16.844C72.5806 16.9613 72.9006 17.02 73.2632 17.02C73.6472 17.02 73.9992 16.9507 74.3192 16.812C74.6392 16.6733 74.8739 16.4333 75.0232 16.092H76.8952C76.7886 16.5187 76.6126 16.8867 76.3672 17.196C76.1326 17.5053 75.8499 17.7613 75.5192 17.964C75.1992 18.156 74.8419 18.3 74.4472 18.396C74.0632 18.4813 73.6526 18.524 73.2152 18.524C72.5432 18.524 71.9512 18.4227 71.4392 18.22C70.9379 18.0173 70.5166 17.724 70.1752 17.34C69.8339 16.956 69.5779 16.5027 69.4072 15.98C69.2472 15.4467 69.1672 14.8493 69.1672 14.188C69.1672 13.548 69.2579 12.9667 69.4392 12.444C69.6206 11.9107 69.8819 11.452 70.2232 11.068C70.5752 10.684 70.9966 10.3853 71.4872 10.172C71.9779 9.948 72.5379 9.836 73.1672 9.836C73.8286 9.836 74.3992 9.948 74.8792 10.172C75.3592 10.3853 75.7592 10.6787 76.0792 11.052C76.4099 11.4253 76.6552 11.8627 76.8152 12.364C76.9752 12.8653 77.0552 13.4093 77.0552 13.996C77.0552 14.2733 77.0392 14.5453 77.0072 14.812H70.9912ZM75.2792 13.436C75.2579 12.796 75.0552 12.3 74.6712 11.948C74.2872 11.596 73.7912 11.42 73.1832 11.42C72.8419 11.42 72.5432 11.4733 72.2872 11.58C72.0312 11.6867 71.8126 11.8307 71.6312 12.012C71.4606 12.1933 71.3219 12.4067 71.2152 12.652C71.1086 12.8973 71.0392 13.1587 71.0072 13.436H75.2792Z" fill="#FAFAFA"/>
<path d="M67.9738 11.372L63.3658 16.844H67.9738V18.412H61.0618V17.02L65.6378 11.564H61.0618V9.98004H67.9738V11.372Z" fill="#FAFAFA"/>
<path d="M57.9192 17.372C57.6418 17.7667 57.2738 18.06 56.8152 18.252C56.3565 18.4333 55.8445 18.524 55.2792 18.524C54.8312 18.524 54.4205 18.4707 54.0472 18.364C53.6845 18.2573 53.3645 18.0973 53.0872 17.884C52.8098 17.66 52.5912 17.388 52.4312 17.068C52.2712 16.7373 52.1912 16.364 52.1912 15.948C52.1912 15.4893 52.2818 15.1 52.4632 14.78C52.6445 14.4493 52.8898 14.1827 53.1992 13.98C53.5192 13.7773 53.8925 13.628 54.3192 13.532C54.7458 13.4253 55.1938 13.372 55.6632 13.372H57.8232C57.8232 12.7533 57.6845 12.2733 57.4072 11.932C57.1298 11.5907 56.6445 11.4147 55.9512 11.404C55.5458 11.404 55.1938 11.4733 54.8952 11.612C54.6072 11.7507 54.4152 11.98 54.3192 12.3H52.4472C52.5112 11.852 52.6552 11.4733 52.8792 11.164C53.1138 10.8547 53.3912 10.5987 53.7112 10.396C54.0418 10.1933 54.4045 10.0493 54.7992 9.964C55.2045 9.87867 55.6098 9.836 56.0152 9.836C56.5378 9.836 57.0232 9.90533 57.4712 10.044C57.9192 10.1827 58.3085 10.4173 58.6392 10.748C59.0125 11.132 59.2632 11.5907 59.3912 12.124C59.5192 12.6573 59.5832 13.2387 59.5832 13.868V18.412H57.9992L57.9192 17.372ZM57.8232 14.668H56.0632C55.7538 14.668 55.4445 14.6947 55.1352 14.748C54.8258 14.7907 54.5592 14.9027 54.3352 15.084C54.1218 15.2547 54.0152 15.5053 54.0152 15.836C54.0152 16.2413 54.1592 16.5507 54.4472 16.764C54.7458 16.9667 55.1085 17.068 55.5352 17.068C55.8658 17.068 56.1698 17.0253 56.4472 16.94C56.7352 16.8547 56.9805 16.716 57.1832 16.524C57.3858 16.3213 57.5405 16.0707 57.6472 15.772C57.7645 15.4627 57.8232 15.0947 57.8232 14.668Z" fill="#FAFAFA"/>
<path d="M48.8267 18.412V7.10004H50.6507V18.412H48.8267Z" fill="#FAFAFA"/>
<path d="M39.0181 18.412V7.10004H40.8421V11.164C41.1514 10.7374 41.5567 10.412 42.0581 10.188C42.5701 9.95337 43.0874 9.83604 43.6101 9.83604C44.1967 9.83604 44.7194 9.9427 45.1781 10.156C45.6367 10.3587 46.0261 10.652 46.3461 11.036C46.6661 11.4094 46.9061 11.8627 47.0661 12.396C47.2367 12.9187 47.3221 13.5107 47.3221 14.172C47.3221 14.78 47.2474 15.3507 47.0981 15.884C46.9487 16.4067 46.7194 16.8654 46.4101 17.26C46.1007 17.6547 45.7114 17.964 45.2421 18.188C44.7834 18.412 44.2394 18.524 43.6101 18.524C42.4047 18.524 41.4821 18.1347 40.8421 17.356C40.8314 17.5374 40.8207 17.7134 40.8101 17.884C40.8101 18.0547 40.8101 18.2307 40.8101 18.412H39.0181ZM43.2261 16.94C43.6207 16.94 43.9621 16.8707 44.2501 16.732C44.5381 16.5827 44.7727 16.3854 44.9541 16.14C45.1461 15.8947 45.2847 15.6067 45.3701 15.276C45.4661 14.9454 45.5141 14.588 45.5141 14.204C45.5141 13.82 45.4661 13.4627 45.3701 13.132C45.2847 12.7907 45.1461 12.4974 44.9541 12.252C44.7727 12.0067 44.5327 11.8147 44.2341 11.676C43.9461 11.5374 43.5994 11.468 43.1941 11.468C42.7781 11.468 42.4207 11.548 42.1221 11.708C41.8341 11.868 41.5941 12.0814 41.4021 12.348C41.2101 12.604 41.0661 12.8974 40.9701 13.228C40.8741 13.5587 40.8261 13.8894 40.8261 14.22C40.8261 14.5827 40.8741 14.9294 40.9701 15.26C41.0661 15.58 41.2101 15.8627 41.4021 16.108C41.5941 16.3534 41.8394 16.556 42.1381 16.716C42.4367 16.8654 42.7994 16.94 43.2261 16.94Z" fill="#FAFAFA"/>
<path d="M35.3655 18.412V7.10004H37.1895V18.412H35.3655Z" fill="#FAFAFA"/>
<path d="M32.5186 6.47601C32.8493 6.47601 33.1213 6.57735 33.3346 6.78001C33.5586 6.98268 33.6706 7.26001 33.6706 7.61201C33.6706 7.95335 33.5586 8.22535 33.3346 8.42801C33.1213 8.63068 32.8493 8.73201 32.5186 8.73201C32.1666 8.73201 31.8839 8.63068 31.6706 8.42801C31.4573 8.22535 31.3506 7.95335 31.3506 7.61201C31.3506 7.26001 31.4573 6.98268 31.6706 6.78001C31.8839 6.57735 32.1666 6.47601 32.5186 6.47601ZM31.5906 18.412V9.98001H33.4146V18.412H31.5906Z" fill="#FAFAFA"/>
<path d="M28.0161 17.372C27.7388 17.7667 27.3708 18.06 26.9121 18.252C26.4534 18.4333 25.9414 18.524 25.3761 18.524C24.9281 18.524 24.5174 18.4707 24.1441 18.364C23.7814 18.2573 23.4614 18.0973 23.1841 17.884C22.9068 17.66 22.6881 17.388 22.5281 17.068C22.3681 16.7373 22.2881 16.364 22.2881 15.948C22.2881 15.4893 22.3788 15.1 22.5601 14.78C22.7414 14.4493 22.9868 14.1827 23.2961 13.98C23.6161 13.7773 23.9894 13.628 24.4161 13.532C24.8428 13.4253 25.2908 13.372 25.7601 13.372H27.9201C27.9201 12.7533 27.7814 12.2733 27.5041 11.932C27.2268 11.5907 26.7414 11.4147 26.0481 11.404C25.6428 11.404 25.2908 11.4733 24.9921 11.612C24.7041 11.7507 24.5121 11.98 24.4161 12.3H22.5441C22.6081 11.852 22.7521 11.4733 22.9761 11.164C23.2108 10.8547 23.4881 10.5987 23.8081 10.396C24.1388 10.1933 24.5014 10.0493 24.8961 9.964C25.3014 9.87867 25.7068 9.836 26.1121 9.836C26.6348 9.836 27.1201 9.90533 27.5681 10.044C28.0161 10.1827 28.4054 10.4173 28.7361 10.748C29.1094 11.132 29.3601 11.5907 29.4881 12.124C29.6161 12.6573 29.6801 13.2387 29.6801 13.868V18.412H28.0961L28.0161 17.372ZM27.9201 14.668H26.1601C25.8508 14.668 25.5414 14.6947 25.2321 14.748C24.9228 14.7907 24.6561 14.9027 24.4321 15.084C24.2188 15.2547 24.1121 15.5053 24.1121 15.836C24.1121 16.2413 24.2561 16.5507 24.5441 16.764C24.8428 16.9667 25.2054 17.068 25.6321 17.068C25.9628 17.068 26.2668 17.0253 26.5441 16.94C26.8321 16.8547 27.0774 16.716 27.2801 16.524C27.4828 16.3213 27.6374 16.0707 27.7441 15.772C27.8614 15.4627 27.9201 15.0947 27.9201 14.668Z" fill="#FAFAFA"/>
<path d="M16.5017 18.412V9.98H18.2137L18.3097 11.18C18.9604 10.284 19.8457 9.836 20.9657 9.836C21.0724 9.836 21.1737 9.84133 21.2697 9.852C21.3764 9.852 21.4724 9.85733 21.5577 9.868V11.564C21.4297 11.564 21.3017 11.5693 21.1737 11.58C21.0564 11.58 20.939 11.58 20.8217 11.58C20.3524 11.5907 19.9577 11.676 19.6377 11.836C19.3284 11.9853 19.0724 12.188 18.8697 12.444C18.6777 12.7 18.539 13.004 18.4537 13.356C18.3684 13.6973 18.3257 14.0653 18.3257 14.46V18.412H16.5017Z" fill="#FAFAFA"/>
<path d="M13.1585 9.98001H15.2865V11.564H13.1585V15.42C13.1585 15.9 13.2438 16.2573 13.4145 16.492C13.5851 16.7267 13.9105 16.844 14.3905 16.844H15.2225V18.412H14.2305C13.1958 18.412 12.4545 18.1987 12.0065 17.772C11.5691 17.3453 11.3505 16.6467 11.3505 15.676V11.564H10.0225V9.98001H11.3505V7.59601H13.1585V9.98001Z" fill="#FAFAFA"/>
<defs>
<linearGradient id="paint0_linear_191_2059" x1="96.8476" y1="-1.21008e-05" x2="-3.39809" y2="-23.7844" gradientUnits="userSpaceOnUse">
<stop stop-color="#E81899"/>
<stop offset="0.382163" stop-color="#F99DC9"/>
<stop offset="0.590208" stop-color="#FD4474"/>
<stop offset="0.88401" stop-color="#FF715B"/>
</linearGradient>
</defs>
</svg>
