<svg width="114" height="114" viewBox="0 0 114 114" fill="none" xmlns="http://www.w3.org/2000/svg">
<ellipse opacity="0.1" cx="56.5" cy="56.5" rx="56.5" ry="56.5" transform="matrix(1 -8.74228e-08 -8.74228e-08 -1 0.0107422 113.695)" fill="#FF6FC8"/>
<ellipse opacity="0.2" cx="45.9419" cy="45.8921" rx="45.9419" ry="45.8921" transform="matrix(1 -8.74228e-08 -8.74228e-08 -1 10.5684 103.088)" fill="#FF6FC8"/>
<path fill-rule="evenodd" clip-rule="evenodd" d="M56.5107 22.7656C37.4958 22.7656 22.0811 38.1803 22.0811 57.1953C22.0811 76.2103 37.4958 91.625 56.5107 91.625C75.5257 91.625 90.9404 76.2103 90.9404 57.1953C90.9404 38.1803 75.5257 22.7656 56.5107 22.7656ZM47.2412 43.9531C45.332 43.9531 44.3164 45.432 43.936 46.1929C43.4764 47.1121 43.2686 48.1966 43.2686 49.25C43.2686 50.3034 43.4764 51.3879 43.936 52.3071C44.3164 53.068 45.332 54.5469 47.2412 54.5469C49.1505 54.5469 50.166 53.068 50.5464 52.3071C51.006 51.3879 51.2139 50.3034 51.2139 49.25C51.2139 48.1966 51.006 47.1121 50.5464 46.1929C50.166 45.432 49.1505 43.9531 47.2412 43.9531ZM62.4751 46.1929C62.8555 45.432 63.871 43.9531 65.7803 43.9531C67.6895 43.9531 68.7051 45.432 69.0855 46.1929C69.5451 47.1121 69.7529 48.1966 69.7529 49.25C69.7529 50.3034 69.5451 51.3879 69.0855 52.3071C68.7051 53.068 67.6895 54.5469 65.7803 54.5469C63.871 54.5469 62.8555 53.068 62.4751 52.3071C62.0155 51.3879 61.8076 50.3034 61.8076 49.25C61.8076 48.1966 62.0155 47.1121 62.4751 46.1929ZM47.1483 74.3156C46.114 75.3499 44.4371 75.3499 43.4028 74.3156C42.3686 73.2813 42.3686 71.6045 43.4028 70.5702C47.0385 66.9345 51.814 65.1241 56.5756 65.1403C61.2949 65.1564 66.0178 66.967 69.621 70.5702C70.6553 71.6045 70.6553 73.2813 69.621 74.3156C68.5868 75.3499 66.9099 75.3499 65.8756 74.3156C63.3009 71.7409 59.9353 70.4487 56.5575 70.4372C53.1492 70.4255 49.746 71.7179 47.1483 74.3156Z" fill="#FF6FC8"/>
</svg>
