<svg width="30" height="30" viewBox="0 0 30 30" fill="none" xmlns="http://www.w3.org/2000/svg">
    <path fill-rule="evenodd" clip-rule="evenodd"
        d="M25.2209 25.8504C28.1055 23.1321 29.9062 19.2764 29.9062 15C29.9062 6.76751 23.2325 0.09375 15 0.09375C6.76751 0.09375 0.09375 6.76751 0.09375 15C0.09375 19.2764 1.89451 23.1321 4.77909 25.8504C7.44768 28.3651 11.0439 29.9062 15 29.9062C18.9561 29.9062 22.5523 28.3651 25.2209 25.8504ZM6.04879 23.8861C8.15018 21.2649 11.3791 19.5865 15 19.5865C18.6209 19.5865 21.8498 21.2649 23.9512 23.8861C21.6662 26.1878 18.4995 27.613 15 27.613C11.5005 27.613 8.33381 26.1878 6.04879 23.8861ZM20.7332 10.4135C20.7332 13.5798 18.1663 16.1466 15 16.1466C11.8337 16.1466 9.26683 13.5798 9.26683 10.4135C9.26683 7.24712 11.8337 4.68029 15 4.68029C18.1663 4.68029 20.7332 7.24712 20.7332 10.4135Z"
        fill="#CACBCE" />
</svg>