<svg width="36" height="25" viewBox="0 0 36 25" fill="none" xmlns="http://www.w3.org/2000/svg">
<path d="M35.3516 5.65649C35.3516 5.65649 35.0098 3.24341 33.957 2.18384C32.624 0.789307 31.1338 0.782471 30.4502 0.700439C25.5557 0.344971 18.207 0.344971 18.207 0.344971H18.1934C18.1934 0.344971 10.8447 0.344971 5.9502 0.700439C5.2666 0.782471 3.77637 0.789307 2.44336 2.18384C1.39063 3.24341 1.05566 5.65649 1.05566 5.65649C1.05566 5.65649 0.700195 8.49341 0.700195 11.3235V13.9758C0.700195 16.8059 1.04883 19.6428 1.04883 19.6428C1.04883 19.6428 1.39062 22.0559 2.43652 23.1155C3.76953 24.51 5.51953 24.4622 6.29883 24.6125C9.10156 24.8792 18.2002 24.9612 18.2002 24.9612C18.2002 24.9612 25.5557 24.9475 30.4502 24.5989C31.1338 24.5168 32.624 24.51 33.957 23.1155C35.0098 22.0559 35.3516 19.6428 35.3516 19.6428C35.3516 19.6428 35.7002 16.8127 35.7002 13.9758V11.3235C35.7002 8.49341 35.3516 5.65649 35.3516 5.65649ZM14.584 17.1956V7.35864L24.0381 12.2942L14.584 17.1956Z" fill="#DCDCDC"/>
</svg>
