<svg width="350" height="169" viewBox="0 0 350 169" fill="none" xmlns="http://www.w3.org/2000/svg">
<path opacity="0.5" d="M150.258 -32.9697L316.024 132.796L445.842 2.97778" stroke="#FF6FC8" stroke-width="2.49884"/>
<path opacity="0.5" d="M126.01 79.291L276.579 -71.2778L324.767 -23.0889" stroke="#FF6FC8" stroke-width="2.49884"/>
<path opacity="0.5" d="M198.427 150.42L122.434 74.4268" stroke="#FF6FC8" stroke-width="2.49884"/>
<path opacity="0.5" d="M109.317 94.832L6.24023 197.909" stroke="#FF6FC8" stroke-width="2.49884"/>
<path d="M418.197 107.178L289.344 236.032" stroke="#9A0060" stroke-width="2.49884" stroke-dasharray="2.5 2.5"/>
<path d="M118.003 66.3121L1 -50.6904" stroke="#9A0060" stroke-width="2.49884" stroke-dasharray="2.5 2.5"/>
<path d="M242.764 -9.06299L349.908 98.0812" stroke="#9A0060" stroke-width="2.02159" stroke-dasharray="2.02 2.02"/>
<rect opacity="0.15" x="378.427" y="126.699" width="57.2358" height="57.2358" transform="rotate(180 378.427 126.699)" fill="white"/>
<rect x="367.355" y="115.645" width="35.33" height="35.33" transform="rotate(180 367.355 115.645)" fill="#FF6FC8"/>
<g filter="url(#filter0_d_2729_12756)">
<rect x="206.432" y="137.42" width="21.0067" height="21.0067" transform="rotate(90 206.432 137.42)" fill="#FF6FC8"/>
</g>
<g opacity="0.56" filter="url(#filter1_d_2729_12756)">
<rect x="248.486" y="-3.04932" width="11.4358" height="11.4358" transform="rotate(180 248.486 -3.04932)" fill="#9A0060"/>
</g>
<rect opacity="0.15" x="169.068" y="120.616" width="86.1181" height="86.1181" transform="rotate(180 169.068 120.616)" fill="white"/>
<rect x="152.412" y="103.984" width="53.1582" height="53.1582" transform="rotate(180 152.412 103.984)" fill="#FF6FC8"/>
<path fill-rule="evenodd" clip-rule="evenodd" d="M217.287 84.035L218.181 84.9298L219.948 83.1628L219.054 82.2681L217.287 84.035ZM219.971 86.7193L221.76 88.5088L223.527 86.7419L221.738 84.9524L219.971 86.7193ZM223.55 90.2984L225.34 92.0879L227.106 90.321L225.317 88.5314L223.55 90.2984ZM227.129 93.8774L228.919 95.667L230.686 93.9L228.896 92.1105L227.129 93.8774ZM230.708 97.4565L232.498 99.246L234.265 97.4791L232.475 95.6896L230.708 97.4565ZM234.287 101.036L236.077 102.825L237.844 101.058L236.054 99.2686L234.287 101.036ZM237.866 104.615L239.656 106.404L241.423 104.637L239.633 102.848L237.866 104.615ZM241.445 108.194L243.235 109.983L245.002 108.216L243.212 106.427L241.445 108.194ZM245.024 111.773L246.814 113.562L248.581 111.795L246.791 110.006L245.024 111.773ZM248.603 115.352L250.393 117.141L252.16 115.374L250.37 113.585L248.603 115.352ZM252.183 118.931L253.972 120.72L255.739 118.953L253.949 117.164L252.183 118.931ZM255.762 122.51L257.551 124.3L259.318 122.533L257.529 120.743L255.762 122.51ZM259.341 126.089L261.13 127.879L262.897 126.112L261.108 124.322L259.341 126.089ZM262.92 129.668L264.709 131.458L266.476 129.691L264.687 127.901L262.92 129.668ZM266.499 133.247L268.288 135.037L270.055 133.27L268.266 131.48L266.499 133.247ZM270.078 136.826L271.867 138.616L273.634 136.849L271.845 135.059L270.078 136.826ZM273.657 140.405L275.446 142.195L277.213 140.428L275.424 138.638L273.657 140.405ZM277.236 143.984L279.026 145.774L280.792 144.007L279.003 142.217L277.236 143.984ZM280.815 147.563L282.605 149.353L284.372 147.586L282.582 145.797L280.815 147.563ZM284.394 151.143L286.184 152.932L287.951 151.165L286.161 149.376L284.394 151.143ZM287.973 154.722L289.763 156.511L291.53 154.744L289.74 152.955L287.973 154.722ZM291.552 158.301L293.342 160.09L295.109 158.323L293.319 156.534L291.552 158.301ZM295.131 161.88L296.921 163.669L298.688 161.902L296.898 160.113L295.131 161.88ZM298.71 165.459L300.5 167.248L302.267 165.481L300.477 163.692L298.71 165.459ZM302.289 169.038L303.184 169.933L303.185 169.931L304.069 170.815L304.951 169.933L305.835 169.049L304.951 168.166L304.056 167.271L302.289 169.038ZM300.538 170.812L298.773 172.577L300.54 174.344L302.304 172.579L300.538 170.812ZM297.009 174.341L295.244 176.106L297.011 177.873L298.776 176.108L297.009 174.341ZM293.48 177.87L291.715 179.635L293.482 181.402L295.247 179.637L293.48 177.87ZM289.951 181.399L288.186 183.164L289.953 184.93L291.718 183.166L289.951 181.399ZM286.422 184.928L284.657 186.692L286.424 188.459L288.189 186.695L286.422 184.928ZM282.893 188.457L281.129 190.221L282.895 191.988L284.66 190.224L282.893 188.457ZM279.364 191.986L277.6 193.75L279.367 195.517L281.131 193.753L279.364 191.986ZM275.835 195.515L274.071 197.279L275.838 199.046L277.602 197.282L275.835 195.515ZM272.306 199.044L270.542 200.808L272.309 202.575L274.073 200.811L272.306 199.044ZM268.777 202.573L267.013 204.337L268.78 206.104L270.544 204.339L268.777 202.573ZM265.248 206.101L263.484 207.866L265.251 209.633L267.015 207.868L265.248 206.101ZM261.72 209.63L259.955 211.395L261.722 213.162L263.487 211.397L261.72 209.63ZM258.191 213.159L256.426 214.924L258.193 216.691L259.958 214.926L258.191 213.159ZM254.662 216.688L252.897 218.453L254.664 220.22L256.429 218.455L254.662 216.688ZM251.133 220.217L249.368 221.981L251.135 223.748L252.9 221.984L251.133 220.217ZM247.604 223.746L245.839 225.51L247.606 227.277L249.371 225.513L247.604 223.746ZM244.075 227.275L243.193 228.157L244.96 229.924L245.842 229.042L244.075 227.275Z" fill="url(#paint0_linear_2729_12756)"/>
<rect x="227.381" y="93.603" width="14.3564" height="14.3564" transform="rotate(180 227.381 93.603)" fill="#E81899"/>
<defs>
<filter id="filter0_d_2729_12756" x="168.087" y="121.02" width="55.6816" height="55.6816" filterUnits="userSpaceOnUse" color-interpolation-filters="sRGB">
<feFlood flood-opacity="0" result="BackgroundImageFix"/>
<feColorMatrix in="SourceAlpha" type="matrix" values="0 0 0 0 0 0 0 0 0 0 0 0 0 0 0 0 0 0 127 0" result="hardAlpha"/>
<feOffset dy="0.937156"/>
<feGaussianBlur stdDeviation="8.6687"/>
<feColorMatrix type="matrix" values="0 0 0 0 0.511458 0 0 0 0 0.757952 0 0 0 0 0.988542 0 0 0 0.25 0"/>
<feBlend mode="normal" in2="BackgroundImageFix" result="effect1_dropShadow_2729_12756"/>
<feBlend mode="normal" in="SourceGraphic" in2="effect1_dropShadow_2729_12756" result="shape"/>
</filter>
<filter id="filter1_d_2729_12756" x="218.351" y="-32.1743" width="48.8354" height="48.8354" filterUnits="userSpaceOnUse" color-interpolation-filters="sRGB">
<feFlood flood-opacity="0" result="BackgroundImageFix"/>
<feColorMatrix in="SourceAlpha" type="matrix" values="0 0 0 0 0 0 0 0 0 0 0 0 0 0 0 0 0 0 127 0" result="hardAlpha"/>
<feOffset dy="1.01079"/>
<feGaussianBlur stdDeviation="9.34985"/>
<feColorMatrix type="matrix" values="0 0 0 0 0.511458 0 0 0 0 0.757952 0 0 0 0 0.988542 0 0 0 0.25 0"/>
<feBlend mode="normal" in2="BackgroundImageFix" result="effect1_dropShadow_2729_12756"/>
<feBlend mode="normal" in="SourceGraphic" in2="effect1_dropShadow_2729_12756" result="shape"/>
</filter>
<linearGradient id="paint0_linear_2729_12756" x1="239.887" y1="-17.9922" x2="239.887" y2="148.814" gradientUnits="userSpaceOnUse">
<stop stop-color="#FFC6E9"/>
<stop offset="1" stop-color="#FF6FC8"/>
</linearGradient>
</defs>
</svg>
