<svg width="86" height="501" viewBox="0 0 86 501" fill="none" xmlns="http://www.w3.org/2000/svg">
<path d="M27.1185 80.4806L27.1098 80.4716L-78.5596 -27.7034C-79.5918 -28.7601 -80.9802 -29.3461 -82.4473 -29.3633L-104.184 -29.618C-106.132 -29.6409 -107.687 -31.2325 -107.664 -33.1803L-107.133 -78.4674C-107.11 -80.4152 -105.519 -81.9699 -103.571 -81.9471L-51.5605 -81.3376C-50.6205 -81.3266 -49.7268 -80.9417 -49.0804 -80.28L83.7038 55.653C84.3615 56.3263 84.7141 57.2153 84.7031 58.1577L84.4628 78.6638C84.44 80.6115 82.8482 82.1663 80.9002 82.1435L29.603 81.5423C28.6648 81.5313 27.7724 81.148 27.1265 80.4891C27.1251 80.4876 27.1237 80.4862 27.1223 80.4847L27.1185 80.4806Z" fill="#77C2AA" fill-opacity="0.2" stroke="#77C2AA" stroke-width="2"/>
<path d="M22.1902 366.498C22.2307 364.676 23.6598 363.202 25.4478 363.069L25.7389 363.073L45.779 363.308C47.7268 363.33 49.2812 364.922 49.2584 366.87L48.7174 413.038C48.6945 414.986 47.1032 416.54 45.1554 416.517L24.5322 416.276C22.563 416.253 21 414.63 21.0533 412.664L21.0533 412.662L22.1902 366.501L22.1902 366.498Z" fill="#77C2AA" fill-opacity="0.2" stroke="#77C2AA" stroke-width="2"/>
<path d="M-2.59238 227.777L-2.58888 227.478C-2.41438 225.675 -0.868984 224.266 0.990535 224.297C0.990672 224.297 0.990825 224.297 0.990962 224.297L49.1103 225.159L49.1113 225.159C51.0473 225.192 52.5926 226.784 52.5699 228.721L51.9913 278.102C51.9802 279.044 51.6069 279.925 50.9336 280.582L-57.9492 386.943C-58.611 387.589 -59.5134 387.953 -60.4535 387.942L-192.467 386.395C-194.415 386.372 -195.97 384.781 -195.947 382.833L-195.402 336.302C-195.379 334.354 -193.788 332.799 -191.84 332.822L-88.4926 334.033C-87.0254 334.051 -85.624 333.497 -84.5674 332.465L-4.51726 254.269C-3.47522 253.252 -2.8745 251.851 -2.85728 250.382L-2.59238 227.777Z" fill="#77C2AA" fill-opacity="0.2" stroke="#77C2AA" stroke-width="2"/>
<path d="M-53.0788 416.963L-53.0919 416.95L-3.62815 417.53C-2.68794 417.541 -1.79368 417.926 -1.14736 418.588L61.8389 483.068C62.4965 483.741 62.8491 484.63 62.8381 485.572L62.7202 495.638C62.6973 497.586 61.106 499.14 59.1582 499.117L-4.00561 498.377C-4.94568 498.366 -5.83934 497.981 -6.48577 497.32L-31.4119 471.803C-32.444 470.746 -33.8321 470.16 -35.2993 470.143L-55.2748 469.909C-57.1939 469.886 -58.7474 468.333 -58.7551 466.408L-58.7551 466.405L-59.0982 420.486L-59.0982 420.485C-59.1154 418.508 -57.5032 416.911 -55.5346 416.935L-53.0788 416.963Z" fill="#77C2AA" fill-opacity="0.2" stroke="#77C2AA" stroke-width="2"/>
</svg>
