<svg width="23" height="168" viewBox="0 0 23 168" fill="none" xmlns="http://www.w3.org/2000/svg">
<circle cx="5.31758" cy="41.6472" r="3.27852" fill="#E81899"/>
<circle cx="18.7766" cy="41.6472" r="3.27852" fill="#E81899"/>
<circle cx="11.8742" cy="48.2033" r="3.27852" fill="#E81899"/>
<circle cx="5.31758" cy="54.76" r="3.27852" fill="#E81899"/>
<circle cx="18.7766" cy="54.76" r="3.27852" fill="#E81899"/>
<circle cx="6.35274" cy="163.752" r="3.27852" fill="#E81899"/>
<circle cx="6.35274" cy="157.196" r="3.27852" fill="#E81899"/>
<circle cx="12.9094" cy="157.196" r="3.27852" fill="#E81899"/>
<circle cx="12.9094" cy="150.638" r="3.27852" fill="#E81899"/>
<circle cx="19.466" cy="157.196" r="3.27852" fill="#E81899"/>
<circle cx="19.466" cy="163.753" r="3.27852" fill="#E81899"/>
<circle cx="6.35274" cy="84.5349" r="3.27852" fill="#E81899"/>
<circle cx="6.35274" cy="77.9772" r="3.27852" fill="#E81899"/>
<circle cx="12.9094" cy="77.9772" r="3.27852" fill="#E81899"/>
<circle cx="19.466" cy="84.5349" r="3.27852" fill="#E81899"/>
<circle cx="19.466" cy="91.0905" r="3.27852" fill="#E81899"/>
<circle cx="12.9094" cy="91.0905" r="3.27852" fill="#E81899"/>
<circle cx="3.27852" cy="3.27852" r="3.27852" transform="matrix(-1 0 0 1 21.707 117.587)" fill="#E81899"/>
<circle cx="3.27852" cy="3.27852" r="3.27852" transform="matrix(-1 0 0 1 21.707 111.029)" fill="#E81899"/>
<circle cx="3.27852" cy="3.27852" r="3.27852" transform="matrix(-1 0 0 1 15.1504 111.029)" fill="#E81899"/>
<circle cx="3.27852" cy="3.27852" r="3.27852" transform="matrix(-1 0 0 1 8.5957 117.587)" fill="#E81899"/>
<circle cx="3.27852" cy="3.27852" r="3.27852" transform="matrix(-1 0 0 1 8.5957 124.144)" fill="#E81899"/>
<circle cx="3.27852" cy="3.27852" r="3.27852" transform="matrix(-1 0 0 1 15.1504 124.144)" fill="#E81899"/>
<circle cx="11.4513" cy="11.4499" r="4.47869" fill="#E81899"/>
<circle cx="18.3174" cy="11.7495" r="1.19432" fill="#E81899"/>
<circle cx="4.58299" cy="11.7495" r="1.19432" fill="#E81899"/>
<circle cx="11.1513" cy="4.5825" r="1.19432" fill="#E81899"/>
<circle cx="11.1513" cy="18.3169" r="1.19432" fill="#E81899"/>
<circle cx="11.4503" cy="11.4503" r="10.4503" stroke="#E81899" stroke-width="1.22944"/>
</svg>
