<svg width="201" height="544" viewBox="0 0 201 544" fill="none" xmlns="http://www.w3.org/2000/svg">
<path d="M189.523 18.2154C189.333 34.3826 176.073 47.3352 159.906 47.1458C143.739 46.9563 130.787 33.6966 130.976 17.5293C131.166 1.36194 144.425 -11.5906 160.592 -11.4012C176.76 -11.2117 189.712 2.04807 189.523 18.2154Z" fill="#77C2AA" fill-opacity="0.2" stroke="#77C2AA" stroke-width="2"/>
<path d="M127.786 152.673L127.778 152.665L22.1084 44.4895C21.0761 43.4328 19.6877 42.8468 18.2206 42.8296L-3.51614 42.5748C-5.464 42.552 -7.0187 40.9604 -6.99587 39.0125L-6.46516 -6.27449C-6.44233 -8.22236 -4.85078 -9.77704 -2.90291 -9.75422L49.1074 -9.14472C50.0475 -9.1337 50.9412 -8.74884 51.5876 -8.0871L184.372 127.846C185.029 128.519 185.382 129.408 185.371 130.351L185.131 150.857C185.108 152.804 183.516 154.359 181.568 154.336L130.271 153.735C129.333 153.724 128.44 153.341 127.794 152.682C127.793 152.681 127.792 152.679 127.79 152.678L127.786 152.673Z" fill="#77C2AA" fill-opacity="0.2" stroke="#77C2AA" stroke-width="2"/>
<path d="M44.1902 461.498C44.2307 459.676 45.6598 458.202 47.4478 458.069L47.7389 458.073L67.779 458.308C69.7268 458.33 71.2812 459.922 71.2584 461.87L70.7174 508.038C70.6945 509.986 69.1032 511.54 67.1554 511.517L46.5322 511.276C44.563 511.253 43 509.63 43.0533 507.664L43.0533 507.662L44.1902 461.501L44.1902 461.498Z" fill="#77C2AA" fill-opacity="0.2" stroke="#77C2AA" stroke-width="2"/>
<path d="M128.996 187.589L128.999 187.29C129.174 185.487 130.719 184.078 132.578 184.109C132.579 184.109 132.579 184.109 132.579 184.109L180.698 184.971L180.699 184.971C182.635 185.004 184.181 186.595 184.158 188.533L183.579 237.913C183.568 238.856 183.195 239.736 182.521 240.394L73.6387 346.754C72.9769 347.401 72.0745 347.765 71.1344 347.754L-60.8796 346.206C-62.8275 346.184 -64.3821 344.592 -64.3593 342.644L-63.814 296.114C-63.7912 294.166 -62.1996 292.611 -60.2518 292.634L43.0953 293.845C44.5625 293.862 45.9639 293.309 47.0205 292.276L127.071 214.081C128.113 213.063 128.713 211.662 128.731 210.193L128.996 187.589Z" fill="#77C2AA" fill-opacity="0.2" stroke="#77C2AA" stroke-width="2"/>
<path d="M39.0858 374.953C40.9542 374.956 42.4732 376.397 42.6094 378.209L42.6058 378.516L42.0321 427.469C42.0093 429.417 40.4179 430.971 38.4702 430.948L15.8397 430.683C14.3705 430.666 12.9559 431.234 11.9138 432.252L-96.0776 537.741C-96.7509 538.399 -97.6399 538.752 -98.5822 538.741L-148.468 538.156C-150.416 538.133 -151.97 536.542 -151.948 534.594L-151.695 513.025C-151.684 512.085 -151.299 511.191 -150.637 510.545L-12.8958 375.994C-12.2447 375.358 -11.3503 374.994 -10.4318 374.994L-10.4302 374.994L39.0848 374.953C39.0851 374.953 39.0855 374.953 39.0858 374.953Z" fill="#77C2AA" fill-opacity="0.2" stroke="#77C2AA" stroke-width="2"/>
<path d="M78.511 376.775L78.4979 376.762L127.962 377.341C128.902 377.352 129.796 377.737 130.442 378.399L193.429 442.879C194.086 443.553 194.439 444.442 194.428 445.384L194.31 455.449C194.287 457.397 192.696 458.952 190.748 458.929L127.584 458.189C126.644 458.178 125.751 457.793 125.104 457.131L100.178 431.614C99.1458 430.558 97.7578 429.971 96.2906 429.954L76.315 429.72C74.396 429.698 72.8425 428.145 72.8348 426.22L72.8348 426.216L72.4917 380.297L72.4917 380.296C72.4745 378.32 74.0867 376.723 76.0552 376.746L78.511 376.775Z" fill="#77C2AA" fill-opacity="0.2" stroke="#77C2AA" stroke-width="2"/>
</svg>
