<svg width="77" height="460" viewBox="0 0 77 460" fill="none" xmlns="http://www.w3.org/2000/svg">
<path d="M70.5238 18.2154C70.3343 34.3826 57.0744 47.3352 40.9071 47.1458C24.7399 46.9563 11.7877 33.6966 11.9772 17.5293C12.1667 1.36194 25.426 -11.5906 41.5932 -11.4012C57.7605 -11.2117 70.7133 2.04807 70.5238 18.2154Z" fill="#77C2AA" fill-opacity="0.2" stroke="#77C2AA" stroke-width="2"/>
<path d="M8.78842 152.673L8.77968 152.665L-96.8897 44.4895C-97.9219 43.4328 -99.3103 42.8468 -100.777 42.8296L-122.514 42.5748C-124.462 42.552 -126.017 40.9604 -125.994 39.0125L-125.463 -6.27449C-125.44 -8.22236 -123.849 -9.77704 -121.901 -9.75422L-69.8906 -9.14472C-68.9505 -9.1337 -68.0569 -8.74884 -67.4105 -8.0871L65.3738 127.846C66.0314 128.519 66.3841 129.408 66.373 130.351L66.1327 150.857C66.1099 152.804 64.5181 154.359 62.5701 154.336L11.273 153.735C10.3348 153.724 9.44234 153.341 8.7964 152.682C8.79498 152.681 8.79358 152.679 8.79217 152.678L8.78842 152.673Z" fill="#77C2AA" fill-opacity="0.2" stroke="#77C2AA" stroke-width="2"/>
<path d="M9.99746 187.589L10.001 187.29C10.1755 185.487 11.7209 184.078 13.5804 184.109C13.5805 184.109 13.5807 184.109 13.5808 184.109L61.7001 184.971L61.7011 184.971C63.6371 185.004 65.1825 186.595 65.1598 188.533L64.5811 237.913C64.5701 238.856 64.1967 239.736 63.5234 240.394L-45.3594 346.754C-46.0211 347.401 -46.9236 347.765 -47.8636 347.754L-179.878 346.206C-181.826 346.184 -183.38 344.592 -183.357 342.644L-182.812 296.114C-182.789 294.166 -181.198 292.611 -179.25 292.634L-75.9028 293.845C-74.4356 293.862 -73.0342 293.309 -71.9775 292.276L8.07258 214.081C9.11463 213.063 9.71534 211.662 9.73256 210.193L9.99746 187.589Z" fill="#77C2AA" fill-opacity="0.2" stroke="#77C2AA" stroke-width="2"/>
<path d="M-40.489 376.775L-40.5021 376.762L8.96169 377.341C9.90191 377.352 10.7962 377.737 11.4425 378.399L74.4287 442.879C75.0864 443.553 75.439 444.442 75.428 445.384L75.31 455.449C75.2872 457.397 73.6958 458.952 71.7481 458.929L8.58423 458.189C7.64416 458.178 6.7505 457.793 6.10407 457.131L-18.822 431.614C-19.8542 430.558 -21.2422 429.971 -22.7094 429.954L-42.685 429.72C-44.604 429.698 -46.1575 428.145 -46.1652 426.22L-46.1652 426.216L-46.5083 380.297L-46.5083 380.296C-46.5255 378.32 -44.9133 376.723 -42.9448 376.746L-40.489 376.775Z" fill="#77C2AA" fill-opacity="0.2" stroke="#77C2AA" stroke-width="2"/>
</svg>
