<svg width="306" height="351" viewBox="0 0 306 351" fill="none" xmlns="http://www.w3.org/2000/svg">
<path d="M91.5628 220H80.3628V196.55H91.1428C95.7278 196.55 98.4928 198.44 98.4928 202.395C98.4928 205.125 96.9528 206.98 93.9428 207.435V207.715C97.5128 208.17 99.3328 210.48 99.3328 213.56C99.3328 217.55 96.4978 220 91.5628 220ZM84.1428 199.945V206.28H90.7928C93.6278 206.28 94.7478 205.51 94.7478 203.13C94.7478 200.715 93.7328 199.945 90.8978 199.945H84.1428ZM84.1428 209.43V216.605H91.4578C94.2928 216.605 95.5178 215.8 95.5178 213.035C95.5178 210.235 94.2928 209.43 91.4578 209.43H84.1428ZM106.22 220H102.44V202.5H105.905V205.265H106.08C106.78 203.655 108.39 202.255 110.945 202.255C114.585 202.255 115.985 204.915 115.985 208.17V209.325H112.205V208.625C112.205 206.315 111.54 205.475 109.335 205.475C107.06 205.475 106.22 206.35 106.22 208.66V220ZM121.732 200.4H117.987L117.952 196.55H121.732V200.4ZM121.767 220H117.987V202.5H121.767V220ZM132.032 220.35C127.062 220.35 124.367 216.815 124.367 211.285C124.367 205.79 127.027 202.255 131.822 202.255C134.902 202.255 136.757 203.725 137.527 205.3H137.632V196.55H141.377V220H137.912V217.13H137.772C136.932 219.125 135.007 220.35 132.032 220.35ZM128.147 211.285C128.147 215.59 129.512 217.13 132.872 217.13C135.952 217.13 137.632 215.765 137.632 212.86V209.745C137.632 206.84 135.952 205.475 132.872 205.475C129.547 205.475 128.147 207.015 128.147 211.285ZM151.715 218.355C146.92 218.355 144.26 215.205 144.26 210.305C144.26 205.405 146.955 202.255 151.855 202.255C154.655 202.255 156.825 203.445 157.665 205.475H157.805V202.605H161.27V218.74C161.27 223.885 158.26 226.3 153.185 226.3C148.25 226.3 145.17 223.955 145.17 219.755H148.915C148.915 222.135 149.79 222.94 153.29 222.94C156.685 222.94 157.525 221.96 157.525 218.74V215.275H157.385C156.58 216.955 154.55 218.355 151.715 218.355ZM148.04 210.305C148.04 213.875 149.51 215.135 152.8 215.135C155.635 215.135 157.525 213.77 157.525 210.83V209.745C157.525 206.84 155.635 205.475 152.73 205.475C149.475 205.475 148.04 206.735 148.04 210.305ZM172.553 220.35C166.813 220.35 164.118 216.71 164.118 211.285C164.118 205.895 167.338 202.255 172.518 202.255C177.208 202.255 180.498 205.055 180.498 209.815C180.498 210.725 180.393 211.67 180.288 212.195H167.653C167.793 215.38 168.948 216.99 172.588 216.99C175.493 216.99 176.613 216.01 176.613 214.435V214.155H180.358V214.47C180.358 218.04 177.243 220.35 172.553 220.35ZM172.448 205.44C169.158 205.44 167.898 206.98 167.688 209.675H176.893C177.033 206.7 175.423 205.44 172.448 205.44ZM198.262 220.35C192.907 220.35 189.582 216.71 189.582 211.285C189.582 205.895 192.907 202.255 198.262 202.255C203.582 202.255 206.802 205.895 206.802 211.285C206.802 216.71 203.582 220.35 198.262 220.35ZM198.262 216.99C201.902 216.99 203.162 215.205 203.162 211.285C203.162 207.4 201.902 205.615 198.262 205.615C194.587 205.615 193.292 207.4 193.292 211.285C193.292 215.205 194.587 216.99 198.262 216.99ZM213.408 220H209.628V202.605H213.093V205.86H213.233C214.038 204.005 215.893 202.255 219.288 202.255C223.803 202.255 225.833 205.125 225.833 209.08V220H222.053V209.92C222.053 206.805 221.073 205.51 217.888 205.51C214.808 205.51 213.408 206.7 213.408 209.955V220ZM124.979 256H121.234V235.945H113.254V232.55H132.959V235.945H124.979V256ZM137.33 256.35C134.215 256.35 131.8 254.74 131.8 251.695C131.8 248.825 133.9 247.32 137.61 246.795L143.7 245.885V244.94C143.7 242.35 142.51 241.58 139.78 241.58C137.015 241.58 135.93 242.455 135.93 244.765V245.29H132.29V244.94C132.29 241.055 135.335 238.255 139.99 238.255C144.855 238.255 147.305 241.195 147.305 245.43V256H143.805V253.27H143.63C142.615 254.915 140.62 256.35 137.33 256.35ZM135.475 251.415C135.475 252.78 136.35 253.34 138.555 253.34C141.005 253.34 143.7 252.36 143.7 248.86V248.545L138.17 249.385C136.175 249.665 135.475 250.12 135.475 251.415ZM154.459 236.4H150.714L150.679 232.55H154.459V236.4ZM154.494 256H150.714V238.5H154.494V256ZM161.745 256H157.965V232.55H161.745V245.5H165.175L169.83 238.605H174.275L168.22 246.83L174.17 256H169.76L165.21 248.895H161.745V256ZM183.274 256.35C177.919 256.35 174.594 252.71 174.594 247.285C174.594 241.895 177.919 238.255 183.274 238.255C188.594 238.255 191.814 241.895 191.814 247.285C191.814 252.71 188.594 256.35 183.274 256.35ZM183.274 252.99C186.914 252.99 188.174 251.205 188.174 247.285C188.174 243.4 186.914 241.615 183.274 241.615C179.599 241.615 178.304 243.4 178.304 247.285C178.304 251.205 179.599 252.99 183.274 252.99Z" fill="#F3F3F3"/>
<g clip-path="url(#clip0_868_8451)">
<path opacity="0.5" d="M109.413 69.5823L182.818 142.987" stroke="#FF6FC8" stroke-width="3.80642"/>
<rect x="116.908" y="76.9082" width="26.9081" height="26.9081" transform="rotate(180 116.908 76.9082)" fill="#E81899"/>
<rect opacity="0.15" x="203.322" y="163.323" width="75.5488" height="75.5488" transform="rotate(180 203.322 163.323)" fill="white"/>
<rect x="188.711" y="148.732" width="46.6341" height="46.6341" transform="rotate(180 188.711 148.732)" fill="#FF6FC8"/>
</g>
<g filter="url(#filter0_b_868_8451)">
<path d="M306 331V13.6569C306 10.0348 304.561 6.56116 302 4C299.439 1.43884 295.965 0 292.343 0H242.157C238.535 0 235.061 1.43884 232.5 4C229.939 6.56116 226.465 8 222.843 8H20C8.9543 8 0 16.9543 0 28V331C0 342.046 8.9543 351 20 351H286C297.046 351 306 342.046 306 331Z" fill="#C8047D" fill-opacity="0.1"/>
<path d="M305 13.6569V331C305 341.493 296.493 350 286 350H20C9.50659 350 1 341.493 1 331V28C1 17.5066 9.50659 9 20 9H222.843C226.73 9 230.458 7.4558 233.207 4.70711C235.581 2.33349 238.8 1 242.157 1H292.343C295.7 1 298.919 2.33349 301.293 4.70711C303.667 7.08073 305 10.3 305 13.6569Z" stroke="#5D636F" stroke-width="2"/>
</g>
<rect x="20" y="283" width="266" height="48" rx="24" fill="#2B303B"/>
<path d="M126.713 313V301.432H129.065V311.024H134.089V313H126.713ZM139.183 313.16C138.373 313.16 137.666 312.987 137.063 312.64C136.466 312.293 136.002 311.803 135.671 311.168C135.346 310.533 135.183 309.781 135.183 308.912C135.183 308.043 135.346 307.283 135.671 306.632C136.002 305.981 136.466 305.475 137.063 305.112C137.666 304.749 138.375 304.568 139.191 304.568C140.007 304.568 140.714 304.747 141.311 305.104C141.909 305.456 142.37 305.957 142.695 306.608C143.021 307.259 143.183 308.027 143.183 308.912C143.183 309.744 143.023 310.48 142.703 311.12C142.389 311.755 141.933 312.253 141.335 312.616C140.743 312.979 140.026 313.16 139.183 313.16ZM139.191 311.424C139.602 311.424 139.933 311.304 140.183 311.064C140.434 310.824 140.615 310.509 140.727 310.12C140.839 309.725 140.895 309.296 140.895 308.832C140.895 308.395 140.845 307.981 140.743 307.592C140.642 307.203 140.466 306.888 140.215 306.648C139.965 306.408 139.623 306.288 139.191 306.288C138.781 306.288 138.447 306.403 138.191 306.632C137.941 306.856 137.757 307.163 137.639 307.552C137.522 307.936 137.463 308.363 137.463 308.832C137.463 309.264 137.517 309.68 137.623 310.08C137.73 310.475 137.909 310.797 138.159 311.048C138.41 311.299 138.754 311.424 139.191 311.424ZM148.458 313.16C147.69 313.16 147.005 312.989 146.402 312.648C145.8 312.307 145.325 311.819 144.978 311.184C144.637 310.544 144.466 309.781 144.466 308.896C144.466 308.043 144.632 307.291 144.962 306.64C145.293 305.989 145.757 305.483 146.354 305.12C146.957 304.752 147.658 304.568 148.458 304.568C149.152 304.568 149.749 304.709 150.25 304.992C150.757 305.275 151.154 305.656 151.442 306.136C151.736 306.616 151.904 307.152 151.946 307.744H150.002C149.965 307.525 149.888 307.309 149.77 307.096C149.653 306.877 149.488 306.699 149.274 306.56C149.061 306.416 148.794 306.344 148.474 306.344C147.93 306.344 147.488 306.555 147.146 306.976C146.81 307.392 146.642 308.027 146.642 308.88C146.642 309.685 146.808 310.325 147.138 310.8C147.469 311.269 147.93 311.504 148.522 311.504C148.837 311.504 149.098 311.427 149.306 311.272C149.52 311.117 149.685 310.933 149.802 310.72C149.92 310.501 149.994 310.299 150.026 310.112H151.922C151.885 310.683 151.72 311.2 151.426 311.664C151.133 312.123 150.733 312.488 150.226 312.76C149.725 313.027 149.136 313.16 148.458 313.16ZM153.642 313V301.112H155.978V308.16L159.018 304.728H161.53L158.522 308.024L161.634 313H159.306L157.074 309.432L155.978 310.6V313H153.642ZM166.35 313.16C165.528 313.16 164.806 312.989 164.182 312.648C163.563 312.301 163.08 311.813 162.734 311.184C162.387 310.555 162.214 309.813 162.214 308.96C162.214 308.133 162.371 307.389 162.686 306.728C163.006 306.061 163.464 305.536 164.062 305.152C164.659 304.763 165.382 304.568 166.23 304.568C167.072 304.568 167.779 304.747 168.35 305.104C168.92 305.456 169.352 305.949 169.646 306.584C169.939 307.213 170.086 307.941 170.086 308.768V309.4H164.526C164.526 309.821 164.595 310.189 164.734 310.504C164.872 310.813 165.072 311.053 165.334 311.224C165.6 311.389 165.92 311.472 166.294 311.472C166.694 311.472 167.043 311.387 167.342 311.216C167.64 311.045 167.851 310.765 167.974 310.376H170.078C169.982 310.963 169.747 311.464 169.374 311.88C169 312.296 168.547 312.613 168.014 312.832C167.48 313.051 166.926 313.16 166.35 313.16ZM164.526 308.008H167.902C167.902 307.677 167.838 307.373 167.71 307.096C167.587 306.819 167.4 306.6 167.15 306.44C166.904 306.28 166.595 306.2 166.222 306.2C165.864 306.2 165.558 306.288 165.302 306.464C165.051 306.635 164.856 306.859 164.718 307.136C164.584 307.413 164.52 307.704 164.526 308.008ZM174.976 313.16C173.867 313.16 173.003 312.779 172.384 312.016C171.766 311.248 171.456 310.181 171.456 308.816C171.456 307.952 171.582 307.203 171.832 306.568C172.083 305.933 172.454 305.443 172.944 305.096C173.435 304.744 174.035 304.568 174.744 304.568C175.043 304.568 175.32 304.603 175.576 304.672C175.838 304.736 176.075 304.827 176.288 304.944C176.502 305.061 176.688 305.197 176.848 305.352C177.008 305.507 177.139 305.672 177.24 305.848V301.112H179.584V313H177.888L177.624 311.304C177.544 311.533 177.438 311.757 177.304 311.976C177.176 312.195 177.008 312.395 176.8 312.576C176.592 312.752 176.336 312.893 176.032 313C175.734 313.107 175.382 313.16 174.976 313.16ZM175.488 311.48C176.075 311.48 176.512 311.275 176.8 310.864C177.094 310.453 177.24 309.76 177.24 308.784C177.235 308.219 177.168 307.749 177.04 307.376C176.912 307.003 176.72 306.725 176.464 306.544C176.214 306.357 175.894 306.264 175.504 306.264C174.998 306.264 174.576 306.459 174.24 306.848C173.904 307.232 173.736 307.877 173.736 308.784C173.736 309.707 173.894 310.387 174.208 310.824C174.523 311.261 174.95 311.48 175.488 311.48Z" fill="#5D636F"/>
<defs>
<filter id="filter0_b_868_8451" x="-30" y="-30" width="366" height="411" filterUnits="userSpaceOnUse" color-interpolation-filters="sRGB">
<feFlood flood-opacity="0" result="BackgroundImageFix"/>
<feGaussianBlur in="BackgroundImageFix" stdDeviation="15"/>
<feComposite in2="SourceAlpha" operator="in" result="effect1_backgroundBlur_868_8451"/>
<feBlend mode="normal" in="SourceGraphic" in2="effect1_backgroundBlur_868_8451" result="shape"/>
</filter>
<clipPath id="clip0_868_8451">
<rect width="113.778" height="113.778" fill="white" transform="translate(90 50)"/>
</clipPath>
</defs>
</svg>
