<svg width="230" height="230" viewBox="0 0 230 230" fill="none" xmlns="http://www.w3.org/2000/svg">
<g filter="url(#filter0_b_1144_14035)">
<path d="M193.024 39.7064L192.937 39.6202L99.4906 137.212L99.1618 215.534L77.3579 192.765H30.8555V107.975H102.164L180.367 26.3007V-15H48.0722L98.2724 37.4263L66.7389 70.3612L-15 -15V245.094H127.461L99.345 215.728L193.024 117.893V190.188L245.876 245.385L246 94.9411L193.024 39.6202V39.7064Z" fill="#5D08C8" fill-opacity="0.5"/>
<path d="M198.759 -15V16.3825L246 65.7148V-15H198.759Z" fill="#5D08C8" fill-opacity="0.5"/>
</g>
<path d="M193.452 209.325C193.577 209.475 193.777 209.55 193.977 209.55H208.677V211.95L206.627 214H192.077C191.802 214 191.552 213.9 191.352 213.7L188.277 210.15C188.127 209.975 188.052 209.775 188.052 209.55V204.95H190.427L192.502 207V207.95C192.502 208.125 192.552 208.3 192.677 208.425L193.452 209.325ZM214.502 207.8C214.677 208 214.777 208.225 214.777 208.475V211.7L212.477 214H209.902V209.25L207.327 206.725C207.177 206.6 207.002 206.525 206.827 206.525H194.402C194.152 206.525 193.927 206.425 193.752 206.25L188.402 200.925C188.227 200.75 188.127 200.5 188.127 200.25V197.025L190.427 194.725H193.002V199.475L195.477 201.875C195.602 202 195.777 202.075 195.977 202.075H208.377C208.627 202.075 208.877 202.175 209.052 202.35L214.502 207.8ZM214.627 198.575C214.777 198.75 214.852 198.95 214.852 199.175V203.775H212.477L210.402 201.725V200.775C210.402 200.6 210.352 200.425 210.227 200.3L209.452 199.4C209.327 199.25 209.127 199.175 208.927 199.175H194.227V196.775L196.277 194.725L210.877 194.75C211.127 194.75 211.402 194.875 211.577 195.075L214.627 198.575Z" fill="white"/>
<path d="M162.836 202.925L160.761 204.975H158.386V197.275L160.936 194.725H164.211V198.025L163.036 199.175C162.911 199.3 162.836 199.5 162.836 199.675V202.925ZM165.686 202.2H169.736L171.786 204.275V206.65H167.436C167.236 206.65 167.061 206.725 166.911 206.875L163.036 210.75C162.911 210.9 162.836 211.075 162.836 211.25V211.95L160.761 214.025H158.386V209.5C158.386 209.25 158.461 209.025 158.661 208.85L165.011 202.475C165.186 202.3 165.436 202.2 165.686 202.2ZM183.886 194.725L186.436 197.275V204.975H184.036L181.986 202.925V199.675C181.986 199.5 181.911 199.3 181.786 199.175L180.611 198.025V194.725H183.886ZM179.811 202.475L186.161 208.85C186.336 209.025 186.436 209.25 186.436 209.5V214.025H184.036L181.986 211.95V211.25C181.986 211.075 181.911 210.9 181.786 210.75L177.886 206.875C177.761 206.725 177.586 206.65 177.386 206.65H173.036V204.275L175.086 202.2H179.136C179.386 202.2 179.611 202.3 179.811 202.475Z" fill="white"/>
<path d="M134.596 209.55H139.971L142.021 211.625V214H132.671C132.421 214 132.171 213.9 131.971 213.7L128.896 210.15C128.746 210 128.671 209.775 128.671 209.55V199.175C128.671 198.95 128.746 198.75 128.896 198.575L131.971 195.025C132.171 194.825 132.421 194.725 132.671 194.725H141.996V197.1L139.946 199.175H134.596C134.396 199.175 134.196 199.25 134.071 199.4L133.296 200.3C133.171 200.425 133.121 200.6 133.121 200.775V207.95C133.121 208.125 133.171 208.3 133.296 208.425L134.071 209.325C134.196 209.475 134.396 209.55 134.596 209.55ZM156.396 198.575C156.546 198.75 156.621 198.95 156.621 199.175V209.55C156.621 209.775 156.546 210 156.396 210.15L153.296 213.7C153.121 213.9 152.871 214 152.596 214H143.196V211.625L145.246 209.55H150.671C150.896 209.55 151.071 209.475 151.221 209.325L151.996 208.425C152.096 208.3 152.171 208.125 152.171 207.95V200.775C152.171 200.6 152.096 200.425 151.996 200.3L151.221 199.4C151.071 199.25 150.896 199.175 150.671 199.175H145.221L143.171 197.1V194.725H152.596C152.871 194.725 153.121 194.825 153.296 195.025L156.396 198.575Z" fill="white"/>
<path d="M116.442 202.075C116.542 202.075 116.642 202.125 116.717 202.2L126.667 212.15L124.817 214.025H122.242L114.767 206.525H109.717C109.617 206.525 109.517 206.5 109.442 206.425L103.992 200.95V211.95L101.917 214.025H99.542V196.8C99.542 196.7 99.567 196.6 99.642 196.525L101.467 194.725H104.042L111.392 202.075H116.442ZM124.492 194.725H126.892V208.25H124.492L122.442 206.175V196.775L124.492 194.725Z" fill="white"/>
<path d="M87.191 202.075C87.291 202.075 87.391 202.125 87.466 202.2L97.416 212.15L95.566 214.025H92.991L85.516 206.525H80.466C80.366 206.525 80.266 206.5 80.191 206.425L74.741 200.95V211.95L72.666 214.025H70.291V196.8C70.291 196.7 70.316 196.6 70.391 196.525L72.216 194.725H74.791L82.141 202.075H87.191ZM95.241 194.725H97.641V208.25H95.241L93.191 206.175V196.775L95.241 194.725Z" fill="white"/>
<path d="M44.6045 194.725H68.9795V197.1L66.9295 199.175H46.6545L44.6045 197.1V194.725ZM58.9045 202.825V209.55H66.9295L68.9795 211.625V214H44.6045V211.625L46.6545 209.55H54.4545V204.55C54.4545 204.35 54.3795 204.175 54.2545 204.05L53.0795 202.875V200.25H56.3545L58.9045 202.825Z" fill="white"/>
<path d="M19.5594 205.825V209.05C19.5594 209.25 19.6344 209.425 19.7594 209.55L20.9344 210.725V214.025H17.6594L15.1094 211.45V203.75H17.4844L19.5594 205.825ZM23.6344 201.875C23.7844 202 23.9594 202.075 24.1594 202.075H28.5594V204.475L26.5094 206.525H22.4094C22.1594 206.525 21.9094 206.425 21.7344 206.25L15.3844 199.9C15.2094 199.725 15.1094 199.475 15.1094 199.225V194.725H17.4844L19.5594 196.775V197.475C19.5594 197.675 19.6344 197.85 19.7594 197.975L23.6344 201.875ZM40.8844 194.725H43.2594V199.225C43.2594 199.475 43.1844 199.725 43.0094 199.9L36.6344 206.25C36.4594 206.425 36.2094 206.525 35.9844 206.525H31.8594L29.8094 204.475V202.075H34.2094C34.4094 202.075 34.5844 202 34.7344 201.875L38.6094 197.975C38.7594 197.85 38.8094 197.675 38.8094 197.475V196.775L40.8844 194.725ZM38.8094 209.05V205.825L40.8844 203.75H43.2594V211.45L40.7094 214.025H37.4344V210.725L38.6094 209.55C38.7344 209.425 38.8094 209.25 38.8094 209.05Z" fill="white"/>
<path d="M39.7968 29.574L35.6317 23.915C35.1788 23.2995 34.5088 22.9314 33.7959 22.8506C33.6333 22.8321 33.4882 22.7376 33.4074 22.5954C33.3246 22.4532 33.3158 22.2809 33.3811 22.1299C33.6664 21.4716 33.6839 20.7071 33.3762 20.0079L30.5579 13.5718C30.1401 12.6164 29.1965 12 28.1535 12C27.1105 12 26.1668 12.6174 25.7491 13.5718L22.9308 20.0079C22.625 20.7071 22.6406 21.4716 22.9269 22.1299C22.9921 22.2809 22.9824 22.4532 22.9006 22.5954C22.8178 22.7376 22.6746 22.8321 22.512 22.8506C21.7982 22.9314 21.1282 23.3005 20.6763 23.915L16.5112 29.574C15.8928 30.4134 15.8305 31.5392 16.3515 32.4429C16.8734 33.3447 17.8804 33.854 18.9156 33.7391L25.899 32.962C26.6577 32.8782 27.3121 32.4819 27.7377 31.9044C27.8351 31.7719 27.9899 31.694 28.1535 31.694C28.3171 31.694 28.471 31.7719 28.5693 31.9044C28.9959 32.4819 29.6503 32.8773 30.4079 32.962L37.3914 33.7391C38.4266 33.855 39.4335 33.3457 39.9555 32.4429C40.4765 31.5392 40.4142 30.4134 39.7958 29.574H39.7968ZM24.7528 20.8162L27.575 14.3723C27.6763 14.1415 27.9042 13.9925 28.1554 13.9925C28.4067 13.9925 28.6336 14.1415 28.7359 14.3723L31.5581 20.8162C31.6467 21.0188 31.6272 21.2544 31.5055 21.4395C31.3837 21.6245 31.1773 21.7365 30.9543 21.7365H25.3547C25.1326 21.7365 24.9252 21.6245 24.8035 21.4395C24.6817 21.2535 24.6623 21.0188 24.7509 20.8162H24.7518H24.7528ZM26.2019 30.6257C26.1016 30.8244 25.9078 30.9578 25.6867 30.9822L18.6965 31.7593C18.4472 31.7866 18.2037 31.6648 18.0771 31.4477C17.9505 31.2305 17.9671 30.9588 18.1161 30.7562L22.2861 25.0914C22.4176 24.9132 22.6298 24.8109 22.8519 24.8245C23.0739 24.8362 23.2736 24.9589 23.3856 25.1527L23.3894 25.1596L26.1815 29.9947L26.1854 30.0025C26.2974 30.1953 26.3032 30.43 26.2029 30.6277H26.2019V30.6257ZM28.7281 28.4385C28.6092 28.643 28.3911 28.7706 28.1535 28.7706C27.9159 28.7706 27.6977 28.644 27.5789 28.4395L25.4335 24.7252C25.3147 24.5207 25.3147 24.2665 25.4335 24.062C25.5523 23.8575 25.7705 23.7299 26.0081 23.7299H30.2969C30.5336 23.7299 30.7527 23.8546 30.8715 24.0611C30.9903 24.2665 30.9903 24.5197 30.8715 24.7242L28.7281 28.4385ZM38.2328 31.4486C38.1062 31.6658 37.8647 31.7895 37.6134 31.7622L30.6232 30.9851C30.4031 30.9607 30.2083 30.8273 30.108 30.6287C30.0077 30.43 30.0135 30.1953 30.1255 30.0035L30.1294 29.9957L32.9214 25.1605L32.9253 25.1537C33.0373 24.9609 33.237 24.8372 33.459 24.8255C33.681 24.8138 33.8924 24.9141 34.0248 25.0924L38.1948 30.7572C38.3438 30.9607 38.3584 31.2315 38.2338 31.4486H38.2318H38.2328Z" fill="white"/>
<path d="M28.2381 44C25.8449 44 23.9048 45.9401 23.9048 48.3333C23.9048 49.254 24.1919 50.1076 24.6815 50.8095L24.9469 51.1523C25.8513 52.2285 26.381 53.6271 26.381 55.1429C26.381 58.5618 23.6094 61.3333 20.1905 61.3333H18.3333C15.9401 61.3333 14 63.2734 14 65.6667C14 68.0599 15.9401 70 18.3333 70C20.4535 70 22.218 68.4774 22.5931 66.466C22.9589 63.7432 25.4151 61.3333 28.2381 61.3333C31.0611 61.3333 33.5173 63.7432 33.8831 66.466C34.2582 68.4774 36.0227 70 38.1429 70C40.5361 70 42.4762 68.0599 42.4762 65.6667C42.4762 63.2734 40.5361 61.3333 38.1429 61.3333H36.2857C32.8668 61.3333 30.0952 58.5618 30.0952 55.1429C30.0952 53.6771 30.6046 52.3304 31.4561 51.2699L31.8826 50.6785C32.3185 50.0026 32.5714 49.1975 32.5714 48.3333C32.5714 45.9401 30.6313 44 28.2381 44Z" fill="white"/>
<defs>
<filter id="filter0_b_1144_14035" x="-35" y="-35" width="301" height="300.385" filterUnits="userSpaceOnUse" color-interpolation-filters="sRGB">
<feFlood flood-opacity="0" result="BackgroundImageFix"/>
<feGaussianBlur in="BackgroundImageFix" stdDeviation="10"/>
<feComposite in2="SourceAlpha" operator="in" result="effect1_backgroundBlur_1144_14035"/>
<feBlend mode="normal" in="SourceGraphic" in2="effect1_backgroundBlur_1144_14035" result="shape"/>
</filter>
</defs>
</svg>
