<svg width="230" height="230" viewBox="0 0 230 230" fill="none" xmlns="http://www.w3.org/2000/svg">
<g filter="url(#filter0_b_1144_14034)">
<path d="M-11.4405 142.746V216.374L39.4099 266H137.822L190.516 214.575V196.297L116.648 124.203H96.0161L24.0228 53.9453H-33V70.7082L115.613 215.736H61.3922L41.7955 196.613V174.94L8.64214 142.588L-11.4405 142.746Z" fill="#851A68" fill-opacity="0.5"/>
<path d="M241.139 86.2539V12.626L190.289 -37H91.8763L39.1768 14.431V32.7086L113.051 104.797H133.683L205.676 175.054H262.699V158.291L114.086 13.2634H168.306L187.903 32.3867V54.0598L221.05 86.418L241.139 86.2539Z" fill="#851A68" fill-opacity="0.5"/>
<path d="M-33 -36.9811V8.27745L-7.67265 32.9989H19.0937V-13.1243L-5.36901 -37L-33 -36.9811Z" fill="#851A68" fill-opacity="0.5"/>
<path d="M262.698 265.806V220.541L237.371 195.826H210.604V241.949L235.067 265.825L262.698 265.806Z" fill="#851A68" fill-opacity="0.5"/>
</g>
<circle cx="20.0782" cy="48.0782" r="4.07821" fill="white"/>
<circle cx="20.0782" cy="63.8477" r="4.07821" fill="white"/>
<circle cx="36.1202" cy="63.8477" r="4.07821" fill="white"/>
<circle cx="36.1202" cy="48.0782" r="4.07821" fill="white"/>
<circle cx="28.2345" cy="55.963" r="4.07821" fill="white"/>
<path d="M39.7968 29.574L35.6317 23.915C35.1788 23.2995 34.5088 22.9314 33.7959 22.8506C33.6333 22.8321 33.4882 22.7376 33.4074 22.5954C33.3246 22.4532 33.3158 22.2809 33.3811 22.1299C33.6664 21.4716 33.6839 20.7071 33.3762 20.0079L30.5579 13.5718C30.1401 12.6164 29.1965 12 28.1535 12C27.1105 12 26.1668 12.6174 25.7491 13.5718L22.9308 20.0079C22.625 20.7071 22.6406 21.4716 22.9269 22.1299C22.9921 22.2809 22.9824 22.4532 22.9006 22.5954C22.8178 22.7376 22.6746 22.8321 22.512 22.8506C21.7982 22.9314 21.1282 23.3005 20.6763 23.915L16.5112 29.574C15.8928 30.4134 15.8305 31.5392 16.3515 32.4429C16.8734 33.3447 17.8804 33.854 18.9156 33.7391L25.899 32.962C26.6577 32.8782 27.3121 32.4819 27.7377 31.9044C27.8351 31.7719 27.9899 31.694 28.1535 31.694C28.3171 31.694 28.471 31.7719 28.5693 31.9044C28.9959 32.4819 29.6503 32.8773 30.4079 32.962L37.3914 33.7391C38.4266 33.855 39.4335 33.3457 39.9555 32.4429C40.4765 31.5392 40.4142 30.4134 39.7958 29.574H39.7968ZM24.7528 20.8162L27.575 14.3723C27.6763 14.1415 27.9042 13.9925 28.1554 13.9925C28.4067 13.9925 28.6336 14.1415 28.7359 14.3723L31.5581 20.8162C31.6467 21.0188 31.6272 21.2544 31.5055 21.4395C31.3837 21.6245 31.1773 21.7365 30.9543 21.7365H25.3547C25.1326 21.7365 24.9252 21.6245 24.8035 21.4395C24.6817 21.2535 24.6623 21.0188 24.7509 20.8162H24.7518H24.7528ZM26.2019 30.6257C26.1016 30.8244 25.9078 30.9578 25.6867 30.9822L18.6965 31.7593C18.4472 31.7866 18.2037 31.6648 18.0771 31.4477C17.9505 31.2305 17.9671 30.9588 18.1161 30.7562L22.2861 25.0914C22.4176 24.9132 22.6298 24.8109 22.8519 24.8245C23.0739 24.8362 23.2736 24.9589 23.3856 25.1527L23.3894 25.1596L26.1815 29.9947L26.1854 30.0025C26.2974 30.1953 26.3032 30.43 26.2029 30.6277H26.2019V30.6257ZM28.7281 28.4385C28.6092 28.643 28.3911 28.7706 28.1535 28.7706C27.9159 28.7706 27.6977 28.644 27.5789 28.4395L25.4335 24.7252C25.3147 24.5207 25.3147 24.2665 25.4335 24.062C25.5523 23.8575 25.7705 23.7299 26.0081 23.7299H30.2969C30.5336 23.7299 30.7527 23.8546 30.8715 24.0611C30.9903 24.2665 30.9903 24.5197 30.8715 24.7242L28.7281 28.4385ZM38.2328 31.4486C38.1062 31.6658 37.8647 31.7895 37.6134 31.7622L30.6232 30.9851C30.4031 30.9607 30.2083 30.8273 30.108 30.6287C30.0077 30.43 30.0135 30.1953 30.1255 30.0035L30.1294 29.9957L32.9214 25.1605L32.9253 25.1537C33.0373 24.9609 33.237 24.8372 33.459 24.8255C33.681 24.8138 33.8924 24.9141 34.0248 25.0924L38.1948 30.7572C38.3438 30.9607 38.3584 31.2315 38.2338 31.4486H38.2318H38.2328Z" fill="white"/>
<path d="M178.57 209.325C178.695 209.475 178.895 209.55 179.095 209.55H193.795V211.95L191.745 214H177.195C176.92 214 176.67 213.9 176.47 213.7L173.395 210.15C173.245 209.975 173.17 209.775 173.17 209.55V204.95H175.545L177.62 207V207.95C177.62 208.125 177.67 208.3 177.795 208.425L178.57 209.325ZM199.62 207.8C199.795 208 199.895 208.225 199.895 208.475V211.7L197.595 214H195.02V209.25L192.445 206.725C192.295 206.6 192.12 206.525 191.945 206.525H179.52C179.27 206.525 179.045 206.425 178.87 206.25L173.52 200.925C173.345 200.75 173.245 200.5 173.245 200.25V197.025L175.545 194.725H178.12V199.475L180.595 201.875C180.72 202 180.895 202.075 181.095 202.075H193.495C193.745 202.075 193.995 202.175 194.17 202.35L199.62 207.8ZM199.745 198.575C199.895 198.75 199.97 198.95 199.97 199.175V203.775H197.595L195.52 201.725V200.775C195.52 200.6 195.47 200.425 195.345 200.3L194.57 199.4C194.445 199.25 194.245 199.175 194.045 199.175H179.345V196.775L181.395 194.725L195.995 194.75C196.245 194.75 196.52 194.875 196.695 195.075L199.745 198.575Z" fill="white"/>
<path d="M151.309 209.55H169.934L171.984 211.625V214H149.409C149.134 214 148.884 213.9 148.684 213.7L145.609 210.15C145.459 210 145.384 209.775 145.384 209.55V204.625H147.759L149.834 206.675V207.95C149.834 208.125 149.884 208.3 150.009 208.425L150.784 209.325C150.909 209.475 151.109 209.55 151.309 209.55ZM145.659 200.95C145.484 200.775 145.384 200.55 145.384 200.3V199.325V194.725H148.359L150.434 196.775V199.15C150.434 199.325 150.509 199.525 150.634 199.65L152.909 201.85C153.034 202 153.209 202.075 153.409 202.075H169.784V204.45L167.734 206.5H151.584C151.334 206.5 151.109 206.425 150.934 206.25L145.659 200.95ZM153.609 194.725H171.984V197.1L169.934 199.175H151.559V196.775L153.609 194.725Z" fill="white"/>
<path d="M124.084 208.575H120.234L118.159 206.5V206.025V197.35L120.784 194.725H124.209V198.175L123.009 199.375C122.884 199.475 122.809 199.625 122.809 199.8V203.95C122.809 204.15 122.884 204.325 123.034 204.475C123.309 204.75 123.909 205.375 124.084 205.55V208.575ZM141.584 204.025H143.984V209.625C143.984 209.85 143.909 210.075 143.759 210.225L140.659 213.775C140.484 213.975 140.234 214.075 139.959 214.075H118.209V211.7L120.259 209.625H138.034C138.259 209.625 138.459 209.55 138.584 209.4L139.359 208.5C139.484 208.375 139.534 208.2 139.534 208.025V206.075L141.584 204.025Z" fill="white"/>
<path d="M109.767 202.35L116.142 208.725C116.317 208.9 116.417 209.125 116.417 209.375V214H114.017L111.967 211.95V211.125C111.967 210.925 111.892 210.75 111.742 210.625L107.867 206.725C107.717 206.6 107.542 206.525 107.367 206.525H98.6174C98.4174 206.525 98.2424 206.6 98.0924 206.725L94.2174 210.625C94.0924 210.75 94.0174 210.925 94.0174 211.125V211.95L91.9424 214H89.5674V209.375C89.5674 209.125 89.6674 208.9 89.8424 208.725L96.1924 202.35C96.3674 202.175 96.6174 202.075 96.8674 202.075H109.117C109.367 202.075 109.592 202.175 109.767 202.35ZM116.167 198.575C116.317 198.75 116.417 198.95 116.417 199.175V204.8H114.017L111.967 202.725V200.775C111.967 200.6 111.892 200.425 111.767 200.3L110.992 199.4C110.867 199.25 110.667 199.175 110.467 199.175H95.4924C95.2924 199.175 95.0924 199.25 94.9674 199.4L94.1924 200.3C94.0674 200.425 94.0174 200.6 94.0174 200.775V202.725L91.9424 204.8H89.5674V199.175C89.5674 198.95 89.6424 198.75 89.7924 198.575L92.8674 195.025C93.0674 194.825 93.3174 194.725 93.5924 194.725H112.392C112.642 194.725 112.917 194.825 113.092 195.025L116.167 198.575Z" fill="white"/>
<path d="M83.2262 199.6C83.2262 199.425 83.1512 199.25 83.0262 199.1L81.8512 197.925V194.725H85.1262L87.6762 197.275V204.8H85.2762L83.2262 202.75V199.6ZM65.4012 202.75L63.3262 204.8H60.9512V197.275L63.5012 194.725H66.7762V197.925L65.6012 199.1C65.4762 199.25 65.4012 199.425 65.4012 199.6V202.75ZM87.4012 208.725C87.5762 208.9 87.6762 209.125 87.6762 209.375V214H85.2762L83.2262 211.95V211.125C83.2262 210.925 83.1512 210.75 83.0262 210.625L79.1262 206.725C79.0012 206.6 78.8262 206.525 78.6262 206.525H70.0012C69.8012 206.525 69.6262 206.6 69.4762 206.725L65.6012 210.625C65.4762 210.75 65.4012 210.925 65.4012 211.125V211.95L63.3262 214H60.9512V209.375C60.9512 209.125 61.0512 208.9 61.2262 208.725L67.5762 202.35C67.7512 202.175 68.0012 202.075 68.2512 202.075H80.3762C80.6262 202.075 80.8762 202.175 81.0512 202.35L87.4012 208.725Z" fill="white"/>
<path d="M35.4422 202.925L33.3672 204.975H30.9922V197.275L33.5422 194.725H36.8172V198.025L35.6422 199.175C35.5172 199.3 35.4422 199.5 35.4422 199.675V202.925ZM38.2922 202.2H42.3422L44.3922 204.275V206.65H40.0422C39.8422 206.65 39.6672 206.725 39.5172 206.875L35.6422 210.75C35.5172 210.9 35.4422 211.075 35.4422 211.25V211.95L33.3672 214.025H30.9922V209.5C30.9922 209.25 31.0672 209.025 31.2672 208.85L37.6172 202.475C37.7922 202.3 38.0422 202.2 38.2922 202.2ZM56.4922 194.725L59.0422 197.275V204.975H56.6422L54.5922 202.925V199.675C54.5922 199.5 54.5172 199.3 54.3922 199.175L53.2172 198.025V194.725H56.4922ZM52.4172 202.475L58.7672 208.85C58.9422 209.025 59.0422 209.25 59.0422 209.5V214.025H56.6422L54.5922 211.95V211.25C54.5922 211.075 54.5172 210.9 54.3922 210.75L50.4922 206.875C50.3672 206.725 50.1922 206.65 49.9922 206.65H45.6422V204.275L47.6922 202.2H51.7422C51.9922 202.2 52.2172 202.3 52.4172 202.475Z" fill="white"/>
<defs>
<filter id="filter0_b_1144_14034" x="-53" y="-57" width="335.698" height="343" filterUnits="userSpaceOnUse" color-interpolation-filters="sRGB">
<feFlood flood-opacity="0" result="BackgroundImageFix"/>
<feGaussianBlur in="BackgroundImageFix" stdDeviation="10"/>
<feComposite in2="SourceAlpha" operator="in" result="effect1_backgroundBlur_1144_14034"/>
<feBlend mode="normal" in="SourceGraphic" in2="effect1_backgroundBlur_1144_14034" result="shape"/>
</filter>
</defs>
</svg>
