<svg width="247" height="390" viewBox="0 0 247 390" fill="none" xmlns="http://www.w3.org/2000/svg">
<path d="M238.6 23.8135C238.466 35.1927 229.133 44.3092 217.754 44.1759C206.375 44.0425 197.259 34.7098 197.392 23.3306C197.526 11.9514 206.858 2.83491 218.237 2.96826C229.616 3.10161 238.733 12.4344 238.6 23.8135Z" fill="#77C2AA" fill-opacity="0.46" stroke="#77C2AA" stroke-width="0.927677"/>
<path d="M195.235 117.542L195.231 117.538L121.694 42.2577C121.019 41.5668 120.112 41.1836 119.152 41.1724L104.025 40.9951C102.541 40.9777 101.357 39.765 101.374 38.2813L101.743 6.76549C101.761 5.28178 102.973 4.09718 104.457 4.11457L140.652 4.53873C141.367 4.54711 142.048 4.83999 142.541 5.34463L234.947 99.942C235.448 100.455 235.717 101.133 235.709 101.85L235.541 116.12C235.524 117.604 234.311 118.789 232.827 118.771L197.129 118.353C196.414 118.345 195.734 118.053 195.242 117.55C195.241 117.549 195.24 117.548 195.239 117.547L195.235 117.542Z" fill="#77C2AA" fill-opacity="0.46" stroke="#77C2AA" stroke-width="0.927677"/>
<path d="M136.996 332.292C137.027 330.9 138.121 329.775 139.488 329.679L139.701 329.681L153.647 329.845C155.13 329.862 156.315 331.075 156.297 332.558L155.921 364.687C155.904 366.171 154.691 367.356 153.207 367.338L138.855 367.17C137.356 367.152 136.165 365.916 136.205 364.418L136.205 364.417L136.996 332.293L136.996 332.292Z" fill="#77C2AA" fill-opacity="0.46" stroke="#77C2AA" stroke-width="0.927677"/>
<path d="M196.012 141.677L196.015 141.46C196.143 140.081 197.323 139.003 198.742 139.027C198.742 139.027 198.742 139.027 198.742 139.027L232.229 139.627L232.23 139.627C233.705 139.652 234.882 140.864 234.865 142.34L234.462 176.705C234.453 177.421 234.169 178.093 233.656 178.594L157.883 252.612C157.378 253.104 156.691 253.381 155.975 253.373L64.1053 252.296C62.6216 252.279 61.437 251.066 61.4544 249.583L61.8339 217.201C61.8513 215.718 63.064 214.533 64.5477 214.55L136.468 215.393C137.428 215.404 138.344 215.043 139.035 214.368L194.743 159.951C195.424 159.285 195.817 158.369 195.828 157.408L196.012 141.677Z" fill="#77C2AA" fill-opacity="0.46" stroke="#77C2AA" stroke-width="0.927677"/>
<path d="M133.676 271.837C135.101 271.839 136.261 272.941 136.36 274.327L136.357 274.551L135.958 308.618C135.94 310.102 134.728 311.286 133.244 311.269L117.495 311.084C116.534 311.073 115.609 311.444 114.928 312.11L39.7757 385.521C39.2627 386.022 38.5845 386.291 37.8679 386.283L3.15182 385.876C1.66812 385.859 0.483508 384.646 0.500896 383.162L0.676791 368.152C0.685178 367.437 0.978108 366.756 1.48272 366.263L1.16073 365.933L1.48272 366.263L97.3386 272.628C97.8353 272.142 98.5161 271.865 99.2157 271.866L99.2164 271.866L133.675 271.837C133.675 271.837 133.675 271.837 133.676 271.837Z" fill="#77C2AA" fill-opacity="0.46" stroke="#77C2AA" stroke-width="0.927677"/>
<path d="M160.545 273.099L160.536 273.09L195.528 273.5C196.244 273.508 196.925 273.801 197.418 274.306L241.251 319.178C241.752 319.691 242.021 320.369 242.012 321.086L241.93 328.091C241.913 329.574 240.7 330.759 239.217 330.742L195.26 330.226C194.545 330.218 193.864 329.925 193.371 329.421L176.025 311.663C175.35 310.972 174.443 310.589 173.483 310.578L159.582 310.415C158.12 310.398 156.936 309.215 156.93 307.748L156.93 307.746L156.691 275.791L156.691 275.79C156.678 274.284 157.907 273.068 159.406 273.085L160.545 273.099Z" fill="#77C2AA" fill-opacity="0.46" stroke="#77C2AA" stroke-width="0.927677"/>
</svg>
