<svg width="335" height="216" viewBox="0 0 335 216" fill="none" xmlns="http://www.w3.org/2000/svg">
<path opacity="0.05" fill-rule="evenodd" clip-rule="evenodd" d="M240.597 36.8618C234.984 36.8618 230.434 32.3118 230.434 26.6991V-6.83739C230.434 -12.45 225.884 -17 220.272 -17L98.3203 -17C92.7077 -17 88.1577 -12.4501 88.1577 -6.83741L88.1577 26.6992C88.1577 32.3118 83.6078 36.8618 77.9951 36.8618H44.4585C38.8458 36.8618 34.2959 41.4117 34.2959 47.0244V168.976C34.2959 174.588 38.8458 179.138 44.4585 179.138H77.9951C83.6078 179.138 88.1577 183.688 88.1577 189.301L88.1577 222.837C88.1577 228.45 92.7077 233 98.3203 233H220.272C225.884 233 230.434 228.45 230.434 222.837V189.301C230.434 183.688 234.984 179.138 240.597 179.138H274.133C279.746 179.138 284.296 174.588 284.296 168.976V47.0244C284.296 41.4117 279.746 36.8618 274.133 36.8618H240.597Z" fill="#E81899"/>
<path opacity="0.1" fill-rule="evenodd" clip-rule="evenodd" d="M219.256 1.29253C219.256 -2.63632 216.071 -5.82129 212.142 -5.82129H106.451C102.522 -5.82129 99.3369 -2.63632 99.3369 1.29253V40.9268C99.3369 44.8557 96.1519 48.0406 92.223 48.0406L52.5889 48.0406C48.6601 48.0406 45.4751 51.2256 45.4751 55.1545L45.4751 160.846C45.4751 164.774 48.6601 167.959 52.5889 167.959H92.223C96.1519 167.959 99.3369 171.144 99.3369 175.073V214.707C99.3369 218.636 102.522 221.821 106.451 221.821H212.142C216.071 221.821 219.256 218.636 219.256 214.707V175.073C219.256 171.144 222.441 167.959 226.369 167.959H266.004C269.932 167.959 273.117 164.774 273.117 160.846V55.1545C273.117 51.2256 269.932 48.0406 266.004 48.0406L226.369 48.0406C222.441 48.0406 219.256 44.8557 219.256 40.9268V1.29253Z" fill="#E81899"/>
<path opacity="0.2" fill-rule="evenodd" clip-rule="evenodd" d="M208.077 12.4712C208.077 8.54239 204.892 5.35742 200.963 5.35742H117.63C113.701 5.35742 110.516 8.54239 110.516 12.4712V52.1057C110.516 56.0345 107.331 59.2195 103.402 59.2195L63.7681 59.2195C59.8393 59.2195 56.6543 62.4045 56.6543 66.3333L56.6543 149.667C56.6543 153.595 59.8393 156.78 63.7681 156.78H103.402C107.331 156.78 110.516 159.965 110.516 163.894V203.528C110.516 207.457 113.701 210.642 117.63 210.642H200.963C204.892 210.642 208.077 207.457 208.077 203.528V163.894C208.077 159.965 211.262 156.78 215.191 156.78H254.825C258.754 156.78 261.939 153.595 261.939 149.667V66.3333C261.939 62.4045 258.754 59.2195 254.825 59.2195L215.191 59.2195C211.262 59.2195 208.077 56.0345 208.077 52.1057V12.4712Z" fill="#E81899"/>
<path opacity="0.3" fill-rule="evenodd" clip-rule="evenodd" d="M196.898 22.6347C196.898 19.2671 194.168 16.5371 190.8 16.5371H127.792C124.424 16.5371 121.694 19.2671 121.694 22.6347V64.3004C121.694 67.668 118.964 70.3979 115.597 70.3979H73.9301C70.5625 70.3979 67.8325 73.1279 67.8325 76.4955V139.504C67.8325 142.871 70.5625 145.601 73.9301 145.601H115.597C118.964 145.601 121.694 148.331 121.694 151.699V193.366C121.694 196.734 124.424 199.464 127.792 199.464H190.8C194.168 199.464 196.898 196.734 196.898 193.366V151.699C196.898 148.331 199.628 145.601 202.995 145.601H244.662C248.029 145.601 250.759 142.871 250.759 139.504V76.4955C250.759 73.1279 248.029 70.3979 244.662 70.3979H202.995C199.628 70.3979 196.898 67.668 196.898 64.3004V22.6347Z" fill="#E81899"/>
<path d="M138.545 188.284C135.278 188.284 132.629 185.635 132.629 182.368L132.629 144.833C132.629 143.292 133.23 141.812 134.305 140.707L155.013 119.424C157.336 117.036 161.171 117.036 163.494 119.424L184.203 140.707C185.277 141.812 185.879 143.292 185.879 144.833L185.879 182.368C185.879 185.635 183.23 188.284 179.962 188.284L138.545 188.284Z" fill="#E81899"/>
<path d="M239.581 128.747C239.581 132.015 236.932 134.664 233.664 134.664L196.13 134.664C194.589 134.664 193.109 134.063 192.004 132.988L170.721 112.28C168.333 109.957 168.333 106.121 170.721 103.798L192.004 83.0902C193.109 82.0155 194.589 81.4141 196.13 81.4141L233.664 81.4141C236.932 81.4141 239.581 84.0631 239.581 87.3308L239.581 128.747Z" fill="#E81899"/>
<path d="M138.545 27.7157C135.278 27.7157 132.629 30.3647 132.629 33.6324L132.629 71.1664C132.629 72.7075 133.23 74.1878 134.305 75.2924L155.013 96.576C157.336 98.9635 161.171 98.9635 163.494 96.576L184.203 75.2924C185.277 74.1878 185.879 72.7075 185.879 71.1664L185.879 33.6324C185.879 30.3647 183.23 27.7157 179.962 27.7157L138.545 27.7157Z" fill="#E81899"/>
<path d="M79.0117 128.747C79.0117 132.015 81.6607 134.664 84.9284 134.664L122.462 134.664C124.004 134.664 125.484 134.063 126.588 132.988L147.872 112.28C150.26 109.957 150.26 106.121 147.872 103.798L126.588 83.0902C125.484 82.0155 124.004 81.4142 122.462 81.4142L84.9284 81.4142C81.6607 81.4142 79.0117 84.0631 79.0117 87.3308L79.0117 128.747Z" fill="#E81899"/>
<g filter="url(#filter0_d_2732_16691)">
<path d="M95.7246 107.299L112.735 90.289L112.735 124.31L95.7246 107.299Z" fill="white"/>
</g>
<g filter="url(#filter1_d_2732_16691)">
<path d="M159.331 170.907L142.32 153.897L176.341 153.897L159.331 170.907Z" fill="white"/>
</g>
<g filter="url(#filter2_d_2732_16691)">
<path d="M222.938 107.299L205.927 90.289L205.927 124.31L222.938 107.299Z" fill="white"/>
</g>
<g filter="url(#filter3_d_2732_16691)">
<path d="M159.331 43.6934L142.32 60.7036L176.341 60.7036L159.331 43.6934Z" fill="white"/>
</g>
<rect x="25.271" y="38.9121" width="6.31745" height="6.31745" transform="rotate(-45 25.271 38.9121)" fill="#FF6FC8"/>
<rect x="329.422" y="111.183" width="3.86074" height="3.86074" transform="rotate(-45 329.422 111.183)" fill="#FF6FC8"/>
<rect x="301.444" y="85.75" width="6.18622" height="6.18622" transform="rotate(-45 301.444 85.75)" fill="#FF6FC8"/>
<rect x="305.957" y="132.392" width="10.8805" height="10.8805" transform="rotate(-45 305.957 132.392)" fill="white"/>
<rect x="67.6895" y="175.508" width="6.76175" height="6.76175" transform="rotate(-45 67.6895 175.508)" fill="white"/>
<rect y="60.752" width="9.12431" height="9.12431" transform="rotate(-45 0 60.752)" fill="white"/>
<defs>
<filter id="filter0_d_2732_16691" x="86.8754" y="82.704" width="34.7086" height="51.7189" filterUnits="userSpaceOnUse" color-interpolation-filters="sRGB">
<feFlood flood-opacity="0" result="BackgroundImageFix"/>
<feColorMatrix in="SourceAlpha" type="matrix" values="0 0 0 0 0 0 0 0 0 0 0 0 0 0 0 0 0 0 127 0" result="hardAlpha"/>
<feOffset dy="1.26417"/>
<feGaussianBlur stdDeviation="4.4246"/>
<feColorMatrix type="matrix" values="0 0 0 0 0.629167 0 0 0 0 0.452388 0 0 0 0 0.00524306 0 0 0 0.3 0"/>
<feBlend mode="normal" in2="BackgroundImageFix" result="effect1_dropShadow_2732_16691"/>
<feBlend mode="normal" in="SourceGraphic" in2="effect1_dropShadow_2732_16691" result="shape"/>
</filter>
<filter id="filter1_d_2732_16691" x="133.471" y="146.311" width="51.7189" height="34.7091" filterUnits="userSpaceOnUse" color-interpolation-filters="sRGB">
<feFlood flood-opacity="0" result="BackgroundImageFix"/>
<feColorMatrix in="SourceAlpha" type="matrix" values="0 0 0 0 0 0 0 0 0 0 0 0 0 0 0 0 0 0 127 0" result="hardAlpha"/>
<feOffset dy="1.26417"/>
<feGaussianBlur stdDeviation="4.4246"/>
<feColorMatrix type="matrix" values="0 0 0 0 0.629167 0 0 0 0 0.452388 0 0 0 0 0.00524306 0 0 0 0.3 0"/>
<feBlend mode="normal" in2="BackgroundImageFix" result="effect1_dropShadow_2732_16691"/>
<feBlend mode="normal" in="SourceGraphic" in2="effect1_dropShadow_2732_16691" result="shape"/>
</filter>
<filter id="filter2_d_2732_16691" x="197.078" y="82.704" width="34.7086" height="51.7189" filterUnits="userSpaceOnUse" color-interpolation-filters="sRGB">
<feFlood flood-opacity="0" result="BackgroundImageFix"/>
<feColorMatrix in="SourceAlpha" type="matrix" values="0 0 0 0 0 0 0 0 0 0 0 0 0 0 0 0 0 0 127 0" result="hardAlpha"/>
<feOffset dy="1.26417"/>
<feGaussianBlur stdDeviation="4.4246"/>
<feColorMatrix type="matrix" values="0 0 0 0 0.629167 0 0 0 0 0.452388 0 0 0 0 0.00524306 0 0 0 0.3 0"/>
<feBlend mode="normal" in2="BackgroundImageFix" result="effect1_dropShadow_2732_16691"/>
<feBlend mode="normal" in="SourceGraphic" in2="effect1_dropShadow_2732_16691" result="shape"/>
</filter>
<filter id="filter3_d_2732_16691" x="133.471" y="36.1083" width="51.7189" height="34.7091" filterUnits="userSpaceOnUse" color-interpolation-filters="sRGB">
<feFlood flood-opacity="0" result="BackgroundImageFix"/>
<feColorMatrix in="SourceAlpha" type="matrix" values="0 0 0 0 0 0 0 0 0 0 0 0 0 0 0 0 0 0 127 0" result="hardAlpha"/>
<feOffset dy="1.26417"/>
<feGaussianBlur stdDeviation="4.4246"/>
<feColorMatrix type="matrix" values="0 0 0 0 0.629167 0 0 0 0 0.452388 0 0 0 0 0.00524306 0 0 0 0.3 0"/>
<feBlend mode="normal" in2="BackgroundImageFix" result="effect1_dropShadow_2732_16691"/>
<feBlend mode="normal" in="SourceGraphic" in2="effect1_dropShadow_2732_16691" result="shape"/>
</filter>
</defs>
</svg>
