<svg width="32" height="32" viewBox="0 0 32 32" fill="none" xmlns="http://www.w3.org/2000/svg">
<circle cx="16" cy="16" r="16" fill="#E81899"/>
<path fill-rule="evenodd" clip-rule="evenodd" d="M13.5 10.5C12.9477 10.5 12.5 10.9477 12.5 11.5L12.5 20.5C12.5 21.0523 12.9477 21.5 13.5 21.5H17.5C18.0523 21.5 18.5 21.0523 18.5 20.5V18C18.5 17.7239 18.7239 17.5 19 17.5C19.2761 17.5 19.5 17.7239 19.5 18V20.5C19.5 21.6046 18.6046 22.5 17.5 22.5H13.5C12.3954 22.5 11.5 21.6046 11.5 20.5L11.5 11.5C11.5 10.3954 12.3954 9.5 13.5 9.5L17.5 9.5C18.6046 9.5 19.5 10.3954 19.5 11.5V14C19.5 14.2761 19.2761 14.5 19 14.5C18.7239 14.5 18.5 14.2761 18.5 14V11.5C18.5 10.9477 18.0523 10.5 17.5 10.5L13.5 10.5ZM20.6464 13.6464C20.8417 13.4512 21.1583 13.4512 21.3536 13.6464L23.3536 15.6464C23.5488 15.8417 23.5488 16.1583 23.3536 16.3536L21.3536 18.3536C21.1583 18.5488 20.8417 18.5488 20.6464 18.3536C20.4512 18.1583 20.4512 17.8417 20.6464 17.6464L21.7929 16.5L14.5 16.5C14.2239 16.5 14 16.2761 14 16C14 15.7239 14.2239 15.5 14.5 15.5L21.7929 15.5L20.6464 14.3536C20.4512 14.1583 20.4512 13.8417 20.6464 13.6464Z" fill="#F3F3F3"/>
</svg>
