<svg width="24" height="24" viewBox="0 0 24 24" fill="none" xmlns="http://www.w3.org/2000/svg">
<circle cx="12" cy="12" r="12" fill="url(#paint0_linear_674_3156)"/>
<path d="M11.4959 7.30727C11.7071 6.89758 12.2929 6.89758 12.5041 7.30727L13.8456 9.91012C13.8997 10.015 13.985 10.1003 14.0899 10.1544L16.6927 11.4959C17.1024 11.7071 17.1024 12.2929 16.6927 12.5041L14.0899 13.8456C13.985 13.8997 13.8997 13.985 13.8456 14.0899L12.5041 16.6927C12.2929 17.1024 11.7071 17.1024 11.4959 16.6927L10.1544 14.0899C10.1003 13.985 10.015 13.8997 9.91012 13.8456L7.30727 12.5041C6.89758 12.2929 6.89758 11.7071 7.30727 11.4959L9.91012 10.1544C10.015 10.1003 10.1003 10.015 10.1544 9.91012L11.4959 7.30727Z" fill="url(#paint1_linear_674_3156)"/>
<defs>
<linearGradient id="paint0_linear_674_3156" x1="18" y1="5.36442e-07" x2="0" y2="24" gradientUnits="userSpaceOnUse">
<stop stop-color="#43A1FF"/>
<stop offset="0.455008" stop-color="#98C1E9"/>
<stop offset="1" stop-color="#0057AD"/>
</linearGradient>
<linearGradient id="paint1_linear_674_3156" x1="15.5" y1="7" x2="9" y2="16" gradientUnits="userSpaceOnUse">
<stop offset="0.113522" stop-color="#BEDEFF"/>
<stop offset="0.549093" stop-color="white"/>
<stop offset="1" stop-color="#BEDEFF"/>
</linearGradient>
</defs>
</svg>
